<svg width="2606" height="2606" viewBox="0 0 2606 2606" fill="none" xmlns="http://www.w3.org/2000/svg">
<rect width="2606" height="2606" fill="white"/>
<path d="M160.481 111.917C160.481 130.094 160.481 148.272 160.481 166.449C160.481 174.483 159.621 175.777 168.443 175.313C196.493 173.836 224.469 169.242 252.345 165.999C292.713 161.301 332.601 159.238 373.203 159.238C385.933 159.238 399.023 158.418 411.661 160.29C413.992 160.635 416.137 162.031 415.116 159.99C409.894 149.546 405.079 138.861 399.943 128.367C394.055 116.334 386.527 99.6728 372.452 95.2416C359.828 91.2673 343.28 92.4539 330.238 91.6361C307.652 90.2198 285.205 87.58 262.56 87.58C239.076 87.58 216.09 87.7256 192.93 91.9366C177.279 94.7821 168.187 109.213 152.368 109.213" stroke="black" stroke-width="4" stroke-linecap="round" stroke-linejoin="round"/>
<path d="M249.396 125.437C272.426 124.694 295.284 122.733 318.35 122.733" stroke="black" stroke-width="4" stroke-linecap="round" stroke-linejoin="round"/>
<path d="M168.204 224.137C168.204 253.537 170.126 282.695 170.908 312.02C170.979 314.689 170.397 319.19 174.138 317.052C189.797 308.104 208.282 305.715 225.891 303.307C276.317 296.409 325.957 298.059 376.569 298.499C380.099 298.53 383.63 298.499 387.16 298.499C391.701 298.499 390.443 288.413 390.691 285.58C393.522 253.22 398.081 220.604 399.329 188.157C399.341 187.839 400.3 179.74 398.052 182.524C391.176 191.037 380.694 196.013 370.861 200.251C320.343 222.02 260.812 237.001 205.31 231.348C192.162 230.009 180.783 223.529 168.204 221.433" stroke="black" stroke-width="4" stroke-linecap="round" stroke-linejoin="round"/>
<path d="M254.128 268.754C273.958 268.754 293.788 268.754 313.618 268.754" stroke="black" stroke-width="4" stroke-linecap="round" stroke-linejoin="round"/>
<path d="M203.77 448.322C202.301 433.815 202.418 419.248 202.418 404.681C202.418 401.36 200.01 383.926 202.944 381.621C204.251 380.594 208.17 380.812 208.878 380.794C220.335 380.512 231.822 380.719 243.28 380.719C270.297 380.719 297.182 380.904 324.102 378.316C334.521 377.314 345.118 376.528 355.425 374.635C357.984 374.165 362.565 371.911 365.265 372.682C366.907 373.151 366.016 379.675 366.016 380.569C366.016 398.23 365.576 415.674 361.659 432.998C359.705 441.644 353.016 470.539 340.703 471.907C332.82 472.783 323.88 469.947 316.291 468.302C299.355 464.631 282.615 459.926 265.514 457.035C248.595 454.174 231.233 455.082 214.136 455.082C209.231 455.082 206.474 456.496 206.474 451.026" stroke="black" stroke-width="4" stroke-linecap="round" stroke-linejoin="round"/>
<path d="M262.24 423.985C276.662 423.985 291.084 423.985 305.506 423.985" stroke="black" stroke-width="4" stroke-linecap="round" stroke-linejoin="round"/>
<path d="M208.309 541.332C208.309 556.529 207.802 571.812 208.309 587.001C208.409 589.997 213.044 587.526 214.543 587.152C238.553 581.149 263.688 577.908 288.23 575.284C318.902 572.004 349.359 572.537 380.019 571.077C382.714 570.949 379.428 567.196 378.967 566.495C372.482 556.637 366.188 546.648 360.639 536.224C354.854 525.355 352.723 519.315 339.908 518.347C319.479 516.806 299.62 515.643 279.066 515.643C252 515.643 225.108 517.825 198.319 521.652C194.364 522.217 186.676 520.966 186.676 526.46" stroke="black" stroke-width="4" stroke-linecap="round" stroke-linejoin="round"/>
<path d="M264.944 533.22C277.563 533.22 290.182 533.22 302.802 533.22" stroke="black" stroke-width="4" stroke-linecap="round" stroke-linejoin="round"/>
<path d="M198.093 673.017C198.093 689.784 197.314 706.738 198.093 723.493C198.3 727.95 205.947 723.784 207.783 723.192C235.629 714.22 263.47 708.123 292.586 704.94C323.185 701.595 353.703 700.057 384.45 700.057C389.928 700.057 389.359 653.685 390.084 646.877C390.633 641.721 392.638 635.884 392.638 630.727C392.638 630.156 387.616 632.319 387.079 632.455C373.906 635.795 359.409 635.771 345.992 637.488C310.14 642.075 274.487 647.764 238.504 651.309C222.611 652.874 206.571 655.162 190.582 655.44C186.793 655.506 182.469 654.832 178.714 655.515C175.941 656.019 179.337 662.43 175.108 656.792" stroke="black" stroke-width="4" stroke-linecap="round" stroke-linejoin="round"/>
<path d="M253.452 687.889C273.733 687.889 294.013 687.889 314.294 687.889" stroke="black" stroke-width="4" stroke-linecap="round" stroke-linejoin="round"/>
<path d="M208.806 782.532C208.806 798.707 208.806 814.881 208.806 831.056C208.806 836.153 207.758 842.755 208.881 847.806C208.985 848.273 229.318 844.145 229.913 844.05C251.649 840.609 273.885 838.951 295.862 838.041C316.085 837.205 337.821 838.83 357.831 835.563C363.033 834.713 369.562 837.002 369.699 829.854C369.864 821.293 374.205 769.012 362.639 769.012C352.003 769.012 341.429 771.156 330.941 772.617C298.24 777.175 265.525 779.702 232.542 780.88C221.481 781.275 188.274 781.18 199.341 781.18" stroke="black" stroke-width="4" stroke-linecap="round" stroke-linejoin="round"/>
<path d="M248.72 808.221C267.899 808.221 287.078 808.221 306.257 808.221C309.164 808.221 317.518 806.558 319.026 809.573" stroke="black" stroke-width="4" stroke-linecap="round" stroke-linejoin="round"/>
<path d="M397.441 897.456C397.441 924.385 398.712 951.635 396.69 978.504C396.157 985.575 396.621 995.306 394.661 1002.16C394.129 1004.03 368.156 995.316 367.245 995.104C328.92 986.216 287.212 981.758 247.814 981.283C234.373 981.121 220.92 981.283 207.478 981.283C201.313 981.283 192.198 982.927 186.521 979.931C172.711 972.643 170.865 942.452 170.372 929.38C170.205 924.951 169.469 919.45 170.297 915.033C170.64 913.203 174.952 915.184 175.555 915.333C186.546 918.052 197.961 917.737 209.206 917.737C258.327 917.737 307.053 912.329 356.128 912.329C359.858 912.329 363.202 913.205 364.992 909.625" stroke="black" stroke-width="4" stroke-linecap="round" stroke-linejoin="round"/>
<path d="M254.804 947.482C274.183 947.482 293.563 947.482 312.942 947.482" stroke="black" stroke-width="4" stroke-linecap="round" stroke-linejoin="round"/>
<path d="M382.026 1049.45C382.026 1066.37 382.026 1083.3 382.026 1100.22C382.026 1102.61 382.877 1105.59 379.622 1105.93C356.545 1108.4 332.271 1106.23 309.09 1106.23C282.382 1106.23 255.974 1106.96 229.395 1109.61C216.564 1110.9 202.651 1110.52 190.035 1113.29C187.426 1113.87 184.606 1115.87 185.979 1112.09C189.561 1102.24 191.451 1091.55 193.415 1081.3C195.127 1072.36 200.936 1058.41 197.847 1049.15C196.774 1045.93 194.131 1043.76 191.988 1041.33C191.322 1040.58 193.996 1040.89 194.993 1041.03C203.144 1042.18 211.249 1043.6 219.405 1044.71C251.214 1049.07 283.355 1052.15 315.475 1052.15C330.873 1052.15 346.272 1052.15 361.67 1052.15C363.839 1052.15 379.142 1053.14 377.97 1050.8" stroke="black" stroke-width="4" stroke-linecap="round" stroke-linejoin="round"/>
<path d="M266.296 1076.49C278.014 1076.49 289.732 1076.49 301.449 1076.49" stroke="black" stroke-width="4" stroke-linecap="round" stroke-linejoin="round"/>
<path d="M199.545 1210.09C199.545 1198.17 199.545 1186.25 199.545 1174.33C199.545 1168.05 203.582 1167.72 209.235 1166.07C244.28 1155.85 282.748 1154.65 318.976 1154.65C333.683 1154.65 348.27 1157.36 362.843 1157.36C366.061 1157.36 368.802 1156.48 368.251 1160.66C366.945 1170.55 364.946 1180.67 364.57 1190.63C364.448 1193.87 365.306 1235.62 364.946 1235.62C356.362 1235.62 346.653 1231.73 337.905 1231.04C305.455 1228.5 272.922 1226.69 240.407 1225.26C237.24 1225.12 196.934 1222.07 199.545 1216.85" stroke="black" stroke-width="4" stroke-linecap="round" stroke-linejoin="round"/>
<path d="M230.467 1193.86C241.534 1193.86 252.601 1193.86 263.667 1193.86C268.329 1193.86 270.686 1193.64 274.033 1196.87C275.527 1198.3 280.12 1204.49 281.845 1204.68C285.016 1205.03 286.44 1198.86 288.68 1197.32C302.291 1187.96 322.721 1193.86 337.279 1193.86" stroke="black" stroke-width="4" stroke-linecap="round" stroke-linejoin="round"/>
<path d="M203.947 1301.21C203.947 1318.79 203.947 1336.36 203.947 1353.94C203.947 1357.76 202.956 1362.97 204.023 1366.71C204.76 1369.29 223.261 1367.46 224.979 1367.46C265.52 1367.46 305.552 1363.4 346.063 1363.4C349.877 1363.4 354.848 1364.27 355.302 1359.27C356.391 1347.29 359.774 1335.31 361.386 1323.29C362.34 1316.18 365.968 1303.93 363.189 1296.7C362.226 1294.2 334.193 1298.35 331.866 1298.35C309.996 1298.35 288.814 1292.24 267.043 1291.74C262.232 1291.63 255.645 1290.61 250.969 1292.04C244.265 1294.11 238.4 1293.03 231.664 1294.52C227.569 1295.43 213.692 1293.89 212.06 1297.15" stroke="black" stroke-width="4" stroke-linecap="round" stroke-linejoin="round"/>
<path d="M226.411 1336.36C233.186 1336.36 246.265 1333.68 252.626 1336.51C254.197 1337.21 252.563 1341.62 254.203 1341.62C261.741 1341.62 284.394 1316.08 291.985 1323.67C298.87 1330.55 302.525 1330.95 312.641 1330.95C320.685 1330.95 324.763 1333.14 331.57 1337.11C338.599 1341.21 338.505 1337.75 341.335 1330.95" stroke="black" stroke-width="4" stroke-linecap="round" stroke-linejoin="round"/>
<path d="M211.569 1444.24C211.569 1445.7 211.505 1489.69 212.169 1489.61C215.198 1489.26 219.126 1486.97 221.859 1486.08C237.228 1481.09 253.623 1480.95 269.631 1481.2C291.602 1481.54 314.07 1482.87 335.506 1488.04C342.204 1489.65 348.521 1492.29 355.336 1493.44C359.747 1494.19 370.138 1497.12 369.683 1490.52C368.857 1478.54 367.209 1466.81 367.054 1454.76C366.981 1449.08 369.473 1431.69 361.646 1429.67C358.622 1428.9 355.054 1429.37 351.956 1429.37C339.676 1429.37 327.577 1427.03 315.376 1425.92C290.691 1423.67 268.281 1430.09 244.168 1434.1C237.381 1435.24 230.92 1436.13 224.037 1436.13C221.567 1436.13 219.101 1435.82 216.827 1436.96C213.977 1438.38 198.048 1447.59 198.048 1440.19" stroke="black" stroke-width="4" stroke-linecap="round" stroke-linejoin="round"/>
<path d="M240.607 1456.41C244.771 1456.41 250.88 1455.3 254.578 1457.77C257.652 1459.81 261.297 1456.15 264.644 1455.14C271.944 1452.93 280.49 1451.66 288.079 1452.96C292.794 1453.77 295.481 1458.69 299.797 1459.12C305.816 1459.72 315.344 1456.68 318.951 1463.17C321.337 1467.47 323.701 1466.29 327.138 1468.58" stroke="black" stroke-width="4" stroke-linecap="round" stroke-linejoin="round"/>
<path d="M214.798 1580.24C214.798 1596.44 214.798 1612.64 214.798 1628.84C214.798 1631.42 215.106 1631 217.202 1630.12C230.796 1624.39 245.613 1624.27 260.167 1623.81C280.239 1623.17 300.643 1622.77 320.709 1623.81C328.392 1624.2 332.734 1625.65 339.111 1628.84C341.2 1629.88 341.715 1630.93 341.891 1627.71C342.562 1615.4 346.489 1602.96 349.252 1590.98C350.569 1585.27 357.525 1572.13 348.05 1572.13C322.724 1572.13 297.612 1567.31 272.185 1566.79C257.222 1566.49 242.233 1566.72 227.267 1566.72C222.419 1566.72 222.326 1569.42 218.854 1569.42" stroke="black" stroke-width="4" stroke-linecap="round" stroke-linejoin="round"/>
<path d="M235.199 1597.82C241.809 1597.82 248.419 1597.82 255.029 1597.82C262.029 1597.82 268.307 1592.73 274.409 1589.85C283.513 1585.57 293.777 1580.45 300.398 1589.1C304.136 1593.99 309.562 1591.22 314.369 1593.91C322.871 1598.67 330.646 1609.95 332.547 1619.45" stroke="black" stroke-width="4" stroke-linecap="round" stroke-linejoin="round"/>
<path d="M325.86 1760.06C289.105 1760.06 252.349 1760.06 215.594 1760.06C214.427 1760.06 208.757 1760.88 208.307 1759.31C206.823 1754.11 211.824 1745.48 213.34 1740.98C218.155 1726.71 220.992 1712.34 221.678 1697.27C221.8 1694.58 220.566 1691.18 224.006 1691.11C258.98 1690.42 294.034 1691.11 329.015 1691.11C341.484 1691.11 343.582 1692.97 349.146 1704.48C353.933 1714.38 360.334 1729.71 359.662 1741.13C359.478 1744.26 356.842 1748.67 355.906 1751.95C353.705 1759.65 354.253 1757.94 354.253 1750.6" stroke="black" stroke-width="4" stroke-linecap="round" stroke-linejoin="round"/>
<path d="M295.365 1760.06C287.704 1760.06 280.042 1760.06 272.38 1760.06" stroke="black" stroke-width="4" stroke-linecap="round" stroke-linejoin="round"/>
<path d="M268.755 1733.02C268.755 1739.14 268.755 1747.44 268.755 1735.88C268.755 1730.42 265.903 1715.09 270.107 1710.64C271.095 1709.59 272.241 1712.15 272.435 1712.44C275.45 1716.87 279.302 1720.36 283.702 1723.41C291.015 1728.47 300.72 1734.25 309.692 1735.58C314.405 1736.27 325.014 1730.68 327.944 1733.32C330.576 1735.69 336.018 1741.16 335.456 1741.13C327.504 1740.76 320.291 1736.73 312.396 1735.8C302.286 1734.61 290.647 1733.09 280.473 1734.45C272.046 1735.57 232.25 1738.15 232.25 1724.91" stroke="black" stroke-width="4" stroke-linecap="round" stroke-linejoin="round"/>
<path d="M199.308 1833.33C199.308 1837.17 194.869 1890.11 202.012 1890.11C215.735 1890.11 226.991 1892.97 239.719 1898.23C245.928 1900.79 252.738 1903.87 259.624 1903.33C268.064 1902.67 275.484 1897.28 283.435 1894.77C304.762 1888.05 327.402 1891.44 348.784 1884.71C357.213 1882.05 373.983 1877.03 368.84 1865.03C365.324 1856.82 351.518 1853.25 344.728 1848.2C336.07 1841.76 327.792 1834.34 318.213 1829.27C301.572 1820.46 280.135 1817.28 261.577 1822.59C245.95 1827.05 229.87 1828.07 214.256 1831.98C208.635 1833.38 203.711 1838.52 197.956 1834.68" stroke="black" stroke-width="4" stroke-linecap="round" stroke-linejoin="round"/>
<path d="M235.199 1865.78C237.913 1865.78 256.438 1867.94 257.884 1865.18C260.291 1860.58 258.242 1853.58 263.292 1850.15C267.11 1847.56 274.568 1850.48 278.164 1851.96C283.109 1853.98 287.145 1854.37 292.286 1855.26C299.756 1856.56 307.069 1860.63 314.67 1860.37C320.695 1860.16 326.309 1857.67 332.547 1857.67" stroke="black" stroke-width="4" stroke-linecap="round" stroke-linejoin="round"/>
<path d="M192.208 1960.96C192.208 1972.77 192.208 1984.59 192.208 1996.41C192.208 1997.82 190.601 2012.79 192.96 2014.81C194.065 2015.76 197.588 2013.22 198.293 2012.93C206.384 2009.66 215.482 2009.85 224.057 2009.71C261.476 2009.07 299.176 2007.96 336.577 2008.28C345.303 2008.35 352.916 2009.26 360.538 2013.69C363.517 2015.42 370.727 2021.66 372.782 2016.62C374.344 2012.78 385.314 1976.03 381.495 1975.83C376.056 1975.54 370.731 1977.11 365.271 1976.96C342.469 1976.29 318.2 1970.46 296.166 1964.86C270.435 1958.33 246.467 1951.49 219.85 1951.49C213.599 1951.49 201.275 1950.36 195.589 1953.52C192.639 1955.16 185.448 1958.09 185.448 1952.84" stroke="black" stroke-width="4" stroke-linecap="round" stroke-linejoin="round"/>
<path d="M252.132 1973.12C271.962 1973.12 331.452 1973.12 311.622 1973.12" stroke="black" stroke-width="4" stroke-linecap="round" stroke-linejoin="round"/>
<path d="M182.758 2091.29C182.758 2113.6 182.758 2135.91 182.758 2158.21C182.758 2159.48 181.359 2167.57 184.411 2166.7C210.618 2159.21 239.171 2161.41 266.134 2161.75C303.03 2162.21 339.819 2165.18 376.702 2165.65C379.444 2165.69 393.33 2168.63 395.555 2166.85C397.716 2165.12 385.109 2140.17 384.213 2138.01C375.919 2117.96 368.643 2097.46 358.674 2078.14C355.486 2071.97 352.062 2064.79 344.854 2062.82C298.296 2050.12 262.041 2089.14 217.385 2092.64C211.539 2093.1 204.072 2092.79 198.307 2094.07C189.632 2096 180.937 2100.75 171.942 2100.75" stroke="black" stroke-width="4" stroke-linecap="round" stroke-linejoin="round"/>
<path d="M235.199 2135.91C240.458 2135.91 247.335 2134.77 252.4 2136.58C254.344 2137.28 256.295 2137.66 258.409 2136.96C269.374 2133.3 273.133 2124.16 285.525 2125.24C296.531 2126.2 305.863 2131.85 317.073 2131.85C322.231 2131.85 327.389 2131.85 332.547 2131.85" stroke="black" stroke-width="4" stroke-linecap="round" stroke-linejoin="round"/>
<path d="M163.908 2359.28C162.56 2350.34 162.742 2341.34 162.742 2332.33C162.742 2318.89 167.434 2311.35 178.289 2303.18C179.351 2302.38 194.584 2294.39 188.524 2294.04C182.827 2293.72 177.033 2294.45 171.358 2293.79C150.477 2291.33 153.28 2259.33 159.244 2245.65C172.53 2215.19 216.931 2228.83 239.829 2235.68C265.252 2243.28 291.509 2248.79 316.073 2259C333.538 2266.26 348.055 2264.19 366.601 2263.73C380.184 2263.39 392.987 2261.87 402.942 2272.6C412.339 2282.74 419.564 2292.6 412.917 2306.16C400.356 2331.77 381.713 2351.9 354.681 2362.97C340.529 2368.77 325.219 2371.06 310.049 2372.1C290.825 2373.43 270.854 2374.39 251.618 2372.75C235.324 2371.36 219.715 2365.1 203.812 2361.61C198.202 2360.38 190.627 2359.25 184.961 2361.03C179.85 2362.62 179.752 2358.8 176.734 2355.78C172.875 2351.92 165.391 2350.35 160.151 2349.04C156.784 2348.2 155.4 2352.05 152.248 2349.95" stroke="black" stroke-width="4" stroke-linecap="round" stroke-linejoin="round"/>
<path d="M226.738 2307.97C237.424 2311.15 250.319 2319 261.719 2316.07C265.469 2315.11 266.618 2311.22 270.399 2312.64C283.454 2317.53 300.799 2310.59 314.319 2310.3C324.105 2310.09 332.207 2309.4 341.008 2313.8" stroke="black" stroke-width="4" stroke-linecap="round" stroke-linejoin="round"/>
<path d="M189.332 2446.73C189.332 2457.35 189.332 2467.98 189.332 2478.6C189.332 2485.39 191.306 2482.17 197.753 2481.71C230.238 2479.37 262.904 2481.71 294.986 2487.08C317.397 2490.84 339.069 2496.33 360.607 2503.47C366.629 2505.47 376.494 2510.87 383.409 2509.95C390.316 2509.03 393.694 2496.52 396.624 2491.42C398.109 2488.84 400.381 2486.86 400.381 2483.78C400.381 2465.83 400.803 2447.83 400.381 2429.89C400.299 2426.41 398.952 2426.83 396.235 2428.14C389.771 2431.24 382.578 2432.48 375.506 2433.38C356.443 2435.83 336.707 2436.31 317.529 2435.39C301.15 2434.6 285.49 2430.46 269.269 2428.78C251.704 2426.97 232.217 2426.82 214.595 2428.27C206.04 2428.97 198.681 2433.01 190.886 2436.23C183.145 2439.43 175.174 2441.94 167.177 2444.4" stroke="black" stroke-width="4" stroke-linecap="round" stroke-linejoin="round"/>
<path d="M227.321 2464.22C249.283 2460.96 269.989 2466.27 291.711 2466.55C302.444 2466.69 313.072 2466.64 323.582 2464.22C329.243 2462.91 334.654 2461.36 340.425 2460.72" stroke="black" stroke-width="4" stroke-linecap="round" stroke-linejoin="round"/>
<path d="M504.5 161.928C506.29 141.788 505.519 121.438 505.519 101.228C505.519 99.1512 505.685 94.821 507.784 93.6405C513.098 90.651 522.282 91.4148 527.942 91.0924C551.214 89.7668 574.525 88.7368 597.814 87.7517C638.859 86.0154 680.052 86.6254 721.026 84.5242C725.912 84.2736 730.855 84.4676 735.748 84.4676C740.523 84.4676 734.677 87.2773 733.54 88.3745C720.522 100.927 708.423 113.929 697.244 128.18C691.54 135.452 688.486 141.621 686.712 150.49C685.706 155.523 687.585 161.928 681.163 161.928C631.145 161.928 581.144 160.616 531.112 160.909C521.882 160.963 512.724 161.928 503.48 161.928C498.234 161.928 499.404 159.441 499.404 154.793" stroke="black" stroke-width="4" stroke-linecap="round" stroke-linejoin="round"/>
<path d="M539.153 125.236C560.602 122.819 582.541 123.866 603.929 126.029C614.494 127.097 621.399 124.409 629.41 117.309C633.826 113.394 643.573 102.545 650.474 105.305C657.101 107.956 663.678 114.297 667.574 120.14" stroke="black" stroke-width="4" stroke-linecap="round" stroke-linejoin="round"/>
<path d="M498.384 294.425C537.642 294.425 576.902 294.557 616.16 294.425C633.016 294.369 650.055 292.502 666.894 293.633C672.999 294.043 677.327 298.057 677.992 290.802C679.53 274.032 682.486 257.599 685.693 241.087C686.741 235.691 687.555 231.818 684.447 227.157C680.299 220.934 675.23 213.71 667.914 211.076C652.72 205.607 636.662 209.96 622.162 214.927C601.503 222.004 580.86 227.607 559.084 229.989C543.529 231.69 527.518 232.253 511.861 232.253C506.958 232.253 509.596 254.528 509.596 258.526C509.596 265.736 509.596 272.946 509.596 280.156C509.596 282.782 509.596 293.328 509.596 285.253" stroke="black" stroke-width="4" stroke-linecap="round" stroke-linejoin="round"/>
<path d="M546.287 273.022C561.314 271.855 577.096 273.738 591.925 271.097C604.399 268.875 612.601 259.174 624.031 255.582C628.257 254.254 634.795 259.378 639.036 260.791" stroke="black" stroke-width="4" stroke-linecap="round" stroke-linejoin="round"/>
<path d="M509.596 461.576C509.435 435.9 508.577 410.247 508.577 384.569C508.577 375.224 507.032 372.943 517.183 372.905C550.199 372.781 583.085 374.824 616.047 376.302C641.859 377.46 667.566 372.635 690.11 388.873C705.265 399.789 700.287 422.741 694.866 437.455C693.748 440.491 693.209 444.176 690.789 446.515C683.052 453.994 667.462 454.488 657.721 455.801C634.537 458.926 610.774 461.206 587.396 462.369C578.998 462.787 570.617 462.671 562.255 461.803C548.727 460.399 535.855 456.48 522.166 456.48C517.17 456.48 509.638 457.054 506.538 452.403" stroke="black" stroke-width="4" stroke-linecap="round" stroke-linejoin="round"/>
<path d="M541.191 419.789C558.336 420.424 575.027 427.245 591.756 421.204C602.161 417.447 610.352 414.271 621.596 416.958C627.322 418.326 627.824 421.699 627.824 426.867C627.824 433.432 634.021 426.869 636.997 424.885" stroke="black" stroke-width="4" stroke-linecap="round" stroke-linejoin="round"/>
<path d="M522.846 567.575C512.861 565.45 509.458 553.815 508.18 544.869C507.415 539.51 505.728 529.399 511.408 525.957C519.594 520.995 534.444 522.135 543.683 521.2C555.533 520.002 566.749 516.598 578.449 514.575C592.121 512.212 605.635 512.802 619.444 512.48C629.66 512.243 639.553 509.962 649.794 511.065C665.514 512.758 688.995 517.725 700.075 530.317C708.798 540.229 698.878 544.571 691.808 551.494C687.07 556.134 682.872 560.797 676.407 562.931C666.541 566.189 656.313 565.751 646.057 565.31C629.341 564.59 612.747 562.561 596.002 562.478C582.377 562.411 568.745 562.658 555.121 562.478C541.68 562.302 529.135 559.091 516.051 556.59C514.324 556.26 505.997 556.124 507.557 555.344" stroke="black" stroke-width="4" stroke-linecap="round" stroke-linejoin="round"/>
<path d="M556.479 553.306C580.428 553.306 604.945 554.866 628.844 553.079C635.207 552.603 641.279 552.612 647.189 550.248" stroke="black" stroke-width="4" stroke-linecap="round" stroke-linejoin="round"/>
<path d="M553.422 705.168C531.361 703.564 516.671 690.957 513.276 668.76C512.318 662.496 508.954 648.713 513.673 643.279C516.703 639.79 523.484 639.005 527.489 638.014C538.705 635.237 549.953 632.468 561.236 629.973C581.009 625.6 600.814 623.959 621.03 623.688C639.452 623.441 658.399 622.577 676.747 624.424C689.627 625.721 702.233 630.345 714.288 634.899C722.35 637.945 728.171 641.62 728.557 650.867C728.878 658.583 720.918 661.123 715.25 664.4C707.034 669.15 699.507 674.584 690.789 678.556C668.995 688.484 649.024 690.747 625.446 691.919C607.197 692.826 588.984 692.34 570.749 692.938C562.067 693.222 552.088 695.134 544.249 699.053" stroke="black" stroke-width="4" stroke-linecap="round" stroke-linejoin="round"/>
<path d="M549.345 672.553C561.063 675.343 572.811 676.298 584.848 676.121C589.033 676.059 594.286 679.014 598.097 676.857C607.047 671.791 611.605 659.536 622.105 656.869C628.681 655.199 635.021 661.366 641.018 663.211C651.055 666.299 660.535 663.491 670.405 668.477C674.088 670.337 677.594 672.574 681.616 670.289C683.247 669.362 684.161 668.044 685.92 667.457" stroke="black" stroke-width="4" stroke-linecap="round" stroke-linejoin="round"/>
<path d="M539.153 835.628C572.95 835.628 606.843 834.838 640.621 836.137C656.413 836.745 668.211 838.068 680.823 827.474C691.6 818.421 702.164 807.792 706.134 793.896C708.029 787.263 710.533 777.015 704.832 771.417C698.281 764.986 685.976 764.639 677.426 763.83C663.081 762.473 648.444 763.356 634.053 763.263C621.017 763.18 608.019 760.19 594.983 761.791C582.358 763.342 571.371 769.383 558.971 771.644C548.408 773.57 541.431 774.304 532.868 780.647C527.128 784.899 516.061 789.577 514.918 797.577C513.728 805.908 513.36 815.184 513.673 823.624C513.931 830.605 526.956 834.987 532.471 837.666C535.963 839.362 540.473 838.685 544.249 838.685" stroke="black" stroke-width="4" stroke-linecap="round" stroke-linejoin="round"/>
<path d="M538.134 809.128C549.042 809.128 559.954 809.211 570.862 809.128C577.422 809.078 581.249 808.969 587.282 811.959C592.445 814.518 597.938 816.434 603.703 817.055C608.588 817.581 613.271 813.318 617.293 811.166C625.467 806.794 637.07 798.986 646.397 804.032C652.496 807.332 654.953 807.653 661.458 805.051" stroke="black" stroke-width="4" stroke-linecap="round" stroke-linejoin="round"/>
<path d="M525.903 909.011C525.903 928.601 524.307 948.562 528.961 967.786C531.07 976.498 541.562 982.343 549.515 984.206C570.824 989.197 594.761 991.422 616.613 991.567C635.273 991.692 653.754 988.939 672.387 988.566C683.912 988.336 695.456 988.51 706.983 988.51C710.489 988.51 720.181 990.24 723.064 987.66C726.316 984.75 728.605 977.968 730.312 974.241C734.818 964.401 737.636 954.096 739.711 943.494C741.048 936.67 744.052 925.574 741.75 918.41C740.994 916.059 735.407 917.165 733.709 917.165C703.644 917.165 673.808 916.588 643.792 914.617C617.812 912.91 591.854 912.069 565.822 912.069C556.106 912.069 543.228 915.737 534.057 912.069" stroke="black" stroke-width="4" stroke-linecap="round" stroke-linejoin="round"/>
<path d="M536.095 957.933C560.427 956.572 585.078 956.159 609.422 957.537C621.334 958.211 633.068 961.326 644.925 958.499C653.03 956.567 659.946 950.524 668.31 949.893C675.331 949.363 681.855 950.466 687.958 953.856" stroke="black" stroke-width="4" stroke-linecap="round" stroke-linejoin="round"/>
<path d="M539.153 1106.74C572.881 1106.74 606.611 1106.87 640.338 1106.68C654.64 1106.6 668.985 1106.66 683.202 1104.93C684.674 1104.75 686.763 1105.31 686.882 1103.45C687.517 1093.61 686.978 1083.53 686.939 1073.67C686.92 1068.94 688.813 1058.1 683.145 1055.49C674.148 1051.36 661.906 1049.93 652.399 1047.85C622.875 1041.4 594.597 1040.4 565.199 1046.83C554.926 1049.08 545.355 1049.27 534.963 1049.66C532.049 1049.77 533.076 1054.17 532.811 1056.34C531.452 1067.49 528.964 1078.32 530.206 1089.64C530.483 1092.16 531.537 1101.64 534.057 1101.64" stroke="black" stroke-width="4" stroke-linecap="round" stroke-linejoin="round"/>
<path d="M582.979 1075.14C589.652 1075.14 599.428 1072.75 605.402 1075.14" stroke="black" stroke-width="4" stroke-linecap="round" stroke-linejoin="round"/>
<path d="M516.73 1154.64C517.606 1166.03 519.06 1175.52 524.488 1185.78C528.768 1193.88 534.718 1200.46 539.946 1207.87C545.774 1216.12 536.391 1223.59 533.377 1231.59C531.114 1237.6 529.613 1248.3 537.398 1251.18C538.704 1251.67 540.178 1251.44 541.531 1251.47C554.071 1251.72 566.572 1252.69 579.129 1252.37C598.6 1251.89 614.885 1247.55 632.694 1240.26C647.405 1234.23 660.378 1230.2 676.18 1228.48C688.688 1227.12 699.901 1223.49 711.343 1218.34C724.592 1212.38 738.078 1208.3 752.508 1206.28C754.928 1205.94 768.28 1207.22 769.495 1204.47C772.488 1197.7 772.682 1183.5 768.249 1177.4C763.991 1171.55 755.34 1171.07 748.884 1169.87C737.779 1167.81 726.672 1166.38 715.364 1166.08C669.95 1164.86 624.493 1169.26 579.015 1167.38C571.269 1167.06 547.573 1170.46 543.23 1161.78" stroke="black" stroke-width="4" stroke-linecap="round" stroke-linejoin="round"/>
<path d="M587.056 1201.53C613.212 1201.53 639.38 1201.28 665.535 1201.53C667.246 1201.54 670.175 1202.26 667.574 1203.56" stroke="black" stroke-width="4" stroke-linecap="round" stroke-linejoin="round"/>
<path d="M525.903 1307.52C525.903 1318.32 525.903 1329.12 525.903 1339.91C525.903 1343.34 525.861 1346.6 524.657 1349.88C522.192 1356.58 521.826 1360.52 521.826 1368C521.826 1371.21 568.208 1372.4 571.824 1372.64C603.589 1374.72 635.287 1370.76 667.121 1371.96C674.191 1372.23 681.671 1373.44 688.751 1372.75C691.002 1372.54 686.236 1363.68 685.919 1362.9C680.997 1350.73 676.239 1338.49 671.311 1326.32C669.751 1322.47 667.412 1313.96 661.855 1315.17C653.903 1316.9 644.908 1316.1 636.827 1316.81C616.285 1318.62 595.944 1319.43 575.335 1319.81C562.741 1320.05 550.582 1323.83 538.134 1323.83" stroke="black" stroke-width="4" stroke-linecap="round" stroke-linejoin="round"/>
<path d="M538.134 1342.18C554.082 1342.18 570.031 1342.18 585.98 1342.18C589.617 1342.18 593.647 1341.78 597.305 1342.23C601.181 1342.72 604.339 1345.66 608.459 1346.25" stroke="black" stroke-width="4" stroke-linecap="round" stroke-linejoin="round"/>
<path d="M515.711 1417.6C515.711 1445.19 515.711 1472.79 515.711 1500.38C515.711 1501.4 515.06 1509.82 516.73 1509.1C529.222 1503.75 544.676 1503.55 557.952 1502.42C596.556 1499.12 635.969 1500.81 674.368 1495.85C679.024 1495.25 691.632 1494.69 694.979 1491.21C702.071 1483.83 689.233 1464.63 685.41 1458.08C679.098 1447.28 668.954 1434.17 658.174 1427.28C645.68 1419.3 627.405 1418.01 613.216 1417.09C595.326 1415.93 576.294 1414.26 558.631 1418.16C550.409 1419.98 542.379 1422.74 534.17 1424.68C529.871 1425.69 510.749 1432 507.557 1428.81" stroke="black" stroke-width="4" stroke-linecap="round" stroke-linejoin="round"/>
<path d="M591.133 1462.44C603.439 1462.44 615.745 1462.48 628.051 1462.44C632.639 1462.43 636.955 1462.6 641.074 1461.42" stroke="black" stroke-width="4" stroke-linecap="round" stroke-linejoin="round"/>
<path d="M522.845 1572.52C522.845 1599.11 522.845 1625.71 522.845 1652.3C522.845 1653.1 522.252 1656.79 523.468 1657.06C524.702 1657.33 526.177 1656.57 527.262 1656.21C539.44 1652.19 552.1 1650.61 564.86 1649.64C596.126 1647.26 627.964 1647.24 659.307 1648.17C674.593 1648.62 690.005 1649 705.171 1651.05C712.03 1651.98 725.51 1656.82 732.067 1652.7C740.54 1647.37 737.243 1629.73 734.162 1622.57C728.628 1609.73 716.858 1598.35 708.003 1587.69C703.259 1581.99 697.413 1576.12 691.469 1571.61C685.137 1566.81 675.943 1566.26 668.423 1565.44C646.939 1563.1 625.284 1563.26 603.703 1563.35C593.993 1563.38 584.015 1563.49 574.372 1564.82C564.394 1566.19 552.775 1572.51 542.72 1570.37C535.548 1568.84 529.859 1564.61 525.903 1572.52" stroke="black" stroke-width="4" stroke-linecap="round" stroke-linejoin="round"/>
<path d="M570.748 1609.21C592.022 1609.21 614.299 1611.06 635.299 1607.06C643.949 1605.41 651.762 1600.68 659.42 1606.15" stroke="black" stroke-width="4" stroke-linecap="round" stroke-linejoin="round"/>
<path d="M522.845 1695.84C522.845 1707.85 522.845 1719.85 522.845 1731.86C522.845 1745.41 522.661 1747.49 536.492 1748.62C565.931 1751.01 594.798 1756.32 623.974 1760.73C651.006 1764.82 679.181 1769.14 706.587 1766.23C717.267 1765.09 730.467 1761.48 740.278 1757.28C742.148 1756.48 732.81 1730.13 732.237 1728.12C728.977 1716.66 727.122 1700.51 718.081 1691.77C714.343 1688.15 710.004 1686.94 704.945 1686.67C688.011 1685.76 671.05 1684.5 654.097 1684.07C616.545 1683.11 579.345 1685.2 542.097 1689.95C532.928 1691.12 524.147 1692.72 514.918 1692.79C514.307 1692.79 502.669 1692.18 507.557 1693.8" stroke="black" stroke-width="4" stroke-linecap="round" stroke-linejoin="round"/>
<path d="M551.383 1735.59C571.551 1735.59 591.948 1734.68 612.083 1735.93C632.666 1737.21 652.385 1741.06 672.557 1734.46C677.357 1732.89 690.068 1725.19 686.656 1728.91C680.897 1735.19 669.872 1738.11 662.478 1741.71" stroke="black" stroke-width="4" stroke-linecap="round" stroke-linejoin="round"/>
<path d="M519.788 1816.11C519.788 1842.53 519.788 1868.96 519.788 1895.38C519.788 1896.17 519.082 1900.72 520.637 1900.54C535.395 1898.8 549.587 1894.8 564.633 1893.68C608.14 1890.45 652.01 1891.53 695.602 1891.53C713.832 1891.53 733.267 1893.19 751.376 1890.29C756.756 1889.42 760.595 1887.58 758.057 1882.36C752.328 1870.58 748.096 1858.08 742.769 1846.12C741.162 1842.51 735.169 1829.42 732.69 1825.62C726.691 1816.43 718.15 1812.8 707.946 1809.71C684.958 1802.76 660.399 1799.84 636.771 1795.73C619.676 1792.75 602.608 1790.63 585.244 1790.63C570.657 1790.63 558.889 1798 549.175 1808.75C547.27 1810.86 545.268 1812.65 545.268 1815.54C545.268 1817.22 545.693 1818.45 544.249 1819.17" stroke="black" stroke-width="4" stroke-linecap="round" stroke-linejoin="round"/>
<path d="M536.095 1840.57C562.218 1832.45 588.173 1830.84 613.442 1842.95C626.296 1849.11 636.939 1853.7 651.21 1855.35C659.26 1856.28 673.607 1860.25 680.823 1854.84" stroke="black" stroke-width="4" stroke-linecap="round" stroke-linejoin="round"/>
<path d="M548.326 1818.15C539.657 1818.15 531.352 1818.74 522.845 1819.17C517.133 1819.45 516.254 1819.02 515.711 1813.05" stroke="black" stroke-width="4" stroke-linecap="round" stroke-linejoin="round"/>
<path d="M522.846 1949.63C522.846 1970.73 523.762 1992.07 522.846 2013.16C522.598 2018.85 521.321 2001.86 521.034 1996.17C520.641 1988.4 520.378 1965.19 521.77 1972.84C522.869 1978.89 520.823 1986.42 520.298 1992.43C519.134 2005.75 518.237 2019.16 517.806 2032.52C517.776 2033.44 517.749 2040.66 517.749 2035.52C517.749 2030.26 517.749 2024.99 517.749 2019.73C517.749 2010.61 518.159 2001.99 520.467 1993.17C522.677 1984.73 525.621 1976.5 527.772 1968.03C528.221 1966.26 529.665 1961.18 529.923 1962.99C530.137 1964.48 530.082 1966.24 529.923 1967.75C528.973 1976.77 528.096 1985.6 527.715 1994.7C527.198 2007.06 529.286 2022.71 523.638 2034.22C522.526 2036.49 521.252 2039.06 519.788 2041.13C518.855 2042.45 519.838 2039.35 522.053 2038.24C525.101 2036.72 528.547 2035.56 531.905 2035.01C550.846 2031.94 570.842 2032.19 589.887 2031.96C623.719 2031.55 657.53 2032.24 691.355 2032.75C703.569 2032.93 716.193 2033.67 728.387 2032.13C732.118 2031.66 755.386 2029.96 755.226 2027.09C755.06 2024.09 754.166 2016.02 751.942 2014.29C750.453 2013.13 747.517 2013.97 746.28 2015.08C739.981 2020.73 731.258 2021.77 723.008 2022.84C703.97 2025.32 684.295 2024.7 665.139 2025.05C637.898 2025.55 610.679 2026.07 583.432 2026.07C561.161 2026.07 540.333 2024.75 518.542 2020.58C517.905 2020.45 511.367 2019.95 512.993 2019.95C521.885 2019.95 530.481 2018.88 539.323 2017.8C602.335 2010.09 667.134 2008.65 730.539 2011.8C744.789 2012.51 758.984 2013.14 773.232 2012.03C777.977 2011.66 778.668 2011.3 778.668 2006.82C778.668 1991.69 781.798 1973.76 776.63 1959.37C774.866 1954.45 773.736 1949.54 768.08 1948.66C765.027 1948.2 761.648 1948.9 758.624 1949.12C749.756 1949.75 740.883 1949.29 732.011 1948.95C700.602 1947.75 669.228 1946.66 637.79 1946.57C618.469 1946.51 599.514 1946.98 580.374 1949.63C566.165 1951.59 551.722 1953.78 537.341 1953.7C530.734 1953.67 522.357 1953.3 516.164 1950.65C508.177 1947.22 533.434 1952.63 542.097 1953.31C580.687 1956.33 619.189 1957.78 657.891 1957.78C681.568 1957.78 705.399 1957.02 729.066 1957.89C738.435 1958.24 745.415 1962.57 754.264 1964.63C758.19 1965.55 760.581 1963.54 758.284 1968.2C747.95 1989.15 749.111 2013.99 749.111 2036.71C749.111 2037.79 748.433 2042.15 749.337 2043.17C751.119 2045.17 751.931 2038.31 752.168 2035.64C753.997 2015.07 754.399 1994.38 756.245 1973.81C756.293 1973.27 758.243 1957.55 757.604 1957.78C747.434 1961.48 731.579 1958.83 721.535 1958.63C684.264 1957.9 647.057 1954.44 609.818 1952.69C588.204 1951.67 566.454 1947.59 544.815 1947.59C541.668 1947.59 539.072 1952.36 538.134 1948.61" stroke="black" stroke-width="4" stroke-linecap="round" stroke-linejoin="round"/>
<path d="M575.845 1991.42C594.134 1991.42 612.379 1992.3 630.656 1992.43C636.816 1992.48 643.3 1993.11 649.228 1991.42" stroke="black" stroke-width="4" stroke-linecap="round" stroke-linejoin="round"/>
<path d="M544.249 2092.32C544.249 2107.15 544.249 2121.99 544.249 2136.82C544.249 2143.32 544.309 2149.81 544.249 2156.3C544.208 2160.81 544.985 2173.88 543.117 2169.78C538.437 2159.5 539.433 2141.81 538.926 2131.22C538.306 2118.22 538.194 2105.21 538.134 2092.2C538.115 2088.26 538.732 2083.36 537.907 2089.71C535.735 2106.44 532.442 2123.15 529.584 2139.77C528.742 2144.66 528.195 2150.54 526.356 2155.28C526.111 2155.91 525.903 2153.98 525.903 2153.3C525.903 2143.81 524.885 2134.35 524.431 2124.88C524.277 2121.67 520.133 2092.46 526.243 2092.32C555.476 2091.64 584.664 2089.58 613.895 2088.69C652.512 2087.53 691.276 2088.67 729.859 2086.99C738.091 2086.64 745.668 2086.22 753.867 2087.45C762.472 2088.74 768.669 2087.64 776.913 2086.37C778.479 2086.13 774.564 2088.11 773.572 2088.18C770.774 2088.38 767.398 2086.11 767.117 2089.94C765.883 2106.75 768.191 2125 768.929 2141.81C769.37 2151.85 771.534 2161.96 771.534 2171.99C771.534 2190.67 772.271 2134.6 771.477 2115.93C771.428 2114.78 770.309 2108.81 770.571 2113.66C771.581 2132.35 774.47 2150.95 775.61 2169.66C776.008 2176.18 776.325 2182.71 777.083 2189.2C777.199 2190.2 778.051 2192.99 777.422 2192.2C775.601 2189.92 770.644 2188.46 768.249 2187.44C744.07 2177.16 717.228 2174.32 691.469 2170.57C657.903 2165.68 625.115 2161.1 591.246 2163.61C578.007 2164.59 566.736 2163.82 553.988 2160.21C550.506 2159.22 547.073 2157.55 543.4 2157.55C495.997 2157.55 638.271 2151.74 685.58 2154.72C700.703 2155.67 715.639 2157.06 730.086 2161.85C742.226 2165.88 751.729 2172.98 762.814 2179.01C764.317 2179.82 773.738 2182.34 771.534 2177.93" stroke="black" stroke-width="4" stroke-linecap="round" stroke-linejoin="round"/>
<path d="M595.21 2123.91C633.26 2123.91 671.311 2123.91 709.361 2123.91" stroke="black" stroke-width="4" stroke-linecap="round" stroke-linejoin="round"/>
<path d="M512.653 2243.16C513.584 2286.3 512.692 2329.48 513.673 2372.6C513.706 2374.06 514.821 2373.05 515.598 2372.71C530.744 2366.22 548.853 2364.34 564.973 2362.52C622.543 2356.02 681.073 2358.33 738.919 2358.33C742.909 2358.33 746.932 2358.21 750.923 2358.33C751.271 2358.34 751.956 2358.91 751.942 2358.56C751.771 2354.45 746.689 2343.15 745.94 2340.89C736.736 2313.16 728.829 2284.77 716.553 2258.17C715.845 2256.63 715.477 2256.42 715.477 2254.49C715.477 2245.55 715.579 2237.4 710.267 2229.68C709.374 2228.39 700.356 2216.45 698.15 2218.13C696.491 2219.4 695.153 2220.22 693.054 2220.74C681.748 2223.53 669.913 2225.11 658.401 2226.63C613.826 2232.5 568.658 2233.1 524.318 2240.67C519.537 2241.49 514.752 2242.35 509.935 2242.93C508.288 2243.13 519.634 2241.61 520.241 2241.58C545.239 2240.06 570.533 2241.24 595.549 2241.12C637.706 2240.93 679.61 2239.58 721.592 2235.74C722.965 2235.62 752.735 2232.04 752.735 2235.46C752.735 2236.27 751.168 2235.96 750.356 2236.03C743.075 2236.63 750.805 2235.68 739.598 2236.93C704.522 2240.85 669.714 2247.87 635.015 2254.15C606.858 2259.24 578.634 2265.54 550.081 2268.07C541.392 2268.85 532.52 2269.21 523.978 2271.13C518.723 2272.31 518.941 2272.7 519.788 2267.62" stroke="black" stroke-width="4" stroke-linecap="round" stroke-linejoin="round"/>
<path d="M556.479 2309.41C583.46 2309.41 610.475 2309.85 637.45 2309.35C645.972 2309.2 653.932 2308.5 661.458 2304.31" stroke="black" stroke-width="4" stroke-linecap="round" stroke-linejoin="round"/>
<path d="M509.596 2437.83C509.596 2457.27 509.596 2476.71 509.596 2496.15C509.596 2509.63 508.576 2469.2 508.576 2455.72C508.576 2444.27 509.93 2431.16 505.575 2420.28C504.604 2417.85 504.985 2428.12 505.122 2428.88C508.23 2446.15 515.711 2462.42 515.711 2480.18C515.711 2482.37 515.711 2484.56 515.711 2486.75C515.711 2487.73 515.738 2488.43 516.221 2489.3C517.431 2491.48 498.133 2496.68 497.365 2496.94" stroke="black" stroke-width="4" stroke-linecap="round" stroke-linejoin="round"/>
<path d="M754.207 2424.58C754.207 2446.78 754.207 2513.37 754.207 2491.17C754.207 2469.9 753.188 2448.6 753.188 2427.3C753.188 2424.45 754.207 2422 754.207 2426.34C754.207 2442.59 754.207 2458.84 754.207 2475.09C754.207 2487.89 754.255 2500.68 754.207 2513.48C754.193 2517.14 754.832 2527.35 752.735 2524.35C751.657 2522.81 752.168 2520.11 752.168 2518.35" stroke="black" stroke-width="4" stroke-linecap="round" stroke-linejoin="round"/>
<path d="M498.384 2429.68C517.747 2429.68 737.673 2428.01 737.673 2430.7C737.673 2432.04 734.162 2431.72 733.823 2431.72C714.21 2431.4 693.917 2427.25 674.595 2425.15C609.253 2418.02 542.101 2408.89 476.188 2413.14C469.259 2413.59 475.355 2414.39 477.491 2414.39C480.53 2414.39 482.313 2415.88 480.039 2411.33" stroke="black" stroke-width="4" stroke-linecap="round" stroke-linejoin="round"/>
<path d="M500.423 2496.94C538.79 2498.59 577.151 2498.04 615.481 2501.13C651.2 2504.01 685.092 2511.64 720.12 2518.01C723.687 2518.66 728.01 2518.68 731.558 2518.12C739.907 2516.82 747.27 2512.75 755.962 2512.29C756.654 2512.25 763.14 2511.84 760.322 2513.25" stroke="black" stroke-width="4" stroke-linecap="round" stroke-linejoin="round"/>
<path d="M736.88 2428.66C742.505 2428.66 748.129 2428.66 753.754 2428.66C756.52 2428.66 761.068 2429.47 757.264 2426.62" stroke="black" stroke-width="4" stroke-linecap="round" stroke-linejoin="round"/>
<path d="M586.037 2468.41C610.838 2468.41 635.638 2468.41 660.439 2468.41" stroke="black" stroke-width="4" stroke-linecap="round" stroke-linejoin="round"/>
<path d="M902.328 72.4545C902.328 110.974 902.328 152.28 902.328 189.531" stroke="black" stroke-width="4" stroke-linecap="round" stroke-linejoin="round"/>
<path d="M857.205 93.1868C932.004 93.1868 1006.8 93.1868 1081.6 93.1868" stroke="black" stroke-width="4" stroke-linecap="round" stroke-linejoin="round"/>
<path d="M1074.28 76.1132C1074.28 103.304 1074.28 130.496 1074.28 157.687C1074.28 162.759 1077.94 177.529 1077.94 172.457" stroke="black" stroke-width="4" stroke-linecap="round" stroke-linejoin="round"/>
<path d="M868.181 173.677C947.056 173.677 1026.61 170.563 1105.31 176.522C1105.62 176.545 1115.21 176.446 1116.7 177.606C1117.27 178.053 1115.24 177.512 1114.53 177.335" stroke="black" stroke-width="4" stroke-linecap="round" stroke-linejoin="round"/>
<path d="M938.914 143.188C961.77 143.188 984.625 143.188 1007.48 143.188C1008.81 143.188 1013.3 144.402 1012.09 141.968" stroke="black" stroke-width="4" stroke-linecap="round" stroke-linejoin="round"/>
<path d="M903.762 220.019C903.762 244.997 903.762 269.975 903.762 294.953C903.762 299.202 912.123 295.248 913.857 294.953C952.214 288.433 991.426 293.565 1029.92 295.36C1041.97 295.922 1053.57 293.192 1065.49 293.192C1073.97 293.192 1082.3 292.474 1090.76 292.04C1095.26 291.809 1098.48 293.389 1096.45 288.314" stroke="black" stroke-width="4" stroke-linecap="round" stroke-linejoin="round"/>
<path d="M876.932 224.897C912.963 221.956 949.635 223.678 985.743 223.678C1011.36 223.678 1037.51 222.283 1063.12 223.949C1066.07 224.141 1071.96 224.718 1073.28 228.149C1075.7 234.48 1075.47 242.052 1075.72 248.678C1076.33 264.959 1076.67 281.246 1077.21 297.528C1077.45 304.847 1076.66 314.143 1078.77 321.309C1079.28 323.07 1079.38 320.352 1079.38 320.022" stroke="black" stroke-width="4" stroke-linecap="round" stroke-linejoin="round"/>
<path d="M954.983 259.045C973.276 259.045 991.569 259.045 1009.86 259.045" stroke="black" stroke-width="4" stroke-linecap="round" stroke-linejoin="round"/>
<path d="M906.817 360.267C906.817 379.508 906.817 398.75 906.817 417.992C906.817 423.168 904.412 437.818 906.952 443.534C907.411 444.567 909.225 443.584 910.34 443.399C926.253 440.747 942.22 438.944 958.309 437.64C996.063 434.58 1033.93 433.439 1071.79 433.439C1075.93 433.439 1081.82 436.487 1084.19 433.1C1086.62 429.636 1084.87 420.015 1084.87 416.23C1084.87 402.456 1085.33 388.594 1084.67 374.833C1084.18 364.774 1083.26 357.425 1072.81 354.304C1058.52 350.036 932.306 325.885 931.275 330.523C929.967 336.412 927.59 339.774 922.197 343.057C916.699 346.404 909.175 345.632 903.023 345.632C898.145 345.632 893.257 348.107 888.524 349.291" stroke="black" stroke-width="4" stroke-linecap="round" stroke-linejoin="round"/>
<path d="M935.781 396.853C942.061 396.853 948.516 396.497 954.751 397.395C959.582 398.091 959.501 401.644 963.627 398.343C973.178 390.702 982.571 381.025 993.641 375.579C1000.12 372.39 1004.24 380.677 1009.02 383.709C1017.23 388.921 1024.88 389.767 1031.58 397.259C1033.21 399.081 1038.22 403.047 1038.22 398.072" stroke="black" stroke-width="4" stroke-linecap="round" stroke-linejoin="round"/>
<path d="M896.851 489.538C896.851 505.335 896.545 521.17 896.851 536.965C897.025 545.989 909.675 541.777 916.228 541.707C969.017 541.144 1022.7 538.979 1075.45 542.249C1084.1 542.786 1082.64 541.946 1081.95 532.222C1080.92 517.713 1078.76 499.6 1072.06 486.421C1062.51 467.652 1042.95 465.092 1023.95 465.35C998.282 465.7 974.168 472.583 949.02 476.665C929.925 479.765 910.882 478.836 891.905 481.069C890.135 481.277 894.826 482.221 895.631 482.221" stroke="black" stroke-width="4" stroke-linecap="round" stroke-linejoin="round"/>
<path d="M915.658 498.075C924.31 500.959 936.605 507.568 945.876 505.121C952.418 503.395 948.981 504.12 954.345 507.696C960.839 512.025 969.458 506.786 975.89 504.986C979.558 503.959 983.776 502.684 987.611 503.766C991.047 504.735 993.492 507.276 997.232 507.56C1004.55 508.117 1010.64 502.792 1017.56 502.953C1019.31 502.994 1020.44 505.075 1021.35 506.205C1024.4 509.988 1027.63 512.432 1032.4 513.726C1036.51 514.84 1056.31 518.809 1058.34 512.709" stroke="black" stroke-width="4" stroke-linecap="round" stroke-linejoin="round"/>
<path d="M908.159 605.395C906.984 629.192 906.939 652.985 906.939 676.806C906.939 678.407 905.113 688.956 909.107 686.223C913.395 683.29 918.641 682.425 923.742 681.819C948.774 678.844 974.471 679.787 999.624 679.787C1013.52 679.787 1027.4 679.927 1041.29 680.396C1048.34 680.634 1056.17 681.783 1063.24 680.871C1066.78 680.414 1067.13 675.236 1067.78 672.605C1070.77 660.509 1073.38 648.295 1076.18 636.154C1078.18 627.542 1080.11 618.75 1080.11 609.866C1080.11 604.836 1069.56 615.667 1066.56 617.59C1060.51 621.485 1054.82 626.19 1047.8 628.227C1031.3 633.009 1010.2 630.009 993.391 629.514C963.597 628.638 934.061 626.127 904.229 626.127C903.355 626.127 897.363 627.211 899.08 627.211C900.166 627.211 902.659 625.347 903.281 625.043C911.009 621.256 919.101 619.667 927.536 618.268C954.135 613.853 980.774 611.001 1007.75 610.408C1025.23 610.024 1043.6 609.178 1060.47 614.609C1062.3 615.2 1043.38 615.825 1040.82 615.557C1013.84 612.749 987.95 605.836 960.667 605.462C946.041 605.262 930.607 604.088 916.018 605.666C915.586 605.712 907.081 606.748 908.023 608.443C908.816 609.871 914.101 610.326 915.069 610.544C927.956 613.438 940.54 617.346 953.553 619.758C990.58 626.621 1028.1 628.779 1065.28 621.994C1065.76 621.906 1088.73 616.992 1079.17 620.978C1071.2 624.296 1061.41 624.819 1052.95 625.449C1015.38 628.247 977.895 623.063 940.409 623.688C929.717 623.866 918.644 627.096 907.888 627.888C906.904 627.961 889.926 628.898 892.847 627.346C922.213 611.745 960.051 613.568 992.172 612.441C1017.07 611.567 1041.78 609.053 1066.7 609.053" stroke="black" stroke-width="4" stroke-linecap="round" stroke-linejoin="round"/>
<path d="M954.684 652.957C973.951 652.957 993.747 651.55 1012.95 653.228C1016.1 653.503 1018.31 655.973 1019.32 652.957" stroke="black" stroke-width="4" stroke-linecap="round" stroke-linejoin="round"/>
<path d="M909.348 760.276C909.348 784.125 909.262 807.975 909.348 831.823C909.389 843.023 909.544 841.864 921.408 841.715C980.714 840.97 1040.27 839.1 1099.46 843.883C1109.24 844.673 1106.57 842.324 1105.97 833.991C1105.12 822.264 1104.35 810.725 1101.9 799.166C1098.27 782.017 1093.17 757.207 1078.39 745.642C1073.43 741.759 1057.42 743.477 1052.31 743.067C1023.32 740.749 994.112 739.693 965.041 740.628C947.198 741.202 929.347 742.577 912.262 748.013C898.337 752.444 885.561 756.618 870.797 756.618C865.222 756.618 867.884 753.818 867.884 748.081" stroke="black" stroke-width="4" stroke-linecap="round" stroke-linejoin="round"/>
<path d="M937 794.424C952.328 794.497 967.699 794.352 983.004 795.372C992.207 795.986 998.373 796.5 1006.99 798.692C1010.17 799.5 1013.09 801.319 1016.34 801.741C1023.55 802.676 1033.7 796.11 1037 791.985" stroke="black" stroke-width="4" stroke-linecap="round" stroke-linejoin="round"/>
<path d="M880.011 994.429C942.104 996.27 1002.9 1009.06 1065.11 1009.06C1073.68 1009.06 1073.18 1007.95 1080.15 1002.83C1096.92 990.505 1116.93 970.87 1121.48 949.848C1125.5 931.296 1107.13 920.59 1091.4 918.343C1076.14 916.163 1059.57 918.724 1044.24 919.427C1025.13 920.303 1006.04 919.61 986.924 920.172C965.295 920.808 943.422 922.299 921.882 924.373C915.088 925.027 908.887 928.278 902.234 928.573C888.041 929.204 879.807 937.945 878.249 951.677C876.456 967.494 878.291 980.295 867.003 991.583C859.414 999.172 851.962 1002.95 851.962 1013.94" stroke="black" stroke-width="4" stroke-linecap="round" stroke-linejoin="round"/>
<path d="M938.22 967.599C951.959 966.225 967.318 963.183 978.532 972.748C987.434 980.341 991.778 986.173 1003.67 981.691C1010.99 978.932 1018.54 974.384 1026.64 974.984C1030.99 975.307 1032.64 976.839 1035.78 973.696" stroke="black" stroke-width="4" stroke-linecap="round" stroke-linejoin="round"/>
<path d="M890.182 1040.77C890.182 1060.83 889.184 1081.12 890.385 1101.14C890.589 1104.55 890 1105.21 892.892 1105.07C900.909 1104.68 908.987 1102.85 917.011 1102.29C951.061 1099.93 985.439 1099.96 1019.39 1103.65C1028.35 1104.62 1041.76 1109.02 1051.16 1107.85C1053.42 1107.56 1055.79 1098.39 1056.45 1097.07C1060.4 1089.05 1065.42 1081.06 1071.08 1074.11C1074.52 1069.87 1079 1066.51 1082.33 1062.05C1084.84 1058.68 1085.36 1056.92 1080.63 1056.69C1073.2 1056.33 1065.78 1056.12 1058.34 1055.68C1033.59 1054.19 1008.45 1050.38 983.68 1050.53C976.018 1050.57 969.544 1053.8 962.135 1055.27C950.103 1057.65 937.633 1057.78 925.413 1057.84C920.603 1057.87 902.494 1061.82 906.036 1052.97" stroke="black" stroke-width="4" stroke-linecap="round" stroke-linejoin="round"/>
<path d="M949.196 1076.14C971.371 1076.14 993.553 1075.99 1015.73 1076.14C1018.97 1076.16 1021.67 1076.66 1024.81 1077.36" stroke="black" stroke-width="4" stroke-linecap="round" stroke-linejoin="round"/>
<path d="M882.708 1155.41C882.708 1189.15 883.928 1290.37 883.928 1256.63" stroke="black" stroke-width="4" stroke-linecap="round" stroke-linejoin="round"/>
<path d="M840.024 1255.41C875.271 1255.41 911.174 1252.91 946.26 1256.77C958.871 1258.15 970.725 1260.29 983.388 1260.29C996.264 1260.29 1008.23 1259.94 1020.86 1257.24C1047.38 1251.56 1129.35 1257.85 1102.23 1257.85" stroke="black" stroke-width="4" stroke-linecap="round" stroke-linejoin="round"/>
<path d="M1101.01 1257.85C1105.88 1241.85 1112.98 1226.31 1111.44 1209.2C1110.07 1193.91 1104.32 1179.43 1101.68 1164.35C1101.24 1161.84 1102.18 1157.76 1100.33 1159.61C1099.28 1160.66 1098.57 1162.19 1098.57 1161.51" stroke="black" stroke-width="4" stroke-linecap="round" stroke-linejoin="round"/>
<path d="M846.122 1150.53C917.532 1150.53 988.945 1150.34 1060.35 1150.53C1072.26 1150.56 1084.13 1150.74 1095.92 1152.43C1107.95 1154.14 1143.64 1160.29 1131.49 1160.29" stroke="black" stroke-width="4" stroke-linecap="round" stroke-linejoin="round"/>
<path d="M921.733 1215.17C943.369 1215.17 965.005 1215.17 986.64 1215.17C990.83 1215.17 996.721 1217.78 993.686 1212.73" stroke="black" stroke-width="4" stroke-linecap="round" stroke-linejoin="round"/>
<path d="M875.387 1295.66C875.387 1326.86 873.447 1358.79 875.658 1389.97C875.823 1392.29 878.822 1410.19 880.265 1402.98" stroke="black" stroke-width="4" stroke-linecap="round" stroke-linejoin="round"/>
<path d="M1102.22 1289.56C1101.93 1325.33 1101.42 1361.1 1101 1396.88" stroke="black" stroke-width="4" stroke-linecap="round" stroke-linejoin="round"/>
<path d="M865.631 1318.83C938.848 1318.83 1012.07 1318.83 1085.28 1318.83C1087.38 1318.83 1109.59 1317.71 1108.32 1315.17" stroke="black" stroke-width="4" stroke-linecap="round" stroke-linejoin="round"/>
<path d="M865.631 1377.36C932.964 1377.36 1000.16 1377.81 1067.46 1379.67C1076.73 1379.92 1085.71 1378.58 1094.9 1378.58" stroke="black" stroke-width="4" stroke-linecap="round" stroke-linejoin="round"/>
<path d="M936.364 1340.78C964.414 1340.78 992.463 1340.78 1020.51 1340.78" stroke="black" stroke-width="4" stroke-linecap="round" stroke-linejoin="round"/>
<path d="M867.098 1477.12C867.291 1474.9 867.87 1468.26 868.046 1470.48C869.007 1482.65 868.22 1495.08 868.453 1507.27C868.617 1515.85 866.404 1535.33 873.195 1542.71C875.206 1544.89 877.006 1543.58 879.158 1542.64C889.346 1538.21 901.763 1536.85 912.492 1535.39C938.498 1531.86 964.697 1529.72 990.881 1528.07C1009.22 1526.92 1027.71 1525.81 1046.1 1525.91C1059.99 1525.98 1073.59 1528.78 1087.43 1529.29C1112.97 1530.23 1107.72 1491.78 1102.94 1475.36C1100.6 1467.3 1097.78 1458.93 1090.82 1453.68C1077.36 1443.54 1060.82 1435.46 1045.76 1428.07C1024.57 1417.67 1005.89 1417.09 983.767 1425.63C968.201 1431.64 954.747 1440.8 938.373 1444.87C920.92 1449.22 902.619 1447.85 884.781 1447.85C882.132 1447.85 869.039 1449.82 871.976 1445.42" stroke="black" stroke-width="4" stroke-linecap="round" stroke-linejoin="round"/>
<path d="M929.683 1496.64C959.348 1496.64 989.603 1498.2 1019.18 1495.28C1026.95 1494.52 1037.49 1493.87 1044.32 1489.32" stroke="black" stroke-width="4" stroke-linecap="round" stroke-linejoin="round"/>
<path d="M862.167 1570.05C862.167 1576.25 860.564 1585.03 863.318 1590.78C870.229 1605.22 887.071 1615.75 898.346 1626.56C901.005 1629.11 910.813 1636.57 910.813 1641.33C910.813 1643.31 906.846 1644.32 905.46 1645.05C903.229 1646.24 897.533 1646.97 897.533 1649.93C897.533 1653.87 912.297 1650.56 914.878 1650.54C946.904 1650.28 979.871 1656.86 1011.43 1649.93C1033.06 1645.18 1056.46 1642.39 1078.5 1640.79C1087.88 1640.1 1097.08 1637.84 1106.48 1637.2C1112.88 1636.75 1112.93 1636.11 1111.63 1629.13C1109.28 1616.48 1104.16 1604.74 1101.2 1592.28C1100.18 1588.01 1099.94 1582.25 1094.76 1582.25C1075.83 1582.25 1057.38 1576.87 1038.59 1575.07C1004.79 1571.82 970.213 1573.71 936.288 1573.71C917.131 1573.71 896.603 1575.86 877.614 1573.03C873.025 1572.35 867.549 1569.72 863.386 1572.49" stroke="black" stroke-width="4" stroke-linecap="round" stroke-linejoin="round"/>
<path d="M929.256 1599.32C951.66 1599.32 974.063 1599.32 996.466 1599.32C1008.03 1599.32 1020 1598.45 1031.49 1600C1034.04 1600.34 1041.12 1600.48 1043.15 1602.51C1048.07 1607.42 1040.3 1612.93 1037.8 1615.18" stroke="black" stroke-width="4" stroke-linecap="round" stroke-linejoin="round"/>
<path d="M864.493 1696.89C861.277 1718.13 853.163 1751.53 868.761 1770.6C872.561 1775.24 875.709 1780.83 881.16 1783.74C887.844 1787.32 895.58 1788.5 902.976 1789.57C925.029 1792.76 946.922 1792.83 969.17 1791.67C1001.62 1789.99 1031.73 1779.23 1064.23 1778.66C1072.17 1778.52 1080.13 1778.59 1088.08 1778.59C1093.07 1778.59 1099.55 1779.43 1104.2 1777.1C1112.32 1773.04 1114.4 1756.85 1114.5 1749.19C1114.72 1732.31 1095.49 1722.65 1082.79 1715.79C1061.52 1704.3 1042.77 1692.01 1017.61 1692.01C986.239 1692.01 955.118 1696.89 923.709 1696.89C909.435 1696.89 895.162 1696.89 880.889 1696.89C875.569 1696.89 863.273 1693.71 863.273 1700.54" stroke="black" stroke-width="4" stroke-linecap="round" stroke-linejoin="round"/>
<path d="M911.39 1756.64C935.126 1755.81 958.285 1751.72 981.852 1749.26C999.304 1747.44 1014.52 1750.51 1028.33 1761.79C1030.47 1763.54 1051.75 1787.65 1054.01 1786.11C1056.04 1784.74 1057.53 1777.41 1057.73 1776.63C1059.66 1769.22 1061.04 1761.69 1062.61 1754.2" stroke="black" stroke-width="4" stroke-linecap="round" stroke-linejoin="round"/>
<path d="M868.366 1823.72C868.366 1843.03 865.927 1862.12 865.927 1881.31C865.927 1887.48 873.377 1883.84 878.258 1883.75C931.39 1882.69 984.405 1887.99 1037.48 1889.3C1057.82 1889.8 1078.08 1887.13 1098.45 1887.13C1102.94 1887.13 1112.3 1888.98 1108.34 1881.98C1103.46 1873.34 1097.42 1861.52 1086.12 1861.52C1059.31 1861.52 1032.66 1866 1005.77 1863.01C987.603 1861 971.457 1851.53 954.411 1845.4C937.665 1839.37 921.255 1830.15 903.055 1829.82C890.072 1829.57 877.614 1829.1 864.707 1827.38" stroke="black" stroke-width="4" stroke-linecap="round" stroke-linejoin="round"/>
<path d="M943.098 1867.62C968.916 1867.62 994.79 1868.04 1020.61 1867.49C1032.78 1867.22 1026.65 1866.88 1030.9 1865.18" stroke="black" stroke-width="4" stroke-linecap="round" stroke-linejoin="round"/>
<path d="M850.976 1952.99C852.225 1972.5 850.864 1992.61 855.041 2011.8C855.405 2013.47 860.279 2037.58 861.681 2038.09C866.27 2039.74 882 2039.24 884.513 2039.58C908.767 2042.82 932.045 2049.4 955.314 2056.79C968.657 2061.02 981.003 2069.55 993.798 2062.21C1025.36 2044.1 1064.65 2039.77 1099.9 2032.8C1108.23 2031.15 1116.73 2029.95 1125.24 2029.82C1131.25 2029.73 1125.5 2024.62 1123.48 2021.15C1117.73 2011.29 1112.76 2001.4 1108.03 1991.07C1106.1 1986.85 1103.64 1981.31 1100.03 1978.19C1092.42 1971.61 1075.74 1971.29 1066.83 1970.2C1030.84 1965.79 995.407 1959.61 959.651 1953.8C929.752 1948.94 898.241 1951.77 868.049 1951.77C862.042 1951.77 856.035 1951.77 850.027 1951.77C845.922 1951.77 846.578 1950.73 846.098 1946.89" stroke="black" stroke-width="4" stroke-linecap="round" stroke-linejoin="round"/>
<path d="M915.048 1993.23C954.388 1993.23 993.734 1993.01 1033.07 1993.3C1041.4 1993.36 1050.71 1993.08 1058.95 1994.45" stroke="black" stroke-width="4" stroke-linecap="round" stroke-linejoin="round"/>
<path d="M858.289 2105.43C940.514 2105.43 1025.29 2099.61 1106.67 2113.7C1107.77 2113.89 1119.46 2114.3 1120.36 2115.87C1121.73 2118.27 1116.67 2130.76 1116.29 2132.53C1113.2 2146.86 1112.02 2162.74 1107.08 2176.57C1106.18 2179.07 1104.09 2178.6 1101.93 2178.6C1088.29 2178.6 1074.64 2178.52 1061 2178.6C1030.45 2178.8 1000.13 2182.52 969.606 2183.35C953.453 2183.79 937.438 2183.6 921.299 2184.7C904.803 2185.83 887.827 2187.2 871.84 2181.99C866.687 2180.31 861.584 2177.78 856.663 2175.49C853.309 2173.93 854.537 2168.04 854.698 2164.99C855.351 2152.58 857.07 2140.43 857.07 2127.93C857.07 2123.65 854.141 2119.57 853.411 2115.19" stroke="black" stroke-width="4" stroke-linecap="round" stroke-linejoin="round"/>
<path d="M924.195 2151.77C943.767 2150.25 963.33 2148.73 982.936 2147.71C989.273 2147.38 1000.65 2145.2 1007.12 2148.18C1013.64 2151.19 1020.8 2150.81 1027.86 2150.28C1031.45 2150.02 1049.81 2150.08 1049.81 2145.68" stroke="black" stroke-width="4" stroke-linecap="round" stroke-linejoin="round"/>
<path d="M909.959 2255.44C909.959 2281.84 909.959 2308.24 909.959 2334.64C909.959 2344.75 910.045 2338.71 909.688 2332.4C908.066 2303.8 905.081 2275.23 905.081 2246.56C905.081 2241.88 904.976 2255.91 905.149 2260.58C905.837 2279.17 907.403 2297.65 907.52 2316.28C907.527 2317.43 907.52 2318.58 907.52 2319.73C907.52 2320.61 907.52 2317.97 907.52 2317.09C907.52 2306.65 907.731 2296.22 908.13 2285.79C908.25 2282.63 908.739 2253.15 908.739 2271.83C908.739 2300.82 908.092 2329.87 909.688 2358.83C910.288 2369.71 906.601 2350.27 906.3 2348.53C903.5 2332.33 902.732 2316.03 902.642 2299.61C902.617 2295.11 906.019 2271.29 899.728 2271.29C899.597 2271.29 901.382 2267.68 903.726 2267.63C920.632 2267.26 937.999 2269.51 954.676 2271.56C994.225 2276.43 1033.43 2283.26 1072.56 2290.67C1081.2 2292.3 1091.27 2295.23 1100.28 2294.73C1101.59 2294.66 1104.78 2292.05 1103.73 2292.83C1099.65 2295.89 1094.21 2293.92 1089.77 2292.5C1067.65 2285.37 1045.39 2279.61 1022.7 2274.27C991.895 2267.03 959.709 2263.12 929.336 2254.28C923.615 2252.62 918.036 2250.56 911.992 2250.56C906.147 2250.56 919.328 2253.85 920.393 2253.94C958.409 2257.5 995.588 2268.97 1032.86 2277.12C1043.23 2279.38 1053.94 2280.49 1064.23 2283.01C1067.06 2283.71 1086.71 2291.27 1074.46 2288.16C1005.8 2270.72 932.8 2280.66 864.768 2260.65C853.625 2257.37 865.85 2262.75 871.205 2262.75C883.577 2262.75 896.054 2260.08 908.401 2259.23C951.692 2256.24 995.255 2259.64 1038.15 2265.6C1048.13 2266.98 1056.34 2266.88 1066.2 2265.19C1076.45 2263.43 1081.59 2266.11 1089.5 2272.51C1091.52 2274.14 1097.95 2281.52 1099.53 2281.32C1101.59 2281.05 1104.31 2282.85 1105.83 2283.82C1106.16 2284.03 1114.69 2291.01 1113.69 2291.41C1112.54 2291.87 1105.6 2284.62 1104.88 2284.03C1100.07 2280.04 1095.05 2276.4 1088.96 2274.68C1086.04 2273.85 1083.28 2273.79 1080.29 2274C1063.32 2275.2 1046.35 2276.31 1029.34 2276.85C995.787 2277.89 961.581 2277.96 928.659 2270.82C923.431 2269.68 918.094 2268.82 912.94 2267.36C911.092 2266.84 906.765 2265.91 911.585 2266.14C950.195 2267.96 989.06 2266.06 1027.71 2266.41C1048.31 2266.6 1067.77 2270.63 1087.47 2276.51C1091.59 2277.74 1096.1 2278.9 1088.55 2278.61C1059.96 2277.48 1030.91 2269.94 1002.51 2266.41C973.743 2262.84 944.855 2260.5 916.124 2256.79C912.26 2256.29 927.078 2256.41 927.846 2256.38C967.068 2254.87 1003.73 2260.4 1042.35 2266.55C1056.72 2268.84 1071.43 2269.28 1084.96 2274.27C1089.99 2276.12 1088.01 2280.69 1088.01 2285.92C1088.01 2300.21 1087.74 2314.53 1088.08 2328.81C1088.35 2339.95 1089.73 2350.86 1091.67 2361.81C1094.65 2378.62 1093.03 2355.43 1093.16 2350.7C1093.59 2335.63 1095.33 2320.5 1095.33 2305.44C1095.33 2295.1 1095.33 2302.62 1095.33 2309.64C1095.33 2328.12 1095.66 2346.47 1096.48 2364.92C1096.5 2365.38 1096.77 2370.14 1095.87 2366.41C1093.85 2358.04 1093.3 2349.11 1092.28 2340.6C1090.11 2322.55 1089.23 2304.76 1089.23 2286.6C1089.23 2283.18 1089.39 2273.78 1091.26 2283.42C1096.51 2310.33 1100.66 2337.88 1103.05 2365.19C1103.57 2371.05 1104.26 2388.67 1103.87 2382.81C1103.4 2375.77 1103.14 2368.71 1102.65 2361.67C1101.96 2351.84 1101.43 2322.28 1101.43 2332.13C1101.43 2340.15 1098.54 2347.92 1095.4 2355.17C1093.28 2360.05 1090.93 2364.2 1088.01 2368.58C1086.69 2370.56 1085.92 2372.32 1086.79 2368.85" stroke="black" stroke-width="4" stroke-linecap="round" stroke-linejoin="round"/>
<path d="M1094.89 2389.59C1084.82 2389.01 1075.23 2387.23 1065.21 2385.52C1018.3 2377.5 971.389 2369.27 924.696 2360.05C906.569 2356.46 887.005 2353.09 869.342 2346.83C868.647 2346.59 866.107 2345.57 866.971 2347.51C869.102 2352.31 887.843 2352.57 892.175 2353C924.478 2356.23 957.658 2354.22 990.077 2354.22C1011.48 2354.22 1032.91 2353.87 1054.31 2354.29C1067.49 2354.54 1077.93 2355.74 1088.93 2363.16C1090.87 2364.47 1096.06 2365.88 1094.14 2368.85C1090.58 2374.39 1079.68 2373.69 1074.43 2373.73C1023.55 2374.17 973.937 2368.95 923.476 2363.43C921.365 2363.2 915.478 2361.61 913.178 2363.03C912.491 2363.45 914.675 2363.8 915.482 2363.77C929.497 2363.19 943.354 2361.87 957.42 2361.67C995.058 2361.15 1033.02 2360.62 1070.5 2364.65C1079.71 2365.64 1088.84 2367.02 1098.01 2368.31C1099.93 2368.58 1105.31 2368.25 1106.81 2370.07C1108.09 2371.62 1105.97 2376.38 1104.65 2373.73" stroke="black" stroke-width="4" stroke-linecap="round" stroke-linejoin="round"/>
<path d="M953.817 2333.49C974.549 2333.49 1036.75 2333.49 1016.01 2333.49" stroke="black" stroke-width="4" stroke-linecap="round" stroke-linejoin="round"/>
<path d="M817.142 2433.49C817.142 2478.07 817.142 2522.65 817.142 2567.23C817.142 2570.42 815.984 2579.7 817.277 2576.78C817.701 2575.83 818.286 2575.81 819.445 2575.57C824.41 2574.5 832.342 2574.38 836.18 2574.21C898.754 2571.41 961.44 2569.68 1024.06 2568.18C1051.9 2567.51 1079.75 2567.64 1107.6 2567.64C1108.37 2567.64 1109.51 2569.02 1109.83 2568.32C1114.73 2557.54 1119.08 2546.3 1123.92 2535.46C1132.62 2516.01 1141.73 2495.32 1142.76 2473.73C1142.81 2472.7 1143.17 2472.78 1143.98 2472.51C1148.01 2471.17 1151.32 2464.85 1153.6 2461.67C1156.87 2457.13 1165.04 2450.78 1156.45 2452.05C1128.19 2456.22 1099.02 2456.05 1070.54 2457.88C1043.39 2459.62 1017.19 2464.64 991.604 2473.67C986.24 2475.56 980.669 2477.04 975.411 2479.22C972.541 2480.41 969.77 2483.24 966.604 2483.49C957.588 2484.2 947.351 2480.39 939.096 2477.32C923.212 2471.42 906.906 2467.67 890.518 2463.44C874.592 2459.32 855.161 2456.79 840.923 2448.12C835.005 2444.52 829.248 2440.6 823.104 2437.42C821.024 2436.34 810.571 2429.2 814.703 2434.71" stroke="black" stroke-width="4" stroke-linecap="round" stroke-linejoin="round"/>
<path d="M882.731 2517.64C890.115 2508.67 895.377 2530.64 899.398 2535.25C907.025 2544 921.271 2537.45 931.038 2536.61C945.93 2535.32 960.933 2535.48 975.822 2534.17C990.664 2532.86 1004.53 2527.26 1019.25 2525.16C1030.2 2523.59 1041.02 2523.25 1051.84 2520.82C1055.14 2520.08 1058.74 2517.81 1062 2517.64C1066.96 2517.38 1072.49 2518.52 1077.25 2516.76C1082.4 2514.84 1086.39 2510.32 1091.27 2507.88" stroke="black" stroke-width="4" stroke-linecap="round" stroke-linejoin="round"/>
<path d="M1205.88 85.0245C1203.85 95.9698 1201.42 106.981 1200.52 118.104C1199.81 126.875 1202.67 135.301 1204.4 143.802C1206.16 152.484 1207.62 161.094 1207.58 169.979C1207.57 172.167 1205.82 179.105 1207.05 181.341C1207.29 181.781 1210 182.664 1210.13 182.722C1216.46 185.567 1222.8 187.77 1229.67 188.987C1261.44 194.617 1295.24 190.261 1327.31 190.261C1342.83 190.261 1359.43 193.359 1374.2 187.288C1384.21 183.174 1392.74 179.262 1403.61 177.731C1414.59 176.185 1419.64 174.471 1422.68 162.917C1425.37 152.693 1428.03 138.062 1424.16 127.661C1422.11 122.122 1416.73 116.869 1412.85 112.528C1406.15 105.028 1399.09 99.2481 1389.92 95.0066C1372.92 87.1479 1354.28 79.4942 1335.97 75.5734C1310.35 70.088 1283.21 73.132 1257.17 71.6443C1251.03 71.2931 1234.37 67.2674 1229.25 72.3876C1225.61 76.0204 1222.27 80.9305 1219.74 85.3962C1216.72 90.74 1212 85.0245 1207.8 85.0245" stroke="black" stroke-width="4" stroke-linecap="round" stroke-linejoin="round"/>
<path d="M1231.69 125.165C1240.01 125.315 1248.31 125.373 1256.54 126.918C1267.33 128.944 1275.78 133.699 1285.85 137.377C1291.23 139.344 1292.15 137.016 1294.82 133.077C1297.39 129.287 1299.45 128.854 1304.01 129.201C1318.52 130.306 1333.17 131.971 1347.54 134.298C1357.22 135.865 1357.98 136.939 1358.59 146.829C1358.96 152.838 1357.46 155.902 1362.84 151.395C1367.17 147.768 1373.17 146.085 1378.23 143.749C1379.97 142.951 1388.08 137.662 1389.17 141.625C1389.27 141.977 1389.38 145.714 1389.38 144.28" stroke="black" stroke-width="4" stroke-linecap="round" stroke-linejoin="round"/>
<path d="M1208.75 241.765C1208.79 259.9 1207.75 278.701 1209.39 296.826C1209.76 300.993 1209.55 300.208 1213.05 299.746C1224.21 298.274 1219.13 298.579 1235.19 296.985C1267.08 293.821 1299.14 292.228 1331.19 292.631C1357.33 292.96 1383.65 294.525 1409.03 301.126C1415.24 302.741 1422.87 307.786 1416.89 299.109C1404.19 280.678 1392.26 261.666 1379.08 243.57C1374.85 237.758 1370.41 232.056 1365.81 226.526C1358.79 218.085 1352.08 219.298 1341.44 220.048C1303.51 222.722 1266.18 230.272 1228.82 236.986C1220.56 238.471 1212.31 240.023 1204.08 241.659C1201.01 242.268 1191.5 242.665 1189 245.588C1187.94 246.82 1188.68 247.431 1188.68 244.632" stroke="black" stroke-width="4" stroke-linecap="round" stroke-linejoin="round"/>
<path d="M1231.69 272.348C1239.67 271.447 1248.23 270.122 1255.95 273.092C1258.04 273.895 1263.37 265.29 1264.71 263.853C1267.17 261.225 1271.14 255.582 1274.22 260.136C1274.83 261.046 1277.17 266.57 1279.05 264.49C1281.01 262.326 1281.3 264.824 1283.51 266.986C1289.07 272.416 1292.07 266.565 1297.53 264.384C1300.4 263.234 1302.23 264.805 1303.26 261.198C1303.39 260.762 1303.37 265.481 1303.37 266.561C1303.37 267.174 1302.88 272.213 1304.01 270.012C1306.02 266.05 1306.2 264.711 1310.32 265.871C1315.98 267.462 1329.87 251.007 1331.08 258.915C1331.45 261.305 1331.82 261.961 1333.63 260.03C1337.35 256.07 1340.76 254.878 1346.32 255.517C1357.46 256.797 1367.21 263.607 1377.17 268.207C1378.49 268.814 1387.2 273.859 1388.43 271.393" stroke="black" stroke-width="4" stroke-linecap="round" stroke-linejoin="round"/>
<path d="M1200.15 354.541C1200.15 368.449 1196.49 389.136 1203.12 402.169C1209.84 415.358 1221.4 414.901 1235.25 416.345C1245.58 417.424 1327.82 420.41 1330.13 420.54C1383.23 423.537 1435.58 429.213 1487.72 439.602C1492.12 440.479 1501.79 445.001 1501.15 440.557C1500.64 436.939 1496 433.362 1494.3 430.257C1488.07 418.824 1484.77 405.494 1480.82 393.195C1476.97 381.247 1474.15 368.249 1465.58 358.63C1461.62 354.194 1457.17 350.454 1451.19 349.232C1432.55 345.424 1411.11 347.245 1392.36 347.108C1349.89 346.796 1307.49 348.807 1265.03 348.807C1252.45 348.807 1242.61 349.005 1231.16 354.541C1224.55 357.736 1217.95 361.202 1210.98 363.568C1205.95 365.274 1204.36 363.638 1200.15 361.231" stroke="black" stroke-width="4" stroke-linecap="round" stroke-linejoin="round"/>
<path d="M1217.35 387.992C1244.43 387.992 1271.51 387.992 1298.59 387.992" stroke="black" stroke-width="4" stroke-linecap="round" stroke-linejoin="round"/>
<path d="M1331.08 392.771C1348.75 392.771 1367.14 391.506 1384.61 394.682" stroke="black" stroke-width="4" stroke-linecap="round" stroke-linejoin="round"/>
<path d="M1431.44 381.302C1441.31 382.04 1451.16 382.258 1461.06 382.258" stroke="black" stroke-width="4" stroke-linecap="round" stroke-linejoin="round"/>
<path d="M1206.84 478.787C1206.84 511.706 1206.84 544.626 1206.84 577.546C1206.84 578.539 1206.66 575.486 1207.05 574.572C1209.52 568.82 1241.19 565.321 1242.31 565.121C1305.75 553.832 1369.5 555.055 1432.82 565.971C1433.72 566.127 1438.94 567.73 1439.51 565.705C1441.33 559.206 1440.22 550.512 1440.04 543.883C1439.2 513.4 1422.85 483.294 1405.42 459.141C1398.48 449.518 1386.53 431.127 1372.29 431.956C1368 432.205 1361.08 435.949 1357.53 437.796C1349.63 441.901 1341.89 446.01 1333.74 449.637C1305.5 462.208 1276.67 467.878 1245.81 468.22C1244.92 468.23 1225 468.586 1225 468.274" stroke="black" stroke-width="4" stroke-linecap="round" stroke-linejoin="round"/>
<path d="M1220.22 468.274C1211.38 467.401 1203.79 466.403 1195.58 469.76C1192.06 471.203 1197.45 474.681 1199.19 477.3C1200.35 479.028 1202.49 479.989 1202.96 482.132C1203.5 484.549 1202.06 486.316 1202.06 481.654" stroke="black" stroke-width="4" stroke-linecap="round" stroke-linejoin="round"/>
<path d="M1217.35 518.927C1223.87 518.927 1230.38 518.989 1236.89 518.927C1240.21 518.896 1248.85 519.939 1251.92 517.175C1255.27 514.163 1251.45 509.011 1257.17 506.662C1260.51 505.293 1272.88 505.258 1270.87 511.282" stroke="black" stroke-width="4" stroke-linecap="round" stroke-linejoin="round"/>
<path d="M1304.32 508.414C1308.99 508.414 1319.8 510.411 1323.55 506.662C1327.43 502.775 1324.62 498.647 1331.83 501.459C1337.02 503.482 1341.46 506.373 1345.74 509.901C1347.71 511.527 1348.56 513.046 1349.24 510.326" stroke="black" stroke-width="4" stroke-linecap="round" stroke-linejoin="round"/>
<path d="M1380.78 508.414C1390.15 506.63 1395.34 515.349 1401.23 521.742C1404.75 525.572 1408.13 529.557 1411.79 533.263C1414.22 535.718 1413.36 534.647 1412.32 533.263" stroke="black" stroke-width="4" stroke-linecap="round" stroke-linejoin="round"/>
<path d="M1214.49 627.881C1214.49 639.934 1214.49 651.987 1214.49 664.04C1214.49 666.347 1213.11 678.577 1214.91 681.721C1216.7 684.831 1222.05 682.392 1225.64 682.57C1242.14 683.39 1258.58 685.16 1275.02 686.818C1315.28 690.88 1355.54 694.722 1395.86 698.181C1405.17 698.979 1414.4 699.561 1423.74 699.561C1427.68 699.561 1423.17 694.78 1422.25 693.136C1412.63 675.924 1404.05 658.229 1393 641.845C1386.46 632.166 1379.9 623.045 1374.73 612.536C1372.69 608.388 1371.55 606.697 1366.98 606.855C1359.27 607.121 1351.64 610.105 1344.36 612.377C1328.13 617.442 1311.81 622.403 1295.09 625.545C1281.4 628.115 1267.3 629.894 1253.35 629.793C1247.6 629.751 1242.65 627.393 1237.05 626.978C1230.19 626.47 1223.27 625.97 1216.4 625.97" stroke="black" stroke-width="4" stroke-linecap="round" stroke-linejoin="round"/>
<path d="M1245.07 668.978C1263.01 668.978 1280.88 669.186 1298.8 669.721C1311.08 670.087 1322.02 664.369 1334.16 662.872C1340.57 662.081 1347.05 662.287 1353.49 662.287C1359.85 662.287 1366.26 669.363 1371.23 672.801" stroke="black" stroke-width="4" stroke-linecap="round" stroke-linejoin="round"/>
<path d="M1227.87 746.392C1227.87 773.185 1227.64 799.988 1227.87 826.78C1227.9 830.577 1234.54 826.245 1236.2 825.771C1286.75 811.388 1341.86 807.35 1394.16 807.028C1411.54 806.921 1431.01 806.317 1447.58 812.762C1452.06 814.507 1447.26 807.081 1446.73 806.178C1437.61 790.803 1425.85 776.348 1414.23 762.799C1405.43 752.525 1395.79 740.479 1381.74 737.897C1368.8 735.52 1355.2 736.067 1342.13 735.879C1325.68 735.642 1309.33 734.933 1292.91 734.021C1286.24 733.65 1242.2 727.392 1242.2 744.268C1242.2 748.854 1241.23 748.581 1237 749.472C1233.96 750.111 1230.99 749.837 1227.97 750.268C1225.77 750.582 1226.41 747.925 1225.95 745.436" stroke="black" stroke-width="4" stroke-linecap="round" stroke-linejoin="round"/>
<path d="M1248.89 786.533C1266.53 786.96 1284.21 788.031 1301.62 791.046C1305.71 791.756 1307.21 792.878 1310.16 789.825C1313.78 786.084 1316.99 782.176 1320.94 778.728C1329.37 771.371 1336.68 770.285 1347.33 770.285" stroke="black" stroke-width="4" stroke-linecap="round" stroke-linejoin="round"/>
<path d="M1410.41 987.237C1376.44 987.237 1342.2 988.281 1308.31 985.803C1290.04 984.468 1274.23 979.914 1258.87 970.034C1245.59 961.491 1240 945.95 1243.79 930.211C1246.18 920.335 1262.3 915.21 1270.08 911.734C1286.69 904.311 1303.37 899.631 1321.53 898.354C1338.63 897.151 1356.93 896.064 1374.09 897.61C1383.84 898.488 1393.12 903.091 1400.85 908.867C1404.65 911.701 1408.25 914.12 1409.83 918.849C1413.75 930.634 1414.59 946.074 1412.53 958.246C1411.41 964.909 1408.57 972.811 1402.92 977.042C1401.75 977.921 1400.45 978.451 1401.49 980.016C1402.54 981.589 1407.23 988.193 1406.59 988.193" stroke="black" stroke-width="4" stroke-linecap="round" stroke-linejoin="round"/>
<path d="M1283.3 948.052C1302.73 947.48 1322.15 947.198 1341.6 947.096C1345.01 947.078 1350.01 947.668 1353.07 946.14" stroke="black" stroke-width="4" stroke-linecap="round" stroke-linejoin="round"/>
<path d="M1391.3 1046.49C1391.3 1064.1 1391.76 1081.78 1391.3 1099.38C1390.99 1110.71 1384.65 1106.67 1374.94 1105.43C1341.89 1101.21 1308.82 1097.94 1275.55 1096.08C1256.37 1095.02 1235.73 1092.79 1216.45 1094.33C1214.12 1094.52 1215.41 1090.36 1215.49 1087.7C1215.73 1079.79 1217.2 1072.13 1218.95 1064.44C1219.89 1060.3 1221.54 1043.53 1226.17 1040.97C1229.04 1039.38 1237.71 1040.74 1240.4 1040.76C1262.6 1040.89 1284.81 1041.59 1306.98 1042.88C1325.08 1043.94 1343.11 1045.73 1361.24 1046.28C1366.93 1046.45 1379.38 1044.35 1384.66 1047.98C1387.48 1049.92 1390.25 1053.8 1393.84 1054.09C1395.22 1054.19 1403.05 1055.29 1399.9 1053.18" stroke="black" stroke-width="4" stroke-linecap="round" stroke-linejoin="round"/>
<path d="M1255.58 1077.08C1275.65 1077.08 1295.72 1077.08 1315.79 1077.08" stroke="black" stroke-width="4" stroke-linecap="round" stroke-linejoin="round"/>
<path d="M1403.72 1271.09C1403.06 1251.07 1399.51 1233.55 1392.94 1214.65C1389.55 1204.89 1386.19 1194.95 1385.56 1184.54C1385.43 1182.3 1331.62 1184.99 1327.69 1185.18C1308.06 1186.1 1288.32 1187.04 1268.75 1188.9C1264.01 1189.35 1259.93 1190.22 1255.64 1192.19C1249.97 1194.78 1246.21 1192.93 1246.77 1199.73C1247.97 1214.32 1244.22 1228.92 1245.07 1243.37C1245.13 1244.46 1249.23 1242.52 1249.53 1242.47C1257.96 1241.05 1266.96 1241.49 1275.44 1241.46C1290.82 1241.4 1306.2 1241.46 1321.58 1241.46C1351.83 1241.46 1382.07 1241.46 1412.32 1241.46" stroke="black" stroke-width="4" stroke-linecap="round" stroke-linejoin="round"/>
<path d="M1280.43 1216.61C1293.85 1217.29 1307.24 1217.49 1320.68 1217.57C1326.47 1217.6 1332.22 1217.18 1337.77 1218.95C1342.52 1220.46 1345.05 1218.7 1347.33 1214.7" stroke="black" stroke-width="4" stroke-linecap="round" stroke-linejoin="round"/>
<path d="M1232.64 1391.51C1232.64 1371.93 1233.37 1352.2 1232.48 1332.63C1232.31 1328.73 1231.84 1325.82 1230.2 1322.38C1230.11 1322.19 1228.84 1320.39 1229.41 1319.94C1230.08 1319.4 1232.81 1319.84 1233.49 1319.83C1265.11 1319.27 1296.69 1317.52 1328.32 1317.18C1345.83 1316.99 1363.18 1316.78 1380.46 1319.73C1386.29 1320.72 1391.24 1320.17 1397.03 1319.89C1400.67 1319.7 1422.67 1320.14 1415.99 1328.49C1407.86 1338.64 1394.32 1343.35 1382.48 1347.34C1372.75 1350.62 1362.99 1353.92 1353.23 1357.11C1335.84 1362.78 1318.39 1364.42 1300.24 1365.65C1272.57 1367.53 1244.45 1367.45 1216.72 1367.62C1214.31 1367.63 1199.19 1369.59 1199.19 1365.71" stroke="black" stroke-width="4" stroke-linecap="round" stroke-linejoin="round"/>
<path d="M1270.87 1342.77C1291.48 1342.77 1312.34 1341.91 1332.89 1343.78C1336.22 1344.08 1339.59 1346.3 1340.64 1349.46" stroke="black" stroke-width="4" stroke-linecap="round" stroke-linejoin="round"/>
<path d="M1242.2 1450.77C1242.2 1474.94 1242.2 1499.12 1242.2 1523.3C1242.2 1523.75 1241.67 1528.41 1242.41 1528.93C1242.87 1529.24 1243.48 1528.65 1244.01 1528.5C1248.17 1527.32 1251.7 1526.74 1256.22 1526.27C1311.17 1520.54 1366.76 1523.69 1421.88 1520.54C1422.35 1520.51 1432.09 1520.73 1433.14 1519.37C1434.23 1517.94 1430.78 1509.12 1430.59 1508.43C1426.67 1494.68 1422.02 1461.97 1403.93 1460.11C1386.48 1458.32 1368.34 1458.83 1350.84 1458.63C1324.94 1458.32 1299 1458.16 1273.1 1458.63C1254.37 1458.96 1234.58 1462.92 1215.87 1461.07C1214.37 1460.92 1209.68 1459.37 1213.53 1459.37" stroke="black" stroke-width="4" stroke-linecap="round" stroke-linejoin="round"/>
<path d="M1284.25 1489C1306.89 1489 1329.51 1488.78 1352.11 1488.04" stroke="black" stroke-width="4" stroke-linecap="round" stroke-linejoin="round"/>
<path d="M1251.76 1579.79C1251.76 1589.17 1251.74 1598.55 1251.76 1607.93C1251.76 1608.58 1250.36 1620.81 1253.3 1621.79C1259.65 1623.91 1274.31 1621.85 1279.9 1621.84C1299.58 1621.81 1319.26 1621.76 1338.94 1621.9C1348.69 1621.96 1358.53 1621.93 1368.25 1622.8C1370.45 1623 1372.92 1623.22 1374.94 1624.23C1378.57 1626.04 1377.04 1612.8 1377.12 1611.22C1377.8 1597.72 1385.14 1557.75 1383.65 1571.19C1383.34 1574.02 1377.85 1572.73 1376.43 1572.46C1350.69 1567.63 1325.22 1564.13 1299.01 1562.48C1294.54 1562.2 1280.45 1559.61 1275.23 1562.59C1274.27 1563.14 1275.05 1564.25 1274.48 1565.03C1271.81 1568.71 1263.45 1570.19 1259.46 1571.03C1253.72 1572.24 1247.11 1572.94 1241.41 1571.14C1234.46 1568.94 1236.62 1568.08 1238.17 1576.07C1238.93 1580.04 1240.29 1597.49 1240.29 1583.61" stroke="black" stroke-width="4" stroke-linecap="round" stroke-linejoin="round"/>
<path d="M1237.42 1591.26C1245.18 1591.11 1251.98 1588.34 1259.4 1586.48" stroke="black" stroke-width="4" stroke-linecap="round" stroke-linejoin="round"/>
<path d="M1272.79 1597.95C1291.58 1597.95 1310.38 1597.95 1329.17 1597.95" stroke="black" stroke-width="4" stroke-linecap="round" stroke-linejoin="round"/>
<path d="M1243.16 1782.41C1281.27 1782.41 1319.41 1782.83 1357.53 1782.41C1368.17 1782.29 1383.98 1785.1 1387.15 1771.58C1391.35 1753.72 1385.85 1734.7 1389.38 1716.78C1390.11 1713.11 1389.01 1715.59 1386.52 1716.25C1384.64 1716.75 1382.28 1716.5 1380.36 1716.46C1379.08 1716.44 1373.64 1716.35 1375.26 1713.59C1376.77 1711.03 1382.21 1713.31 1380.15 1716.89C1375.13 1725.6 1363.04 1726.93 1354.02 1726.97C1329.52 1727.1 1305.03 1727.77 1280.54 1727.93C1274.94 1727.97 1268.22 1728.91 1262.7 1727.72C1255.14 1726.08 1252.74 1728.99 1245.6 1732.5C1242.85 1733.85 1238.61 1734.18 1236.15 1735.79C1235.19 1736.42 1239.88 1741.37 1240.18 1741.84C1243.71 1747.35 1245.91 1756.28 1246.02 1762.87C1246.15 1769.76 1243.16 1790.26 1243.16 1783.36" stroke="black" stroke-width="4" stroke-linecap="round" stroke-linejoin="round"/>
<path d="M1278.52 1763.29C1304.01 1763.29 1329.49 1763.29 1354.98 1763.29" stroke="black" stroke-width="4" stroke-linecap="round" stroke-linejoin="round"/>
<path d="M1236.47 1851.22C1236.47 1862.27 1235.39 1873.84 1236.57 1884.83C1236.97 1888.46 1239.36 1886.89 1242.1 1886.21C1263.2 1880.93 1285.15 1878.39 1306.77 1876.44C1345.35 1872.95 1387.37 1869.51 1425.6 1878.3C1432.06 1879.79 1432.39 1882.3 1432.39 1875.22C1432.39 1859.63 1432.84 1844.11 1433.83 1828.55C1434.27 1821.57 1434.45 1814.42 1435.68 1807.52C1436.1 1805.18 1436.21 1806.28 1435.63 1807.31C1430.27 1816.84 1420.42 1824.35 1412.69 1831.79C1404.07 1840.08 1396.04 1846.55 1384.07 1849.41C1365.75 1853.8 1344.94 1851.04 1326.31 1850.48C1316.83 1850.19 1307.05 1850.97 1297.69 1849.2C1290.24 1847.79 1283.34 1845.49 1275.71 1845.49C1267.75 1845.49 1262.31 1845.6 1254.73 1848.35C1248.66 1850.56 1241.34 1854.31 1238.38 1847.4" stroke="black" stroke-width="4" stroke-linecap="round" stroke-linejoin="round"/>
<path d="M1286.17 1864.6C1298.79 1864.6 1313.73 1864.6 1325.35 1864.6" stroke="black" stroke-width="4" stroke-linecap="round" stroke-linejoin="round"/>
<path d="M1259.4 1944.88C1259.4 1967.96 1259.4 1991.04 1259.4 2014.12C1259.4 2022.85 1259.26 2030.99 1256.17 2039.23C1254.61 2043.38 1259.76 2039.04 1261.63 2038.49C1286.17 2031.38 1313.08 2030.83 1338.25 2027.02C1363.67 2023.18 1389.46 2018.03 1415.3 2020.07C1426.51 2020.95 1441.85 2023.51 1451.08 2030.9C1451.95 2031.59 1451.41 2030.34 1451.29 2029.73C1450.37 2025.02 1449.47 2020.33 1448.64 2015.61C1446.08 2001.06 1441.11 1987.71 1436.43 1973.77C1434.77 1968.83 1433.56 1963.62 1431.44 1958.85C1430.8 1957.42 1423.04 1957.7 1422.25 1957.57C1395.67 1953.25 1370.37 1943.62 1343.46 1940.32C1327.14 1938.31 1308.92 1935.65 1293.07 1941.54C1289.11 1943.01 1285.55 1944.88 1281.28 1944.88C1275.97 1944.88 1271.3 1944.55 1266.84 1947.75C1264.34 1949.54 1262.16 1949.79 1259.19 1949.66C1251.41 1949.32 1249.79 1942.58 1247.94 1936.28" stroke="black" stroke-width="4" stroke-linecap="round" stroke-linejoin="round"/>
<path d="M1301.46 2002.23C1307.6 1995.03 1315.18 1983.95 1324.39 1980.24C1333.71 1976.5 1345.96 1994.47 1350.62 2000.31C1351.61 2001.54 1354.09 2007.51 1356.68 2006.05C1359.64 2004.37 1362.34 2002.38 1365.44 2000.9C1371.99 1997.76 1373.82 1997.03 1376.96 1990.23C1381.61 1980.15 1375.12 1979.56 1366.18 1977.75C1363.4 1977.18 1346.42 1971.42 1346.38 1972.39C1346.28 1974.61 1346.46 1976.85 1346.38 1979.08C1346.18 1984.47 1338.08 1988.74 1334.38 1991.5C1331.91 1993.34 1331.79 1995.96 1331.08 1991.71" stroke="black" stroke-width="4" stroke-linecap="round" stroke-linejoin="round"/>
<path d="M1246.98 2116.91C1246.98 2132.06 1246.98 2147.21 1246.98 2162.36C1246.98 2163.25 1246.2 2168.77 1248.15 2166.82C1250.16 2164.82 1250.21 2164.25 1251.02 2161.62C1254.6 2149.98 1275.65 2143.25 1285.42 2140.28C1308.4 2133.27 1334.42 2134.66 1358.16 2135.28C1370.56 2135.61 1382.93 2136.03 1395.33 2136.03C1409.66 2136.03 1422.85 2140.5 1436.85 2140.81C1443.79 2140.96 1447.5 2149.08 1453.42 2149.41C1453.86 2149.43 1456.06 2150.17 1456.07 2150.15C1457.06 2149.16 1456.29 2144.38 1456.29 2143.25C1456.29 2135.15 1458.42 2115.88 1448.64 2113.09C1444.53 2111.92 1440.52 2112.25 1436.27 2112.08C1420.21 2111.45 1404.24 2109.58 1388.16 2109.32C1375.19 2109.11 1362.48 2109.2 1349.56 2107.83C1341.12 2106.94 1332.82 2106.4 1324.34 2106.4C1307.19 2106.4 1287.6 2105.41 1271.35 2111.66C1269.56 2112.34 1240.29 2118.47 1240.29 2117.87" stroke="black" stroke-width="4" stroke-linecap="round" stroke-linejoin="round"/>
<path d="M1297.63 2121.69C1312.57 2121.69 1327.51 2121.69 1342.45 2121.69C1345.58 2121.69 1348.16 2121.9 1351.16 2122.65" stroke="black" stroke-width="4" stroke-linecap="round" stroke-linejoin="round"/>
<path d="M1225.95 2266.01C1241.19 2267.85 1284.13 2278.36 1273.42 2302.06C1267.78 2314.55 1258.82 2323.79 1255.58 2337.69C1254.57 2342.06 1251.43 2351.49 1252.77 2356.17C1252.97 2356.89 1254.41 2354.74 1254.41 2354.73C1261.1 2347.69 1277.13 2347.45 1285.85 2346.18C1306.93 2343.12 1327.76 2339.28 1349.14 2339.65C1372.07 2340.05 1394.5 2344.24 1417.31 2345.86C1424.93 2346.41 1442.13 2349.79 1446.52 2340.82C1451.41 2330.82 1445.14 2318.87 1440.52 2310.02C1437.16 2303.6 1432.29 2298.23 1428.57 2292.03C1424.27 2284.86 1419.46 2279.79 1411.95 2275.94C1389.65 2264.51 1366.29 2250.98 1341.28 2247.21C1322.28 2244.35 1303.84 2246.39 1285.53 2251.62C1271.92 2255.51 1259.39 2261.91 1246.18 2266.86C1240.94 2268.82 1235.89 2269.04 1230.52 2270.04C1225.35 2271.01 1220.84 2272.84 1215.44 2273.65" stroke="black" stroke-width="4" stroke-linecap="round" stroke-linejoin="round"/>
<path d="M1323.44 2311.88C1340.81 2308.26 1358.42 2309.25 1376 2309.97" stroke="black" stroke-width="4" stroke-linecap="round" stroke-linejoin="round"/>
<path d="M1280.43 2414.15C1280.43 2426.89 1280.35 2439.63 1280.48 2452.38C1280.51 2454.99 1279.69 2464.16 1281.39 2467.46C1281.74 2468.14 1284.48 2467.49 1285.26 2468.15C1291.49 2473.33 1306.69 2475.33 1313.72 2476.69C1352.22 2484.17 1391.84 2483.92 1430.91 2483.92C1438.25 2483.92 1445.4 2483.85 1452.68 2484.87C1459.29 2485.8 1466.29 2486.76 1472.64 2484.07C1480.71 2480.67 1488.47 2473.71 1494.62 2467.56C1497.91 2464.28 1495.15 2460.82 1493.4 2457.26C1489.31 2448.93 1485.7 2440.34 1482.25 2431.72C1481.33 2429.42 1480.03 2423.02 1478.27 2421.26C1477.97 2420.97 1477.88 2422.06 1477.52 2422.27C1475.84 2423.28 1473.33 2423.37 1471.47 2423.49C1451.56 2424.82 1431.24 2423.7 1411.31 2423.7C1373.92 2423.7 1336.52 2423.7 1299.12 2423.7C1292.43 2423.7 1286 2423.35 1279.48 2424.66" stroke="black" stroke-width="4" stroke-linecap="round" stroke-linejoin="round"/>
<path d="M1321.53 2454.29C1350.27 2454.29 1379.93 2456.05 1408.5 2453.33" stroke="black" stroke-width="4" stroke-linecap="round" stroke-linejoin="round"/>
</svg>
