<svg width="2606" height="2606" viewBox="0 0 2606 2606" fill="none" xmlns="http://www.w3.org/2000/svg">
<rect width="2606" height="2606" fill="white"/>
<path fill-rule="evenodd" clip-rule="evenodd" d="M394.399 394.18C375.068 402.289 355.393 409.624 336.405 418.507C335.45 418.953 335.728 420.553 335.779 421.605C337.696 461.64 333.479 459.826 343.525 483.97C346.939 492.176 348.679 501.436 354.198 508.402C381.638 543.039 409.368 559.985 452.519 561.578C464.713 562.028 477.709 564.554 489.101 559.138C511.609 548.438 520.506 526.557 528.781 503.933C541.018 470.477 530.926 432.081 513.229 402.784C501.568 383.478 460.935 363.64 439.815 359.313C435.78 358.486 436.78 362.381 434.462 365.022C429.937 370.178 423.398 375.726 416.84 378.049C409.972 380.482 402.82 382.026 395.81 384.015L394.399 394.18Z" stroke="black" stroke-width="4"/>
<path fill-rule="evenodd" clip-rule="evenodd" d="M1554.68 514.81C1570.48 506.144 1586.6 498.243 1602.09 488.813C1602.86 488.339 1602.58 486.749 1602.5 485.698C1599.51 445.743 1603.08 447.434 1593.88 423.596C1590.75 415.495 1588.98 406.291 1584.14 399.489C1560.11 365.671 1536.44 349.541 1500.49 349.203C1490.33 349.107 1479.43 346.961 1470.14 352.704C1451.78 364.051 1445.15 386.178 1439.05 409.029C1430.04 442.82 1439.77 480.899 1455.52 509.664C1465.9 528.619 1500.39 547.264 1518.12 550.976C1521.5 551.685 1520.53 547.821 1522.37 545.114C1525.96 539.83 1531.2 534.096 1536.58 531.584C1542.21 528.952 1548.1 527.201 1553.87 525.01L1554.68 514.81Z" stroke="black" stroke-width="4"/>
<path d="M321.644 394.134C425.16 472.344 314.256 386.59 537.437 596.65C539.404 598.501 536.106 591.339 534.741 589.009C534.016 587.773 532.503 587.22 531.385 586.326" stroke="black" stroke-width="4"/>
<path d="M1606.75 582.029C1517.9 506.874 1613.16 589.353 1420.15 385.906C1418.45 384.113 1421.44 391.175 1422.66 393.464C1423.3 394.678 1424.58 395.187 1425.54 396.048" stroke="black" stroke-width="4"/>
<path d="M512.412 387.41C468.69 436.41 424.969 485.41 381.247 534.41" stroke="black" stroke-width="4"/>
<path d="M1476.53 525.067C1511.2 474.827 1545.86 424.586 1580.53 374.346" stroke="black" stroke-width="4"/>
<path d="M379.052 748.376C363.718 743.225 339.077 732.901 336.491 773.072C333.356 821.751 381.47 830.657 412.357 837.046C421.735 838.985 431.537 840.598 441.008 839.182C443.695 838.78 444.671 834.826 445.122 832.147C447.549 817.733 448.465 803.096 449.539 788.518C449.939 783.087 449.898 777.616 449.539 772.182C449.297 768.525 443.114 759.559 442.577 758.806C436.911 750.858 429.697 740.451 420.802 735.007C416.594 732.431 402.485 724.688 397.478 723.285C394.586 722.475 390.846 720.896 388.486 722.751C385.308 725.25 385.704 730.362 383.884 733.972C379.307 743.052 366.696 752.78 356.565 752.78" stroke="black" stroke-width="4"/>
<path d="M1485.46 799.841C1498.39 804.544 1519.25 814.145 1520 773.924C1520.91 725.183 1480.57 717.681 1454.65 712.193C1446.78 710.527 1438.57 709.201 1430.74 710.891C1428.52 711.37 1427.84 715.35 1427.56 718.04C1426.05 732.517 1425.8 747.171 1425.41 761.771C1425.27 767.21 1425.49 772.678 1425.98 778.098C1426.31 781.746 1431.77 790.526 1432.24 791.263C1437.23 799.041 1443.6 809.233 1451.19 814.415C1454.78 816.867 1466.79 824.196 1471 825.452C1473.44 826.177 1476.6 827.648 1478.5 825.724C1481.06 823.135 1480.55 818.037 1481.94 814.377C1485.43 805.17 1495.58 795.081 1504.01 794.786" stroke="black" stroke-width="4"/>
<path d="M354.877 746.603C380.399 774.063 405.53 801.892 431.443 828.983C434.012 831.67 448.979 841.734 433.315 831.007" stroke="black" stroke-width="4"/>
<path d="M1513.18 821.744C1490.99 795.042 1469.11 767.96 1446.6 741.638C1444.37 739.028 1431.57 729.404 1444.97 739.67" stroke="black" stroke-width="4"/>
<path d="M440.83 750.427C362.85 795.426 407.76 762.226 376.388 794.049C363.832 806.786 367.4 799.6 357.356 814.354C357.049 814.805 357.491 816.517 357.356 815.989C356.466 812.522 355.84 808.992 355.081 805.494" stroke="black" stroke-width="4"/>
<path d="M1442.09 804.495C1505.4 757.258 1469.19 791.742 1494.18 759.027C1504.19 745.933 1501.47 753.218 1509.31 738.181C1509.55 737.722 1509.12 736.024 1509.25 736.547C1510.11 739.987 1510.76 743.496 1511.51 746.97" stroke="black" stroke-width="4"/>
<path d="M392.164 965.857C373.277 969.006 354.259 971.454 335.502 975.304C334.727 975.463 334.781 976.826 334.922 977.605C339.236 1001.5 337.101 1011.35 348.133 1026.75C356.048 1037.79 368.423 1057.29 380.522 1063.25C390.382 1068.12 403.158 1070.55 413.92 1070.99C426.121 1071.49 438.344 1071.2 450.554 1070.99C464.046 1070.77 480.081 1044.89 485.382 1037.5C488.451 1033.23 490.569 1027.23 491.019 1022.08C491.511 1016.45 491.187 1010.77 491.019 1005.12C490.996 1004.33 490.823 1003.52 490.445 1002.83C487.785 997.954 483.141 992.839 479.66 988.878C463.15 970.091 445.553 958.753 420.182 958.242C409.607 958.029 381.049 952.561 365.742 961.268C363.294 962.661 361.592 965.22 359.044 966.417C358.483 966.68 358.775 965.208 358.641 964.604" stroke="black" stroke-width="4"/>
<path d="M1500.19 1048.61C1515.8 1044.91 1531.54 1041.91 1547.01 1037.52C1547.65 1037.34 1547.55 1035.98 1547.41 1035.2C1542.99 1011.45 1544.42 1001.54 1534.7 986.476C1527.73 975.665 1516.76 956.543 1506.48 950.93C1498.11 946.356 1487.39 944.294 1478.42 944.166C1468.26 944.02 1458.1 944.673 1447.95 945.23C1436.73 945.845 1424.29 972.172 1420.14 979.711C1417.73 984.075 1416.18 990.125 1415.99 995.286C1415.77 1000.93 1416.24 1006.59 1416.58 1012.24C1416.62 1013.02 1416.8 1013.83 1417.14 1014.51C1419.52 1019.31 1423.56 1024.28 1426.6 1028.14C1440.99 1046.44 1456.02 1057.26 1477.15 1057.03C1485.96 1056.94 1509.91 1061.57 1522.34 1052.42C1524.33 1050.96 1525.65 1048.36 1527.73 1047.08C1528.19 1046.81 1528 1048.28 1528.13 1048.88" stroke="black" stroke-width="4"/>
<path d="M354.435 975.001C394.127 999.892 433.89 1024.67 473.509 1049.67C474.03 1050 475.392 1051.19 474.815 1050.98" stroke="black" stroke-width="4"/>
<path d="M1533.99 1036.76C1500.1 1013.03 1466.15 989.429 1432.31 965.589C1431.87 965.276 1430.69 964.127 1431.18 964.322" stroke="black" stroke-width="4"/>
<path d="M466.607 979.048C445.177 991.429 423.294 1003.06 402.317 1016.19C397.622 1019.13 397.862 1024.9 395.77 1029.16C393.291 1034.22 390.489 1039.13 387.405 1043.85C380.202 1054.85 384.671 1046.46 378.9 1052.75C378.719 1052.94 378.9 1053.28 378.9 1053.55" stroke="black" stroke-width="4"/>
<path d="M1453.86 1042.56C1471.26 1029.56 1489.06 1017.31 1506.06 1003.57C1509.86 1000.5 1509.46 994.741 1511.05 990.417C1512.94 985.29 1515.1 980.301 1517.5 975.501C1523.1 964.292 1519.68 972.809 1524.26 966.36C1524.41 966.157 1524.24 965.824 1524.23 965.556" stroke="black" stroke-width="4"/>
<path d="M402.607 1139.69C384.007 1142.04 365.371 1144.1 346.808 1146.72C346.178 1146.8 345.606 1147.27 345.219 1147.77C324.355 1174.98 300.228 1199.28 303.752 1235.68C305.607 1254.83 324.611 1269.29 336.675 1282.11C366.696 1314 406.449 1355.94 455.11 1349.21C459.516 1348.6 468.607 1341.61 471.169 1339.53C483.092 1329.88 492.771 1316.29 501.191 1303.68C509.263 1291.59 510.833 1272.91 511.832 1260.31C513.583 1238.2 513.807 1211.99 504.712 1190.71C498.448 1176.06 490.8 1173.9 478.955 1164.3C467.803 1155.27 481.331 1163.11 465.658 1152.79C450.84 1143.03 460.881 1150.34 448.682 1144.91C443.575 1142.64 431.868 1134.75 424.738 1134.65C411.726 1134.47 398.69 1135.39 385.697 1134.65C384.956 1134.61 385.697 1133.17 385.697 1132.42" stroke="black" stroke-width="4"/>
<path d="M1477.18 1329.63C1492.58 1326.75 1508.01 1324.15 1523.36 1321C1523.88 1320.89 1524.34 1320.41 1524.65 1319.9C1541.06 1292.1 1560.28 1267.11 1556.08 1230.84C1553.87 1211.75 1537.55 1197.85 1527.07 1185.39C1500.98 1154.39 1466.44 1113.63 1426.19 1121.77C1422.55 1122.51 1415.23 1129.76 1413.17 1131.91C1403.58 1141.9 1396.01 1155.77 1389.44 1168.62C1383.15 1180.93 1382.49 1199.64 1382.1 1212.26C1381.42 1234.41 1382.14 1260.62 1390.45 1281.61C1396.18 1296.07 1402.61 1298.01 1412.8 1307.26C1422.4 1315.96 1410.87 1308.52 1424.27 1318.38C1436.94 1327.7 1428.33 1320.69 1438.67 1325.76C1443 1327.88 1453.01 1335.42 1458.95 1335.32C1469.78 1335.12 1480.59 1333.82 1491.43 1334.18C1492.05 1334.2 1491.48 1335.67 1491.51 1336.41" stroke="black" stroke-width="4"/>
<path d="M320.214 1161.73C358.753 1199 396.074 1237.57 435.833 1273.54C464.536 1299.51 467.981 1296.7 491.962 1312.21C492.822 1312.76 494.795 1313.6 494.131 1314.38C493.457 1315.17 492.329 1313.35 491.428 1312.83" stroke="black" stroke-width="4"/>
<path d="M1543.54 1299.18C1510.17 1263.05 1477.77 1225.58 1443.44 1190.79C1418.65 1165.67 1415.89 1168.58 1395.39 1153.78C1394.66 1153.25 1392.99 1152.46 1393.51 1151.67C1394.05 1150.86 1395.05 1152.65 1395.82 1153.14" stroke="black" stroke-width="4"/>
<path d="M486.813 1160.07C455.378 1198.89 418.554 1233.91 392.507 1276.53L391.538 1277.01C388.795 1281.5 385.949 1285.96 383.805 1290.77C377.757 1304.32 398.461 1276.56 379.467 1301.38C377.661 1303.74 375.623 1305.94 373.409 1307.92C373.184 1308.12 372.751 1307.79 372.598 1307.53C371.947 1306.43 371.591 1305.18 371.088 1304" stroke="black" stroke-width="4"/>
<path d="M1441.11 1297.43C1465.91 1257.72 1495.33 1221.65 1515.51 1178.3L1516.3 1177.79C1518.42 1173.22 1520.64 1168.68 1522.25 1163.82C1526.81 1150.1 1510.55 1178.44 1525.49 1153.08C1526.91 1150.67 1528.53 1148.41 1530.3 1146.37C1530.48 1146.16 1530.86 1146.49 1530.99 1146.74C1531.57 1147.82 1531.91 1149.06 1532.37 1150.22" stroke="black" stroke-width="4"/>
<path fill-rule="evenodd" clip-rule="evenodd" d="M682.71 700.198C669.325 708.492 652.407 712.796 642.555 725.078C621.608 751.19 669.333 765.663 678.629 769.987C684.923 772.914 697.317 777.826 705.849 779.058C707.291 779.266 708.976 779.817 710.22 779.058C711.636 778.195 712.139 776.328 712.811 774.812C714.713 770.524 716.442 766.152 717.92 761.7C718.123 761.088 725.149 738.081 725.666 733.095C726.097 728.942 728.189 723.896 725.666 720.569C711.919 702.437 704.885 703.078 687.344 699.071L682.71 700.198Z" stroke="black" stroke-width="4"/>
<path fill-rule="evenodd" clip-rule="evenodd" d="M1715.4 773.775C1726.24 765.098 1740.17 760.305 1747.94 747.744C1764.45 721.039 1724.24 707.962 1716.36 703.911C1711.02 701.168 1700.53 696.619 1693.39 695.636C1692.19 695.47 1690.77 694.969 1689.76 695.763C1688.61 696.667 1688.26 698.547 1687.75 700.081C1686.32 704.422 1685.03 708.842 1683.96 713.334C1683.81 713.952 1678.77 737.149 1678.51 742.147C1678.3 746.31 1676.73 751.413 1678.95 754.665C1691.02 772.386 1696.85 771.541 1711.58 775.037L1715.4 773.775Z" stroke="black" stroke-width="4"/>
<path d="M654.329 710.265C670.533 720.226 686.883 729.956 702.942 740.149C710.728 745.091 717.957 750.892 725.851 755.661C727.886 756.891 722.357 752.435 720.61 750.822" stroke="black" stroke-width="4"/>
<path d="M1752.34 750.518C1738.51 741.034 1724.57 731.786 1710.85 722.065C1704.2 717.352 1697.98 711.764 1691.25 707.228C1689.51 706.058 1694.27 710.351 1695.78 711.912" stroke="black" stroke-width="4"/>
<path d="M718.23 715.704C690.742 715.704 713.876 714.483 661.574 755.951" stroke="black" stroke-width="4"/>
<path d="M1698.3 752.45C1721.17 751.651 1701.97 753.543 1744.03 710.581" stroke="black" stroke-width="4"/>
<path d="M634.643 892.298C622.733 891.35 610.086 885.226 598.912 889.456C572.582 899.423 562.316 929.552 572.048 953.951C575.941 963.711 584.37 973.537 590.856 980.406C610.132 1000.82 650.504 1005.66 677.264 1003.91C682.106 1003.59 688.649 996.34 691.122 993.367C701.866 980.448 703.503 956.518 699.342 941.511C697.533 934.984 695.738 928.43 693.29 922.115C691.897 918.52 689.879 915.186 687.865 911.897C670.936 884.264 659.655 887.571 625.77 889.509C619.841 889.848 614.099 892.137 608.563 894.11" stroke="black" stroke-width="4"/>
<path d="M1670.23 993.848C1680.17 994.449 1690.91 1000.2 1700.06 995.65C1721.62 984.924 1729.11 954.515 1720.16 930.414C1716.58 920.772 1709.22 911.197 1703.59 904.521C1686.84 884.677 1653.08 881.019 1630.88 883.543C1626.86 884 1621.67 891.438 1619.71 894.481C1611.23 907.704 1610.7 931.667 1614.68 946.545C1616.42 953.014 1618.14 959.512 1620.4 965.752C1621.68 969.305 1623.48 972.579 1625.27 975.807C1640.32 1002.93 1649.59 999.298 1677.71 996.377C1682.63 995.866 1687.33 993.412 1691.87 991.278" stroke="black" stroke-width="4"/>
<path d="M577.922 907.309C663.285 958.978 632.035 934.792 677.06 972.311" stroke="black" stroke-width="4"/>
<path d="M1704.5 964.605C1631.67 915.447 1658.52 938.71 1619.75 902.522" stroke="black" stroke-width="4"/>
<path d="M686.428 895.264C640.594 929.021 676.295 900.022 608.61 999.07C604.678 1004.82 605.301 1005.12 603.355 1000.78" stroke="black" stroke-width="4"/>
<path d="M1643.6 999.174C1680.55 964.106 1651.86 994.124 1704.72 893.171C1707.79 887.307 1707.26 887.03 1709.03 891.305" stroke="black" stroke-width="4"/>
<path fill-rule="evenodd" clip-rule="evenodd" d="M707.695 483.938C693.2 490.134 678.275 495.408 664.211 502.528C663.267 503.006 664.403 504.673 664.831 505.64C667.059 510.678 668.9 516.006 672.142 520.46C684.142 536.949 701.536 561.632 724.539 566.113C734.967 568.145 745.608 568.918 756.19 569.871C757.243 569.966 758.331 569.667 759.301 569.245C765.049 566.74 766.27 565.037 770.001 559.475C778.476 546.838 798.399 513.901 786.819 497.716C769.008 472.824 743.722 471.442 716.022 481.406L707.695 483.938Z" stroke="black" stroke-width="4"/>
<path fill-rule="evenodd" clip-rule="evenodd" d="M1777.04 557.887C1788.89 551.273 1801.12 545.569 1812.57 538.044C1813.34 537.539 1812.34 535.906 1811.95 534.952C1809.92 529.982 1808.2 524.711 1805.35 520.354C1794.79 504.223 1779.46 480.06 1760.16 476.251C1751.42 474.523 1742.54 474.06 1733.7 473.415C1732.82 473.35 1731.92 473.681 1731.13 474.131C1726.44 476.801 1725.48 478.538 1722.57 484.206C1715.96 497.081 1700.53 530.577 1710.73 546.416C1726.42 570.775 1747.51 571.422 1770.21 560.659L1777.04 557.887Z" stroke="black" stroke-width="4"/>
<path d="M677.712 485.698C740.336 525.077 726.787 514.808 759.123 539.308C761.767 541.311 764.497 543.29 767.529 544.635C768.628 545.122 769.955 544.406 771.135 544.635C778.119 545.987 785.722 548.627 791.532 552.744C791.687 552.853 792.061 553.017 791.928 553.152C791.741 553.342 791.357 553.29 791.13 553.152" stroke="black" stroke-width="4"/>
<path d="M1814.8 548.724C1761.33 511.189 1772.96 521.057 1745.2 497.512C1742.93 495.587 1740.59 493.688 1738.02 492.433C1737.09 491.978 1736.01 492.731 1735.02 492.537C1729.16 491.389 1722.75 488.971 1717.77 485.026C1717.64 484.921 1717.32 484.768 1717.42 484.629C1717.57 484.434 1717.89 484.475 1718.09 484.606" stroke="black" stroke-width="4"/>
<path d="M777.998 482.935C742.874 500.677 773.821 483.839 708.124 549.441C701.323 556.231 694.139 562.626 687.146 569.218" stroke="black" stroke-width="4"/>
<path d="M1727.7 567.571C1756.3 548.819 1731.14 566.546 1783.51 499.076C1788.93 492.092 1794.69 485.492 1800.28 478.701" stroke="black" stroke-width="4"/>
<path d="M988.787 410.721C978.777 411.734 966.268 407.065 958.758 413.76C949.984 421.581 950.158 435.758 947.788 447.27C946.459 453.721 943.377 462.137 947.788 467.028L948.269 468.953C962.151 484.344 975.844 497.437 995.999 503.702C1005.9 506.778 1023.48 512.467 1032.45 503.821C1036.49 499.924 1040.64 496.076 1044.06 491.624C1045.54 489.703 1047.72 482.548 1047.9 479.844C1048.37 472.596 1049.41 465.264 1048.47 458.062C1047.04 447.089 1028.7 427.225 1020.4 422.416C1013.11 418.19 1004.85 415.92 996.994 412.87C994.379 411.855 966.458 416.095 966.458 407.768" stroke="black" stroke-width="4"/>
<path d="M1995.13 509.963C2003.43 508.66 2014 512.962 2020.01 506.054C2027.04 497.982 2026.4 483.819 2027.97 472.245C2028.85 465.76 2031.12 457.259 2027.28 452.5L2026.81 450.59C2014.73 435.611 2002.88 422.924 1985.89 417.249C1977.55 414.462 1962.72 409.287 1955.56 418.189C1952.33 422.201 1949.01 426.167 1946.32 430.715C1945.16 432.678 1943.6 439.892 1943.54 442.6C1943.41 449.857 1942.8 457.214 1943.83 464.385C1945.4 475.31 1961.35 494.629 1968.42 499.194C1974.63 503.206 1981.59 505.234 1988.23 508.054C1990.44 508.992 2013.52 503.944 2013.81 512.266" stroke="black" stroke-width="4"/>
<path d="M946.245 433.459C990.925 462.71 1008.37 470.212 1040.39 498.533C1042.53 500.432 1048.46 503.061 1046.22 504.849C1043.95 506.664 1041.81 501.056 1039.6 499.16" stroke="black" stroke-width="4"/>
<path d="M2028.59 508.485C1990.39 480.55 1975.62 473.559 1947.99 446.185C1946.14 444.35 1941.11 441.895 1942.92 440.043C1944.74 438.163 1946.72 443.705 1948.62 445.537" stroke="black" stroke-width="4"/>
<path d="M960.221 497.419C983.152 472.379 1005.93 447.197 1029.01 422.298C1030.12 421.105 1033.61 422.95 1027.15 420.834" stroke="black" stroke-width="4"/>
<path d="M2013.24 424.571C1995.03 450.262 1976.96 476.09 1958.62 501.646C1957.74 502.869 1954.77 501.127 1960.22 503.054" stroke="black" stroke-width="4"/>
<path d="M887.031 787.457C868.17 772.197 848.975 757.342 830.448 741.678C829.592 740.955 829.128 739.678 829.195 738.56C829.819 728.1 828.523 716.994 832.498 707.298C834.226 703.083 840.482 702.893 844.608 700.963C852.078 697.469 859.811 694.556 867.267 691.035C880.573 684.75 904.939 670.058 919.512 680.836C934.587 691.985 938.953 715.774 940.496 732.844C941.272 741.424 942.338 750.272 940.496 758.687C939.095 765.092 934.444 770.329 931.063 775.946C925.336 785.459 916.995 783.038 907.152 784.655C906.039 784.838 894.101 789.226 890.499 787.589C889.622 787.19 890.423 785.595 889.965 784.747C889.277 783.474 888.101 782.532 887.17 781.425" stroke="black" stroke-width="4"/>
<path d="M1880.58 678.949C1896.81 693.651 1913.29 707.94 1929.25 723.056C1929.99 723.753 1930.42 725.016 1930.41 726.135C1930.25 736.607 1931.72 747.669 1928.75 757.474C1927.46 761.737 1922.26 762.108 1918.89 764.157C1912.8 767.866 1906.47 771.002 1900.39 774.738C1889.54 781.405 1869.78 796.797 1857.28 786.448C1844.35 775.744 1839.88 752.096 1838 735.081C1837.06 726.53 1835.86 717.718 1837.1 709.254C1838.04 702.813 1841.73 697.444 1844.35 691.732C1848.78 682.058 1855.81 684.236 1863.94 682.334C1864.86 682.119 1874.64 677.386 1877.69 678.918C1878.43 679.291 1877.82 680.908 1878.23 681.742C1878.85 682.995 1879.86 683.902 1880.68 684.981" stroke="black" stroke-width="4"/>
<path d="M847.792 692.188C864.592 707.894 881.679 723.298 898.192 739.305C908.562 749.356 918.54 759.809 928.419 770.343C929.211 771.187 929.228 772.64 930.133 773.362C930.681 773.799 931.535 773.38 932.236 773.388" stroke="black" stroke-width="4"/>
<path d="M1924.31 773.817C1909.78 758.609 1895.03 743.711 1880.73 728.193C1871.75 718.449 1863.09 708.293 1854.5 698.053C1853.81 697.232 1853.75 695.78 1852.97 695.085C1852.5 694.664 1851.8 695.108 1851.22 695.12" stroke="black" stroke-width="4"/>
<path d="M928.65 697.766C908.697 720.875 888.432 743.718 868.79 767.093C866.143 770.242 864.657 774.297 861.828 777.285C861.275 777.869 861.534 775.702 861.386 774.911" stroke="black" stroke-width="4"/>
<path d="M1865.17 779.986C1880.96 756.311 1897.02 732.893 1912.55 708.962C1914.64 705.737 1915.74 701.642 1917.99 698.574C1918.43 697.974 1918.29 700.147 1918.44 700.933" stroke="black" stroke-width="4"/>
<path fill-rule="evenodd" clip-rule="evenodd" d="M886.24 1008.11C865.136 997.819 851.114 996.638 839.816 977.618C835.242 969.917 832.258 961.37 828.866 953.08C823.112 939.024 823.557 934.71 822.306 917.329C822.173 915.477 821.059 906.276 823.934 903.3C845.782 880.693 880.595 873.539 910.125 869.461C924.463 867.481 958.527 861.799 970.598 870.892C997.16 890.9 1006.89 922.365 1004.98 954.742C1004.63 960.831 995.456 973.44 994.555 974.75C974.433 1004.01 959.114 1014.87 923.396 1018.37C909.274 1019.75 902.798 1020.06 891.996 1014.63L886.24 1008.11Z" stroke="black" stroke-width="4"/>
<path fill-rule="evenodd" clip-rule="evenodd" d="M1920.54 878.305C1938.46 887.981 1950.17 888.754 1960.23 907.434C1964.3 914.997 1967.08 923.453 1970.2 931.638C1975.47 945.519 1975.25 949.844 1976.9 967.177C1977.08 969.025 1978.32 978.188 1976.04 981.245C1958.65 1004.47 1929.93 1012.63 1905.51 1017.57C1893.65 1019.96 1865.51 1026.63 1855.15 1017.9C1832.35 998.671 1823.15 967.508 1823.61 935.095C1823.7 928.999 1830.89 916.131 1831.59 914.796C1847.31 884.966 1859.68 873.667 1889.27 869.139C1900.97 867.349 1906.35 866.844 1915.52 871.956L1920.54 878.305Z" stroke="black" stroke-width="4"/>
<path d="M828.252 908.911C837.458 912.693 846.798 916.161 855.868 920.256C858.192 921.306 860.287 922.82 862.355 924.311C878.672 936.07 893.88 949.455 911.008 959.996C997.846 1013.44 937.713 964.092 983.434 1003.7" stroke="black" stroke-width="4"/>
<path d="M1959.34 1003.25C1951.55 999.733 1943.66 996.539 1935.97 992.709C1934 991.728 1932.2 990.275 1930.43 988.846C1916.44 977.568 1903.32 964.633 1888.71 954.596C1814.59 903.708 1866.34 951.278 1826.92 913.025" stroke="black" stroke-width="4"/>
<path d="M980.876 878.816C976.368 883.379 909.39 949.136 890.103 972.851C883.183 981.36 877.33 990.686 870.748 999.459C867.821 1003.36 872.63 993.003 868.895 1002.09" stroke="black" stroke-width="4"/>
<path d="M1865.1 1006.07C1868.69 1001.38 1922.12 933.718 1937.34 909.457C1942.8 900.752 1947.34 891.262 1952.51 882.303C1954.81 878.32 1951.17 888.81 1953.96 879.62" stroke="black" stroke-width="4"/>
<path d="M733.834 1261.05C727.41 1211.23 723.285 1232.78 752.471 1181C753.174 1179.75 754.473 1178.79 755.82 1178.31C770.02 1173.25 784.368 1168.58 798.869 1164.46C812.447 1160.61 829.771 1161.58 842.696 1166.75C857.05 1172.49 867.058 1206.36 868.566 1218.83C871.858 1246.07 857.624 1250.95 835.214 1264.35C811.468 1278.54 795.345 1281.48 767.522 1280.49C750.262 1279.88 749.531 1267.7 740.526 1255.89C738.201 1252.84 734.619 1256.1 734.619 1251.48" stroke="black" stroke-width="4"/>
<path d="M1848.03 1178.43C1855.11 1228.03 1857.79 1206.37 1835.31 1258.97C1834.77 1260.24 1833.72 1261.23 1832.62 1261.75C1820.98 1267.22 1809.21 1272.31 1797.29 1276.84C1786.13 1281.09 1771.68 1280.62 1760.74 1275.83C1748.6 1270.51 1739.09 1236.95 1737.4 1224.53C1733.71 1197.41 1745.39 1192.12 1763.56 1178.08C1782.82 1163.2 1796.14 1159.79 1819.32 1159.98C1833.7 1160.09 1834.73 1172.24 1842.64 1183.78C1844.68 1186.76 1847.54 1183.39 1847.71 1188.02" stroke="black" stroke-width="4"/>
<path d="M743.13 1192.57C764.364 1209.51 785.426 1226.66 806.833 1243.38C814.401 1249.28 826.148 1254.68 833.17 1261.68" stroke="black" stroke-width="4"/>
<path d="M1824.42 1258.6C1806.17 1242.29 1788.04 1225.76 1769.65 1209.68C1763.15 1203.99 1753.19 1198.94 1747.1 1192.15" stroke="black" stroke-width="4"/>
<path d="M836.592 1179.86C810.624 1212.8 784.656 1245.74 758.688 1278.68" stroke="black" stroke-width="4"/>
<path d="M1762.9 1278.31C1783.35 1244.63 1803.81 1210.96 1824.27 1177.28" stroke="black" stroke-width="4"/>
<path fill-rule="evenodd" clip-rule="evenodd" d="M611.603 1193.4C605.144 1179.43 595.561 1166.52 592.227 1151.5C591.135 1146.57 601.781 1129.08 605.228 1124.39C620.706 1103.3 631.492 1103.42 657.612 1099.03C658.986 1098.8 663.237 1098.95 664.738 1099.65C672.454 1103.24 678.551 1109.98 684.186 1115.96C702.526 1135.44 720.221 1181.33 691.623 1200.68C684.392 1205.57 662.408 1209.72 657.546 1210.33C651.683 1211.07 645.661 1211.22 639.819 1210.33C633.152 1209.32 620.377 1201.1 615.479 1198.28L611.603 1193.4Z" stroke="black" stroke-width="4"/>
<path fill-rule="evenodd" clip-rule="evenodd" d="M1702.97 1109.66C1708.83 1123.43 1717.25 1136.06 1720.55 1150.98C1721.63 1155.86 1713.38 1173.65 1710.68 1178.45C1698.54 1199.97 1689.56 1200.17 1667.98 1205.31C1666.85 1205.58 1663.31 1205.55 1662.03 1204.9C1655.49 1201.53 1650.18 1194.98 1645.28 1189.16C1629.34 1170.23 1613.02 1124.88 1636.14 1104.71C1641.98 1099.62 1660.13 1094.83 1664.15 1094.07C1669.01 1093.16 1674.01 1092.84 1678.9 1093.56C1684.48 1094.37 1695.4 1102.22 1699.57 1104.9L1702.97 1109.66Z" stroke="black" stroke-width="4"/>
<path d="M599.301 1137.62C613.235 1145.94 628.155 1152.81 641.104 1162.6C652.866 1171.49 662.177 1183.23 672.953 1193.29C675.29 1195.48 677.71 1197.62 680.422 1199.32C682.116 1200.38 684.048 1201.13 686.019 1201.47C686.567 1201.56 685.382 1200.56 685.063 1200.1" stroke="black" stroke-width="4"/>
<path d="M1704.03 1194.25C1692.15 1186.33 1679.5 1179.9 1668.38 1170.5C1658.29 1161.95 1650.13 1150.49 1640.81 1140.75C1638.79 1138.63 1636.7 1136.56 1634.39 1134.94C1632.94 1133.93 1631.31 1133.23 1629.66 1132.96C1629.2 1132.88 1630.22 1133.85 1630.5 1134.29" stroke="black" stroke-width="4"/>
<path d="M679.433 1103.73C679.433 1106.83 680.59 1110.16 679.433 1113.03C656.024 1171.26 660.232 1156.15 626.779 1201.5C626.462 1201.93 626.872 1203.63 626.779 1203.1C626.333 1200.58 626.071 1198.04 625.717 1195.51" stroke="black" stroke-width="4"/>
<path d="M1655.35 1198.3C1655.25 1195.2 1654.17 1191.91 1655.03 1189C1672.47 1130.13 1669.5 1145.35 1695.75 1099.06C1696 1098.62 1695.6 1096.94 1695.69 1097.46C1696.15 1099.96 1696.46 1102.5 1696.84 1105.02" stroke="black" stroke-width="4"/>
<path d="M386.732 1629.95C382.073 1608.06 376.514 1586.35 372.756 1564.3C371.839 1558.92 370.55 1552.92 372.756 1547.92C373.481 1546.28 385.088 1528.22 393.384 1524.47C406.567 1518.51 419.387 1511.42 433.275 1507.37C447.02 1503.36 454.452 1506.94 464.082 1514.69C489.471 1535.12 503.013 1550.54 508.792 1583.58C512.767 1606.31 508.222 1637.28 486.213 1650.19C473.317 1657.75 454.947 1660.8 440.507 1661.76C430.552 1662.41 420.552 1661.94 410.577 1661.76C409.784 1661.74 408.996 1661.49 408.27 1661.18C397.007 1656.24 404.719 1659.33 393.667 1650.03C377.629 1636.54 375.776 1639.18 373.013 1617.45" stroke="black" stroke-width="4"/>
<path d="M1527.72 1524.26C1532.36 1545.99 1537.74 1567.52 1541.64 1589.46C1542.59 1594.81 1543.87 1600.77 1542.21 1605.82C1541.66 1607.48 1532.64 1625.88 1525.87 1629.86C1515.11 1636.2 1504.69 1643.66 1493.27 1648.11C1481.98 1652.51 1475.67 1649.15 1467.39 1641.69C1445.55 1622.01 1433.75 1606.99 1427.78 1574.14C1423.68 1551.54 1426.39 1520.46 1444.25 1506.92C1454.71 1498.98 1469.89 1495.4 1481.87 1494.03C1490.13 1493.08 1498.46 1493.27 1506.77 1493.16C1507.43 1493.15 1508.09 1493.37 1508.71 1493.67C1518.25 1498.27 1511.73 1495.41 1521.25 1504.38C1535.06 1517.4 1536.51 1514.71 1539.57 1536.34" stroke="black" stroke-width="4"/>
<path d="M380.179 1548.19C410.779 1571.13 441.47 1593.95 471.98 1617.01C473.504 1618.16 474.709 1619.7 476.265 1620.81C490.26 1630.77 485.035 1624.72 498.561 1637.24C499.928 1638.5 503.576 1640.51 502.061 1641.6C500.463 1642.74 498.857 1639.31 497.256 1638.17" stroke="black" stroke-width="4"/>
<path d="M1536.84 1627.97C1510.58 1605.93 1484.25 1584.02 1458.06 1561.86C1456.75 1560.76 1455.69 1559.25 1454.36 1558.19C1442.37 1548.64 1446.93 1554.53 1435.24 1542.42C1434.05 1541.19 1430.95 1539.29 1432.17 1538.16C1433.46 1536.97 1434.92 1540.35 1436.29 1541.44" stroke="black" stroke-width="4"/>
<path d="M492.792 1538.3C460.998 1576.68 433.046 1612.76 401.321 1648.62C400.89 1649.11 400.586 1649.73 400.438 1650.36C399.54 1654.2 399.423 1658.23 398.196 1661.98C398.036 1662.47 397.229 1661.52 396.924 1661.1C396.594 1660.65 396.568 1660.04 396.39 1659.51" stroke="black" stroke-width="4"/>
<path d="M1448.96 1651.52C1474.08 1612.24 1496.07 1575.37 1521.22 1538.61C1521.56 1538.11 1521.79 1537.48 1521.89 1536.84C1522.5 1532.98 1522.46 1528.95 1523.35 1525.17C1523.47 1524.67 1524.17 1525.6 1524.44 1526.01C1524.73 1526.45 1524.77 1527.06 1524.94 1527.58" stroke="black" stroke-width="4"/>
<path d="M666.242 1577.3C651.528 1550.06 635.213 1532.46 655.034 1504.37C659.831 1497.58 682.08 1487.88 684.252 1486.91C692.869 1483.07 702.41 1480.98 711.816 1480.57C732.398 1479.67 742.711 1475.13 754.047 1491.05C768.514 1511.36 778.658 1556.78 762.762 1577.15C757.876 1583.42 746.872 1586.31 739.979 1587.01C710.238 1590.03 714.263 1588.1 690.449 1581.89C687.398 1581.09 676.375 1579.77 672.775 1577.08C664.557 1570.94 663.307 1567.72 658.482 1560.03" stroke="black" stroke-width="4"/>
<path d="M1742.16 1484.94C1755.36 1511.74 1769.55 1528.85 1754.03 1557.5C1750.28 1564.43 1732.11 1574.77 1730.33 1575.8C1723.3 1579.89 1715.44 1582.25 1707.62 1582.94C1690.53 1584.44 1682.11 1589.27 1672.12 1573.69C1659.38 1553.81 1649.35 1508.71 1661.87 1487.89C1665.71 1481.49 1674.77 1478.28 1680.48 1477.38C1705.12 1473.49 1701.84 1475.54 1721.86 1481.06C1724.43 1481.77 1733.65 1482.76 1736.74 1485.35C1743.79 1491.25 1744.94 1494.43 1749.22 1501.97" stroke="black" stroke-width="4"/>
<path d="M651.58 1500.52C693.716 1500.52 656.434 1498.37 734.764 1561.86C755.787 1578.9 747.638 1566.75 754.291 1577.67" stroke="black" stroke-width="4"/>
<path d="M1748.05 1571.73C1712.99 1572.96 1744.09 1574.02 1676.7 1512.84C1658.62 1496.42 1665.82 1508.33 1659.9 1497.6" stroke="black" stroke-width="4"/>
<path d="M745.154 1479.42C729.012 1504.11 686.141 1561.76 673.375 1597.76" stroke="black" stroke-width="4"/>
<path d="M1681.47 1594.53C1694.03 1569.39 1727.69 1510.53 1737.05 1474.18" stroke="black" stroke-width="4"/>
<path d="M599.795 1428.19C600.433 1407.05 600.908 1385.9 601.707 1364.77C601.737 1363.98 601.632 1362.92 602.281 1362.46C620.114 1349.95 638.133 1343.47 660.011 1342.86C666.463 1342.68 674.987 1353.36 677.838 1355.86C686.291 1363.25 683.015 1356.7 693.818 1370.59C703.359 1382.86 706.343 1404.26 704.175 1418.85C701.405 1437.49 674.358 1446.54 658.99 1447.89C651.553 1448.54 643.893 1450.06 636.601 1448.46C630.498 1447.12 625.756 1442.24 620.199 1439.38C609.951 1434.11 591.812 1435.52 590.533 1420.46" stroke="black" stroke-width="4"/>
<path d="M1701.73 1356.53C1701.94 1377.68 1702.28 1398.82 1702.35 1419.97C1702.36 1420.76 1702.48 1421.82 1701.96 1422.29C1687.56 1435.32 1672.79 1442.31 1654.61 1443.55C1649.25 1443.92 1641.78 1433.49 1639.33 1431.09C1632.03 1423.94 1634.99 1430.39 1625.52 1416.83C1617.15 1404.84 1613.92 1383.54 1615.22 1368.9C1616.87 1350.19 1639.06 1340.35 1651.8 1338.56C1657.96 1337.7 1664.28 1335.95 1670.4 1337.34C1675.53 1338.5 1679.64 1343.24 1684.37 1345.94C1693.08 1350.91 1708.12 1348.97 1709.71 1363.99" stroke="black" stroke-width="4"/>
<path d="M607.364 1368.79C629.226 1368.79 606.844 1367.6 649.78 1396.89C695.309 1427.95 673.985 1406.9 701.558 1431.31C701.76 1431.49 701.831 1432.16 701.564 1432.12C700.935 1432.02 700.505 1431.41 699.975 1431.06" stroke="black" stroke-width="4"/>
<path d="M1708.92 1424.98C1690.74 1425.62 1709.4 1426.16 1672.65 1398.14C1633.69 1368.42 1652.17 1388.83 1628.38 1365.24C1628.2 1365.07 1628.12 1364.4 1628.34 1364.43C1628.87 1364.51 1629.25 1365.11 1629.7 1365.45" stroke="black" stroke-width="4"/>
<path d="M692.651 1357.37C614.056 1462.42 669.427 1394.84 628.934 1437.61C628.753 1437.8 628.934 1438.14 628.934 1438.4" stroke="black" stroke-width="4"/>
<path d="M1648.68 1433.74C1710.41 1326.47 1666.7 1395.62 1698.9 1351.7C1699.04 1351.5 1698.88 1351.17 1698.87 1350.91" stroke="black" stroke-width="4"/>
<path d="M1116.79 734.374C1109.5 726.168 1097.01 720.531 1094.92 709.757C1084.48 656.042 1100.72 649.771 1141.57 639.086C1146.46 637.807 1151.88 637.686 1156.73 639.086C1179.09 645.534 1185.5 659.583 1198.62 679.274C1201.47 683.557 1203.5 688.376 1205.27 693.21C1206.36 696.19 1206.92 699.379 1207.13 702.545C1207.54 708.724 1207.97 714.987 1207.13 721.123C1206.48 725.91 1194.8 732.346 1193.56 732.943C1175.69 741.581 1168.06 736.629 1150.71 733.187C1144.88 732.032 1138.85 732.19 1133.03 731.005C1128.02 729.985 1123.29 727.881 1118.34 726.595C1113.36 725.298 1101.66 725.508 1098.57 719.495" stroke="black" stroke-width="4"/>
<path d="M2131.19 649.614C2137.54 657.602 2148.13 662.873 2150.24 673.58C2160.8 726.959 2147.51 733.698 2113.89 745.564C2109.87 746.984 2105.37 747.262 2101.28 746.004C2082.45 740.21 2076.63 726.356 2065.03 707.058C2062.51 702.86 2060.65 698.103 2059.01 693.323C2058 690.377 2057.42 687.206 2057.14 684.048C2056.58 677.885 2056.01 671.638 2056.49 665.481C2056.86 660.679 2066.36 653.906 2067.36 653.274C2081.93 644.122 2088.46 648.849 2103.01 651.785C2107.9 652.77 2112.91 652.437 2117.79 653.452C2122 654.327 2126.01 656.292 2130.17 657.433C2134.36 658.584 2144.08 658.035 2146.87 663.955" stroke="black" stroke-width="4"/>
<path d="M1102.18 654.967C1121.27 675.525 1139.82 696.599 1159.45 716.64C1164.04 721.326 1169.77 724.739 1174.73 729.034C1176.99 730.992 1178.89 733.327 1181.07 735.376C1181.3 735.587 1181.67 735.994 1181.9 735.785C1182.12 735.581 1181.63 735.249 1181.5 734.98" stroke="black" stroke-width="4"/>
<path d="M2133.37 743.512C2116.77 723.522 2100.61 702.999 2083.58 683.541C2079.6 678.991 2074.71 675.747 2070.43 671.598C2068.48 669.707 2066.82 667.429 2064.93 665.444C2064.74 665.24 2064.41 664.844 2064.23 665.06C2064.05 665.27 2064.47 665.588 2064.59 665.852" stroke="black" stroke-width="4"/>
<path d="M1178.51 655.363C1151.33 695.885 1147.16 698.708 1132.69 730.418C1132.52 730.78 1132.97 731.336 1132.69 731.612C1132.47 731.822 1131.98 731.482 1131.88 731.196C1131.32 729.632 1131.17 727.953 1130.81 726.331" stroke="black" stroke-width="4"/>
<path d="M2090.8 741.567C2112 700.28 2115.37 697.336 2126.3 665.225C2126.43 664.859 2126.03 664.316 2126.26 664.033C2126.44 663.816 2126.86 664.141 2126.95 664.424C2127.47 665.971 2127.66 667.645 2128.01 669.256" stroke="black" stroke-width="4"/>
<path fill-rule="evenodd" clip-rule="evenodd" d="M1173.77 530.843C1168.5 526 1160.1 523.143 1157.96 516.313C1152.07 497.482 1143.12 475.718 1150.82 457.548C1157.13 442.632 1178.08 439.689 1193.04 433.492C1207.53 427.493 1233.75 446.821 1241.52 454.746C1251.05 464.478 1254.06 490.727 1251.51 503.629C1249.31 514.782 1237.81 525.804 1230.61 532.986C1221.37 542.195 1204.57 552.3 1190.36 547.054C1184.79 544.996 1180.86 539.921 1176.11 536.355L1173.77 530.843Z" stroke="black" stroke-width="4"/>
<path fill-rule="evenodd" clip-rule="evenodd" d="M2174.71 459.929C2179.26 464.616 2186.35 467.227 2188.37 473.991C2193.93 492.639 2202.14 514.13 2196.37 532.513C2191.63 547.604 2174.31 551.153 2162.08 557.781C2150.23 564.197 2127.74 545.643 2121 537.948C2112.73 528.499 2109.31 502.353 2110.98 489.385C2112.42 478.175 2121.61 466.826 2127.35 459.439C2134.71 449.967 2148.34 439.38 2160.34 444.21C2165.05 446.105 2168.5 451.063 2172.58 454.489L2174.71 459.929Z" stroke="black" stroke-width="4"/>
<path d="M1146.86 451.634C1157.04 455.895 1168.22 458.291 1177.4 464.417C1224.96 496.166 1206.37 487.186 1229.49 515.905C1236.49 524.598 1231.5 514.586 1234.11 520.242" stroke="black" stroke-width="4"/>
<path d="M2183.86 529.341C2175.24 525.379 2165.85 523.309 2158 517.454C2117.32 487.105 2133.1 495.541 2112.87 467.511C2106.74 459.026 2111.24 468.887 2108.87 463.31" stroke="black" stroke-width="4"/>
<path d="M1234.58 446.077C1226.48 460.679 1218.64 475.428 1210.29 489.884C1202.45 503.446 1185.59 523.403 1182.51 539.203" stroke="black" stroke-width="4"/>
<path d="M2141.13 550.839C2147.35 536.01 2153.36 521.042 2159.81 506.352C2165.86 492.57 2179.19 472.136 2181.19 456.257" stroke="black" stroke-width="4"/>
<path d="M1220.13 959.773C1211.73 941.468 1202.73 923.538 1194.92 904.857C1194.25 903.253 1194.46 901.18 1194.92 899.471C1197 891.747 1199.06 883.891 1202.44 876.859C1203.48 874.69 1205.7 873.514 1207.71 872.818C1214.81 870.346 1222.08 868.169 1229.46 867.464C1243.08 866.164 1267.28 861.983 1279.75 876.292C1284.55 881.795 1289.21 887.55 1293.24 893.881C1295.65 897.666 1298.65 907.161 1299.75 912.195C1300.73 916.719 1303.26 927.627 1300.81 932.308C1288.36 956.146 1266.55 967.753 1243.47 957.215C1236.94 954.232 1219.72 953.919 1217.97 943.733" stroke="black" stroke-width="4"/>
<path d="M2269.04 934.53C2279.76 952.472 2291.19 970.013 2301.21 988.355C2302.08 989.931 2301.89 992.011 2301.4 993.738C2299.18 1001.54 2296.98 1009.48 2293.17 1016.65C2292 1018.86 2289.37 1020.13 2286.99 1020.91C2278.54 1023.68 2269.9 1026.16 2261.06 1027.17C2244.75 1029.04 2215.85 1034.24 2200.37 1020.46C2194.42 1015.16 2188.63 1009.6 2183.57 1003.45C2180.55 999.765 2176.61 990.401 2175.12 985.417C2173.78 980.936 2170.37 970.141 2173.14 965.36C2187.26 941.015 2213.03 928.5 2241.11 938.065C2249.05 940.771 2269.73 940.363 2272.19 950.469" stroke="black" stroke-width="4"/>
<path d="M1201.79 885.126C1216.38 890.211 1232.09 891.951 1245.57 900.381C1256.79 907.397 1265.12 919.732 1274.15 930.377C1289.27 948.214 1277.58 940.327 1286.55 947.827C1286.99 948.191 1287.44 948.665 1287.97 948.698C1288.22 948.713 1287.85 948.044 1287.64 947.893C1286.83 947.328 1285.9 947.058 1285.04 946.641" stroke="black" stroke-width="4"/>
<path d="M2285.86 1015.18C2268.16 1010.71 2249.24 1009.63 2232.76 1001.77C2219.05 995.224 2208.62 983.246 2197.41 972.986C2178.64 955.793 2192.95 963.185 2181.91 956.066C2181.37 955.721 2180.82 955.266 2180.18 955.256C2179.88 955.251 2180.34 955.903 2180.61 956.046C2181.59 956.577 2182.72 956.808 2183.77 957.189" stroke="black" stroke-width="4"/>
<path d="M1282.56 870.787C1268.3 894.233 1259.07 908.448 1246.4 932.869C1246.09 933.469 1246.54 934.303 1246.4 934.992C1244.69 943.691 1243.08 956.306 1236.75 962.72C1236.57 962.911 1236.53 962.192 1236.42 961.929" stroke="black" stroke-width="4"/>
<path d="M2211.17 1017.35C2228.3 993.904 2239.39 979.689 2254.6 955.268C2254.98 954.668 2254.44 953.834 2254.6 953.145C2256.66 944.446 2258.6 931.831 2266.19 925.417C2266.42 925.226 2266.46 925.945 2266.6 926.208" stroke="black" stroke-width="4"/>
<path d="M1091.41 1234.56C1082.88 1228.17 1069.13 1225.52 1065.81 1215.38C1060.81 1200.08 1067.28 1183.17 1069.39 1167.2C1069.77 1164.33 1071.67 1161.85 1073.22 1159.41C1089.55 1133.51 1090.44 1128.78 1121.68 1126.61C1152.93 1124.44 1179.25 1128.71 1197.95 1156.18C1207.43 1170.11 1213.82 1185.88 1214.51 1202.86C1214.85 1211.14 1216.13 1219.6 1214.51 1227.74C1213.46 1233.04 1209.68 1237.44 1206.75 1241.99C1192.48 1264.12 1162.47 1270.14 1138.06 1268.62C1127.26 1267.94 1119.95 1254.16 1112.61 1249.01C1106.2 1244.5 1081.68 1232.57 1081.68 1220.55" stroke="black" stroke-width="4"/>
<path d="M2118.05 1167.5C2125.38 1173.64 2136.91 1175.89 2140.02 1185.92C2144.72 1201.07 2139.93 1218.16 2138.73 1234.18C2138.51 1237.06 2137.01 1239.59 2135.81 1242.08C2123.13 1268.43 2122.55 1273.19 2096.64 1276.26C2070.72 1279.35 2048.67 1275.84 2032.15 1248.92C2023.78 1235.28 2017.91 1219.71 2016.74 1202.76C2016.17 1194.49 2014.81 1186.07 2015.87 1177.89C2016.56 1172.56 2019.56 1168.05 2021.84 1163.42C2032.93 1140.89 2057.69 1134 2078.05 1134.82C2087.06 1135.18 2093.63 1148.74 2099.91 1153.68C2105.4 1158 2126.22 1169.2 2126.64 1181.22" stroke="black" stroke-width="4"/>
<path d="M1071.23 1160.27C1102.18 1182.55 1133.39 1204.48 1164.09 1227.11C1175.63 1235.62 1172.91 1236.9 1186.18 1245.88C1186.56 1246.14 1187.61 1246.76 1187.49 1246.32C1187.28 1245.57 1186.39 1245.22 1185.84 1244.67" stroke="black" stroke-width="4"/>
<path d="M2120.34 1252.93C2093.81 1231.56 2067.08 1210.55 2040.75 1188.83C2030.85 1180.65 2033.07 1179.3 2021.72 1170.71C2021.39 1170.46 2020.5 1169.88 2020.62 1170.31C2020.81 1171.05 2021.56 1171.38 2022.04 1171.91" stroke="black" stroke-width="4"/>
<path d="M1180.27 1137.12C1153.26 1188.86 1177.61 1144.92 1116.26 1232.1C1115.75 1232.83 1116.15 1233.93 1115.77 1234.74C1108.41 1250.46 1109.42 1255.04 1103.6 1243.27" stroke="black" stroke-width="4"/>
<path d="M2051.35 1259.52C2072.01 1207.03 2053.29 1251.65 2101.29 1162.74C2101.69 1161.99 2101.31 1160.91 2101.6 1160.09C2107.18 1144.16 2106.18 1139.62 2111.43 1151.21" stroke="black" stroke-width="4"/>
<path d="M1039.85 1442.96C1028.6 1412.36 1022.87 1395.05 989.875 1381.52C976.762 1376.15 962.416 1381.23 949.509 1383.81C937.385 1386.23 945.706 1380.11 924.51 1389.93C898.052 1402.19 887.827 1431.84 889.787 1459C890.085 1463.13 897.348 1472.3 898.239 1473.35C917.782 1496.44 933.257 1497.13 963.94 1504.11C965.281 1504.41 997.333 1512.02 1003.61 1508.52C1008.35 1505.88 1011.08 1500.65 1014.55 1496.48C1029.27 1478.8 1029.06 1460.76 1030.35 1438.92" stroke="black" stroke-width="4"/>
<path d="M1862.59 1451.06C1873.02 1481.31 1878.39 1498.44 1906.31 1511C1917.41 1515.99 1929.17 1510.49 1939.82 1507.54C1949.82 1504.78 1943.11 1511.13 1960.4 1500.7C1981.99 1487.68 1989.46 1457.75 1986.88 1430.67C1986.49 1426.54 1980.13 1417.59 1979.35 1416.56C1962.28 1394.06 1949.38 1393.82 1923.61 1387.74C1922.49 1387.47 1895.55 1380.8 1890.45 1384.48C1886.6 1387.26 1884.51 1392.56 1881.77 1396.83C1870.14 1414.93 1870.94 1432.95 1870.63 1454.82" stroke="black" stroke-width="4"/>
<path d="M912.129 1403.25C939.853 1426.26 967.882 1448.92 995.3 1472.29C997.493 1474.16 998.873 1476.83 1000.86 1478.91C1003.67 1481.85 1006.61 1484.64 1009.66 1487.32C1010.15 1487.75 1010.87 1488.57 1011.4 1488.19C1011.9 1487.84 1011.07 1487.02 1010.91 1486.43" stroke="black" stroke-width="4"/>
<path d="M1965.49 1489.98C1941.62 1467.79 1917.51 1445.96 1893.88 1423.4C1891.99 1421.59 1890.75 1418.97 1889.02 1416.94C1886.59 1414.09 1884.03 1411.38 1881.41 1408.79C1880.99 1408.38 1880.36 1407.58 1879.93 1407.97C1879.53 1408.34 1880.24 1409.14 1880.4 1409.72" stroke="black" stroke-width="4"/>
<path d="M1006.8 1397.01C966.53 1432.06 921.182 1461.28 902.537 1512.85" stroke="black" stroke-width="4"/>
<path d="M1875 1517.28C1907.29 1481.08 1943.99 1450.55 1957.71 1398.47" stroke="black" stroke-width="4"/>
<path d="M776.013 1790.13C822.522 1786.45 845.912 1802.45 857.833 1754.31C862.323 1736.17 860.733 1717.05 861.802 1698.4C862.848 1680.15 861.148 1681.2 853.106 1659.73C848.892 1648.47 840.187 1645.22 829.024 1642C822.804 1640.22 810.731 1638.52 805.053 1640.13C798.756 1641.91 793.25 1645.83 787.636 1649.19C756.081 1668.11 743.448 1685.38 726.444 1716.82C720.206 1728.36 719.638 1740.63 729.312 1750.57C738.027 1759.52 748.352 1767.36 759.341 1773.29C765.34 1776.52 772.123 1778.15 778.103 1781.42C789.302 1787.55 791.202 1796.92 796.094 1785.72" stroke="black" stroke-width="4"/>
<path d="M1782.58 1637.94C1744.02 1642.97 1724 1627.66 1715.76 1676.12C1712.66 1694.37 1714.65 1713.43 1714.41 1732.11C1714.18 1750.38 1715.55 1749.28 1722.99 1770.51C1726.89 1781.63 1734.25 1784.63 1743.65 1787.52C1748.89 1789.13 1758.99 1790.47 1763.66 1788.7C1768.84 1786.73 1773.28 1782.66 1777.83 1779.13C1803.43 1759.31 1813.33 1741.68 1826.38 1709.76C1831.17 1698.06 1831.21 1685.77 1822.82 1676.12C1815.26 1667.43 1806.39 1659.9 1797.04 1654.29C1791.94 1651.23 1786.24 1649.8 1781.15 1646.7C1771.62 1640.91 1769.71 1631.6 1766.03 1642.93" stroke="black" stroke-width="4"/>
<path d="M748.417 1677.35C791.009 1706.72 760.763 1683.42 816.59 1742.44C824.527 1750.83 836.585 1756.66 844.628 1765.9" stroke="black" stroke-width="4"/>
<path d="M1817.04 1762.67C1780.58 1734.56 1806.55 1756.96 1758.05 1699.6C1751.15 1691.45 1740.92 1685.97 1733.9 1676.97" stroke="black" stroke-width="4"/>
<path d="M850.469 1663.34C698.057 1842.75 795.413 1717.6 765.03 1768.09C764.672 1768.69 764.753 1769.46 764.615 1770.14" stroke="black" stroke-width="4"/>
<path d="M1748.69 1769.86C1869.23 1586.13 1792.6 1714.04 1816.11 1662.69C1816.39 1662.08 1816.3 1661.32 1816.39 1660.63" stroke="black" stroke-width="4"/>
<path d="M445.804 1904.11C482.799 1904.11 512.789 1874.12 512.789 1837.12C512.789 1800.13 482.799 1770.14 445.804 1770.14C408.81 1770.14 378.82 1800.13 378.82 1837.12C378.82 1874.12 408.81 1904.11 445.804 1904.11Z" stroke="black" stroke-width="4"/>
<path d="M1477.31 1758.11C1446.53 1759.18 1422.63 1790.02 1423.92 1827C1425.21 1863.97 1451.21 1893.07 1481.98 1891.99C1512.76 1890.92 1536.67 1860.08 1535.38 1823.1C1534.09 1786.13 1508.09 1757.03 1477.31 1758.11Z" stroke="black" stroke-width="4"/>
<path d="M676.796 2152.56C719.595 2152.56 754.291 2117.87 754.291 2075.07C754.291 2032.27 719.595 1997.57 676.796 1997.57C633.997 1997.57 599.301 2032.27 599.301 2075.07C599.301 2117.87 633.997 2152.56 676.796 2152.56Z" stroke="black" stroke-width="4"/>
<path d="M1660.82 1992.12C1625.21 1993.36 1597.56 2029.04 1599.05 2071.81C1600.54 2114.59 1630.62 2148.25 1666.23 2147.01C1701.84 2145.77 1729.49 2110.09 1728 2067.31C1726.51 2024.54 1696.43 1990.87 1660.82 1992.12Z" stroke="black" stroke-width="4"/>
<path d="M413.059 2257.36C455.858 2257.36 490.554 2222.66 490.554 2179.86C490.554 2137.06 455.858 2102.37 413.059 2102.37C370.259 2102.37 335.564 2137.06 335.564 2179.86C335.564 2222.66 370.259 2257.36 413.059 2257.36Z" stroke="black" stroke-width="4"/>
<path d="M1437.74 2089.18C1402.13 2090.43 1374.47 2126.11 1375.97 2168.88C1377.46 2211.66 1407.54 2245.32 1443.15 2244.08C1478.75 2242.84 1506.41 2207.15 1504.92 2164.38C1503.42 2121.61 1473.35 2087.94 1437.74 2089.18Z" stroke="black" stroke-width="4"/>
<path d="M933.045 2075.07C981.877 2075.07 1021.46 2051.78 1021.46 2023.06C1021.46 1994.33 981.877 1971.05 933.045 1971.05C884.214 1971.05 844.628 1994.33 844.628 2023.06C844.628 2051.78 884.214 2075.07 933.045 2075.07Z" stroke="black" stroke-width="4"/>
<path d="M1876.72 1973.05C1836.09 1974.47 1803.97 1998.89 1804.97 2027.6C1805.98 2056.31 1839.72 2078.43 1880.35 2077.01C1920.98 2075.59 1953.1 2051.17 1952.1 2022.46C1951.09 1993.75 1917.35 1971.63 1876.72 1973.05Z" stroke="black" stroke-width="4"/>
<path d="M1063.94 1884.4C1092.88 1884.4 1116.33 1843.92 1116.33 1793.99C1116.33 1744.06 1092.88 1703.59 1063.94 1703.59C1035.01 1703.59 1011.56 1744.06 1011.56 1793.99C1011.56 1843.92 1035.01 1884.4 1063.94 1884.4Z" stroke="black" stroke-width="4"/>
<path d="M1992.28 1709.56C1968.21 1710.4 1950.11 1751.53 1951.85 1801.43C1953.59 1851.33 1974.52 1891.1 1998.59 1890.26C2022.66 1889.42 2040.76 1848.28 2039.02 1798.38C2037.28 1748.49 2016.35 1708.71 1992.28 1709.56Z" stroke="black" stroke-width="4"/>
<path d="M392.092 1791.23C424.894 1821.2 457.888 1850.97 490.498 1881.16C493.54 1883.98 502.157 1892.92 499.022 1890.21" stroke="black" stroke-width="4"/>
<path d="M1526.09 1877.05C1497.75 1848.05 1469.26 1819.25 1441.08 1790.03C1438.45 1787.31 1430.97 1778.62 1433.67 1781.23" stroke="black" stroke-width="4"/>
<path d="M492.997 1778.1C478.671 1821.05 488.729 1794.57 426.201 1873.12C406.536 1897.82 411.164 1901.61 402.937 1890.89" stroke="black" stroke-width="4"/>
<path d="M1446.04 1885.8C1456.46 1842.46 1449.02 1869.22 1498.3 1788.9C1513.8 1763.64 1509.81 1759.99 1517.03 1770.47" stroke="black" stroke-width="4"/>
<path d="M359.38 2131.58C402.141 2162.45 445.109 2193.05 487.663 2224.21C488.193 2224.6 487.583 2225.51 480.339 2225.51" stroke="black" stroke-width="4"/>
<path d="M1504.32 2210.7C1467.66 2181.08 1430.85 2151.75 1394.35 2121.85C1393.9 2121.47 1394.38 2120.54 1400.4 2120.33" stroke="black" stroke-width="4"/>
<path d="M452.703 2100.92C447.198 2153.45 452.53 2111.88 384.576 2227.97C377.915 2239.35 370.769 2250.51 362.59 2260.85C361.905 2261.72 360.52 2260.08 359.485 2259.7" stroke="black" stroke-width="4"/>
<path d="M1398.62 2248.97C1401.37 2196.3 1398.39 2238.01 1450.87 2120.02C1456.02 2108.45 1461.57 2097.09 1468.02 2086.52C1468.56 2085.63 1469.76 2087.22 1470.64 2087.58" stroke="black" stroke-width="4"/>
<path d="M625.045 2015.79C654.718 2044.57 685.745 2072.01 714.064 2102.13C717.854 2106.16 718.03 2112.49 720.59 2117.39C724.669 2125.2 725.703 2125.85 730.38 2130.59" stroke="black" stroke-width="4"/>
<path d="M1710.17 2123.55C1684.48 2095.65 1657.71 2069.12 1633.1 2039.84C1629.8 2035.92 1629.44 2029.61 1627.14 2024.78C1623.47 2017.09 1622.59 2016.47 1618.53 2011.87" stroke="black" stroke-width="4"/>
<path d="M714.802 2016.45C494.704 2359.72 693.002 2058.08 630.616 2144.2C629.954 2145.11 630.279 2146.77 629.29 2147.31C628.66 2147.65 628.319 2146.25 627.834 2145.72" stroke="black" stroke-width="4"/>
<path d="M1608.23 2180.61C1779.37 1831.16 1624.91 2138.38 1673.81 2050.5C1674.33 2049.57 1674 2047.92 1674.81 2047.35C1675.32 2046.99 1675.65 2048.38 1676.08 2048.9" stroke="black" stroke-width="4"/>
<path d="M882.509 1983.54C906.338 1994.81 944.679 2011.33 964.19 2028.21C1080.36 2128.71 928.258 2015.66 991.687 2061.3C992.64 2061.99 993.822 2062.53 994.384 2063.56C994.591 2063.94 993.566 2063.85 993.158 2064" stroke="black" stroke-width="4"/>
<path d="M1943.43 2071.79C1923.21 2061.22 1890.73 2045.82 1873.91 2029.51C1773.75 1932.45 1904.24 2041.01 1849.88 1997.25C1849.06 1996.59 1848.06 1996.08 1847.55 1995.06C1847.37 1994.69 1848.22 1994.75 1848.56 1994.59" stroke="black" stroke-width="4"/>
<path d="M970.631 1979.73C952.785 2000.15 933.774 2019.62 917.093 2041C911.616 2048.03 908.97 2056.86 904.475 2064.55C902.414 2068.08 899.608 2071.12 897.454 2074.59C897.231 2074.94 897.596 2076.25 897.454 2075.85C897.181 2075.09 897.186 2074.26 897.052 2073.46" stroke="black" stroke-width="4"/>
<path d="M1850.1 2078.96C1864.24 2058.02 1879.37 2038.02 1892.51 2016.16C1896.82 2008.98 1898.71 2000.07 1902.18 1992.26C1903.77 1988.68 1906 1985.56 1907.67 1982.03C1907.85 1981.66 1907.5 1980.37 1907.63 1980.76C1907.88 1981.51 1907.91 1982.35 1908.05 1983.14" stroke="black" stroke-width="4"/>
<path d="M1021.66 1739.56C1046.9 1768.74 1078.3 1812.87 1113.13 1836.06C1113.63 1836.39 1112.82 1834.88 1112.67 1834.29" stroke="black" stroke-width="4"/>
<path d="M2038.39 1840.76C2016.37 1812.33 1988.71 1769.15 1958.92 1746.98C1958.49 1746.66 1959.22 1748.15 1959.36 1748.74" stroke="black" stroke-width="4"/>
<path d="M1112.3 1753.12C1036.4 1840.02 1133.98 1730.28 1029.78 1838.94C1027.75 1841.06 1031.31 1843.73 1028.94 1841.7" stroke="black" stroke-width="4"/>
<path d="M1967.73 1849.71C2027.85 1760.67 1950.5 1873.17 2033.4 1761.55C2035.02 1759.37 2031.96 1756.81 2034 1758.76" stroke="black" stroke-width="4"/>
<path d="M1175.46 1467.69C1176.67 1461.92 1176.77 1455.79 1179.08 1450.36C1185.58 1435.09 1194.85 1427.77 1209.42 1419.97C1225.46 1411.38 1249.64 1402.99 1261.89 1422.82C1271.28 1438.01 1272.11 1462.05 1268.19 1478.91C1265.03 1492.46 1255.47 1506.02 1246.04 1516.07C1234.86 1528 1215.85 1531.26 1201.11 1523.85C1191.7 1519.12 1185.44 1506.64 1182.05 1497.2C1180.35 1492.46 1174.36 1479.22 1178.67 1474.11C1180.52 1471.9 1179.81 1468.91 1178.67 1466.63" stroke="black" stroke-width="4" stroke-linecap="round" stroke-linejoin="round"/>
<path d="M1181.87 1439.91C1202.62 1454.34 1223 1468.07 1238.5 1488" stroke="black" stroke-width="4" stroke-linecap="round" stroke-linejoin="round"/>
<path d="M1271.63 1434.57C1252.19 1446.45 1235.93 1463.57 1219.39 1479.09C1213.17 1484.93 1208.07 1492.04 1201.17 1497.08C1196.44 1500.53 1196.97 1505.56 1191.49 1508.3" stroke="black" stroke-width="4" stroke-linecap="round" stroke-linejoin="round"/>
<path d="M1248.12 1747.64C1235.84 1740.59 1225.15 1730 1220.7 1716.06C1212.34 1689.94 1237.2 1678.96 1258.33 1675.34C1264.99 1674.2 1277.88 1671.79 1284.69 1676.35C1296.81 1684.46 1287.16 1705.27 1283.14 1714.52C1279.48 1722.98 1274.28 1731.98 1265.81 1736.36C1256.94 1740.95 1245.87 1746.66 1236.37 1741.23" stroke="black" stroke-width="4" stroke-linecap="round" stroke-linejoin="round"/>
<path d="M1234.23 1685.67C1246.53 1697.05 1258.33 1708.96 1268.96 1721.94C1271.32 1724.83 1273.96 1729.04 1276.97 1730.55" stroke="black" stroke-width="4" stroke-linecap="round" stroke-linejoin="round"/>
<path d="M1275.9 1663.23C1264.63 1685.95 1248.16 1706.51 1233.16 1726.93C1231.43 1729.28 1225.68 1740.28 1225.68 1732.68" stroke="black" stroke-width="4" stroke-linecap="round" stroke-linejoin="round"/>
<path d="M1254.53 1931.42C1248.76 1922.86 1249.37 1925.22 1247.77 1910.29C1246.07 1894.52 1245.64 1869.48 1247.77 1853.9C1250.11 1836.69 1257.66 1815.63 1279.11 1819.11C1295.34 1821.75 1304.6 1838.99 1308.55 1853.19C1313.89 1872.4 1313.25 1894.7 1309.56 1914.21C1306.93 1928.11 1292.61 1930.77 1280.41 1931.84C1270.92 1932.67 1260.82 1932.84 1251.5 1930.53C1242.33 1928.26 1239.02 1922.76 1234.23 1915.4" stroke="black" stroke-width="4" stroke-linecap="round" stroke-linejoin="round"/>
<path d="M1294.07 1829.92C1284.63 1856.52 1273.8 1883.46 1268.07 1911.18C1266.58 1918.36 1267.75 1918.36 1262.01 1921.81" stroke="black" stroke-width="4" stroke-linecap="round" stroke-linejoin="round"/>
<path d="M1258.81 1825.64C1275.5 1847.97 1292.3 1870.53 1310.09 1891.89" stroke="black" stroke-width="4" stroke-linecap="round" stroke-linejoin="round"/>
<path d="M1144.48 2234.88C1114.61 2232.31 1078.22 2220.39 1074.31 2185.25C1071.58 2160.63 1098.73 2141.83 1119.07 2134.92C1136.92 2128.84 1159.84 2125 1172.61 2142.39C1188.22 2163.65 1189.21 2194.47 1186.98 2219.68C1184.41 2248.77 1152.81 2258.67 1127.62 2249.6C1123.81 2248.23 1116.7 2246.11 1116.7 2241.29" stroke="black" stroke-width="4" stroke-linecap="round" stroke-linejoin="round"/>
<path d="M1083.57 2156.88C1102.42 2176.17 1121.49 2194.01 1142.58 2210.78C1147.56 2214.74 1151.53 2218.13 1155.16 2223.13" stroke="black" stroke-width="4" stroke-linecap="round" stroke-linejoin="round"/>
<path d="M1173.33 2142.99C1158.01 2156.17 1141.95 2168.84 1127.62 2183.12C1120.31 2190.4 1115.48 2198.69 1109.69 2207.04C1106.72 2211.32 1099.6 2215.6 1099.6 2220.99" stroke="black" stroke-width="4" stroke-linecap="round" stroke-linejoin="round"/>
<path d="M780.182 2221.35C810.146 2224.81 836.766 2231.79 849.519 2262.57C857.499 2281.83 848.406 2302.37 832.333 2313.9C818.056 2324.14 799.1 2329.45 781.819 2324.69C761.44 2319.06 751.672 2300.21 749.085 2280.57C747.158 2265.95 742.685 2229.44 760.839 2220.76C768.3 2217.19 776.693 2215.73 784.199 2211.98" stroke="black" stroke-width="4" stroke-linecap="round" stroke-linejoin="round"/>
<path d="M735.991 2218.67C766.354 2247.7 794.715 2278.75 825.191 2307.65C826.614 2309 836.425 2317.65 836.425 2317.77" stroke="black" stroke-width="4" stroke-linecap="round" stroke-linejoin="round"/>
<path d="M848.477 2209.3C820.357 2232.4 792.867 2256.06 766.642 2281.31C766.387 2281.56 754.739 2291.03 754.739 2295" stroke="black" stroke-width="4" stroke-linecap="round" stroke-linejoin="round"/>
<path d="M991.763 2415.52C980.618 2396.95 991.532 2368.83 998.756 2350.5C1005.21 2334.13 1017.78 2310.98 1039.15 2314.79C1071.04 2320.47 1074.62 2381.18 1059.98 2402.65C1042.79 2427.87 983.728 2422.39 983.728 2387.4" stroke="black" stroke-width="4" stroke-linecap="round" stroke-linejoin="round"/>
<path d="M982.389 2332.5C1008.71 2349.88 1032.42 2369.14 1054.7 2391.42" stroke="black" stroke-width="4" stroke-linecap="round" stroke-linejoin="round"/>
<path d="M1073.45 2327.14C1047.13 2346.69 1020.95 2366.96 997.268 2389.71C994.984 2391.9 995.112 2393.09 993.102 2394.1" stroke="black" stroke-width="4" stroke-linecap="round" stroke-linejoin="round"/>
<path d="M1314.49 2406.15C1290.66 2402.95 1258.32 2383.24 1276.1 2355.19C1288.45 2335.71 1317.46 2321.85 1339.86 2319.4C1359.78 2317.23 1359.22 2340.46 1359.35 2354.37C1359.5 2371.24 1359.37 2394.43 1351.99 2410.46C1344.57 2426.58 1305.28 2408.8 1294.4 2404.81" stroke="black" stroke-width="4" stroke-linecap="round" stroke-linejoin="round"/>
<path d="M1275.66 2331.16C1310.04 2352.45 1340.18 2379.81 1370.73 2406.15" stroke="black" stroke-width="4" stroke-linecap="round" stroke-linejoin="round"/>
<path d="M1350.65 2321.78C1332.83 2341.88 1310.72 2362.51 1299.02 2387.18C1296.23 2393.06 1293.61 2396.23 1289.05 2400.79" stroke="black" stroke-width="4" stroke-linecap="round" stroke-linejoin="round"/>
<path d="M528.427 2491.85C508.832 2479.27 497.494 2455.93 499.859 2432.04C501.667 2413.79 510.854 2393.66 530.957 2388.59C550.279 2383.72 575.271 2395.98 588.241 2408.83C627.398 2447.63 575.904 2487.7 539.14 2495.87" stroke="black" stroke-width="4" stroke-linecap="round" stroke-linejoin="round"/>
<path d="M505.662 2410.17C544.924 2430.49 652.517 2508.43 614.131 2486.5" stroke="black" stroke-width="4" stroke-linecap="round" stroke-linejoin="round"/>
<path d="M583.331 2394.1C569.278 2423.13 541.44 2486.31 498.967 2465.07" stroke="black" stroke-width="4" stroke-linecap="round" stroke-linejoin="round"/>
<path d="M1613.11 2384.72C1606.9 2384.43 1600.14 2384.7 1594.81 2380.71C1582.34 2371.35 1586.76 2354.5 1592.28 2342.47C1604.34 2316.2 1629.9 2285.97 1658.79 2277.45C1675.63 2272.48 1686.43 2278.03 1689.59 2295.9C1693.46 2317.77 1693.7 2346.61 1683.49 2367.02C1674.9 2384.21 1656.51 2389.27 1637.81 2389.71C1621.92 2390.08 1615.54 2378.99 1607.76 2367.32" stroke="black" stroke-width="4" stroke-linecap="round" stroke-linejoin="round"/>
<path d="M1601.06 2315.09C1612.79 2327.32 1621.59 2341.71 1631.86 2355.11C1635.42 2359.75 1637.98 2364.64 1643.91 2364.64" stroke="black" stroke-width="4" stroke-linecap="round" stroke-linejoin="round"/>
<path d="M1676.05 2297.68C1652.45 2322.47 1629.43 2347.87 1605.23 2372.08C1597.44 2379.86 1590.09 2386.9 1580.98 2392.76" stroke="black" stroke-width="4" stroke-linecap="round" stroke-linejoin="round"/>
<path d="M1856.83 2329.82C1857.66 2312.98 1859.9 2295.07 1873.95 2283.69C1883.02 2276.35 1900.36 2270.74 1911.89 2274.92C1924.24 2279.39 1928.23 2294.12 1931.08 2305.42C1934.95 2320.77 1939.17 2338.43 1936.66 2354.37C1931.6 2386.56 1887.98 2374.09 1871.19 2359.95C1859.08 2349.74 1848.8 2338.57 1848.8 2321.79" stroke="black" stroke-width="4" stroke-linecap="round" stroke-linejoin="round"/>
<path d="M1858.17 2289.65C1880.47 2303.93 1898.8 2324.62 1915.46 2345C1916.62 2346.42 1922.45 2352.63 1922.45 2353.92" stroke="black" stroke-width="4" stroke-linecap="round" stroke-linejoin="round"/>
<path d="M1922.45 2307.05C1903.41 2324.93 1883.05 2340.96 1862.19 2356.6" stroke="black" stroke-width="4" stroke-linecap="round" stroke-linejoin="round"/>
<path d="M2088.5 2297.68C2082.03 2306.78 2073.7 2315.59 2063.73 2320.89C2053.06 2326.56 2039.98 2316.32 2033.45 2308.69C2008.28 2279.27 2028.61 2250.11 2057.48 2234.22C2064.01 2230.63 2075.02 2225.97 2082.25 2231.02C2091.84 2237.72 2088.5 2261.1 2088.5 2270.9C2088.5 2279.17 2090.58 2282.07 2081.81 2282.95" stroke="black" stroke-width="4" stroke-linecap="round" stroke-linejoin="round"/>
<path d="M2036.28 2252.15C2053.52 2264.38 2072.13 2274.91 2088.5 2288.31" stroke="black" stroke-width="4" stroke-linecap="round" stroke-linejoin="round"/>
<path d="M2089.84 2250.81C2076.88 2267.79 2064.18 2284.97 2051.08 2301.85C2045.07 2309.59 2039.1 2317.36 2032.85 2324.91C1940.04 2437.05 2062 2290.01 2013.51 2344.55" stroke="black" stroke-width="4" stroke-linecap="round" stroke-linejoin="round"/>
<path d="M2210.36 2128.95C2188.96 2122.76 2175.27 2103.46 2167.66 2082.98C2153.43 2044.67 2174.04 2012.64 2212.59 2003C2241.75 1995.71 2286.83 2001.63 2284.76 2040.72C2283.59 2062.68 2272.03 2086.23 2258.94 2103.58C2253.16 2111.25 2247.05 2120.85 2236.4 2119.28C2229.85 2118.32 2225.11 2113.72 2218.4 2112.88" stroke="black" stroke-width="4" stroke-linecap="round" stroke-linejoin="round"/>
<path d="M2168.85 2012.45C2189.16 2028.14 2207.38 2044.78 2225.24 2063.26C2236.46 2074.87 2248.22 2091.1 2261.99 2100.38C2264.85 2102.31 2269.68 2103.11 2271.96 2100.83" stroke="black" stroke-width="4" stroke-linecap="round" stroke-linejoin="round"/>
<path d="M2266.6 1999.06C2252.76 2016.62 2239.05 2034.29 2225.61 2052.18C2214.19 2067.37 2203.56 2085.98 2189.98 2099.57C2186.02 2103.52 2184.9 2108.22 2182.24 2112.88" stroke="black" stroke-width="4" stroke-linecap="round" stroke-linejoin="round"/>
<path d="M2234.47 1823.63C2221.53 1824.36 2209.93 1824.35 2201.21 1835.54C2194.01 1844.78 2193.06 1857.36 2192.95 1868.57C2192.85 1880.06 2193.39 1893.01 2198.61 1903.53C2205.54 1917.51 2220.87 1922.08 2235.36 1923.17C2268.5 1925.67 2302.76 1912.03 2330.51 1894.9C2349.27 1883.32 2359.64 1862.51 2339.66 1845.5C2318.97 1827.89 2278.43 1827.68 2252.77 1831.07C2241.02 1832.62 2235.32 1834.54 2223.75 1830.33" stroke="black" stroke-width="4" stroke-linecap="round" stroke-linejoin="round"/>
<path d="M2191.61 1838.36C2222.89 1844.67 2246.33 1869.3 2275.01 1881.96C2281.63 1884.88 2287.14 1886.75 2293.39 1890.59" stroke="black" stroke-width="4" stroke-linecap="round" stroke-linejoin="round"/>
<path d="M2321.51 1839.7C2286.96 1841.88 2252.63 1849.72 2220.48 1862.76C2215.98 1864.59 2208.97 1866.56 2206.34 1871.1C2200.78 1880.7 2192.17 1890.68 2180.9 1891.93" stroke="black" stroke-width="4" stroke-linecap="round" stroke-linejoin="round"/>
<path d="M2164.83 1674.99C2142.14 1673.15 2133.83 1658.2 2132.77 1636.3C2130.91 1598.12 2152.48 1562 2187.75 1546.29C2210.03 1536.35 2228.14 1542.46 2242.72 1562.13C2255.97 1580 2259.44 1599.48 2247.11 1618.38C2238.51 1631.57 2225.17 1639.96 2215.35 1652C2203.69 1666.29 2194.18 1685.58 2175.25 1691.51C2155.71 1697.62 2154.68 1681.1 2146.08 1669.63" stroke="black" stroke-width="4" stroke-linecap="round" stroke-linejoin="round"/>
<path d="M2143.41 1578.57C2168.05 1598.13 2193.06 1617.34 2217.28 1637.42C2224.34 1643.27 2222.53 1640.58 2219.74 1641.51" stroke="black" stroke-width="4" stroke-linecap="round" stroke-linejoin="round"/>
<path d="M2231.79 1545.1C2214.22 1573.29 2197.73 1602.05 2180.83 1630.65C2174.18 1641.9 2167.62 1653.21 2160.67 1664.28C2053.12 1835.31 2194.66 1610.85 2139.39 1692.4" stroke="black" stroke-width="4" stroke-linecap="round" stroke-linejoin="round"/>
<path d="M2262.59 1451.36C2248.63 1442.68 2239.85 1428.3 2232.31 1413.94C2218.62 1387.86 2207.28 1356.58 2221.37 1327.71C2241.84 1285.77 2325.29 1255.16 2358.26 1299.89C2379.57 1328.8 2372.49 1367.84 2360.64 1398.46C2349.98 1426.02 2332.88 1452.22 2304.99 1464.6C2290.96 1470.83 2268.69 1475.93 2253.14 1472.49C2246.3 1470.97 2248.09 1468.14 2246.52 1463.41" stroke="black" stroke-width="4" stroke-linecap="round" stroke-linejoin="round"/>
<path d="M2243.84 1300.04C2258.61 1320.96 2275.8 1340.17 2292.05 1359.93C2300.73 1370.47 2309.5 1380.95 2317.94 1391.69C2453.17 1563.85 2274.04 1335.37 2340.26 1424.57" stroke="black" stroke-width="4" stroke-linecap="round" stroke-linejoin="round"/>
<path d="M2341.6 1287.98C2311.6 1338.03 2277.07 1385.98 2250.24 1437.82C2246.71 1444.63 2245.93 1453.66 2239.82 1456.71" stroke="black" stroke-width="4" stroke-linecap="round" stroke-linejoin="round"/>
<path d="M2091.18 1429.93C2080.85 1423.29 2076.36 1413.1 2074.22 1401.07C2071.91 1388.07 2076.97 1380.42 2087.61 1373.39C2099.7 1365.4 2116.56 1357.33 2131.5 1361.04C2151.74 1366.07 2162.44 1389.57 2168.92 1407.17C2172.09 1415.75 2176.9 1428 2169.74 1436.03C2162.56 1444.09 2148.08 1445.16 2138.2 1443.62C2124.23 1441.44 2116.13 1432.3 2110.67 1419.89C2108.67 1415.33 2108.01 1409.26 2104.57 1405.83" stroke="black" stroke-width="4" stroke-linecap="round" stroke-linejoin="round"/>
<path d="M2060.38 1375.03C2092.5 1380.12 2121.21 1392.35 2150.55 1406.12C2151.55 1406.6 2167.35 1416.7 2170.19 1413.86" stroke="black" stroke-width="4" stroke-linecap="round" stroke-linejoin="round"/>
<path d="M2142.07 1361.64C2133.71 1377.01 2130.4 1397.52 2118.48 1410.51C2114.9 1414.42 2110.4 1416.47 2106.21 1419.52C2099.48 1424.41 2097.65 1430.97 2093.86 1437.97" stroke="black" stroke-width="4" stroke-linecap="round" stroke-linejoin="round"/>
<path d="M2108.59 943.831C2092.14 934.294 2079.35 913.048 2073.18 895.622C2063.57 868.509 2079.39 853.157 2104.57 848.084C2116.96 845.588 2128.84 844.217 2131.06 859.169C2133.84 877.962 2132.81 899.347 2128.45 917.792C2126.01 928.131 2120.38 940.019 2114.24 948.89C2110.09 954.89 2095.49 948.617 2091.18 945.17" stroke="black" stroke-width="4" stroke-linecap="round" stroke-linejoin="round"/>
<path d="M2079.13 859.466C2091.38 870.45 2104.08 881.126 2113.95 894.283" stroke="black" stroke-width="4" stroke-linecap="round" stroke-linejoin="round"/>
<path d="M2121.98 847.414C2113.22 863.993 2106.68 880.017 2100.11 897.408C2095.94 908.455 2086.91 916.766 2078.68 924.86C2073.86 929.599 2069.37 934.189 2066.03 940.111C2065.19 941.602 2064.31 945.077 2063.06 943.831" stroke="black" stroke-width="4" stroke-linecap="round" stroke-linejoin="round"/>
<path d="M2350.97 846.075C2343.51 840.13 2343.9 841.416 2338.47 829.708C2328.6 808.395 2320.16 783.256 2322.1 759.404C2324.71 727.409 2359.65 716.892 2386.83 715.139C2448.97 711.129 2439.34 795.672 2404.46 823.756C2393.01 832.975 2379.12 841.647 2365.33 846.819C2356.9 849.978 2348.61 852.741 2340.55 846.968C2331.03 840.14 2323.64 829.867 2318.83 819.293" stroke="black" stroke-width="4" stroke-linecap="round" stroke-linejoin="round"/>
<path d="M2318.83 749.658C2337.82 770.812 2357.39 790.257 2377.75 809.919" stroke="black" stroke-width="4" stroke-linecap="round" stroke-linejoin="round"/>
<path d="M2329.54 817.954C2348.96 787.424 2369.67 758.717 2393.9 731.803C2395.96 729.511 2399.13 726.983 2400.52 724.215" stroke="black" stroke-width="4" stroke-linecap="round" stroke-linejoin="round"/>
<circle cx="2339.2" cy="263.715" r="108.793" stroke="black" stroke-width="4"/>
<line x1="2245.63" y1="202.135" x2="2442.67" y2="315.896" stroke="black" stroke-width="4"/>
<line x1="2261.3" y1="339.774" x2="2422.18" y2="178.892" stroke="black" stroke-width="4"/>
</svg>
