<svg width="2606" height="2606" viewBox="0 0 2606 2606" fill="none" xmlns="http://www.w3.org/2000/svg">
<rect width="2606" height="2606" fill="white"/>
<path d="M97.5762 90.8792C97.5762 103.597 97.5762 116.316 97.5762 129.034C97.5762 131.786 96.2287 138.949 98.7254 141.445C101.184 143.904 107.867 142.522 110.677 142.595C157.14 143.794 205.003 153.235 251.343 150.409C252.138 150.361 246.179 108.769 245.482 103.751C243.489 89.3993 241.189 93.3177 226.405 92.8329C192.918 91.735 160.31 82.6048 126.537 82.6048C113.616 82.6048 101.643 90.2054 89.3018 92.9479" stroke="black" stroke-width="4" stroke-linecap="round" stroke-linejoin="round"/>
<path d="M507.955 147.863C480.022 147.726 452.1 147.469 424.176 146.714C412.982 146.412 376.699 151.805 371.196 135.796C368.245 127.211 352.541 88.818 368.438 87.8736C418.461 84.9019 568.868 85.805 518.757 85.805C505.341 85.805 499.055 96.6097 497.152 108.79C496.795 111.074 493.584 133.273 501.749 125.109" stroke="black" stroke-width="4" stroke-linecap="round" stroke-linejoin="round"/>
<path d="M811.765 156.396C773.123 157.51 731.429 161.243 697.072 139.157C683.432 130.389 651.837 98.9906 654.321 78.7078C655.154 71.9059 667.851 80.9326 674.547 82.3853C694.155 86.6389 714.619 90.3467 734.767 89.8553C751.924 89.4368 771.548 73.1931 789.011 78.2481C805.535 83.0314 797.323 110.349 799.469 122.149C800.489 127.762 814.243 156.167 809.697 135.71" stroke="black" stroke-width="4" stroke-linecap="round" stroke-linejoin="round"/>
<path d="M931.28 87.6118C931.28 107.585 932.026 127.053 937.485 146.452C940.882 158.522 942.909 166.273 956.907 166.679C985.917 167.52 1016.37 162.976 1045.28 161.162C1066.55 159.829 1087.71 157.703 1108.95 156.221C1113.48 155.905 1120.72 159.129 1122.51 154.957C1123.53 152.577 1096.81 127.198 1094.7 124.847C1080.21 108.737 1065.83 95.4647 1044.82 88.7611C1014.96 79.2303 982.631 69.9983 951.276 67.3854C942.791 66.6783 926.547 65.4526 920.937 71.0629" stroke="black" stroke-width="4" stroke-linecap="round" stroke-linejoin="round"/>
<path d="M1221.25 80.3649C1220.53 97.4845 1219.73 114.605 1219.3 131.735C1219.24 133.961 1218.01 141.943 1221.02 144.032C1227.15 148.283 1240.28 149.542 1246.76 150.928C1270.7 156.044 1294.82 160.087 1319.28 161.615C1320.89 161.716 1360.69 164.918 1359.85 158.512C1357.09 137.546 1340.32 116.252 1333.19 96.2243C1332.26 93.6191 1324.62 67.672 1321.46 71.4009C1317.17 76.4708 1310.95 79.8145 1304.46 81.5141C1285.92 86.362 1263.77 81.9543 1244.7 83.4678C1234.37 84.2877 1228.96 83.9187 1219.18 80.3649" stroke="black" stroke-width="4" stroke-linecap="round" stroke-linejoin="round"/>
<path d="M1443.98 87.4183C1443.98 108.786 1441.44 131.965 1444.1 153.269C1444.63 157.511 1510.11 156.266 1517.07 156.372C1544.79 156.795 1571.89 149.477 1599.59 149.477C1608.69 149.477 1612.54 151.453 1607.63 139.823C1598.32 117.763 1588.85 80.0767 1560.63 79.2588C1543.61 78.7653 1526.52 79.1439 1509.49 79.1439C1501.32 79.1439 1443.49 78.0538 1443.98 77.0753" stroke="black" stroke-width="4" stroke-linecap="round" stroke-linejoin="round"/>
<path d="M1799.8 105.435C1799.8 116.858 1801.09 129.453 1799.34 140.831C1798.21 148.185 1790.44 146.492 1784.63 146.348C1768.15 145.938 1751.53 144.87 1735.1 143.475C1722.24 142.382 1696.91 143.096 1686.72 132.902C1681.95 128.132 1679.48 82.4706 1690.16 87.2773C1706.85 94.7864 1728.61 90.9549 1746.82 90.9549C1757.83 90.9549 1765.9 91.9702 1776.13 96.0115C1788.74 100.999 1803.04 99.2293 1816.35 99.2293" stroke="black" stroke-width="4" stroke-linecap="round" stroke-linejoin="round"/>
<path d="M1892.58 94.5605C1891.68 116.549 1887.25 142.245 1890.63 164.204C1890.88 165.849 1891.68 161.005 1892.58 159.607C1895.56 154.994 1904.53 155.581 1908.21 155.24C1959.47 150.494 2016.87 141.963 2067.84 151.907C2072.83 152.881 2064.16 142.262 2061.06 138.231C2048.56 122.012 2036.17 105.682 2023.48 89.6188C2014.84 78.6901 2007.37 66.324 1991.87 69.5073C1977.1 72.5432 1963.38 79.1358 1950.5 86.7458C1930.69 98.4494 1908.82 109.909 1885.68 112.718C1879.98 113.411 1870.1 116.222 1871.89 109.041" stroke="black" stroke-width="4" stroke-linecap="round" stroke-linejoin="round"/>
<path d="M2155.04 155.244C2155.04 139.384 2155.04 123.525 2155.04 107.666C2155.04 98.2869 2193.03 94.1668 2198.48 92.7258C2222.36 86.4078 2246.49 80.0349 2270.88 75.9471C2275.49 75.1734 2286.75 72.341 2291.33 75.9471C2298.05 81.2231 2291.97 108.062 2291.45 115.366C2290.95 122.346 2286.62 159.381 2278 159.381C2273.97 159.381 2270.29 158.039 2266.4 157.083C2249.3 152.883 2231.65 150.76 2214.11 149.498C2202.04 148.63 2189.88 149.038 2177.79 149.038" stroke="black" stroke-width="4" stroke-linecap="round" stroke-linejoin="round"/>
<path d="M2396.57 87.5344C2396.57 107.723 2396.57 127.911 2396.57 148.099C2396.57 153.416 2410.39 146.714 2414.04 146.375C2440.85 143.885 2468.27 145.456 2495.17 145.456C2502.29 145.456 2516.29 148.173 2522.87 144.881C2536.91 137.862 2516.52 94.4182 2510.8 85.2359C2509.59 83.2793 2508.21 83.2957 2506.21 83.7419C2492.63 86.7583 2479.49 88.1148 2465.52 88.2239C2459.81 88.2686 2410.79 91.1499 2406.91 83.3972" stroke="black" stroke-width="4" stroke-linecap="round" stroke-linejoin="round"/>
<path d="M122.671 328.312C122.671 304.309 121.632 283.005 117.614 259.473C116.226 251.339 115.94 249.705 123.59 249.705C156.767 249.705 191.929 253.372 224.838 248.671C251.413 244.874 227.358 304.985 224.263 315.671C222.851 320.546 218.661 346.376 211.621 349.113C206.774 350.998 188.637 341.982 184.27 340.724C157.928 333.136 130.327 326.999 104.743 317.05C102.461 316.162 104.054 310.234 104.054 307.626" stroke="black" stroke-width="4" stroke-linecap="round" stroke-linejoin="round"/>
<path d="M371.147 266.19C371.147 285.497 371.147 304.804 371.147 324.111C371.147 331.155 369.611 342.538 371.262 349.969C372.763 356.725 392.17 350.279 393.902 350.084C433.917 345.575 474.414 343.692 514.686 344.912C515.934 344.95 525.846 347.354 522.615 342.729C515.338 332.309 507.761 323.052 501.699 311.699C494.292 297.828 487.558 283.599 480.324 269.638C476.751 262.743 471.659 247.771 462.396 245.964C449.654 243.477 432.057 244.913 420.794 251.71C411.444 257.352 367.01 273.191 367.01 253.778" stroke="black" stroke-width="4" stroke-linecap="round" stroke-linejoin="round"/>
<path d="M660.21 349.433C660.21 323.039 660.21 296.645 660.21 270.251C660.21 265.386 660.183 260.521 660.21 255.656C660.223 253.276 658.46 247.646 660.669 248.53C687.878 259.414 727.444 250.027 757.664 255.196C786.493 260.127 810.553 269.012 818.114 299.556C820.438 308.945 819.864 322.69 819.378 332.654C819.272 334.825 818.774 341.158 815.356 341.158C763.94 341.158 712.408 330.211 661.129 326.793C658.415 326.612 640.702 326.678 647.798 326.678" stroke="black" stroke-width="4" stroke-linecap="round" stroke-linejoin="round"/>
<path d="M1081.76 246.094C1044.78 246.094 1007.71 244.985 970.743 245.405C959.674 245.53 960.159 249.577 959.711 260.345C958.916 279.414 959.062 298.406 957.527 317.461C956.681 327.97 955.271 338.382 953.965 348.835C953.817 350.016 952.991 353.327 953.735 352.398C958.177 346.846 969.981 345.414 976.26 344.468C1003.67 340.338 1031.04 340.555 1058.54 338.722C1076.88 337.5 1087.26 339.688 1089.11 318.496C1091.27 293.861 1089.49 270.358 1085.9 246.094" stroke="black" stroke-width="4" stroke-linecap="round" stroke-linejoin="round"/>
<path d="M1342.05 263.633C1342.05 283.476 1343.49 301.119 1338.37 319.946C1336.8 325.714 1336.56 333.48 1333.66 338.793C1330.6 344.404 1290.02 337.27 1287.12 336.724C1248.64 329.498 1235.84 305.818 1236.67 268.69C1236.97 254.839 1240.55 256.384 1253.33 257.887C1277.43 260.723 1301.28 261.565 1325.5 261.565" stroke="black" stroke-width="4" stroke-linecap="round" stroke-linejoin="round"/>
<path d="M1595.54 346.394C1593.21 332.335 1593.61 317.534 1588.53 304.217C1576.91 273.722 1562.03 265.888 1531.88 257.558C1519.3 254.085 1476.42 246.928 1461.31 255.605C1453.49 260.095 1459.02 300.388 1459.02 309.159C1459.02 315.636 1456.04 332.152 1461.54 337.66C1463.82 339.931 1472.43 334.954 1474.41 334.442C1491.87 329.937 1511.98 331.435 1529.81 332.373C1550.49 333.462 1571.45 335.199 1591.41 340.188" stroke="black" stroke-width="4" stroke-linecap="round" stroke-linejoin="round"/>
<path d="M1794.5 321.341C1765.33 321.341 1735.93 322.302 1706.81 320.307C1699.63 319.816 1693.71 320.644 1693.25 312.377C1692.4 297.057 1693.13 281.513 1693.13 266.178C1693.13 264.278 1691.04 231.213 1693.13 230.322C1699.76 227.501 1707.53 229.501 1714.74 229.633C1740.34 230.102 1765.92 231.374 1791.51 232.161C1811.57 232.779 1807.46 236.444 1803.57 255.031C1797.6 283.597 1794.16 312.608 1787.83 341.108C1787.21 343.891 1780.98 371.133 1782.08 368.919" stroke="black" stroke-width="4" stroke-linecap="round" stroke-linejoin="round"/>
<path d="M1913.85 347.648C1915.71 347.644 2017.85 347.567 2027.39 347.188C2031.26 347.034 2061.02 348.014 2066.69 337.305C2068.95 333.057 2063.94 305.845 2063.71 304.437C2050.75 225.537 2068.17 334.886 2057.5 267.431C2056.72 262.493 2057.94 250.483 2053.59 252.951C2043.07 258.925 2026.54 257.866 2014.98 258.238C1968.33 259.736 1922.34 251.507 1876.15 246.745C1868.07 245.913 1882.77 254.975 1886.04 260.076C1898.03 278.791 1909.56 297.534 1915 319.262C1916.8 326.485 1917.63 334.009 1921.2 340.637C1925.41 348.45 1929.13 358.339 1924.19 343.51" stroke="black" stroke-width="4" stroke-linecap="round" stroke-linejoin="round"/>
<path d="M2179.38 353.363C2179.38 329.416 2180.63 305.018 2179.26 281.076C2178.6 269.575 2175.47 257.965 2175.47 246.485C2175.47 242.097 2182.52 245.861 2185.01 246.14C2206.4 248.543 2227.87 250.203 2249.25 252.69C2257.61 253.663 2272.02 250.218 2273.84 258.437C2275.43 265.594 2266.81 284.17 2265.34 290.845C2261.19 309.717 2258.7 329.404 2253.85 348.076C2251.11 358.628 2231.69 350.756 2225.35 349.456C2211.74 346.665 2197.44 344.489 2184.2 340.147C2176.48 337.612 2180.81 337.694 2179.38 332.677" stroke="black" stroke-width="4" stroke-linecap="round" stroke-linejoin="round"/>
<path d="M2398.92 265.512C2398.92 284.218 2396.16 305.795 2399.03 324.467C2399.63 328.375 2402.94 330.651 2406.04 332.627C2419.35 341.095 2432.42 339.3 2446.04 334.695C2463.97 328.632 2481.6 332.754 2499.36 329.524C2506.37 328.25 2513.38 326.429 2520.16 325.387C2532.07 323.555 2524.44 315.088 2520.51 308.493C2513.72 297.094 2509.36 284.889 2506.49 271.947C2505.15 265.95 2503.31 265.512 2497.75 265.512C2465.22 265.512 2433.43 262.31 2400.99 259.306" stroke="black" stroke-width="4" stroke-linecap="round" stroke-linejoin="round"/>
<path d="M137.282 456.043C159.366 456.043 182.413 458.096 204.397 455.583C209.573 454.992 225.713 450.596 229.91 455.354C238.87 465.508 236.576 489.755 236.576 502.472C236.576 503.707 238.265 523.562 237.725 523.848C231.57 527.106 217.97 521.168 211.752 520.63C199.049 519.53 186.111 520.17 173.368 520.17C165.531 520.17 158.556 522.239 150.613 522.239C145.42 522.239 132.283 524.441 127.973 521.089C124.129 518.099 113.488 518.158 111.539 514.539C106.415 505.023 104.645 488.295 104.299 477.763C104.029 469.525 98.4774 446.152 111.425 451.906C116.431 454.131 129.348 458.112 120.733 458.112" stroke="black" stroke-width="4" stroke-linecap="round" stroke-linejoin="round"/>
<path d="M494.739 434.079C462.118 434.079 429.439 433.452 396.824 434.079C389.97 434.211 387.104 482.812 386.366 488.323C384.121 505.105 383.033 521.854 383.033 538.774C383.033 544.14 382.921 541.721 384.298 539.579C392.049 527.52 416.841 527.562 428.313 526.247C450.365 523.721 472.534 521.462 494.739 520.961C496.086 520.931 502.995 521.966 504.622 520.501C505.391 519.809 506.865 511.812 507.035 510.618C508.096 503.19 504.726 495.293 502.898 488.323C499.005 473.479 498.268 456.349 492.67 442.354" stroke="black" stroke-width="4" stroke-linecap="round" stroke-linejoin="round"/>
<path d="M808.322 440.942C808.941 451.785 823.184 539.984 818.665 540.235C812.413 540.582 805.791 537.894 799.932 536.443C755.507 525.438 710.255 519.947 665.357 511.504C648.352 508.307 645.773 504.071 646.51 487.37C646.945 477.506 647.641 467.615 649.038 457.835C649.705 453.166 649.096 439.054 653.176 435.655C654.301 434.717 671.868 440.892 675.241 440.942C700.776 441.317 726.178 442.069 751.435 445.998C761.13 447.506 770.961 447.147 780.74 447.147C788.67 447.147 802.116 451.341 802.116 440.942" stroke="black" stroke-width="4" stroke-linecap="round" stroke-linejoin="round"/>
<path d="M1051.77 436.148C1022.28 436.148 992.78 436.148 963.283 436.148C949.088 436.148 932.377 434.617 918.003 436.607C915.634 436.936 918.282 439.669 918.578 440.285C922.559 448.554 923.915 459.016 925.129 467.866C927.893 488.026 929.102 508.44 929.381 528.776C929.476 535.704 930.558 547.582 927.657 554.748C926.527 557.54 923.52 555.925 923.52 553.599C923.52 546.484 936.036 545.903 940.988 545.325C997.465 538.723 1054.42 545.793 1110.84 541.187C1114.12 540.92 1125.85 541.334 1126.24 536.59C1127.07 526.706 1125.25 516.403 1123.72 506.71C1121.3 491.406 1120.07 476.072 1117.97 460.741C1117.41 456.625 1117.62 448.35 1115.44 444.422C1109.96 434.553 1055.41 432.765 1064.19 419.599" stroke="black" stroke-width="4" stroke-linecap="round" stroke-linejoin="round"/>
<path d="M1361.69 536.051C1361.69 513.143 1361.75 490.235 1361.69 467.327C1361.68 461.119 1363.54 454.473 1361.23 448.709C1360.75 447.492 1358.64 449.188 1357.33 449.169C1349.77 449.056 1342.24 447.983 1334.8 446.755C1309.25 442.541 1284.93 439.939 1258.95 440.435C1245.84 440.685 1229.62 438.397 1216.66 441.124C1214.83 441.51 1227.23 507.834 1227.23 525.708C1227.23 529.901 1225.2 537.651 1231.49 534.901C1249.26 527.125 1265.02 525.708 1284.58 525.708C1299.35 525.708 1314.59 524.66 1329.29 526.167C1336.26 526.883 1345.29 527.776 1332.73 527.776" stroke="black" stroke-width="4" stroke-linecap="round" stroke-linejoin="round"/>
<path d="M1547.87 529.663C1563.76 529.663 1579.66 529.663 1595.56 529.663C1605.68 529.663 1601.03 517.762 1600.5 510.241C1599.23 492.291 1602.36 468.529 1596.36 451.401C1594.63 446.451 1589.29 446.694 1584.87 447.034C1554.15 449.397 1523.98 447.079 1493.16 446.919C1486.97 446.887 1450.64 442.5 1450.64 455.193C1450.64 469.206 1452.71 483.41 1452.71 497.6C1452.71 500.139 1450.63 523.083 1453.97 524.147C1472.27 529.968 1496.94 516.412 1514.77 523.917C1520.04 526.136 1525.67 525.526 1531.32 525.526" stroke="black" stroke-width="4" stroke-linecap="round" stroke-linejoin="round"/>
<path d="M1772.96 524.475C1749.73 525.851 1725.51 527.069 1702.34 524.365C1700.4 524.139 1691.35 523.934 1690.16 520.963C1688.64 517.166 1690.01 507.871 1690.05 504.556C1690.26 485.022 1689.44 464.206 1693.94 445.018C1694.56 442.396 1694.68 443.402 1695.92 444.25C1700.25 447.22 1709.96 446.162 1714.69 446.445C1730.25 447.376 1745.73 448.42 1761.33 448.42C1770.04 448.42 1779.84 449.617 1788.44 447.817C1792.32 447.004 1798.36 443.541 1802.37 444.689C1803.43 444.992 1804.41 446.637 1805.56 447.213C1809.79 449.327 1809.7 452.157 1809.45 456.541C1808.72 469.775 1804.18 482.041 1802.37 495.063C1801.08 504.382 1797.58 513.902 1794.14 522.664C1793.11 525.283 1791.37 534.338 1787.01 532.157C1784.14 530.721 1782.35 527.321 1779.88 525.462" stroke="black" stroke-width="4" stroke-linecap="round" stroke-linejoin="round"/>
<path d="M2037.04 497.677C2037.04 487.188 2037.99 476.295 2037.04 465.851C2036.2 456.584 2014.77 460.144 2009.49 460.144C1989.61 460.144 1969.75 460.625 1950.12 456.961C1940.89 455.239 1932.66 454.041 1923.45 453.12C1920.58 452.833 1914.99 449.138 1912.2 450.377C1910.64 451.07 1911.6 459.299 1911.6 460.034C1911.6 480.028 1905.23 499.213 1903.86 519.078C1903.23 528.28 1903.13 525.609 1909.29 524.346C1923.9 521.354 1940.38 523.358 1955.17 523.358C1969.95 523.358 1984.73 523.358 1999.5 523.358C2008.93 523.358 2018.36 524.346 2027.65 524.346C2033.39 524.346 2032.25 516.06 2033.58 511.176C2035.24 505.076 2035.12 498.503 2037.04 492.739" stroke="black" stroke-width="4" stroke-linecap="round" stroke-linejoin="round"/>
<path d="M2167.83 502.734C2167.97 493.582 2165.66 476.548 2172.11 468.713C2174.83 465.402 2181.79 464.216 2185.17 463.445C2196.2 460.926 2207.36 458.847 2218.42 456.476C2235.52 452.811 2253.77 446.434 2271.43 446.434C2278.41 446.434 2282.51 445.74 2281.91 453.897C2280.95 466.91 2281.45 480.041 2281.42 493.076C2281.39 501.707 2282.83 512.359 2279.93 520.733C2278.91 523.684 2279.37 529.531 2275.27 529.403C2256.02 528.801 2236.72 528.707 2217.43 528.195C2202.39 527.796 2175.84 530.409 2172.99 510.197C2172.26 505.021 2173.18 499.601 2170.79 494.832" stroke="black" stroke-width="4" stroke-linecap="round" stroke-linejoin="round"/>
<path d="M2387.67 447.603C2387.67 447.88 2387.82 507.597 2388.76 513.561C2390.97 527.476 2395.34 529.072 2408.63 529.145C2428.3 529.252 2447.82 525.621 2467.45 524.316C2488.53 522.915 2512.13 523.908 2533.03 519.542C2537.69 518.568 2536.63 518.23 2536.21 514.768C2535.19 506.373 2534.6 497.981 2534.29 489.526C2533.85 477.707 2535.36 464.936 2533.79 453.2C2533.3 449.457 2530.09 446.241 2526.33 446.725C2519.81 447.567 2513.98 448.591 2507.29 448.591C2495.15 448.591 2483 448.518 2470.86 448.591C2460.53 448.652 2450.77 451.554 2440.46 451.554C2435.82 451.554 2428.16 453.818 2428.16 447.603" stroke="black" stroke-width="4" stroke-linecap="round" stroke-linejoin="round"/>
<path d="M119.137 658.191C119.697 683.943 120.256 709.694 120.816 735.445" stroke="black" stroke-width="4" stroke-linecap="round" stroke-linejoin="round"/>
<path d="M246.772 656.512C246.772 680.024 246.772 703.536 246.772 727.048" stroke="black" stroke-width="4" stroke-linecap="round" stroke-linejoin="round"/>
<path d="M90.5864 664.909C141.985 664.73 193.208 664.336 244.533 661.737C250.7 661.425 256.062 661.327 261.887 659.871" stroke="black" stroke-width="4" stroke-linecap="round" stroke-linejoin="round"/>
<path d="M70.4336 732.086C128.659 732.086 187.398 734.481 245.466 729.1C253.68 728.339 262.011 727.048 270.284 727.048" stroke="black" stroke-width="4" stroke-linecap="round" stroke-linejoin="round"/>
<path d="M385.515 650.224C385.515 679.334 385.515 766.664 385.515 737.554" stroke="black" stroke-width="4" stroke-linecap="round" stroke-linejoin="round"/>
<path d="M499.715 648.544C499.715 672.616 499.715 696.688 499.715 720.759" stroke="black" stroke-width="4" stroke-linecap="round" stroke-linejoin="round"/>
<path d="M365.362 661.98C415.979 661.805 466.695 662.223 517.256 659.367C521.257 659.141 527.172 659.715 529.945 656.941" stroke="black" stroke-width="4" stroke-linecap="round" stroke-linejoin="round"/>
<path d="M360.323 724.118C412.945 724.118 465.567 724.118 518.189 724.118" stroke="black" stroke-width="4" stroke-linecap="round" stroke-linejoin="round"/>
<path d="M651.009 658.75C651.009 683.381 651.009 708.012 651.009 732.644C651.009 735.443 651.009 727.046 651.009 724.247" stroke="black" stroke-width="4" stroke-linecap="round" stroke-linejoin="round"/>
<path d="M817.786 657.009C778.449 657.009 738.729 655.516 699.573 655.516C690.44 655.516 674.543 661.309 668.317 651.971" stroke="black" stroke-width="4" stroke-linecap="round" stroke-linejoin="round"/>
<path d="M812.747 651.971C812.747 677.006 813.378 702.153 812.374 727.172C811.903 738.913 812.567 742.756 803.044 737.994C781.945 727.445 756.326 726.052 733.162 726.052C707.24 726.052 681.452 729.224 655.535 729.224C648.002 729.224 648.164 727.493 648.164 720.827" stroke="black" stroke-width="4" stroke-linecap="round" stroke-linejoin="round"/>
<path d="M934.413 648.221C934.413 665.369 931.173 687.494 938.145 703.641C941.413 711.211 946.62 712.834 954.193 713.345C979.284 715.035 1005.87 712.186 1030.98 712.318C1064.3 712.494 1164.23 715.397 1130.9 715.397" stroke="black" stroke-width="4" stroke-linecap="round" stroke-linejoin="round"/>
<path d="M905.862 646.541C972.472 646.541 1039.11 646.009 1105.71 646.634C1110.38 646.678 1115.05 646.692 1119.71 646.914C1122.56 647.05 1127.15 645.904 1128.11 648.594C1131.37 657.778 1120.57 688.891 1119.15 695.244C1118.84 696.625 1105.66 738.825 1110.75 742.641C1111.66 743.326 1112.43 745.627 1112.43 745.627" stroke="black" stroke-width="4" stroke-linecap="round" stroke-linejoin="round"/>
<path d="M1335.91 652.608C1335.89 658.355 1341.79 707.138 1329.75 709.335C1321.24 710.887 1312.46 708.733 1303.81 708.775C1281.88 708.881 1260.01 709.933 1238.13 711.294C1235.2 711.476 1191.85 716.701 1196.51 709.708" stroke="black" stroke-width="4" stroke-linecap="round" stroke-linejoin="round"/>
<path d="M1193.16 751.693C1193.16 731.696 1193.16 711.698 1193.16 691.701C1193.16 680.171 1191.63 665.494 1193.53 653.727C1193.67 652.846 1207.9 654.899 1208.64 654.847C1267.76 650.723 1326.78 632.31 1386.29 644.211" stroke="black" stroke-width="4" stroke-linecap="round" stroke-linejoin="round"/>
<path d="M1455.86 678.68C1455.86 698.84 1455.13 719.181 1456.24 739.325C1456.25 739.64 1456.29 746.466 1457.92 747.163C1459.97 748.043 1470.3 743.155 1471.73 742.871C1495.21 738.198 1519.96 739.301 1543.75 739.139C1559.61 739.03 1575.53 739.321 1591.34 737.833C1591.77 737.792 1596.04 737.875 1596.56 737.086C1599.55 732.602 1587.58 715.919 1586.02 711.988C1577.67 690.938 1577.73 668.04 1571.09 646.584C1569.5 641.452 1561.75 648.249 1557.47 649.29C1540.78 653.349 1524.17 656.319 1507.27 659.46C1493.92 661.941 1475.78 669.564 1462.58 666.924" stroke="black" stroke-width="4" stroke-linecap="round" stroke-linejoin="round"/>
<path d="M1692.39 649.25C1692.45 666.529 1692.43 682.792 1692.77 700.006C1692.88 705.788 1692.35 717.267 1693.98 723.798C1694.53 726.011 1698.42 722.636 1700.7 722.491C1738.05 720.124 1775.94 721.728 1813.31 721.465" stroke="black" stroke-width="4" stroke-linecap="round" stroke-linejoin="round"/>
<path d="M1821.71 726.503C1773.57 722.025 1725.42 717.546 1677.28 713.068" stroke="black" stroke-width="4" stroke-linecap="round" stroke-linejoin="round"/>
<path d="M1680.64 649.25C1707.7 649.25 1734.75 649.163 1761.81 649.25C1770.23 649.277 1790.78 647 1800.25 651.209C1804.54 653.116 1801.23 661.974 1801 664.738C1799.91 677.688 1800.17 690.661 1801.84 703.551C1802.57 709.199 1815.08 741.597 1808.27 743.298" stroke="black" stroke-width="4" stroke-linecap="round" stroke-linejoin="round"/>
<path d="M1911.84 645.596C1911.84 679.411 1912.22 712.852 1915.2 746.361" stroke="black" stroke-width="4" stroke-linecap="round" stroke-linejoin="round"/>
<path d="M1894.1 653.876C1924.01 653.876 1954.48 655.483 1984.33 653.037C1991.09 652.482 1997.57 650.842 2004.39 650.611C2015.55 650.232 2037.98 654.802 2046.93 648.838" stroke="black" stroke-width="4" stroke-linecap="round" stroke-linejoin="round"/>
<path d="M2046.93 647.159C2046.93 677.637 2045.25 708.026 2045.25 738.407C2045.25 743.383 2045.43 728.448 2045.16 723.479C2044.46 710.574 2041.75 698.502 2038.72 685.972C2036.19 675.482 2035.72 660.376 2030.88 650.704C2028.36 645.658 2031.49 661.974 2032 667.592C2033.09 679.506 2033.52 683.961 2034.99 695.302C2036.17 704.424 2036.85 713.014 2036.85 722.173C2036.85 727.443 2035.77 731.342 2038.81 735.142C2043.86 741.446 2045.25 751.819 2045.25 737.847" stroke="black" stroke-width="4" stroke-linecap="round" stroke-linejoin="round"/>
<path d="M2045.25 737.847C2006.94 737.847 1968.62 737.847 1930.3 737.847C1926.62 737.847 1928.32 738.268 1929.37 736.168" stroke="black" stroke-width="4" stroke-linecap="round" stroke-linejoin="round"/>
<path d="M2165.97 676.7C2165.97 702.451 2165.97 728.202 2165.97 753.953C2165.97 754.886 2165.97 757.685 2165.97 756.752C2165.97 753.704 2165.97 750.656 2165.97 747.609C2165.97 723.215 2169.84 695.369 2165.23 671.288C2160.53 646.791 2165.52 721.176 2165.97 746.116C2166.12 754.148 2166.53 741.886 2165.97 738.838" stroke="black" stroke-width="4" stroke-linecap="round" stroke-linejoin="round"/>
<path d="M2142.46 678.379C2165.35 678.379 2188.24 678.709 2211.13 678.379C2221.74 678.227 2190.02 676.257 2179.5 674.927C2167.72 673.438 2132.36 669.982 2144.23 669.982C2154.87 669.982 2165.61 667.684 2176.14 666.53C2208.93 662.937 2242.05 660.976 2275.04 661.678C2281.84 661.823 2287.18 663.086 2293.61 664.571C2298.32 665.658 2303.32 664.137 2307.98 665.69C2319.83 669.641 2299.89 672.08 2296.97 671.662" stroke="black" stroke-width="4" stroke-linecap="round" stroke-linejoin="round"/>
<path d="M2296.97 669.982C2296.97 690.478 2301.05 751.41 2296.32 731.468C2290.3 706.13 2285.7 680.269 2283.53 654.308C2283.38 652.434 2281.77 623.125 2284.37 640.499C2289.08 671.864 2290.25 703.821 2290.25 735.479" stroke="black" stroke-width="4" stroke-linecap="round" stroke-linejoin="round"/>
<path d="M2313.76 737.159C2304.78 737.082 2229.93 737.213 2210.38 734.92C2195.19 733.137 2240.44 728.431 2255.73 727.829C2287.11 726.592 2265.81 732.359 2251.06 734.173C2219.6 738.044 2188.53 741.161 2157.86 749.475C2150.5 751.467 2142.92 753.953 2135.74 753.953" stroke="black" stroke-width="4" stroke-linecap="round" stroke-linejoin="round"/>
<path d="M2412.31 642.566C2412.4 672.244 2412.21 701.939 2413.99 731.575C2414.26 736.092 2414.68 738.201 2413.43 729.709C2410.84 712.127 2408.16 694.551 2406.06 676.901C2405.11 668.973 2401.44 645.555 2404.28 653.016C2405.28 655.635 2405.48 657.794 2405.68 660.573C2406.85 676.322 2410.76 692.617 2413.05 708.25C2414.58 718.683 2415.62 729.624 2418.19 739.879C2420.06 747.389 2414.12 733.523 2413.99 733.255" stroke="black" stroke-width="4" stroke-linecap="round" stroke-linejoin="round"/>
<path d="M2403.91 753.408C2440.43 752.517 2476.94 750.858 2513.45 749.489C2621.5 745.437 2495.34 750.144 2545.91 748.37C2548.67 748.273 2540.52 747.201 2537.8 746.783C2506.13 741.929 2474.43 736.788 2443.19 729.616C2434.6 727.643 2409.23 720.199 2417.53 723.178C2421.32 724.538 2435.05 723.512 2437.31 727.47C2441.77 735.27 2427.95 725.279 2427.42 724.858" stroke="black" stroke-width="4" stroke-linecap="round" stroke-linejoin="round"/>
<path d="M2534.9 654.322C2534.9 678.761 2534.63 703.224 2535.28 727.657C2535.35 730.428 2535.04 733.28 2535.74 735.961C2536.15 737.502 2536.18 732.796 2536.21 731.202C2536.64 711.651 2535.52 692.096 2534.07 672.609C2533.27 661.969 2531.55 630.031 2531.55 640.7C2531.55 646.143 2531.55 651.585 2531.55 657.028C2531.55 676.409 2538.26 734.162 2538.26 714.781" stroke="black" stroke-width="4" stroke-linecap="round" stroke-linejoin="round"/>
<path d="M2368.64 667.757C2401.5 667.524 2434.32 666.92 2467.17 666.078C2478.55 665.786 2489.94 665.548 2501.32 665.145C2508.75 664.882 2530.59 665.215 2523.52 662.906C2500.97 655.544 2465.57 659.627 2443.28 659.734C2418.89 659.85 2394.52 660.694 2370.13 661.04C2359.93 661.184 2369.5 661.611 2373.68 664.399" stroke="black" stroke-width="4" stroke-linecap="round" stroke-linejoin="round"/>
<path d="M120.627 886.656C120.627 921.993 119.134 957.939 120.923 993.28C121.347 1001.66 124.812 996.741 131.275 995.794C164.348 990.947 199.336 991.368 232.723 990.618C247.039 990.296 255.272 990.517 255.202 972.724C255.102 947.594 247.29 921.176 240.709 897.156C237.125 884.075 233.549 865.429 225.033 854.121C219.265 846.461 215.554 858.926 213.203 862.107C203.847 874.765 178.04 874.781 164.401 876.008C139.985 878.206 109.423 873.075 85.8746 880.001C83.0166 880.842 98.1269 887.245 99.332 889.909C108.523 910.227 104.656 934.743 104.656 956.457C104.656 964.649 103.937 978.748 109.98 985.146C113.735 989.123 116.283 990.174 121.81 990.47C139.432 991.414 156.331 997.593 173.865 999.639C190.521 1001.58 207.969 1003.48 224.738 1003.48C237.535 1003.48 235.938 1000.21 227.104 995.794" stroke="black" stroke-width="4" stroke-linecap="round" stroke-linejoin="round"/>
<path d="M398.951 858.223C398.951 897.165 398.951 1013.99 398.951 975.051C398.951 941.383 398.951 907.714 398.951 874.046C398.951 867.261 402.338 856.384 397.62 864.877C396.47 866.947 395.963 866.862 400.43 866.948C409.935 867.131 430.034 864.932 436.661 864.286C458.347 862.173 482.533 859.36 504.244 857.779C517.741 856.796 554.46 850.852 544.764 860.293C526.964 877.625 475.019 856.879 455.738 853.49C448.98 852.303 402.088 842.575 429.711 849.941C459.761 857.955 503.174 837.015 529.68 857.631C536.944 863.28 534.708 874.475 534.708 882.476C534.708 911.017 534.708 939.559 534.708 968.1C534.708 974.845 539.943 994.245 536.927 988.213C534.523 983.406 509.338 987.403 508.089 987.473C466.215 989.837 424.542 992.913 382.98 998.712C381.946 998.856 328.339 1011.97 348.375 1006.7C375.215 999.635 398.631 997.225 426.753 996.494C451.314 995.856 478.262 996.972 502.47 992.649C512.692 990.824 513.179 991.318 502.765 991.318" stroke="black" stroke-width="4" stroke-linecap="round" stroke-linejoin="round"/>
<path d="M624.772 875.009C626.764 889.094 626.305 903.75 630.749 917.263C640.672 947.436 652.367 954.149 682.176 961.74C715.741 970.289 752.344 967.173 786.559 972.582C798.328 974.442 809.909 977.076 821.724 978.697C823.041 978.878 833.033 981.36 834.72 979.392C836.363 977.475 834.877 966.064 834.859 964.798C834.626 948.952 834.247 933.108 833.955 917.263C833.823 910.062 834.967 900.448 833.677 893.078C833.266 890.728 812.218 890.44 809.771 890.02C781.749 885.22 754.494 879.4 725.958 878.762C695.698 878.086 665.605 876.26 635.336 876.26C631.919 876.26 628.466 876.397 625.05 876.26C622.756 876.168 635.096 875.045 636.378 875.079C650.566 875.452 663.642 879.614 677.45 882.376C698.794 886.645 720.243 885.277 741.804 886.546C749.568 887.002 755.59 888.876 763.347 888.144C778.331 886.73 792.994 889.469 807.755 891.827C818.335 893.518 831.13 892.924 841.183 896.275" stroke="black" stroke-width="4" stroke-linecap="round" stroke-linejoin="round"/>
<path d="M947.512 852.872C947.512 896.655 947.512 940.437 947.512 984.22C947.512 1007.38 947.512 937.889 947.512 914.724C947.512 908.254 949.282 898.973 947.234 892.624C946.989 891.865 945.562 887.202 945.358 891.025C944.423 908.557 947.128 927.081 948.485 944.468C948.522 944.936 951.659 993.254 952.794 993.254C972.336 993.254 992.809 996.004 1012.14 997.354C1037.95 999.157 1063.74 1000.63 1089.56 1002.01C1107.41 1002.96 1079.24 1001.16 1076.08 1000.62C1044.87 995.287 1014.43 987.171 982.816 984.081C968.683 982.699 954.22 981.907 940.006 981.718C934.186 981.64 938.321 981.718 941.257 981.718C954.399 981.718 967.477 982.411 980.592 983.247C1010.73 985.167 1041.75 984.943 1071.63 989.501C1076.61 990.261 1082.19 993.384 1087.06 993.671C1087.23 993.681 1086.37 990.545 1086.37 989.918C1086.37 975.187 1090.34 961.008 1093.87 946.831C1097.84 930.923 1104.37 911.717 1100.68 895.126C1095.1 870.008 1104.98 946.421 1106.1 972.127C1106.9 990.523 1105.96 976.523 1105.13 968.236C1103.31 950.034 1100.51 931.945 1098.6 913.751C1098.46 912.44 1095.17 872.192 1094.29 872.192C1086.81 872.192 1081.06 875.614 1072.74 874.277C1049.73 870.577 1027.9 863.367 1004.36 862.88C989.898 862.58 975.322 862.596 960.855 862.88C953.1 863.032 976.327 861.731 984.067 861.212C1007.4 859.647 1030.78 860.563 1054.12 861.351C1060.34 861.561 1078.65 860.634 1072.74 862.602C1063.62 865.642 1049.7 862.844 1040.22 863.158C1021.13 863.789 1002.05 864.536 982.955 865.103C972.109 865.426 957.159 862.703 947.512 869.134" stroke="black" stroke-width="4" stroke-linecap="round" stroke-linejoin="round"/>
<path d="M1206.76 896.234C1206.76 900.004 1205.34 960.049 1207.59 960.171C1209.47 960.272 1220.76 955.187 1221.56 955.028C1246.54 950.064 1272.63 949.57 1298.01 948.982C1317.9 948.521 1337.81 948.773 1357.7 948.773C1363.41 948.773 1373.46 950.798 1378.83 948.495C1380.5 947.779 1378.28 941.27 1378.13 940.434C1376.25 929.954 1377.21 906.675 1366.18 901.516C1347.84 892.937 1321.51 897.237 1302.38 898.18C1284.17 899.079 1266 900.589 1247.76 901.099C1235.35 901.446 1222.92 901.238 1210.51 901.238C1207.18 901.238 1192.76 901.238 1203.07 901.238C1211.6 901.238 1220.21 899.806 1228.72 899.014C1237.44 898.203 1245.74 899.987 1254.29 899.987C1275.27 899.987 1295.97 896.474 1316.84 894.984" stroke="black" stroke-width="4" stroke-linecap="round" stroke-linejoin="round"/>
<path d="M1474.04 882.431C1474.04 900.963 1474.1 919.496 1474.04 938.028C1474.02 943.101 1474.04 948.176 1473.9 953.247C1473.63 962.578 1473.05 954.374 1472.72 950.745C1471.29 935.098 1470.29 919.345 1470.29 903.627C1470.29 896.817 1467.78 914.827 1467.78 918.013C1467.78 930.661 1467.78 943.309 1467.78 955.958C1467.78 957.246 1467.1 961.141 1468.06 962.212C1468.45 962.638 1470.09 961.901 1470.29 961.865C1477.33 960.561 1486.65 961.692 1493.36 962.073C1523.55 963.788 1553.33 968.567 1583.43 970.899C1591.48 971.524 1601.26 972.421 1609.35 971.177C1610.26 971.037 1610.39 966.757 1610.39 967.494C1610.39 968.536 1610.39 969.579 1610.39 970.621C1610.39 981.063 1611.67 949.777 1612.2 939.348C1612.6 931.27 1614.22 907.116 1612.89 915.094C1612.23 919.078 1611.88 923.22 1611.71 927.256C1611.49 932.605 1610.91 937.776 1610.39 943.101C1608.84 958.97 1609.06 944.18 1607.89 937.194C1606.87 931.171 1606.64 925.338 1606.64 919.264C1606.64 914.84 1607.92 910.454 1603.72 907.866C1577.81 891.925 1549.44 891.647 1519.63 891.257C1505.57 891.073 1491.27 890.549 1477.24 891.743C1463.72 892.893 1449.8 895.055 1436.23 893.133C1426.74 891.788 1439.73 890.092 1442 890.214C1461.12 891.248 1480.17 897.342 1499.2 899.735C1518.63 902.18 1536.41 903.251 1555.49 899.666C1572.97 896.379 1591.32 897.364 1608.72 900.639C1612.19 901.291 1622.67 902.446 1619.15 902.446" stroke="black" stroke-width="4" stroke-linecap="round" stroke-linejoin="round"/>
<path d="M1690.18 882.505C1688.45 905.346 1688.93 928.345 1688.93 951.237C1688.93 955.618 1688.67 960.643 1690.25 964.858C1691.45 968.067 1708.24 967.437 1710.61 967.707C1736.42 970.645 1762.32 972.517 1788.17 975.074C1791.2 975.374 1820.48 981.828 1822.5 977.298C1823.87 974.212 1822.67 968.818 1822.84 965.484C1823.59 950.898 1826.07 936.496 1826.32 921.84C1826.51 910.234 1822.99 903.757 1817.35 894.042C1812.75 886.098 1807.24 876.954 1796.23 882.783C1783.64 889.45 1774.7 900.529 1760.09 903.215C1745.85 905.831 1730.99 905.022 1716.59 905.022C1710.01 905.022 1704.76 904.934 1698.66 902.242C1688.55 897.786 1674.31 887.747 1672.66 876.251" stroke="black" stroke-width="4" stroke-linecap="round" stroke-linejoin="round"/>
<path d="M1901.62 984.983C1901.76 973.063 1897.93 962.033 1894.6 950.652C1891.98 941.694 1883.64 924.902 1888.97 914.931C1892.82 907.731 1903.05 900.844 1909.54 896.445C1922.64 887.57 1937.67 881.203 1952.77 876.638C1972.97 870.53 1997.22 867.563 2017.96 873.094C2030.23 876.367 2040.35 887.642 2046.94 897.904C2059.52 917.513 2053.91 943.483 2037.49 959.686C2031.88 965.214 2022.07 967.002 2014.9 968.998C2001.73 972.668 1988.41 975.686 1974.73 976.504C1951.17 977.913 1927.63 976.769 1904.12 978.728" stroke="black" stroke-width="4" stroke-linecap="round" stroke-linejoin="round"/>
<path d="M2142 866.419C2143.8 886.387 2146.26 907.473 2137.56 926.186C2129.76 942.943 2130.08 961.87 2141.03 977.196C2151.8 992.268 2163.26 991.673 2179.81 987.203C2199.71 981.83 2220.64 980.172 2240.13 973.443C2250.92 969.718 2260.13 966.771 2271.68 965.938C2284.17 965.036 2304.8 968.287 2314.91 958.988C2321.55 952.878 2312.62 938.428 2309.84 932.51C2306.47 925.345 2303.73 917.996 2299.9 911.036C2291.33 895.447 2279.53 885.122 2261.95 879.762C2248.93 875.793 2235.17 873.764 2221.92 870.589C2214.67 868.849 2207.56 865.605 2200.03 865.238C2186.51 864.578 2176.82 869.676 2164.52 873.925C2161.47 874.979 2148.26 881.082 2148.26 877.678" stroke="black" stroke-width="4" stroke-linecap="round" stroke-linejoin="round"/>
<path d="M2518.16 984.548C2529.14 969.469 2547.45 956.17 2547 935.623C2546.56 915.934 2525.2 910.873 2523.51 893.091C2523.27 890.638 2525.7 887.626 2524.13 885.725C2520.36 881.154 2501.35 876.389 2497.93 875.3C2481.93 870.197 2462.33 863.424 2446.09 871.686C2437.15 876.232 2430.25 881.272 2420.03 882.528C2413.78 883.295 2407.59 882.889 2401.33 883.292C2395.96 883.639 2392.37 886.973 2390.42 891.91C2385.03 905.611 2381.08 921.396 2378.89 935.97C2377.8 943.164 2376.19 954.821 2378.33 962.031C2380.06 967.842 2388.19 970.154 2393.06 972.039C2403.4 976.039 2414.03 979.908 2424.75 982.741C2445.36 988.186 2467.86 987.483 2489.11 987.05C2501.93 986.788 2517.25 987.354 2529.42 983.297" stroke="black" stroke-width="4" stroke-linecap="round" stroke-linejoin="round"/>
<path d="M2537.11 1111.57C2537.11 1134.32 2538.11 1157.37 2536.56 1180.09C2536.49 1181.02 2536.51 1188.98 2533.5 1190.38C2527.44 1193.18 2511.9 1193.63 2506.26 1194.68C2476.74 1200.18 2447.29 1206.04 2417.3 1208.17C2413.91 1208.41 2404.37 1210.73 2401.11 1208.45C2399.24 1207.14 2400.39 1193.85 2399.72 1191.35C2398.5 1186.84 2383 1153.59 2387.76 1150.42C2398.65 1143.16 2406.75 1138.45 2419.94 1136.59C2440.15 1133.73 2455.97 1121.74 2475.4 1117.54C2487.03 1115.03 2507.82 1111.11 2518.35 1118.8C2524.71 1123.44 2523.3 1127.46 2530.86 1121.58" stroke="black" stroke-width="4" stroke-linecap="round" stroke-linejoin="round"/>
<path d="M2297.31 1208.24C2276.75 1207.26 2258.15 1205.65 2238.51 1199.14C2232.44 1197.12 2222.01 1189.05 2219.75 1195.04C2218.89 1197.31 2222.11 1208.94 2217.25 1207.82C2204.43 1204.89 2192.58 1194.93 2180.14 1190.31C2167.63 1185.67 2160.18 1181.68 2155.67 1168C2153.03 1159.97 2152.2 1151.21 2152.2 1142.78C2152.2 1136.45 2167.22 1134.73 2170.96 1133.6C2206.75 1122.85 2241.11 1111.92 2278.82 1111.92C2281.68 1111.92 2286.87 1110.2 2287.79 1113.87C2289.81 1121.94 2287.69 1131.06 2287.3 1139.23C2286.63 1153.24 2283.17 1171.51 2286.33 1185.72C2287.12 1189.28 2287.67 1192.58 2289.31 1195.87C2290.07 1197.38 2297.75 1209.49 2296.06 1209.49" stroke="black" stroke-width="4" stroke-linecap="round" stroke-linejoin="round"/>
<path d="M2036.43 1114.65C2036.35 1139.62 2038.25 1164.7 2035.88 1189.56C2034.68 1202.08 2033.78 1208.6 2020.59 1210.13C2005.2 1211.92 1989.64 1208.56 1974.16 1208.05C1955.98 1207.45 1937.8 1207.22 1919.61 1207.22C1908.82 1207.22 1910.52 1206.81 1910.02 1197.56C1909.4 1186.04 1902.89 1174.55 1904.11 1163.02C1905.06 1154.02 1916.6 1147.6 1924.26 1146.2C1940.91 1143.15 1958.56 1145.89 1975 1142.1C1981.02 1140.71 1988.92 1134.22 1994.39 1130.98C2000.41 1127.41 2001.94 1121.62 2006.55 1116.59C2012.43 1110.17 2015.21 1109.65 2022.67 1110.89" stroke="black" stroke-width="4" stroke-linecap="round" stroke-linejoin="round"/>
<path d="M1827.83 1116.68C1808.13 1116.05 1788.46 1115.02 1768.76 1114.39C1758 1114.04 1725.79 1109.18 1713.86 1116.54C1709.61 1119.17 1706.22 1125.82 1701.63 1128.91C1694.01 1134.05 1681.35 1135.66 1675.63 1143.09C1670.16 1150.21 1670.39 1163.91 1672.72 1172C1679.82 1196.69 1716.15 1197.29 1736.24 1200.77C1751.26 1203.38 1767.66 1207.56 1783.01 1208.49C1788.76 1208.84 1795.29 1206.04 1799.96 1202.79C1811.36 1194.86 1812.74 1171.58 1814.97 1159.28C1816.18 1152.65 1816.57 1146.43 1816.57 1139.75C1816.57 1132.48 1816.57 1110.66 1816.57 1117.93" stroke="black" stroke-width="4" stroke-linecap="round" stroke-linejoin="round"/>
<path d="M1590.07 1121.17C1590.23 1166.9 1589.99 1114.17 1590.34 1159.67C1590.41 1167.98 1594.71 1190.54 1584.92 1196.43C1577.66 1200.8 1554.37 1202.09 1549.34 1202.61C1524.57 1205.19 1499.73 1207.69 1474.84 1208.87C1469.07 1209.14 1461.7 1209.26 1455.66 1209.01C1454.23 1208.95 1450.56 1209.12 1451.49 1208.04C1453.35 1205.86 1455.74 1204.61 1457.19 1201.92C1462.37 1192.27 1462.97 1179.55 1465.6 1169.05C1467.94 1159.68 1470.67 1150.42 1473.45 1141.18C1475.82 1133.32 1477.53 1130.09 1472.96 1122.69C1464.75 1109.38 1484.44 1111.65 1492.49 1112.69C1507.96 1114.69 1522.48 1120.29 1536.69 1126.45C1545.71 1130.35 1554.95 1133.7 1564.63 1135.55C1577.23 1137.96 1588.6 1134.93 1601.32 1134.93" stroke="black" stroke-width="4" stroke-linecap="round" stroke-linejoin="round"/>
<path d="M1382.01 1106.51C1377.58 1128.87 1372.46 1151.32 1369.91 1173.99C1369.66 1176.29 1370.24 1182.63 1368.94 1185.04C1366.57 1189.43 1354.75 1189.22 1352.12 1189.56C1311.18 1194.83 1270.96 1203.58 1230.37 1210.9C1226.66 1211.56 1197.63 1220.58 1196.87 1209.92C1196.7 1207.55 1198.26 1204.82 1198.75 1202.56C1200.74 1193.23 1203.54 1184.13 1206.46 1175.04C1212.45 1156.34 1217.66 1123.78 1234.54 1110.82C1243.75 1103.75 1259.66 1106.32 1269.42 1106.58C1288.75 1107.1 1308.13 1107.47 1327.38 1109.43C1342.96 1111.02 1359.26 1112.71 1374.5 1116.52" stroke="black" stroke-width="4" stroke-linecap="round" stroke-linejoin="round"/>
<path d="M1109.97 1102.55C1086.23 1102.25 1062.53 1101.28 1038.95 1098.31C1032.36 1097.49 1022.6 1093.76 1016.85 1098.66C1004.39 1109.29 993.907 1100.79 980.016 1099.7C974.934 1099.31 972.094 1102.36 967.784 1104.22C960.515 1107.37 952.431 1107.72 944.712 1108.88C929.269 1111.2 927.817 1116.26 924.697 1130.63C923.267 1137.22 923.516 1143.79 923.585 1150.51C923.668 1158.6 925.833 1166.05 928.311 1173.72C929.931 1178.73 933.476 1185.66 931.785 1191.09C931.048 1193.46 929.812 1193.42 932.48 1194.01C938.493 1195.35 939.569 1202.96 939.569 1208.05C939.569 1214.74 936.597 1215.99 943.183 1219.03C948.49 1221.48 952.843 1225.22 958.889 1224.8C974.994 1223.66 991.347 1221.87 1007.33 1219.52C1012.54 1218.75 1017.26 1219.75 1022.06 1221.95C1030.68 1225.9 1033.55 1216.52 1041.59 1213.47C1046.71 1211.53 1051.57 1214.04 1056.74 1213.89C1065.58 1213.63 1074.43 1212.64 1083.43 1212.64C1090.06 1212.64 1095.29 1212.19 1101.15 1208.61C1104.02 1206.84 1108.53 1204.15 1110.53 1201.24C1111.49 1199.84 1106.73 1199.84 1106.57 1199.78C1100.44 1197.59 1117.28 1189.42 1118.66 1187.55C1120.98 1184.39 1119.79 1180.53 1118.1 1177.54C1115.77 1173.38 1113.4 1171.14 1109.7 1168.58C1104.24 1164.8 1107.47 1151.93 1108.17 1146.75C1109.07 1139.97 1108.82 1133.01 1108.72 1126.18C1108.67 1122.31 1104.97 1119.85 1104.97 1116.04C1104.97 1113.52 1109.67 1105.66 1108.72 1107.56" stroke="black" stroke-width="4" stroke-linecap="round" stroke-linejoin="round"/>
<path d="M849.009 1099.18C847.179 1102.93 846.582 1103.76 848.94 1107.52C855.83 1118.51 864.456 1131.21 859.851 1144.91C857.116 1153.05 848.875 1158.26 843.311 1164.23C833.326 1174.95 826.653 1187.54 823.018 1201.76C820.762 1210.58 821.478 1219.81 819.265 1228.51C817.677 1234.76 803.171 1234.35 798.833 1234.91C777.653 1237.65 758.048 1237.47 736.982 1234.56C720.876 1232.34 704.331 1230.72 688.126 1229.49C674.764 1228.47 661.231 1230.3 647.888 1229C626.749 1226.94 605.368 1209.19 605.078 1187.44C605.032 1183.93 603.575 1175.5 607.858 1173.75C612.694 1171.77 614.083 1169.03 616.476 1163.81C619.881 1156.39 622.292 1148.34 624.815 1140.6C625.938 1137.16 626.001 1132.86 628.707 1130.46C635.815 1124.13 651.121 1117.94 658.729 1113.71C677.645 1103.18 697.787 1090.42 719.399 1086.26C746.147 1081.1 773.694 1085.51 797.304 1098.63C801.408 1100.91 805.826 1105.44 810.787 1105.44C814.91 1105.44 819.206 1104.43 823.296 1103.91C831.016 1102.93 838.765 1102.39 846.507 1101.68" stroke="black" stroke-width="4" stroke-linecap="round" stroke-linejoin="round"/>
<path d="M550.108 1113.9C549.221 1133.15 550.725 1152.56 543.019 1170.68C539.463 1179.04 535.591 1185.76 534.402 1194.93C533.672 1200.56 534.288 1206.46 533.012 1212.03C529.416 1227.72 472.215 1217.56 460.597 1215.64C444.638 1213 428.872 1208.18 412.506 1209.87C404.076 1210.74 396.857 1215.47 388.46 1216.34C380.728 1217.13 373.053 1213.7 366.708 1209.59C351.782 1199.94 332.362 1183.52 329.806 1164.77C329.393 1161.74 327.022 1141.65 332.168 1140.45C338.22 1139.03 340.241 1138.57 343.566 1132.11C345.19 1128.95 347.004 1121.94 350.446 1120.01C353.77 1118.15 357.742 1122.28 361.496 1122.93C385.512 1127.09 409.7 1125.77 433.077 1118.9C455.486 1112.32 474.851 1102.78 498.681 1101.67C508.509 1101.21 524.293 1098.48 533.846 1102.64C543.079 1106.66 552.027 1111.41 561.366 1115.15" stroke="black" stroke-width="4" stroke-linecap="round" stroke-linejoin="round"/>
<path d="M256.403 1127.25C255.679 1148.24 262.476 1193.35 232.34 1198.17C210.713 1201.63 186.085 1197.54 164.164 1197.54C150.885 1197.54 137.734 1198.47 124.482 1199.01C120.123 1199.2 113.244 1200.26 110.129 1196.06C106.533 1191.21 105.063 1183.72 102.742 1178.33C96.7953 1164.51 89.2267 1151.4 83.7451 1137.38C78.8641 1124.9 78.8466 1122.41 88.3887 1127.46C99.3772 1133.28 113.003 1134.03 125.115 1134.53C147.355 1135.45 170.257 1135.67 192.448 1133.69C198.92 1133.11 221.947 1130.54 224.214 1122.61C225.102 1119.5 255.365 1123.42 260.202 1125.35" stroke="black" stroke-width="4" stroke-linecap="round" stroke-linejoin="round"/>
<path d="M92.7663 1292.38C92.7663 1319.03 92.7663 1345.68 92.7663 1372.33C92.7663 1394.82 106.681 1409.16 130.685 1410.17C164.037 1411.57 201.926 1406.57 233.956 1397.42C248.385 1393.29 262.82 1388.47 276.658 1382.65C282.929 1380.01 289.238 1377.76 292.01 1371.24C296.467 1360.77 299.317 1348.47 300.986 1337.27C303.035 1323.51 305.904 1304.89 290.248 1298.42C269.308 1289.78 251.029 1288.08 227.748 1288.78C189.423 1289.92 151.752 1294.89 113.739 1299.6C107.012 1300.43 82.5006 1306.89 79.1758 1296.91" stroke="black" stroke-width="4" stroke-linecap="round" stroke-linejoin="round"/>
<path d="M388.737 1291.38C388.737 1324.15 389.021 1356.93 388.737 1389.7C388.623 1402.87 386.6 1389.83 385.717 1386.51" stroke="black" stroke-width="4" stroke-linecap="round" stroke-linejoin="round"/>
<path d="M538.232 1289.87C538.232 1316.1 538.232 1352.42 538.232 1375.94" stroke="black" stroke-width="4" stroke-linecap="round" stroke-linejoin="round"/>
<path d="M370.616 1294.4C431.4 1294.4 492.628 1292.34 553.333 1295.91" stroke="black" stroke-width="4" stroke-linecap="round" stroke-linejoin="round"/>
<path d="M354.006 1409.17C420.786 1404.98 487.993 1400.11 554.843 1400.11" stroke="black" stroke-width="4" stroke-linecap="round" stroke-linejoin="round"/>
<path d="M642.427 1324.2C642.427 1332.68 636.243 1365.18 646.957 1369C673.09 1378.34 694.327 1400.72 723.466 1394.17C755.678 1386.93 787.344 1378.87 819.774 1372.53C825.856 1371.34 846.39 1370.35 849.136 1362.79C851.948 1355.06 837.262 1334.69 832.861 1329.15C815.138 1306.85 783.185 1304.14 757.023 1303.73C725.693 1303.25 694.432 1306.52 663.148 1307.59C655.802 1307.84 642.867 1305.5 637.896 1312.12" stroke="black" stroke-width="4" stroke-linecap="round" stroke-linejoin="round"/>
<path d="M964.068 1377.72C964.068 1357.5 963.482 1337.2 964.068 1316.98C964.23 1311.41 964.442 1310.49 970.36 1309.77C989.914 1307.38 1010.03 1307 1029.67 1306.25C1031.75 1306.17 1101.98 1302.32 1102.32 1304.74C1102.87 1308.58 1100.22 1318.1 1099.97 1320.93C1099.48 1326.54 1099.1 1332.16 1098.8 1337.79C1098.03 1352.21 1100.3 1366.96 1097.29 1381.08C1092.23 1404.77 1056.29 1391.76 1042.42 1389.55C1023.79 1386.58 1003.59 1384.26 985.209 1379.23C982.565 1378.51 980.532 1376.36 977.658 1376.21C973.116 1375.97 964.068 1374.27 964.068 1368.66" stroke="black" stroke-width="4" stroke-linecap="round" stroke-linejoin="round"/>
<rect x="1195.6" y="1305.37" width="164.792" height="88.2894" stroke="black" stroke-width="4"/>
<rect x="1443.25" y="1288.85" width="151.793" height="121.335" stroke="black" stroke-width="4"/>
<rect x="1681.83" y="1310.5" width="137.875" height="78.0306" stroke="black" stroke-width="4"/>
<rect x="1876.63" y="1336.3" width="166.619" height="26.445" stroke="black" stroke-width="4"/>
<rect x="2149.95" y="1321.5" width="130.946" height="56.0461" stroke="black" stroke-width="4"/>
<rect x="2393.07" y="1324.52" width="143.193" height="50.006" stroke="black" stroke-width="4"/>
<path d="M103.04 1524.3C104.909 1532.77 104.73 1541.96 108.648 1549.69C119.432 1570.97 135.103 1573.95 157.456 1577.96C192.794 1584.3 229.814 1581.74 265.53 1584.33C272.968 1584.87 296.216 1590.94 304.712 1587.51C311.042 1584.96 308.816 1569.5 308.729 1565.23C308.379 1548.1 306.973 1531.06 297.512 1516.27C287.863 1501.19 273.912 1502.51 257.723 1501.04C224.354 1498 186.705 1492.2 155.182 1505.89C142.753 1511.28 130.123 1516.13 117.591 1521.27C117.402 1521.35 109.07 1524 108.421 1526.27C107.647 1528.99 104.485 1519.12 104.404 1518.85" stroke="black" stroke-width="4" stroke-linecap="round" stroke-linejoin="round"/>
<path d="M392.247 1529.08C392.247 1543.58 392.033 1558.09 392.247 1572.59C392.399 1582.86 389.634 1591.23 402.1 1589.11C410.915 1587.61 453.61 1576.83 455.53 1576.37C490.23 1568.16 525.025 1560.51 560.345 1555.46C564.58 1554.85 599.747 1556.95 593.464 1545.23C588.748 1536.42 581.896 1526.35 575.503 1518.78C563.123 1504.11 544.541 1495.66 525.331 1496.34C489.83 1497.61 454.633 1507.16 419.531 1512.11C414.606 1512.8 401.698 1517.44 397.704 1515.44" stroke="black" stroke-width="4" stroke-linecap="round" stroke-linejoin="round"/>
<path d="M812.416 1597.74C754.393 1590.52 696.02 1584.37 638.18 1575.68C635.299 1575.25 631.688 1575.99 629.616 1573.94C628.447 1572.79 631.53 1571.23 632.117 1569.7C633.512 1566.05 634.588 1562.27 635.527 1558.48C641.703 1533.53 648.895 1504.99 643.106 1479.36C642.645 1477.32 644.395 1479.92 645.076 1480.34C648.472 1482.43 653.236 1482.77 657.051 1483.15C681.257 1485.55 705.821 1484.6 730.111 1485.88C746.895 1486.76 763.629 1487.24 780.434 1487.24C781.687 1487.24 788.028 1486.26 789.225 1487.54C793.474 1492.09 797.048 1501.39 799.229 1506.41C807.049 1524.42 812.398 1543.11 817.722 1561.97C821.745 1576.22 827.09 1591.07 829.772 1605.7C830.434 1609.31 826.752 1605.15 826.058 1604.56" stroke="black" stroke-width="4" stroke-linecap="round" stroke-linejoin="round"/>
<path d="M954.292 1519.24C960.908 1550.64 957.846 1571.48 990.215 1589.12C1004.11 1596.69 1020.65 1598.38 1036.37 1600.26C1051.05 1602.01 1094.24 1604.45 1110.11 1590.1C1122.79 1578.64 1111.77 1550.2 1109.58 1540.39C1107.35 1530.39 1105.03 1520.42 1102.68 1510.45C1101.21 1504.17 1099.71 1497.9 1098.14 1491.65C1097.54 1489.26 1098.15 1486 1096.17 1484.53C1094.55 1483.33 1092.19 1485.24 1090.26 1485.82C1084.75 1487.46 1079.35 1489.42 1073.89 1491.2C1047.06 1499.93 1020.22 1508.78 992.868 1515.75C972.278 1521 952.142 1522.07 931.101 1523.33" stroke="black" stroke-width="4" stroke-linecap="round" stroke-linejoin="round"/>
<path d="M1206.67 1500.91C1206.75 1522.49 1205.08 1544.17 1207.27 1565.64C1209.48 1587.23 1222.01 1583.99 1240.01 1584.36C1272.39 1585.01 1304.58 1587.11 1336.87 1589.28C1343.62 1589.74 1341.77 1584.42 1341.64 1578.82C1341.3 1563.53 1340.87 1548.17 1340.05 1532.9C1339.85 1529.09 1338.08 1489.23 1328.68 1497.58C1325.29 1500.6 1324.42 1503.21 1319.44 1504.32C1297.9 1509.14 1274.96 1509.64 1253.05 1511.83" stroke="black" stroke-width="4" stroke-linecap="round" stroke-linejoin="round"/>
<path d="M1431.76 1506.45C1459.62 1506.45 1487.49 1506.72 1515.35 1506.3C1534.66 1506.01 1554.2 1503.31 1573.48 1503.72C1579.78 1503.86 1578.7 1513.96 1579.47 1518.27C1581.91 1532.1 1595.1 1561.6 1576.21 1568.9C1564.45 1573.44 1532.53 1576.68 1523.16 1577.54C1495.78 1580.05 1462.56 1584.93 1435.02 1579.81C1424.87 1577.93 1431.05 1570.13 1431.76 1563.75C1432.44 1557.56 1427.25 1552.88 1423.57 1548.74" stroke="black" stroke-width="4" stroke-linecap="round" stroke-linejoin="round"/>
<path d="M1680.04 1511.72C1680.04 1533.49 1679.05 1555.52 1680.11 1577.28C1680.19 1578.84 1680 1581.56 1682.24 1581.22C1690.83 1579.9 1699.73 1580.09 1708.38 1580C1724.3 1579.85 1740.21 1579.93 1756.13 1579.93C1762.87 1579.93 1770.95 1580.95 1777.65 1579.32C1783.91 1577.8 1795.68 1570.75 1798.87 1565.38C1802.84 1558.7 1801.66 1549.33 1801.15 1542.11C1800.37 1531.09 1798.85 1520 1796.75 1509.14C1795.09 1500.53 1795.81 1506.13 1792.51 1508.23C1790.6 1509.45 1786.44 1509.2 1784.62 1509.29C1772.45 1509.96 1760.28 1510.31 1748.1 1510.36C1744.28 1510.37 1724.49 1513.32 1722.33 1508.99" stroke="black" stroke-width="4" stroke-linecap="round" stroke-linejoin="round"/>
<path d="M1997.89 1503.43C1970.4 1503.43 1941.37 1500.49 1915.21 1508.66C1909.01 1510.59 1899.71 1509.96 1893.61 1510.25C1880.68 1510.86 1867.72 1510.93 1854.81 1511.61C1854.08 1511.65 1856.23 1512.13 1856.7 1512.68C1859.97 1516.45 1861.51 1523.66 1862.99 1528.14C1866.5 1538.79 1869 1549.7 1872.24 1560.42C1873.53 1564.72 1874.59 1570.25 1879.51 1571.56C1895.23 1575.75 1914.27 1574.95 1930.14 1575.73C1957.79 1577.09 1985.89 1577.06 2013.35 1580.88C2015.56 1581.19 2021.56 1583.52 2023.96 1582.63C2026.92 1581.54 2024.02 1569.94 2023.74 1568.23C2021.73 1556.04 2018.52 1544.33 2016.99 1532.08" stroke="black" stroke-width="4" stroke-linecap="round" stroke-linejoin="round"/>
<path d="M2254.36 1513.32C2254.36 1527.56 2254.42 1541.81 2254.36 1556.06C2254.34 1561.73 2256.8 1581.36 2252.31 1587.29C2249.07 1591.58 2219.92 1585.4 2215.86 1585.01C2186.35 1582.19 2156.62 1580.87 2127.19 1577.43C2121.02 1576.71 2107.13 1576.52 2105.82 1567.96C2104 1556.17 2105.33 1542.41 2106.42 1530.67C2106.92 1525.28 2107.56 1518.32 2110.06 1513.32C2114.07 1505.29 2119.32 1505.02 2127.64 1503.77C2156.18 1499.46 2184.42 1496.95 2213.28 1496.95C2219.7 1496.95 2226.12 1496.95 2232.53 1496.95" stroke="black" stroke-width="4" stroke-linecap="round" stroke-linejoin="round"/>
<path d="M2389.41 1565.33C2389.41 1556.89 2389.41 1548.45 2389.41 1540.01C2389.41 1536.2 2388.11 1528.98 2389.64 1525.16C2391.05 1521.64 2399.31 1519.4 2401.84 1518.56C2430.02 1509.25 2460.43 1505.54 2489.91 1503.48C2496.37 1503.03 2516.27 1499.24 2522.95 1503.48C2524.85 1504.68 2521.5 1509.87 2520.91 1511.06C2513.08 1526.71 2507.94 1542.61 2503.17 1559.41C2501.59 1564.97 2500.02 1574.93 2494.61 1578.36C2486.17 1583.71 2468.08 1581.1 2458.68 1581.39C2446.69 1581.76 2434.69 1581.7 2422.69 1581.7C2413.88 1581.7 2405.03 1582.68 2396.24 1583.06C2395.23 1583.1 2397.64 1585.71 2398.96 1583.06" stroke="black" stroke-width="4" stroke-linecap="round" stroke-linejoin="round"/>
<path d="M2478.09 1761.84C2452.48 1761.84 2426.85 1762.16 2401.24 1761.84C2397.54 1761.8 2398.06 1755.66 2397.37 1752.9C2393.21 1736.25 2387.67 1719.96 2383.73 1703.26C2383.71 1703.16 2381.74 1695.25 2382.9 1696.06C2384.5 1697.18 2388.65 1696.36 2390.48 1696.36C2401.28 1696.36 2412.04 1696.32 2422.84 1695.68C2435.68 1694.92 2449 1696.08 2461.72 1694.01C2475.25 1691.81 2492.75 1680.36 2506.58 1686.81C2517.14 1691.74 2512.19 1720.85 2512.19 1731.6C2512.19 1735.77 2512.19 1739.94 2512.19 1744.11C2512.19 1746.34 2517.86 1756.49 2514.92 1755.02" stroke="black" stroke-width="4" stroke-linecap="round" stroke-linejoin="round"/>
<path d="M2266.64 1767.83C2245.21 1767.83 2223.79 1767.83 2202.37 1767.83C2183.65 1767.83 2164.76 1767.33 2146.13 1769.65C2135.72 1770.95 2125.87 1774.05 2115.67 1776.25C2108.8 1777.72 2107.03 1777.67 2107.03 1771.02C2107.03 1758.4 2106.01 1745.81 2105.74 1733.2C2105.57 1725.33 2101.37 1707.69 2110.29 1704.17C2141.11 1692.01 2167.34 1673.8 2201 1670.29C2216.83 1668.65 2238.49 1670.89 2250.27 1683.25C2263.49 1697.14 2259.15 1717.4 2265.27 1733.73" stroke="black" stroke-width="4" stroke-linecap="round" stroke-linejoin="round"/>
<path d="M2004.71 1681.82C1981.14 1681.82 1957.57 1681.82 1934 1681.82C1913.29 1681.82 1891.79 1683.4 1871.1 1681.74C1866.51 1681.37 1867.71 1688.34 1866.78 1694.4C1863.6 1715 1858.01 1737.02 1857.38 1757.91C1857.27 1761.57 1871.63 1757 1873.83 1756.92C1908.36 1755.67 1942.16 1760.35 1976.37 1764.12C1989.27 1765.54 2002.36 1765.03 2015.32 1765.03C2023.32 1765.03 2021.23 1758.66 2021.08 1751.84C2020.93 1744.92 2019.88 1726.23 2012.9 1722.74" stroke="black" stroke-width="4" stroke-linecap="round" stroke-linejoin="round"/>
<path d="M1779.62 1691.57C1779.62 1711.77 1777.5 1733.02 1779.93 1753.11C1780.13 1754.76 1781.74 1760.29 1778.56 1759.63C1766 1756.98 1754.25 1754.84 1741.28 1754.47C1726.53 1754.06 1711.77 1754.5 1697.02 1754.32C1689.71 1754.23 1681.72 1754.44 1676.63 1748.33C1663.84 1732.98 1665.46 1709.89 1665.03 1691.11C1665 1689.83 1663.74 1687.75 1665.49 1687.55C1675.59 1686.43 1686.61 1688.07 1696.71 1688.54C1708.78 1689.1 1721.43 1690.71 1733.32 1693.08C1737.12 1693.84 1739.5 1695.66 1743.47 1695.66C1744.45 1695.66 1749.87 1695.66 1748.25 1695.66" stroke="black" stroke-width="4" stroke-linecap="round" stroke-linejoin="round"/>
<path d="M1422.21 1690.07C1443.63 1690.07 1465.05 1690.07 1486.48 1690.07C1492.28 1690.07 1499.62 1690.97 1505.57 1689.46C1511.21 1688.03 1517.31 1686.34 1523.16 1686.28C1535.36 1686.16 1540.91 1706.17 1543.54 1714.78C1545.8 1722.13 1549.66 1731.2 1545.29 1738.19C1532.88 1758.05 1510.39 1756.52 1489.51 1757.22C1472.41 1757.79 1455.35 1758.67 1438.27 1759.64C1430.33 1760.09 1421.47 1761.47 1413.57 1759.64C1406.63 1758.03 1408.57 1750.19 1408.57 1744.64C1408.57 1728.35 1407.22 1717.68 1401.74 1702.35" stroke="black" stroke-width="4" stroke-linecap="round" stroke-linejoin="round"/>
<path d="M1208.03 1695.52C1234.71 1695.52 1261.38 1695.52 1288.06 1695.52C1294.55 1695.52 1301.05 1695.52 1307.54 1695.52C1318.66 1695.52 1315.8 1716.03 1315.8 1723.71C1315.8 1730.68 1315.18 1737.92 1315.88 1744.86C1316.9 1755.05 1312.65 1750.17 1304.89 1750.09C1272.79 1749.75 1240.88 1747.36 1208.71 1747.36C1202.7 1747.36 1202.57 1747.19 1202.57 1741.22C1202.57 1734.42 1205.3 1728.18 1205.3 1721.44" stroke="black" stroke-width="4" stroke-linecap="round" stroke-linejoin="round"/>
<path d="M954.291 1697.31C984.856 1697.31 1015.43 1697.53 1046 1697.01C1053.78 1696.88 1061.56 1695.89 1069.34 1696.25C1076.24 1696.57 1076.97 1702.51 1078.66 1708.08C1079.59 1711.12 1083.62 1725.35 1084.42 1728.16C1085.85 1733.17 1090.36 1743.19 1088.28 1748.85C1086.92 1752.57 1080.05 1749.5 1077.52 1749.15C1062.58 1747.09 1048.11 1742.67 1032.96 1742.33C1009.09 1741.8 985.329 1740.97 961.416 1740.97C958.625 1740.97 948.835 1742.61 948.835 1737.56C948.835 1728.19 944.742 1719.08 944.742 1709.44C944.742 1705.96 947.771 1705.51 948.228 1704.13C948.262 1704.03 947.471 1696.62 947.471 1698.68" stroke="black" stroke-width="4" stroke-linecap="round" stroke-linejoin="round"/>
<path d="M805.595 1692.73C805.595 1706.47 805.632 1720.21 805.595 1733.96C805.582 1738.79 808.506 1745.29 804.837 1748.43C804.01 1749.14 802.667 1748.66 801.578 1748.66C788.419 1748.66 775.249 1748.69 762.093 1748.96C712.991 1750 664.343 1755.48 615.215 1755.48C603.574 1755.48 593.058 1753.45 581.414 1751.69C565.107 1749.24 571.183 1748.93 573.077 1733.2C573.469 1729.94 575.093 1699.68 577.624 1701.22C586.84 1706.83 598.73 1706.9 609.152 1707.74C633.906 1709.71 658.627 1712.28 683.425 1713.65C698.807 1714.5 713.368 1715.09 728.291 1710.92C752.869 1704.05 776.204 1696.7 801.806 1694.4C805.908 1694.03 814.864 1696.45 811.052 1691.36" stroke="black" stroke-width="4" stroke-linecap="round" stroke-linejoin="round"/>
<path d="M506.839 1692.05C506.754 1707.31 510.774 1734.11 504.565 1749.27C502.26 1754.89 484.067 1751.06 481.071 1751.01C452.773 1750.58 423.521 1756.93 395.43 1754.04C377.478 1752.19 359.751 1751.09 342.151 1746.69C328.532 1743.29 336.904 1740.76 343.894 1733.58C347.086 1730.3 348.949 1720.62 352.534 1719.33C390.545 1705.7 429.214 1707.93 468.566 1705.61C473.514 1705.32 485.206 1704.57 489.104 1701.6C493.505 1698.24 511.007 1698.87 505.475 1698.87" stroke="black" stroke-width="4" stroke-linecap="round" stroke-linejoin="round"/>
<path d="M90.7622 1693.55C90.7622 1710.11 90.4878 1726.71 91.0653 1743.27C91.3739 1752.11 89.2111 1759.09 98.7199 1756.23C135.92 1745.03 175.396 1743.12 213.994 1742.66C233.507 1742.43 255.477 1740.64 274.927 1744.03C276.908 1744.37 275.992 1745.71 274.018 1744.18C269.163 1740.4 264.65 1736.2 259.77 1732.43C248.052 1723.39 230.35 1712.01 223.922 1697.72C223.369 1696.49 223.424 1694.15 221.951 1693.63C211.495 1689.94 196.698 1691.41 185.952 1691.13C169.158 1690.68 150.228 1688.75 133.355 1691.13C114.511 1693.78 100.439 1707.18 81.2129 1709.92" stroke="black" stroke-width="4" stroke-linecap="round" stroke-linejoin="round"/>
</svg>
