<svg width="2652" height="2626" viewBox="0 0 2652 2626" fill="none" xmlns="http://www.w3.org/2000/svg">
<rect width="2652" height="2626" fill="white"/>
<path d="M367.22 349.505C395.838 349.505 424.47 348.645 453.076 349.505C455.463 349.577 459.282 352.464 462.03 353.084C466.553 354.105 471.042 354.022 475.603 354.529C477.522 354.742 480.99 355.857 482.708 355.932C485.661 356.062 488.709 355.208 491.574 355.932L495.206 356.359C495.433 356.416 495.32 356.857 495.206 357.061C495.142 357.175 494.945 357.061 494.814 357.061" stroke="black" stroke-width="4"/>
<path d="M367.22 543.524C399.142 542.301 386.986 542.644 449.134 543.155C455.751 543.21 465.295 547.39 471.597 549.6C472.198 549.81 472.681 550.327 473.305 550.454C475.443 550.89 477.188 550.603 479.422 550.84C480.237 550.926 481.703 551.612 482.621 551.612" stroke="black" stroke-width="4"/>
<path d="M367.22 709.508C390.422 709.508 423.18 709.168 444.631 711.199C457.707 712.436 468.5 716.061 480.591 718.9C482.436 719.334 484.212 720.052 486.077 720.386C489.561 721.01 493.661 720.638 497.118 720.854C497.436 720.874 497.656 721.245 497.972 721.281C501.279 721.652 504.83 722.094 508.195 722.094" stroke="black" stroke-width="4"/>
<path d="M367.22 908.298C394.464 908.298 401.187 907.809 434.233 911.555C441.233 912.349 454.17 916.545 461.755 918.374C465.322 919.234 468.565 919.21 472.217 919.819C474.83 920.254 477.323 921.507 479.843 922.076C482.267 922.623 484.757 922.94 487.141 923.398C488.362 923.632 489.878 924.604 491.042 924.901C491.407 924.994 491.815 924.779 492.171 924.901C492.292 924.942 492.171 925.158 492.171 925.287" stroke="black" stroke-width="4"/>
<path d="M367.22 1103.27C495.607 1103.27 504.019 1144.82 494.399 1101.12" stroke="black" stroke-width="4"/>
<path d="M367.22 1323.24C423.886 1324.24 480.57 1324.49 537.219 1326.23C557.674 1326.86 547.831 1329.38 561.29 1330.96C562.211 1331.07 563.254 1331.39 564.073 1330.96C564.545 1330.71 563.118 1330.48 562.641 1330.24" stroke="black" stroke-width="4"/>
<path d="M367.22 1520.38C401.74 1519.17 436.641 1521.73 471.094 1518.89C476.971 1518.41 482.452 1515.71 488.188 1514.34C488.85 1514.18 489.566 1514.49 490.229 1514.34C502.208 1511.63 501.232 1510.95 513.206 1510.95" stroke="black" stroke-width="4"/>
<path d="M688.272 1518.05C698.577 1518.18 708.883 1518.2 719.186 1518.43C721.929 1518.49 724.674 1518.64 727.402 1518.93C731.149 1519.33 734.99 1521.08 738.829 1520.34C739.695 1520.17 740.273 1519.3 741.087 1518.96C742.19 1518.5 743.408 1518.38 744.531 1517.97C745.709 1517.55 746.768 1516.81 747.976 1516.48C748.63 1516.3 749.338 1516.56 750.011 1516.48C751.586 1516.28 753.295 1515.61 754.853 1515.49C763.051 1514.88 756.419 1516.22 763.783 1514.98C768.018 1514.27 763.618 1514.79 767.865 1513.44C780.627 1509.38 770.973 1512.19 778.831 1511.42C779.322 1511.37 779.741 1510.98 780.234 1510.95C782.689 1510.82 785.161 1510.72 787.609 1510.95C789.359 1511.11 789.028 1511.84 790.088 1512.57C791.135 1513.3 792.222 1513.97 793.334 1514.59C794.443 1515.21 795.643 1515.65 796.743 1516.29C797.327 1516.62 797.767 1517.19 798.369 1517.49C798.599 1517.6 798.911 1517.37 799.141 1517.49C799.256 1517.54 799.013 1517.86 799.141 1517.87C800.109 1517.96 807.58 1517.01 807.58 1519.53" stroke="black" stroke-width="4"/>
<path d="M998.829 1518.71C1019.58 1516.69 1040.28 1513.94 1061.09 1512.64C1073.81 1511.85 1060.78 1514.91 1067.02 1515.76C1069.39 1516.08 1071.82 1515.43 1074.19 1515.76C1076.55 1516.08 1078.8 1517 1081.08 1517.71C1081.85 1517.95 1082.53 1518.55 1083.33 1518.6C1087.39 1518.85 1091.47 1518.91 1095.52 1518.6C1096.01 1518.57 1094.69 1518.05 1094.28 1517.78" stroke="black" stroke-width="4"/>
<path d="M688.272 1342.39C688.933 1332.21 689.312 1322.01 690.255 1311.85C690.281 1311.57 690.836 1311.77 691.109 1311.85C691.889 1312.09 692.758 1312.25 693.366 1312.79C695.128 1314.36 696.581 1316.24 698.086 1318.06C716.907 1340.79 691.785 1310.74 703.051 1325.24C703.683 1326.06 704.635 1326.59 705.238 1327.43C707.962 1331.21 710.104 1335.52 713.384 1338.9C713.776 1339.3 714.39 1339.44 714.788 1339.83C715.185 1340.23 715.3 1340.87 715.724 1341.24C716.333 1341.77 717.027 1342.28 717.811 1342.47C718.736 1342.7 719.804 1342.87 720.671 1342.47C721.697 1342 722.205 1340.81 723.057 1340.07C724.443 1338.87 725.893 1337.75 727.373 1336.66C728.737 1335.67 730.126 1334.7 731.584 1333.84C732.009 1333.59 732.562 1333.62 732.987 1333.37C733.333 1333.16 733.49 1332.72 733.835 1332.51C734.261 1332.26 734.798 1332.26 735.239 1332.04C737.353 1330.97 739.233 1329.39 741.485 1328.66C745.046 1327.5 748.766 1326.76 752.497 1326.44C757.518 1326.02 762.577 1326.3 767.614 1326.44C768.104 1326.46 768.583 1326.67 769.012 1326.9C769.995 1327.45 770.931 1328.09 771.819 1328.78C772.982 1329.68 773.991 1330.77 775.152 1331.68C775.254 1331.76 775.518 1331.81 775.538 1331.68C776.216 1327.46 774.029 1330.66 776.942 1325.05C777.455 1324.06 778.054 1322.93 779.07 1322.48C780.178 1321.98 781.615 1321.95 782.708 1322.48C783.633 1322.92 783.748 1324.26 784.416 1325.04C785.463 1326.26 786.499 1327.55 787.831 1328.45C789.285 1329.44 790.999 1329.99 792.638 1330.62C794.477 1331.34 796.327 1332.07 798.252 1332.5C799.166 1332.7 800.129 1332.39 801.059 1332.5C801.55 1332.55 801.971 1332.94 802.463 1332.96C804.9 1333.09 807.36 1332.68 809.785 1332.96C811.66 1333.18 813.407 1334.05 815.253 1334.44C815.71 1334.54 816.207 1334.31 816.656 1334.44C817.738 1334.76 818.699 1335.41 819.768 1335.76C820.038 1335.85 820.35 1335.68 820.621 1335.76C820.795 1335.82 820.826 1336.14 821.007 1336.15C823.177 1336.27 825.358 1336.02 827.528 1336.15C828.02 1336.18 828.449 1336.52 828.932 1336.62C829.927 1336.83 830.957 1336.85 831.949 1337.08C832.259 1337.15 832.487 1337.47 832.803 1337.51C833.672 1337.61 834.563 1337.64 835.429 1337.51C835.558 1337.49 835.429 1337.25 835.429 1337.12" stroke="black" stroke-width="4"/>
<path d="M688.272 1111.76C688.415 1107.6 688.314 1103.41 688.699 1099.26C688.736 1098.87 689.142 1098.54 689.512 1098.4C689.996 1098.22 690.787 1097.96 691.056 1098.4C691.805 1099.62 691.663 1101.2 692.074 1102.56C694.057 1109.17 695.647 1114.51 698.858 1120.72C700.643 1124.17 702.43 1125.63 706.396 1125.23C707.094 1125.16 707.848 1125.1 708.437 1124.72C708.91 1124.41 709.003 1123.73 709.372 1123.31C710.056 1122.52 710.906 1121.89 711.583 1121.09C713.229 1119.16 714.761 1117.13 716.332 1115.14C717.687 1113.42 719.088 1111.73 720.361 1109.94C722.673 1106.71 724.994 1103.67 727.537 1100.54C727.993 1099.97 728.482 1099.42 729.069 1099C730.04 1098.3 731.017 1097.5 732.174 1097.2C733.373 1096.88 734.711 1096.83 735.894 1097.2C737.442 1097.68 738.484 1099.39 740.081 1099.68C743.323 1100.25 746.675 1099.44 749.958 1099.68C751.145 1099.76 752.271 1100.25 753.391 1100.65C754.569 1101.07 755.717 1101.57 756.836 1102.13C759.236 1103.33 761.52 1104.76 763.941 1105.92C765.116 1106.48 766.333 1106.99 767.602 1107.28C768.336 1107.45 769.111 1107.2 769.86 1107.28C770.624 1107.36 771.35 1107.7 772.117 1107.75C774.27 1107.86 776.441 1107.97 778.585 1107.75C779.392 1107.66 780.041 1106.96 780.842 1106.84C782.014 1106.66 783.23 1106.64 784.398 1106.84C784.735 1106.9 784.782 1107.55 785.123 1107.56C789.644 1107.79 794.178 1107.45 798.703 1107.56C799.135 1107.58 799.515 1107.88 799.942 1107.95C800.323 1108.01 800.726 1107.86 801.1 1107.95C801.277 1107.99 801.305 1108.32 801.486 1108.34C802.49 1108.45 803.512 1108.23 804.516 1108.34C804.832 1108.37 805.058 1108.7 805.369 1108.76C805.774 1108.85 806.196 1108.76 806.609 1108.76" stroke="black" stroke-width="4"/>
<path d="M688.272 912.468C688.703 906.361 688.214 900.118 689.565 894.146C689.775 893.218 691.474 894.037 692.419 894.146C692.735 894.183 693.115 894.296 693.273 894.573C694.138 896.094 694.622 897.805 695.395 899.374C695.644 899.879 696.133 900.252 696.331 900.778C696.873 902.216 697.084 903.762 697.594 905.211C699.108 909.507 701.031 913.7 702.758 917.919C705.008 923.414 706.403 929.452 710.484 934.013C711.447 935.089 712.481 936.103 713.548 937.077C714.254 937.722 714.999 938.33 715.794 938.861C716.323 939.214 716.881 939.572 717.501 939.715C722.661 940.901 720.595 934.302 722.735 930.013C723.423 928.634 725.017 927.923 725.987 926.726C728.319 923.848 728.689 920.997 730.888 918.199C731.306 917.667 731.95 917.358 732.514 916.983C732.779 916.806 733.048 916.559 733.367 916.55C738.533 916.414 743.705 916.395 748.871 916.55C749.808 916.579 750.699 916.993 751.631 917.1C755.82 917.58 759.526 917.82 763.976 917.609C765.735 917.525 766.75 913.913 767.509 912.644C786.128 881.482 765.015 916.599 772.784 905.468C774.399 903.153 775.564 900.759 777.544 898.76C777.769 898.534 778.08 898.357 778.398 898.328C779.658 898.21 780.98 897.969 782.193 898.328C783.192 898.623 786.68 905.314 786.691 905.334C790.219 911.723 794.541 920.472 801.486 923.749C801.95 923.968 802.672 924.122 803.024 923.749C803.903 922.819 804.025 921.378 804.732 920.311C806.253 918.013 808.283 917.665 810.65 916.702C811.355 916.416 811.97 915.921 812.691 915.679C814.022 915.233 815.389 914.882 816.773 914.65C824.938 913.277 836.619 913.971 843.061 914.094C857.469 914.369 738.371 929.571 853.236 914.521C856.541 914.088 858.623 911.78 861.552 910.585C861.986 910.409 862.499 910.685 862.956 910.585C863.135 910.546 863.159 910.199 863.342 910.193C867.787 910.066 872.241 910.423 876.682 910.193C877.131 910.17 877.489 909.765 877.804 909.445C877.896 909.352 877.747 909.17 877.804 909.053C877.885 908.889 878.062 908.792 878.19 908.661" stroke="black" stroke-width="4"/>
<path d="M688.272 728.368C691.855 716.921 695.022 705.336 699.021 694.028C699.177 693.589 699.965 693.922 700.419 694.028C701.202 694.211 702.061 694.363 702.676 694.882C703.926 695.935 704.848 697.328 705.858 698.613C707.564 700.784 709.353 702.907 710.823 705.244C715.971 713.431 718.767 722.872 724.18 730.877C725.444 732.746 729.455 739.114 733.046 737.52C733.306 737.405 732.964 736.939 733.046 736.666C733.382 735.547 733.766 734.433 734.286 733.386C734.337 733.283 735.562 732.607 735.829 732.602C743.15 732.474 750.475 732.455 757.795 732.602C758.288 732.612 758.707 733.032 759.199 733.07C760.773 733.19 762.385 733.366 763.936 733.07C764.6 732.943 764.981 732.202 765.561 731.853C766.382 731.361 767.231 730.902 768.123 730.555C769.13 730.164 770.158 729.742 771.234 729.649C773.683 729.437 776.153 729.527 778.608 729.649C778.79 729.658 778.813 730.026 778.994 730.035C781.586 730.157 784.187 729.907 786.778 730.035C787.096 730.05 787.317 730.418 787.632 730.462C788.376 730.564 789.141 730.353 789.884 730.462C790.064 730.488 790.088 730.843 790.27 730.848C795.344 730.973 800.422 730.848 805.498 730.848" stroke="black" stroke-width="4"/>
<path d="M688.758 557.903C688.629 551.505 688.041 545.1 688.372 538.71C688.398 538.217 689.336 538.461 689.776 538.236C692.061 537.067 694.765 535.622 697.448 535.411C701.294 535.109 705.176 535.11 709.022 535.411C709.68 535.463 714.449 537.275 715.332 537.698C715.333 537.699 725.733 542.547 728.765 544.681C732.305 547.171 737.368 551.462 741.046 552.874C742.679 553.5 744.564 552.604 746.292 552.874C754.898 554.218 762.753 560.197 771.684 558.944C775.979 558.342 782.493 553.354 786.615 557.476" stroke="black" stroke-width="4"/>
<path d="M688.272 368.239C774.018 375.834 756.296 397.462 757.596 331.238C757.613 330.372 757.744 329.236 758.491 328.799C759.431 328.248 760.693 328.578 761.76 328.799C762.154 328.881 762.422 329.299 762.614 329.653C763.086 330.524 763.203 331.567 763.719 332.413C765.653 335.581 772.406 345.935 774.591 348.911C777.924 353.45 782.445 354.498 787.346 357.314C788.79 358.145 789.92 359.438 791.299 360.373C795.281 363.071 799.45 365.55 803.41 368.309C805.414 369.705 807.289 371.278 809.282 372.689C809.919 373.14 810.68 373.406 811.294 373.888C811.942 374.397 810.509 374.268 811.68 374.268C811.797 374.268 811.446 374.268 811.329 374.268" stroke="black" stroke-width="4"/>
<path d="M998.829 352.16C1042.55 352.16 1086.27 352.02 1129.99 352.16C1131.8 352.166 1132.41 352.418 1133.41 353.745C1133.48 353.848 1133.52 354.185 1133.41 354.131C1132.18 353.557 1131.07 352.778 1129.9 352.101" stroke="black" stroke-width="4"/>
<path d="M998.829 548.225C1005.59 543.439 1012.18 538.396 1019.12 533.868C1019.6 533.557 1020.46 533.434 1020.83 533.868C1023.01 536.429 1024.66 539.401 1026.31 542.33C1027.54 544.516 1028.27 546.955 1029.44 549.172C1029.87 549.986 1030.72 550.542 1031.1 551.383C1042.62 577.267 1015.95 522.223 1033.6 557.558C1033.99 558.349 1034.2 560.045 1035.26 560.576C1035.49 560.691 1035.95 560.819 1036.02 560.576C1037.33 556.467 1037.05 552.819 1039.16 549.09C1042.87 542.543 1046.22 537.608 1053.75 536.341C1059.5 535.375 1059.54 534.036 1067.09 535.4C1069.35 535.806 1071.28 540.82 1074.13 539.663C1076.55 538.68 1077.61 534.685 1080.18 534.464C1081.57 534.345 1082.97 534.346 1084.36 534.464C1085.76 534.583 1087.1 536.725 1087.68 537.821C1087.88 538.198 1093.75 552.391 1097.79 555.424C1102.27 558.783 1104.87 554.542 1107.7 554.12C1115.2 553.002 1116.38 552.527 1120.66 555.827C1121.1 556.161 1121.29 556.857 1121.82 556.985C1126.17 558.038 1128.39 554.496 1132.22 554.231C1134.01 554.107 1135.98 554.979 1137.62 554.231C1138.45 553.848 1136.02 553.315 1135.22 552.857" stroke="black" stroke-width="4"/>
<path d="M998.829 913.345C1109.88 913.345 1140.6 932.283 1107.11 912.146" stroke="black" stroke-width="4"/>
<path d="M998.829 1125.63C998.985 1114.6 998.756 1103.55 999.297 1092.53C999.332 1091.83 999.895 1091.11 1000.54 1090.81C1004.14 1089.15 1007.78 1096.1 1009.3 1098.2C1013.07 1103.4 1017.34 1108.26 1020.7 1113.77C1022.93 1117.42 1024.71 1121.35 1027.23 1124.81C1027.9 1125.72 1030.79 1123.35 1031.2 1123.18C1045.6 1117.53 1036.34 1121.67 1041.63 1118.67C1042.33 1118.27 1043.07 1117.82 1043.88 1117.76C1047.57 1117.51 1051.28 1117.62 1054.97 1117.76C1055.46 1117.78 1055.95 1117.98 1056.37 1118.23C1056.38 1118.23 1063.08 1123.24 1063.92 1123.52C1064.41 1123.68 1065.15 1123.93 1065.46 1123.52C1066.03 1122.77 1065.69 1121.63 1066.01 1120.75C1066.47 1119.5 1067.31 1118.42 1067.79 1117.18C1069.06 1113.92 1069.92 1110.51 1071.27 1107.28C1071.68 1106.31 1074.65 1101.04 1075.81 1099.66C1076.01 1099.42 1076.34 1099.26 1076.66 1099.23C1077.97 1099.11 1079.35 1098.85 1080.6 1099.23C1081.72 1099.57 1084.37 1104.45 1084.95 1105.45C1086.02 1107.29 1087.79 1108.99 1088.95 1110.81C1092.1 1115.75 1090.3 1114.82 1094.97 1119.12C1095.16 1119.3 1095.5 1119.03 1095.74 1119.12C1099.04 1120.39 1102.84 1122.59 1106.48 1123.09C1107.22 1123.19 1108 1122.93 1108.73 1123.09C1112.43 1123.92 1116.09 1124.92 1119.7 1126.05C1131.77 1129.86 1089.33 1120.62 1126.63 1128.82C1127.53 1129.01 1128.51 1128.6 1129.41 1128.82C1131.66 1129.36 1134.16 1131.67 1136.37 1131.67" stroke="black" stroke-width="4"/>
<path d="M998.829 1332.05C1005.42 1329.63 1012.12 1327.47 1018.61 1324.79C1021.07 1323.77 1023.17 1322 1025.63 1320.99C1027.14 1320.37 1028.86 1320.4 1030.43 1319.92C1031.15 1319.7 1031.72 1319.06 1032.46 1318.9C1037.79 1317.71 1045.78 1317.57 1050.52 1317.91C1051.08 1317.95 1051.42 1318.6 1051.92 1318.85C1052.81 1319.28 1053.86 1319.4 1054.68 1319.95C1055.55 1320.53 1056.07 1321.52 1056.9 1322.16C1059.23 1323.99 1061.75 1325.57 1064.12 1327.34C1065.17 1328.13 1065.02 1328.84 1066.68 1329.05C1102.01 1333.58 1064.36 1328.92 1072.49 1328.62C1076.06 1328.48 1079.64 1328.37 1083.21 1328.62C1106.76 1330.23 1065.11 1328.87 1091.77 1331.42C1092.02 1331.44 1103.3 1330.38 1107.7 1331.85C1109.23 1332.36 1110.66 1333.17 1112.21 1333.64C1112.66 1333.77 1113.16 1333.52 1113.62 1333.64C1115.52 1334.14 1117.29 1335.17 1119.23 1335.51C1127.74 1336.96 1122.02 1333.98 1126.49 1336.67" stroke="black" stroke-width="4"/>
<path d="M1230.51 1516.04C1249.3 1514.63 1233.93 1515.65 1276.7 1515.65" stroke="black" stroke-width="4"/>
<path d="M1533.43 1516.68C1560.48 1516.68 1587.53 1516.91 1614.58 1516.68C1614.82 1516.67 1614.76 1516.11 1614.58 1515.96C1614.2 1515.64 1613.61 1515.71 1613.17 1515.49C1612.66 1515.23 1612.23 1514.86 1611.76 1514.55" stroke="black" stroke-width="4"/>
<path d="M1230.51 1338.91C1243.64 1327.93 1255.88 1315.79 1269.89 1305.96C1272.51 1304.12 1277.85 1305.45 1280.21 1307.62C1286.86 1313.71 1289.49 1322.78 1293.35 1330.59C1294.85 1333.64 1296.7 1336.5 1298.27 1339.52C1299.4 1341.71 1302.31 1349.04 1305.42 1349.14C1309.48 1349.27 1313.56 1349.49 1317.61 1349.14C1318.91 1349.02 1320.01 1348.1 1321.27 1347.76C1322.05 1347.55 1326.86 1346.83 1327.52 1346.82C1333.75 1346.67 1340.09 1347.95 1346.22 1346.82L1351.69 1346.31C1355.44 1345.61 1358.93 1343.74 1362.79 1343.39C1366.39 1343.06 1370.02 1343.39 1373.63 1343.39" stroke="black" stroke-width="4"/>
<path d="M1230.51 1104.97C1237.96 1108.28 1245.75 1110.9 1252.86 1114.9C1286.93 1134.05 1237.82 1110.4 1256.31 1119.76C1256.53 1119.87 1256.94 1119.98 1257.05 1119.76L1258.38 1116.63C1259.51 1114.52 1260.81 1112.96 1262.63 1111.42C1263.79 1110.43 1264.96 1109.42 1266.29 1108.67C1267.42 1108.03 1268.65 1107.37 1269.95 1107.29C1276.35 1106.91 1282.78 1107.15 1289.2 1107.29C1289.69 1107.31 1290.11 1107.72 1290.6 1107.76C1296.05 1108.29 1302.67 1108.58 1307.79 1108.23C1308.35 1108.19 1308.69 1107.54 1309.2 1107.29C1312.43 1105.66 1318.66 1101.53 1322.34 1103.56C1325.24 1105.17 1326.97 1108.32 1329.38 1110.6C1329.74 1110.94 1330.12 1111.4 1330.62 1111.42C1340.29 1111.68 1349.96 1111.28 1359.64 1111.42C1359.98 1111.42 1362.81 1112.49 1362.89 1112.23C1363.41 1110.5 1363.48 1100.55 1363.48 1099.6" stroke="black" stroke-width="4"/>
<path d="M1230.51 916.782H1306.75H1341.93" stroke="black" stroke-width="4"/>
<path d="M998.829 715.79H1024.54H1071.34" stroke="black" stroke-width="4"/>
<path d="M1230.51 716.679C1258.72 716.679 1286.93 717.038 1315.13 716.679C1320.26 716.613 1325.35 715.74 1330.46 715.405C1335.22 715.094 1339.98 714.963 1344.73 714.742" stroke="black" stroke-width="4"/>
<path d="M1230.51 549.979C1255.32 549.979 1280.13 550.253 1304.94 549.979C1312.27 549.898 1319.62 549.755 1326.89 548.917C1381.24 542.652 1330.41 545.839 1360.47 544.2" stroke="black" stroke-width="4"/>
<path d="M1230.51 353.963C1246.76 353.963 1263.01 354.348 1279.26 353.963C1374.76 351.701 1255.71 352.133 1328.02 352.133" stroke="black" stroke-width="4"/>
<path d="M367.22 1679.38C400.522 1679.38 438.133 1675.14 471.174 1685.08C471.525 1685.19 472.64 1685.11 472.274 1685.08C471.084 1684.98 469.888 1684.94 468.695 1684.86" stroke="black" stroke-width="4"/>
<path d="M688.272 1683.11C752.856 1683.11 753.744 1703.18 747.818 1673.81" stroke="black" stroke-width="4"/>
<path d="M998.829 1680.88C1070.72 1680.88 1107.11 1699.28 1078.94 1675.86" stroke="black" stroke-width="4"/>
<path d="M1230.51 1680.88C1245.27 1680.88 1260.03 1680.73 1274.79 1680.88C1277.85 1680.92 1277.38 1680.8 1277.38 1682.8" stroke="black" stroke-width="4"/>
<path d="M1533.43 1681.81H1613.91H1614.38" stroke="black" stroke-width="4"/>
<path d="M1533.43 355.125C1569.23 353.786 1605.03 352.448 1640.83 351.109" stroke="black" stroke-width="4"/>
<path d="M1533.43 546.172C1566.49 546.172 1599.56 545.626 1632.61 546.172C1634.92 546.21 1637.37 548.372 1639.71 548.372" stroke="black" stroke-width="4"/>
<path d="M1533.43 713.99C1650.34 713.99 1612.11 723.555 1651.64 713.485" stroke="black" stroke-width="4"/>
<path d="M1533.43 916.782H1601.55" stroke="black" stroke-width="4"/>
<path d="M1634.03 1116.34C1452.46 1102.43 1578.66 1126.41 1546.88 1107.33C1546.43 1107.06 1545.77 1107.18 1545.4 1106.82C1545.17 1106.61 1545.4 1106.2 1545.4 1105.9" stroke="black" stroke-width="4"/>
<path d="M1533.43 1328.5C1622.69 1328.5 1593.39 1321.24 1623.97 1329" stroke="black" stroke-width="4"/>
<path d="M1533.43 1516.02C1611.33 1515.49 1582.23 1514.58 1620.79 1516.07" stroke="black" stroke-width="4"/>
<path d="M1782.8 354.507C1793.77 354.507 1804.75 353.936 1815.71 354.507C1829.25 355.213 1842.66 358.794 1856.22 358.334C1862.57 358.119 1868.19 353.948 1874.38 352.518C1883.78 350.349 1893.33 348.891 1902.88 347.56C1905.21 347.235 1907.62 347.224 1909.95 347.56C2004.78 361.231 1848.52 340.37 1952.33 357.769C1957.35 358.611 1962.52 357.59 1967.61 357.769C1971.14 357.894 1974.56 358.922 1978.19 358.922" stroke="black" stroke-width="4"/>
<path d="M1782.8 546.277C1816.97 546.652 1874.03 535.873 1914.67 551.332" stroke="black" stroke-width="4"/>
<path d="M1782.8 715.293C1826.1 715.127 1869.4 714.796 1912.71 714.796C1913.28 714.796 1921.09 716.785 1917.35 716.785" stroke="black" stroke-width="4"/>
<path d="M1782.8 916.732C1895.18 916.732 1853.91 916.079 1906.61 917.047" stroke="black" stroke-width="4"/>
<path d="M1782.8 1111.86C1817.95 1111.39 1853.1 1110.84 1888.26 1110.44C1894.97 1110.37 1901.68 1110.34 1908.39 1110.44C1908.54 1110.44 1908.85 1110.75 1908.7 1110.76C1907.53 1110.88 1906.36 1110.76 1905.18 1110.76" stroke="black" stroke-width="4"/>
<path d="M1782.8 1334.34C1889.69 1334.34 1891.25 1298.89 1889.24 1335.49" stroke="black" stroke-width="4"/>
<path d="M1782.8 1513.02C1798.01 1513.02 1813.26 1511.93 1828.44 1513.02C1943.8 1521.26 1804.88 1517.15 1874.56 1518.79" stroke="black" stroke-width="4"/>
<path d="M1782.8 1681.81H1866.55H1888.49" stroke="black" stroke-width="4"/>
<path d="M367.22 1859.16C400.635 1859.08 434.054 1859.38 467.467 1858.92C468.702 1858.9 469.755 1857.91 470.977 1857.73C477.133 1856.83 483.493 1861.1 488.172 1864.51" stroke="black" stroke-width="4"/>
<path d="M367.22 2048.94H382.118H391.026H393.467H400.411H406.462H413.406H418.62H424.614H430.665H436.716H441.152H445.504H447.395H451.11H453.55H456.551H458.992H461.408H463.849H466.217H468.657H471.069H472.961H475.401H476.8H478.687H480.086H481.484H482.446H483.403H484.365H485.327H486.285H487.246H488.208H488.793H489.378H489.963H490.548H490.813H491.073H491.338H491.598H491.863H492.111H492.376H492.64H492.904H493.49H494.075H494.66H495.245H496.206H496.791H497.056H497.641H497.905H498.17H498.434H498.699H498.959H499.224H499.488H500.073H500.658H501.239H501.824H502.786H503.371H503.952H504.533H505.118H505.699H506.284H506.549H506.813H507.078H507.342H507.603" stroke="black" stroke-width="4"/>
<path d="M367.22 2212.55C404.949 2212.55 442.678 2212.3 480.406 2212.55C482.535 2212.57 484.669 2212.87 486.741 2213.36C487.908 2213.64 488.98 2214.24 490.027 2214.82C490.125 2214.88 489.897 2215.08 489.787 2215.06C488.947 2214.88 488.157 2214.52 487.343 2214.24" stroke="black" stroke-width="4"/>
<path d="M688.272 2214.85C727.961 2214.85 767.65 2215.15 807.337 2214.85C808.614 2214.84 809.795 2214.14 811.052 2213.92C813.131 2213.56 815.227 2213.27 817.331 2213.11C828.251 2212.26 841.315 2212.51 851.184 2212.7C851.755 2212.71 852.268 2213.06 852.811 2213.24" stroke="black" stroke-width="4"/>
<path d="M688.272 2048.94H708.36H712.075H715.79H718.839H721.836H724.277H727.326H727.911H732.584H734.463H736.354H737.753H739.143H740.542H741.127H741.391H741.973H742.237H742.501H742.766H743.03H743.267H743.515H744.1H745.062H746.024H747.422H748.384H748.969H749.554H749.819" stroke="black" stroke-width="4"/>
<path d="M688.272 1861.49C756.714 1861.74 733.804 1856.15 759.011 1862.63" stroke="black" stroke-width="4"/>
<path d="M998.829 1866.23C1103.11 1861.06 1029.63 1856.63 1073.03 1868.87C1074.73 1869.35 1077.01 1870.03 1078.34 1868.87C1084.61 1863.39 1088.35 1855.39 1094.66 1849.97C1095.6 1849.16 1096.08 1852.35 1097.29 1852.59C1101.82 1853.5 1106.5 1853.13 1111.12 1853.25C1114.8 1853.35 1118.49 1853.05 1122.17 1853.25C1122.48 1853.27 1122.55 1853.76 1122.83 1853.91C1137.41 1861.94 1122.37 1852.45 1131.58 1859.75C1134.54 1862.1 1137.91 1864.17 1140.75 1866.59C1141.98 1867.64 1142.72 1869.33 1144.18 1870.02C1155.45 1875.37 1145.31 1869.6 1148.63 1869.35C1151.4 1869.14 1154.2 1869.56 1156.97 1869.35C1157.17 1869.33 1157.14 1868.84 1156.97 1868.73C1154.81 1867.37 1150.45 1868.02 1148.76 1868.02" stroke="black" stroke-width="4"/>
<path d="M2117.07 552.233C2133.31 547.573 2148.93 539.352 2165.79 538.255C2176.88 537.533 2187.04 544.975 2197.97 546.967C2203.09 547.901 2208.39 546.613 2213.58 546.967C2215.23 547.079 2216.71 548.057 2218.33 548.356C2223.74 549.355 2227.5 549.33 2233.09 551.543C2234.6 552.144 2236.06 552.9 2237.46 553.731C2238.45 554.317 2239.15 555.412 2240.24 555.779C2244.71 557.286 2244.06 552.98 2246.97 551.503C2247.25 551.361 2247.32 550.839 2247.63 550.834C2260.48 550.615 2273.34 551.071 2286.19 550.834C2288.17 550.797 2289.65 549.425 2291.74 549.425" stroke="black" stroke-width="4"/>
<path d="M998.829 2045.28C1017.71 2046.89 1036.53 2049.39 1055.47 2050.11C1224 2056.53 1111.11 2048.11 1157.27 2051.63" stroke="black" stroke-width="4"/>
<path d="M998.829 2205.7C1005.82 2212.36 1015.12 2234.12 1019.79 2225.68H1020.44C1023.57 2220.03 1028.48 2203.57 1038.06 2200.21C1039.44 2199.73 1041.02 2199.88 1042.44 2200.21C1045.21 2200.86 1048 2201.69 1050.45 2203.13C1054.23 2205.35 1056.03 2209.83 1059.78 2211.73C1062.94 2213.33 1059.65 2210.61 1061.06 2210.49C1068.35 2209.9 1074.4 2210.18 1081.05 2211.28C1081.88 2211.42 1082.59 2212.01 1083.42 2212.07C1086.33 2212.28 1089.26 2212.28 1092.16 2212.07C1093.82 2211.95 1096.2 2207.48 1097.93 2206.99C1099.66 2206.49 1101.54 2206.79 1103.33 2206.99C1104.37 2207.1 1108.2 2217.31 1111.06 2219.81C1112.73 2221.28 1111.92 2218.48 1112.9 2217.91C1114.45 2216.99 1115.69 2215.47 1117.4 2214.9C1131.65 2210.12 1139.79 2210.46 1155.62 2211.31C1156.24 2211.35 1156.35 2212.43 1156.94 2212.63C1157.76 2212.91 1158.69 2212.44 1159.53 2212.63C1159.88 2212.71 1160.55 2214.34 1160.85 2214.54C1161.88 2215.22 1161.28 2213.42 1162.17 2215.2C1163.03 2216.92 1161.09 2215.01 1162.83 2215.86C1163.09 2215.98 1163.25 2216.69 1163.45 2216.48C1163.74 2216.17 1163.45 2215.63 1163.45 2215.21" stroke="black" stroke-width="4"/>
<path d="M1230.51 1864.58C1283.38 1864.58 1283.18 1847.02 1283.18 1865.17" stroke="black" stroke-width="4"/>
<path d="M2117.07 361.981C2123.69 367.003 2128.69 375.921 2136.91 377.047C2143.53 377.953 2149.32 371.541 2154.28 367.076C2166.28 356.274 2175.7 342.853 2187.35 331.668C2189 330.082 2191.5 328.756 2193.75 329.181C2196.22 329.647 2198.45 331.727 2199.58 333.976C2201.59 337.993 2203.67 347.957 2204.58 354.028C2205.05 357.136 2203.63 357.339 2205.96 360.352C2206.72 361.337 2208.19 359.802 2209.17 358.384C2213.53 352.081 2207.62 357.835 2213.01 354.648C2213.61 354.297 2213.83 353.424 2214.47 353.179C2215.22 352.894 2216.08 353.311 2216.87 353.179C2217.7 353.041 2218.42 352.415 2219.26 352.38C2224.78 352.147 2230.35 351.619 2235.82 352.38C2239.98 352.958 2243.63 355.64 2247.76 356.346C2251.47 356.979 2255.34 355.646 2259.03 356.346C2260.25 356.578 2260.94 357.974 2261.67 358.984C2262.06 359.521 2262 360.275 2262.29 360.872C2262.38 361.052 2262.4 360.437 2262.29 360.272C2261.93 359.753 2261.4 359.38 2260.95 358.934" stroke="black" stroke-width="4"/>
<path d="M1230.51 2062.77C1253.68 2053.6 1275.68 2040.62 1300.01 2035.26C1309.39 2033.2 1317.04 2052.83 1321.31 2056.5C1323.11 2058.05 1337.17 2054.04 1338.79 2053.94C1345.82 2053.5 1352.9 2053.34 1359.91 2053.94C1386.76 2056.21 1351.2 2055.91 1372.42 2058.59C1387.29 2060.48 1392.33 2053.64 1406.84 2054.62C1407.38 2054.65 1407.89 2054.99 1408.3 2055.35C1409.93 2056.78 1411.37 2058.42 1412.9 2059.95" stroke="black" stroke-width="4"/>
<path d="M1465.82 2205.26C1489.21 2204.64 1512.86 2199.93 1536 2203.42C1762.13 2237.5 1377.57 2203.92 1563.18 2220.64C1569.08 2221.17 1575.02 2220.4 1580.94 2220.64C1589.15 2220.98 1597.36 2221.62 1605.54 2222.38C1606.74 2222.49 1607.83 2223.23 1609.03 2223.25C1645.64 2223.98 1637.25 2220.96 1655.06 2224.7C1655.7 2224.83 1656.41 2224.49 1657.04 2224.7C1657.25 2224.77 1657.04 2225.14 1657.04 2225.36" stroke="black" stroke-width="4"/>
<path d="M1230.51 2201.31C1234.31 2208.65 1233.99 2220.96 1241.91 2223.35C1250.79 2226.02 1258.66 2215.22 1267.5 2212.43C1270.36 2211.53 1273.61 2211.63 1276.51 2212.43C1282.93 2214.21 1288.33 2219.72 1294.99 2220.03C1297.46 2220.15 1297.21 2215.62 1298.44 2213.47C1299.43 2211.75 1302.53 2211.97 1303.87 2212.34C1306.47 2213.08 1305.54 2214.28 1306.84 2215.84C1309.13 2218.6 1312.53 2223.29 1316.82 2223.82C1326.14 2224.95 1331.34 2215.44 1340.36 2214.77C1343.17 2214.57 1346.04 2214.32 1348.82 2214.77C1358.14 2216.31 1349.05 2217.76 1358.39 2218.25C1364.89 2218.6 1371.41 2217.91 1377.9 2218.25C1382.24 2218.49 1387.9 2221.9 1391.62 2222.85C1396.25 2224.03 1400.98 2224.87 1405.74 2225.35C1413.56 2226.12 1426.55 2224.31 1433.72 2226.19" stroke="black" stroke-width="4"/>
<path d="M1760.6 2215.99C1768.19 2215.99 1775.79 2216.19 1783.38 2215.99C1786.64 2215.9 1789.88 2215.48 1793.12 2215.09C1793.53 2215.04 1793.89 2214.69 1794.31 2214.69C1817.08 2214.56 1839.86 2215.39 1862.62 2214.69C1865.72 2214.59 1868.58 2212.94 1871.62 2212.3C1876.79 2211.22 1878.27 2211.44 1883.17 2211.44" stroke="black" stroke-width="4"/>
<path d="M1491.46 2052.34C1650.16 2057.87 1559.01 2079.79 1624.66 2031.96C1626.35 2030.73 1629.66 2030.77 1630.92 2032.44C1636.13 2039.36 1639.23 2053.59 1642.16 2062.25C1642.6 2063.55 1642.56 2065.49 1643.83 2066L1644.5 2066.67C1644.81 2066.8 1645.22 2066.84 1645.51 2066.67L1653.33 2060.91C1658.73 2057.81 1666.63 2056.87 1672.77 2056.64C1676.53 2056.51 1680.3 2056.87 1684.05 2056.64C1684.29 2056.63 1683.82 2056.21 1683.7 2055.99" stroke="black" stroke-width="4"/>
<path d="M2135.56 720.041C2147.86 716.214 2160.02 711.909 2172.45 708.56C2181.18 706.209 2179.94 720.936 2191.32 721.704C2192.45 721.781 2193.4 720.752 2194.51 720.47C2197.73 719.646 2204.24 717.761 2208.42 718.413C2216.73 719.71 2214.16 721.2 2222.64 720.184C2224.75 719.931 2224.96 717.889 2227.37 719.056C2229.42 720.047 2229.47 722.587 2232.32 722.847C2246.92 724.185 2230.69 722.075 2245.55 720.745C2251.13 720.246 2256.76 720.745 2262.37 720.745" stroke="black" stroke-width="4"/>
<path d="M2115.39 912.047C2121.86 906.382 2128.18 900.535 2134.8 895.05C2135.66 894.337 2137.1 892.621 2137.78 893.509C2138.88 894.948 2137.69 897.134 2137.78 898.944C2138.22 907.518 2138.64 916.096 2139.36 924.651C2139.79 929.72 2139.6 934.983 2141.24 939.795C2142.14 942.402 2141.34 934.272 2141.72 931.544C2142.48 926.191 2143.3 920.822 2144.67 915.594C2145.18 913.666 2146.26 911.92 2147.34 910.241C2148.12 909.019 2149.07 907.88 2150.19 906.96C2151.47 905.917 2152.94 905.123 2154.42 904.424C2155.37 903.981 2156.39 903.649 2157.43 903.561C2159.82 903.36 2162.31 902.919 2164.61 903.561C2165.87 903.912 2166.66 905.244 2167.39 906.332C2171.54 912.595 2173.06 921.344 2178.26 926.743C2178.42 926.904 2178.93 926.967 2178.94 926.743C2179.16 921.214 2178.57 915.665 2178.94 910.144C2179.02 908.903 2179.29 912.639 2179.79 913.777C2181.79 918.315 2183.98 922.778 2186.41 927.1C2187.22 928.531 2188.28 929.835 2189.46 930.968C2189.71 931.2 2190.18 931.128 2190.47 930.968C2190.72 930.835 2190.76 930.484 2190.85 930.218C2192.21 925.951 2193.36 921.618 2194.81 917.379C2195.65 914.923 2196.49 912.45 2197.7 910.149C2198.25 909.093 2199.11 908.211 2200 907.419C2200.32 907.133 2200.8 907.028 2201.23 907.006C2203.42 906.89 2205.63 906.889 2207.82 907.006C2208.64 907.049 2209.46 907.203 2210.23 907.485C2211.32 907.885 2212.38 908.396 2213.34 909.037C2214.93 910.093 2216.27 911.496 2217.86 912.552C2218.83 913.193 2220.02 913.444 2220.97 914.104C2225.15 916.997 2228.94 920.43 2233.21 923.186C2233.6 923.433 2234.34 923.271 2234.54 922.865C2234.89 922.173 2234.46 921.312 2234.54 920.543C2234.58 920.161 2234.56 919.609 2234.91 919.451C2235.54 919.17 2236.29 919.367 2236.98 919.451C2237.4 919.503 2237.86 919.582 2238.19 919.854C2241.13 922.271 2243.76 925.043 2246.69 927.457C2247.62 928.218 2248.63 928.915 2249.74 929.355C2250.29 929.57 2251.19 929.853 2251.5 929.355C2252.85 927.171 2253.21 924.511 2254.2 922.14C2254.39 921.688 2254.83 921.371 2255.01 920.916C2255.39 919.943 2255.46 918.861 2255.87 917.9C2256.1 917.356 2256.39 916.741 2256.91 916.466C2257.41 916.205 2258.09 916.219 2258.6 916.466C2260.03 917.17 2261.11 918.475 2262.53 919.216C2263.68 919.814 2264.92 920.36 2266.21 920.441C2271.5 920.772 2276.84 920.84 2282.13 920.441C2282.56 920.409 2282.4 919.621 2282.54 919.211" stroke="black" stroke-width="4"/>
<path d="M1452.23 1848.79C1452.23 1867.21 1450.13 1844.56 1468.19 1846.87C1477 1848 1484.52 1854.7 1490.79 1861C1494.36 1864.58 1491.45 1873.81 1496.34 1875.14C1502.6 1876.84 1508.4 1870.32 1514.17 1867.35C1524.92 1861.83 1518.69 1859.69 1534.56 1858.09C1544.13 1857.13 1553.82 1857.62 1563.44 1858.09C1574.02 1858.61 1567.24 1860.51 1573.88 1859.87C1574.91 1859.77 1574.73 1858.84 1575.44 1858.26C1577.94 1856.22 1581.26 1853.9 1584.57 1853.45C1591.09 1852.57 1591.69 1859.33 1598.95 1860.39C1602.44 1860.91 1606.07 1859.73 1609.54 1860.39C1611.58 1860.79 1613.04 1862.69 1614.97 1863.48C1645.34 1875.94 1602.82 1857.8 1628.18 1865.59C1630.72 1866.37 1632.78 1868.23 1635.08 1869.54" stroke="black" stroke-width="4"/>
<path d="M1795.15 1856.69C1818.31 1858.71 1841.5 1860.39 1864.63 1862.76C1865.67 1862.86 1869.89 1867.45 1871.85 1866.9C1877.55 1865.31 1882.64 1861.88 1888.37 1860.36C1891.79 1859.45 1895.48 1860.29 1898.98 1859.7C1904.83 1858.72 1910.41 1856.3 1916.31 1855.65C1922.67 1854.94 1932.16 1854.92 1939.4 1856.3C1939.84 1856.38 1940.15 1856.87 1940.59 1856.89C1946.22 1857.07 1951.85 1856.73 1957.48 1856.89C1957.98 1856.9 1958.45 1859.65 1958.58 1860.15C1958.86 1861.27 1959.44 1862.56 1959.65 1863.58C1959.79 1864.28 1959.65 1866.44 1959.65 1865.72C1959.65 1864.99 1959.84 1864.24 1959.65 1863.54C1959.36 1862.52 1958.7 1861.64 1958.23 1860.7" stroke="black" stroke-width="4"/>
<path d="M2065.21 1117.07C2072.08 1111.13 2084.66 1094.65 2097.42 1102.01C2105.04 1106.41 2108.65 1115.65 2115.15 1121.58C2116.07 1122.41 2117.73 1122.06 2118.87 1121.58C2119.73 1121.21 2119.81 1119.91 2120.53 1119.3C2120.99 1118.91 2121.74 1119.03 2122.25 1118.7C2131.66 1112.72 2114.81 1120.97 2132.17 1113.8C2134.5 1112.83 2138.33 1110.55 2141.09 1111.45C2146.07 1113.08 2150.97 1118.27 2154.8 1119.36C2155.29 1119.5 2155.93 1119.69 2156.31 1119.36C2156.97 1118.77 2156.95 1117.67 2157.49 1116.98C2159.99 1113.8 2171.4 1104.4 2175.69 1104.01C2179.2 1103.69 2182.76 1103.61 2186.26 1104.01C2192.72 1104.75 2191.99 1108.68 2197.02 1109.33C2201.52 1109.92 2206.23 1110.47 2210.62 1109.33C2212.15 1108.94 2212.05 1106.51 2212.93 1105.21C2213.36 1104.58 2214.08 1104.2 2214.54 1103.58C2214.65 1103.44 2214.36 1103.05 2214.54 1103.04C2225.95 1102.36 2223.92 1104.3 2233.21 1107.1C2239.17 1108.9 2245.14 1110.75 2251.25 1111.92C2255.02 1112.65 2258.6 1111.85 2262.25 1112.52C2262.41 1112.55 2262.4 1113.08 2262.25 1113C2261.84 1112.79 2261.59 1112.34 2261.26 1112.01" stroke="black" stroke-width="4"/>
<path d="M2062.73 1326.83C2117 1325.82 2087.37 1317.32 2109.4 1335.11C2112 1337.21 2114.82 1341.39 2117.98 1340.32C2121.79 1339.03 2121.94 1333.3 2124.31 1330.06C2127.14 1326.19 2137.78 1314.89 2143.93 1314.37C2147.85 1314.05 2151.88 1313.56 2155.73 1314.37C2158.55 1314.97 2160.67 1317.38 2163.33 1318.49C2165.13 1319.24 2167.13 1319.33 2168.99 1319.9C2170.3 1320.31 2171.48 1321.1 2172.82 1321.44C2178.49 1322.85 2184.28 1323.74 2189.95 1325.13C2191.94 1325.62 2193.78 1326.65 2195.79 1327.08C2196.87 1327.31 2198.16 1326.5 2199.11 1327.08C2199.69 1327.42 2198.62 1328.64 2199.11 1329.09C2200.96 1330.77 2204.87 1327.13 2206.38 1326.53C2211.11 1324.67 2226.61 1319.5 2232.84 1319.37C2242.68 1319.16 2252.52 1319.37 2262.37 1319.37" stroke="black" stroke-width="4"/>
<path d="M2051.03 1476.38C2110.47 1475.82 2169.92 1475.27 2229.37 1474.71" stroke="black" stroke-width="4" stroke-linecap="round" stroke-linejoin="round"/>
<path d="M2042.69 1681.39C2095.56 1671.77 2148.86 1679.98 2201.96 1684.54C2211.96 1685.39 2235.07 1689.55 2247.7 1686.39" stroke="black" stroke-width="4" stroke-linecap="round" stroke-linejoin="round"/>
<path d="M2012.69 1846.39C2028 1843.37 2039.13 1841.82 2053.8 1836.39C2072.72 1829.39 2088.44 1817.27 2106.3 1808.34C2115.3 1803.84 2125.56 1798.62 2133.62 1807.32C2138.49 1812.57 2136.89 1815.17 2144.82 1816.39C2169.14 1820.13 2192.48 1824.59 2216.4 1830.28C2231.46 1833.87 2247.4 1832.16 2262.7 1831.39" stroke="black" stroke-width="4" stroke-linecap="round" stroke-linejoin="round"/>
<path d="M1799.35 2021.4C1815.26 2020 1804.11 2021.17 1825.46 2018.07C1843.21 2015.49 1867.36 2008.51 1885.09 2015.29C1892.15 2017.99 1888.53 2022.19 1894.72 2025.57C1912.9 2035.49 1941.88 2030.03 1961.02 2031.4" stroke="black" stroke-width="4" stroke-linecap="round" stroke-linejoin="round"/>
<path d="M2037.69 1993.07C2084.33 1992.73 2130.58 1994.51 2177.14 1995.47C2194.78 1995.84 2212.35 1993.07 2230.01 1993.07C2246.47 1993.07 2262.92 1993.07 2279.37 1993.07" stroke="black" stroke-width="4" stroke-linecap="round" stroke-linejoin="round"/>
<path d="M2027.13 2224.44C2085.21 2216.78 2119.48 2211.97 2176.79 2205.52C2194.5 2203.52 2212.24 2201.8 2229.98 2200.08C2233.4 2199.75 2273.62 2196.51 2284.1 2194.75C2293.03 2193.25 2297.53 2189.73 2303.36 2183.54" stroke="black" stroke-width="4" stroke-linecap="round" stroke-linejoin="round"/>
<path d="M323.626 2388.62C379.34 2410.13 431.371 2433.25 491.031 2413.21C507.151 2407.79 523.644 2398.9 539.392 2392.34" stroke="black" stroke-width="4" stroke-linecap="round" stroke-linejoin="round"/>
<path d="M671.456 2358.85C712.483 2354.22 755.535 2343.9 796.906 2343.77C808.946 2343.73 810.115 2346.23 821.914 2346.87C853.326 2348.57 818.477 2344.72 853.741 2343.97" stroke="black" stroke-width="4" stroke-linecap="round" stroke-linejoin="round"/>
<path d="M975.771 2359.8C976.407 2357.93 975.861 2354.96 977.681 2354.18C979.582 2353.37 981.785 2355.27 983.413 2356.54C987.191 2359.49 990.089 2363.44 993.64 2366.66C1003.62 2375.71 1011.27 2383.19 1022.52 2372.16C1028.15 2366.65 1031.14 2359.97 1038.99 2357.1C1044.85 2354.96 1048.84 2359.56 1052.93 2363C1056.49 2366.01 1061.2 2370.7 1066.13 2371.38C1071.66 2372.14 1076.83 2366.67 1080.69 2363.79C1086.83 2359.2 1095.23 2351.76 1103.22 2355.76" stroke="black" stroke-width="4" stroke-linecap="round" stroke-linejoin="round"/>
<path d="M1226.62 2345.64C1232.62 2348.94 1238.04 2353.6 1244.61 2355.53C1264.03 2361.25 1277.78 2356.6 1296.98 2351.65C1311.83 2347.82 1329.54 2340.35 1345.47 2339.4C1356.84 2338.73 1358.85 2341.45 1367.95 2345.53C1373.9 2348.19 1378.14 2349.93 1384.53 2348.9C1391.81 2347.73 1394.72 2352.13 1400.6 2355.76" stroke="black" stroke-width="4" stroke-linecap="round" stroke-linejoin="round"/>
<path d="M1484.56 2366.88C1527.33 2363.3 1557.09 2359.7 1599.98 2360.48C1701.95 2362.32 1607.93 2364.46 1708.1 2370.93" stroke="black" stroke-width="4" stroke-linecap="round" stroke-linejoin="round"/>
<path d="M1777.89 2327.43C1816.72 2328.46 1853.46 2331.24 1891.52 2339.46C1906.09 2342.6 1923.04 2346.15 1937.71 2349.69" stroke="black" stroke-width="4" stroke-linecap="round" stroke-linejoin="round"/>
<path d="M2039.87 2366.88C2051.9 2360.55 2063.14 2352.43 2075.95 2347.89C2107.83 2336.59 2120.31 2340.22 2152.6 2345.42C2178.12 2349.52 2184.64 2354.47 2208.57 2352.16C2219.38 2351.11 2224.29 2346.1 2234.87 2347.21C2238.17 2347.56 2241.12 2349.44 2244.31 2350.36C2253.84 2353.12 2254.82 2353.68 2265.21 2350.59C2282.04 2345.57 2297.44 2336.33 2312.98 2328.44" stroke="black" stroke-width="4" stroke-linecap="round" stroke-linejoin="round"/>
<path d="M320.315 2526.7C323.327 2559.83 339.242 2514.3 347.57 2525.35C352.061 2531.31 355.441 2538.32 358.64 2545.02C361.982 2552.01 364.248 2561.27 369.205 2567.38C370.795 2569.35 372.999 2563.66 373.588 2561.2C376.231 2550.17 377.954 2538.91 381.287 2528.05C381.814 2526.33 383.114 2522.17 384.265 2523.55C390.236 2530.72 392.642 2540.93 398.089 2548.5C405.639 2558.99 410.199 2552.59 417.757 2545.97C428.206 2536.83 435.3 2534.04 443.494 2546.7C446.295 2551.03 446.803 2553.75 450.013 2547.72C451.966 2544.04 458.851 2522.61 465.298 2524.23C469.823 2525.36 474.411 2538.14 476.874 2541.2C485.732 2552.2 491.296 2543.13 501.712 2540.64C514.775 2537.51 525.793 2547.94 538.8 2547.94" stroke="black" stroke-width="4" stroke-linecap="round" stroke-linejoin="round"/>
<path d="M655.123 2505.46C671.499 2500.04 681.141 2494.73 698.618 2496.58C713.329 2498.14 724.349 2509.61 738.909 2510.74C744.844 2511.2 750.386 2506.61 756.049 2510.07C760.989 2513.08 764.707 2519.46 768.243 2523.83C769.536 2525.43 772.803 2530.04 775.38 2530.91C779.704 2532.38 786.529 2523.34 788.754 2521.53C796.785 2514.99 804.923 2509.45 815.671 2509.28C829.357 2509.06 844.172 2513.9 857.424 2516.58" stroke="black" stroke-width="4" stroke-linecap="round" stroke-linejoin="round"/>
<path d="M947.448 2520.63C960.718 2502.43 958.628 2498.96 986.785 2495.79C1037.98 2490.03 1055.19 2502.25 1109.29 2502.42" stroke="black" stroke-width="4" stroke-linecap="round" stroke-linejoin="round"/>
<path d="M1173.01 2521.64C1207.08 2517.3 1240.01 2509.42 1273.83 2503.83C1297.78 2499.87 1301.44 2499.06 1322.44 2502.2C1335.26 2504.11 1330.3 2506.1 1341.99 2503.55C1352.73 2501.2 1357.98 2498.81 1368.57 2503.21C1372.89 2505 1374.6 2506.79 1379.14 2507.14C1385.96 2507.67 1378.6 2506.36 1383.41 2505.46" stroke="black" stroke-width="4" stroke-linecap="round" stroke-linejoin="round"/>
<path d="M1475.45 2487.25C1487.85 2480.92 1482.54 2482.69 1500.97 2479.72C1545.07 2472.62 1511.74 2479.91 1557.05 2469.61C1559.31 2469.09 1582.54 2459.66 1588.29 2468.14C1591.6 2473.01 1591.09 2479.61 1591.78 2485.45C1593.47 2499.9 1591.62 2514.78 1594.7 2529C1595.02 2530.47 1597.08 2533.3 1597.96 2532.09C1601.37 2527.42 1602.35 2521.38 1604.25 2515.91C1624.64 2457.46 1601.32 2519.94 1623.36 2458.59C1626.04 2451.11 1628.18 2443.36 1631.9 2436.34C1633.28 2433.73 1635.63 2429.14 1638.36 2430.27C1642.43 2431.95 1643.29 2437.65 1644.94 2441.73C1651.44 2457.85 1655.46 2474.87 1661.46 2491.18C1661.74 2491.95 1666.7 2514.11 1674.27 2509.28C1678.78 2506.4 1682.32 2501.88 1686.8 2498.77C1689.65 2496.79 1689.14 2496.32 1691.69 2497.53C1695.29 2499.24 1699.54 2490.36 1701.02 2488.26" stroke="black" stroke-width="4" stroke-linecap="round" stroke-linejoin="round"/>
<path d="M1792.05 2475.11C1801.93 2466.4 1810.6 2456.11 1821.67 2448.98C1845.58 2433.59 1859.22 2432 1886.24 2438.14C1906.41 2442.72 1924.17 2454.78 1941.76 2465" stroke="black" stroke-width="4" stroke-linecap="round" stroke-linejoin="round"/>
<path d="M2038.22 2495.72C2056.89 2519.34 2074.95 2552.56 2110.58 2544.55C2119.52 2542.54 2135.56 2532.95 2143.13 2526.4C2155.71 2515.51 2151.64 2483.23 2168.89 2476.52C2179.44 2472.42 2184.96 2500.98 2194.29 2503.68C2200.37 2505.44 2217.21 2500.44 2222.51 2500.41C2242.56 2500.28 2246.98 2502.02 2267 2502.51C2383.1 2505.4 2220.96 2501.53 2291.12 2499.94" stroke="black" stroke-width="4" stroke-linecap="round" stroke-linejoin="round"/>
<path d="M354.314 145.84C415.465 157.344 475.901 154.848 537.668 152.163" stroke="black" stroke-width="4" stroke-linecap="round" stroke-linejoin="round"/>
<path d="M634.614 137.41C667.564 136.655 689.422 159.55 720.554 166.681C788.683 182.286 701.049 157.664 749.825 165.979C759.273 167.589 765.097 183.68 775.35 180.263C800.714 171.808 804.94 129.512 836.936 143.732" stroke="black" stroke-width="4" stroke-linecap="round" stroke-linejoin="round"/>
<path d="M952.849 171.13C1024.2 162.858 1093.48 172.987 1163.6 183.775" stroke="black" stroke-width="4" stroke-linecap="round" stroke-linejoin="round"/>
<path d="M1239.47 223.818C1239.82 217.379 1239.44 210.856 1240.53 204.499C1242.63 192.247 1246.91 204.269 1249.54 207.192C1262.8 221.897 1264.83 199.306 1267.57 189.161C1269.99 180.242 1271.51 163.185 1281.39 177.57C1292.05 193.095 1296.63 221.82 1312.06 233.068C1330.93 246.815 1355.83 157.009 1358.55 149.353C1364.83 131.614 1371.28 122.216 1390.74 124.765C1395.11 125.337 1400.13 129.618 1401.75 124.765" stroke="black" stroke-width="4" stroke-linecap="round" stroke-linejoin="round"/>
<path d="M1505.02 251.216C1519.32 261.252 1548.71 290.312 1566.96 268.076C1583.65 247.725 1574.97 214.71 1574.33 191.152C1573.84 172.847 1585.31 170.673 1602.43 167.384C1630.64 161.965 1659.78 160.684 1688.37 158.485" stroke="black" stroke-width="4" stroke-linecap="round" stroke-linejoin="round"/>
<path d="M1789.53 215.388C1801.56 231.668 1821.64 238.459 1840.82 243.254C1862.92 248.781 1872.12 249.492 1893.04 245.01C1911.87 240.974 1901.24 239.467 1918.09 238.571C1928.89 237.997 1935.45 240.314 1944.08 232.482C1947.16 229.697 1949.09 226.832 1951.81 225.926" stroke="black" stroke-width="4" stroke-linecap="round" stroke-linejoin="round"/>
<path d="M2111.98 160.593C2138.6 153.853 2149.3 159.627 2171.46 176.048C2185.81 186.678 2200.81 204.988 2206.59 179.794C2207.25 176.908 2208.1 168.7 2209.4 171.364C2213.96 180.759 2215.4 197.964 2230 197.591C2244.52 197.221 2256.12 183.99 2271.1 182.604C2317.73 178.295 2251.01 188.906 2299.79 183.19C2311.42 181.826 2317.44 178.784 2328.24 175.111C2336.45 172.318 2344.73 175.891 2345.92 171.13" stroke="black" stroke-width="4" stroke-linecap="round" stroke-linejoin="round"/>
</svg>
