<?xml version="1.0" encoding="UTF-8"?>
<svg width="4880px" height="4880px" viewBox="0 0 4880 4880" version="1.1" xmlns="http://www.w3.org/2000/svg" xmlns:xlink="http://www.w3.org/1999/xlink">
    <!-- Generator: Sketch 56.3 (81716) - https://sketch.com -->
    <title>circle_image-1</title>
    <desc>Created with Sketch.</desc>
    <g id="circle_image-1" stroke="none" stroke-width="4" fill="none" fill-rule="evenodd">
        <path d="M494.86657,187.12399 C451.138844,205.466074 406.634271,222.056262 363.683391,242.150241 C361.524471,243.160262 362.152682,246.778233 362.266726,249.159005 C366.604693,339.718267 357.066142,335.61444 379.788635,390.229014 C387.510738,408.789449 391.448347,429.736664 403.931589,445.493861 C466.000983,523.842074 528.724824,562.173373 626.333082,565.776176 C653.917065,566.794324 683.314018,572.508004 709.08123,560.258639 C759.995427,536.054755 780.119206,486.559292 798.838142,435.383347 C826.519067,359.706106 803.690886,272.854445 763.660113,206.584493 C737.281596,162.915512 645.370683,118.042003 597.597151,108.25303 C588.469395,106.382719 590.730984,115.193044 585.488393,121.16705 C575.253034,132.830384 560.461019,145.378859 545.627914,150.633682 C530.091557,156.137641 513.914501,159.630748 498.057794,164.12928 L494.86657,187.12399 Z" id="Path-285" stroke="#000000"></path>
        <path d="M2961.55303,161.000292 C2925.15005,179.342376 2888.10035,195.932564 2852.34408,216.026543 C2850.5468,217.036565 2851.06978,220.654536 2851.16472,223.035307 C2854.77604,313.59457 2846.83528,309.490743 2865.75157,364.105317 C2872.18016,382.665752 2875.45819,403.612966 2885.85039,419.370164 C2937.52266,497.718376 2989.73975,536.049675 3070.99785,539.652478 C3093.96129,540.670627 3118.43402,546.384306 3139.88502,534.134941 C3182.27068,509.931058 3199.02356,460.435594 3214.60693,409.259649 C3237.65107,333.582408 3218.6468,246.730747 3185.3215,180.460796 C3163.36159,136.791815 3086.8465,91.9183051 3047.07541,82.1293326 C3039.47663,80.2590217 3041.35938,89.0693465 3036.99497,95.0433525 C3028.47412,106.706687 3016.15988,119.255161 3003.81144,124.509984 C2990.87755,130.013944 2977.41028,133.50705 2964.2097,138.005583 L2961.55303,161.000292 Z" id="Path-285-Copy" stroke="#000000" transform="translate(3037.882795, 311.871536) scale(-1, -1) rotate(-2.000000) translate(-3037.882795, -311.871536) "></path>
        <path d="M330.294834,187.019604 C564.448178,363.930989 313.582533,169.955182 818.417944,645.109416 C822.866671,649.296586 815.408421,633.096585 812.318828,627.826103 C810.680547,625.031388 807.2586,623.779909 804.728486,621.756812" id="Path-286" stroke="#000000"></path>
        <path d="M2821.8177,160.513787 C3016.74849,337.425172 2807.90485,143.449365 3228.17628,618.603599 C3231.87981,622.790769 3225.67088,606.590768 3223.09882,601.320286 C3221.73496,598.525571 3218.88622,597.274092 3216.77992,595.250995" id="Path-286-Copy" stroke="#000000" transform="translate(3025.571650, 389.900535) scale(-1, -1) rotate(-2.000000) translate(-3025.571650, -389.900535) "></path>
        <path d="M761.810993,171.809096 C662.912863,282.646977 564.014734,393.484858 465.116605,504.32274" id="Path-287" stroke="#000000"></path>
        <path d="M3183.76601,146.467155 C3101.43411,257.305037 3019.10221,368.142918 2936.77031,478.980799" id="Path-287-Copy" stroke="#000000" transform="translate(3060.268157, 312.723977) scale(-1, -1) rotate(-2.000000) translate(-3060.268157, -312.723977) "></path>
        <path d="M460.150821,988.315153 C425.465949,976.662402 369.72767,953.310233 363.87725,1044.17649 C356.787639,1154.28935 465.619796,1174.43379 535.487575,1188.88509 C556.701392,1193.27291 578.871513,1196.9196 600.29627,1193.71667 C606.372933,1192.80822 608.581325,1183.86418 609.601523,1177.80528 C615.091656,1145.19966 617.163822,1112.09119 619.592739,1079.11592 C620.497581,1066.83167 620.404692,1054.45407 619.592739,1042.16333 C619.046236,1033.89078 605.06012,1013.61001 603.845389,1011.90635 C591.027442,993.929195 574.709612,970.387697 554.590184,958.073083 C545.070609,952.246382 513.15791,934.731742 501.830597,931.559079 C495.290246,929.727195 486.829908,926.153536 481.49027,930.351186 C474.301598,936.002416 475.197838,947.566733 471.08151,955.731858 C460.727309,976.270393 432.201561,998.276544 409.285092,998.276544" id="Path-288" stroke="#000000"></path>
        <path d="M2907.44484,959.000331 C2878.56996,947.347581 2832.16829,923.995412 2827.29786,1014.86167 C2821.39582,1124.97453 2911.99772,1145.11897 2970.16208,1159.57027 C2987.82242,1163.95809 3006.27886,1167.60478 3024.1148,1164.40184 C3029.17358,1163.4934 3031.01204,1154.54936 3031.86135,1148.49046 C3036.43184,1115.88484 3038.1569,1082.77637 3040.17896,1049.8011 C3040.93223,1037.51685 3040.8549,1025.13925 3040.17896,1012.84851 C3039.724,1004.57596 3028.08067,984.295191 3027.06942,982.591532 C3016.39858,964.614373 3002.81411,941.072876 2986.06485,928.758262 C2978.13988,922.93156 2951.57282,905.416921 2942.14292,902.244258 C2936.69813,900.412373 2929.65496,896.838715 2925.20976,901.036365 C2919.22525,906.687595 2919.97136,918.251912 2916.54455,926.417036 C2907.92476,946.955572 2884.1773,968.961723 2865.09953,968.961723" id="Path-288-Copy" stroke="#000000" transform="translate(2933.869322, 1032.347367) scale(-1, -1) rotate(-2.000000) translate(-2933.869322, -1032.347367) "></path>
        <path d="M405.467552,984.303754 C463.197894,1046.4183 520.043743,1109.36681 578.658577,1170.64739 C584.471651,1176.72484 618.326014,1199.49083 582.893659,1175.22546" id="Path-289" stroke="#000000"></path>
        <path d="M2861.09344,955.272635 C2909.15349,1017.38718 2956.4772,1080.33569 3005.27358,1141.61628 C3010.11292,1147.69372 3038.29641,1170.45971 3008.79926,1146.19434" id="Path-289-Copy" stroke="#000000" transform="translate(2941.581971, 1056.207612) scale(-1, -1) rotate(-2.000000) translate(-2941.581971, -1056.207612) "></path>
        <path d="M599.893639,992.952866 C423.502172,1094.74101 525.089615,1019.64306 454.126267,1091.62731 C425.723444,1120.43875 433.793732,1104.18389 411.074563,1137.55708 C410.380847,1138.57611 411.381068,1142.44936 411.074563,1141.25532 C409.061331,1133.41247 407.644743,1125.42844 405.929832,1117.515" id="Path-290" stroke="#000000"></path>
        <path d="M3023.58016,963.954817 C2876.73568,1065.74296 2961.30641,990.645009 2902.22999,1062.62926 C2878.58487,1091.4407 2885.30332,1075.18584 2866.38979,1108.55903 C2865.81228,1109.57806 2866.64496,1113.45131 2866.38979,1112.25727 C2864.71379,1104.41442 2863.53449,1096.43039 2862.10685,1088.51695" id="Path-290-Copy" stroke="#000000" transform="translate(2942.843503, 1038.219138) scale(-1, -1) rotate(-2.000000) translate(-2942.843503, -1038.219138) "></path>
        <path d="M489.811313,1480.2558 C447.087679,1487.37889 404.069459,1492.91742 361.640411,1501.62507 C359.887846,1501.98475 360.01022,1505.06883 360.328132,1506.82945 C370.087912,1560.87985 365.258806,1583.15391 390.212307,1617.98546 C408.115232,1642.97541 436.108535,1687.07063 463.476256,1700.56958 C485.778951,1711.57023 514.680168,1717.07874 539.021781,1718.07657 C566.621084,1719.20795 594.270524,1718.53345 621.889228,1718.07657 C652.407922,1717.57172 688.679899,1659.03762 700.670714,1642.32228 C707.611011,1632.64742 712.402673,1619.09258 713.420699,1607.44249 C714.53407,1594.7013 713.801464,1581.85732 713.420699,1569.07324 C713.367615,1567.29097 712.977611,1565.44886 712.123332,1563.88377 C706.106081,1552.8598 695.600686,1541.28916 687.726869,1532.32942 C650.381436,1489.83351 610.57664,1464.18761 553.188431,1463.03214 C529.26562,1462.55047 464.668823,1450.18142 430.042962,1469.87687 C424.506036,1473.02631 420.65747,1478.81464 414.892103,1481.52334 C413.624818,1482.11874 414.285671,1478.78943 413.982455,1477.42247" id="Path-291" stroke="#000000"></path>
        <path d="M2913.71973,1451.93261 C2878.15265,1459.0557 2842.34033,1464.59423 2807.01849,1473.30189 C2805.55949,1473.66156 2805.66137,1476.74565 2805.92602,1478.50627 C2814.05096,1532.55666 2810.03077,1554.83072 2830.80436,1589.66227 C2845.7084,1614.65222 2869.0126,1658.74744 2891.79601,1672.24639 C2910.36283,1683.24704 2934.42286,1688.75555 2954.68706,1689.75339 C2977.66325,1690.88476 3000.68119,1690.21026 3023.67354,1689.75339 C3049.08011,1689.24853 3079.27624,1630.71443 3089.2585,1613.99909 C3095.03624,1604.32423 3099.02526,1590.76939 3099.87276,1579.1193 C3100.79963,1566.37811 3100.18974,1553.53413 3099.87276,1540.75005 C3099.82856,1538.96778 3099.50389,1537.12568 3098.79271,1535.56058 C3093.7834,1524.53661 3085.03774,1512.96597 3078.48285,1504.00624 C3047.39308,1461.51032 3014.2559,1435.86442 2966.48068,1434.70895 C2946.56513,1434.22728 2892.78881,1421.85823 2863.96306,1441.55368 C2859.35361,1444.70312 2856.14972,1450.49145 2851.35009,1453.20015 C2850.29509,1453.79555 2850.84524,1450.46624 2850.59282,1449.09928" id="Path-291-Copy" stroke="#000000" transform="translate(2953.065976, 1560.404272) scale(-1, -1) rotate(-2.000000) translate(-2953.065976, -1560.404272) "></path>
        <path d="M404.468431,1500.93911 C494.250196,1557.24285 584.195435,1613.28674 673.813728,1669.85032 C674.990771,1670.59322 678.07261,1673.28361 676.766356,1672.80294" id="Path-292" stroke="#000000"></path>
        <path d="M2842.73438,1472.72457 C2917.47698,1529.0283 2992.35568,1585.0722 3066.96219,1641.63577 C3067.94206,1642.37868 3070.50767,1645.06906 3069.42022,1644.5884" id="Path-292-Copy" stroke="#000000" transform="translate(2956.209114, 1558.685037) scale(-1, -1) rotate(-2.000000) translate(-2956.209114, -1558.685037) "></path>
        <path d="M658.200588,1510.09524 C609.725792,1538.10047 560.226583,1564.40302 512.776198,1594.11093 C502.15622,1600.75993 502.698563,1613.80938 497.968321,1623.45826 C492.359925,1634.89843 486.02111,1646.0067 479.044659,1656.66787 C462.753069,1681.56412 472.860873,1662.58191 459.807839,1676.79943 C459.397712,1677.24615 459.807839,1678.01229 459.807839,1678.61873" id="Path-293" stroke="#000000"></path>
        <path d="M3053.69491,1482.40311 C3013.34003,1510.40834 2972.13234,1536.71089 2932.63028,1566.4188 C2923.78923,1573.06779 2924.24072,1586.11725 2920.30284,1595.76613 C2915.63389,1607.2063 2910.35688,1618.31457 2904.54904,1628.97574 C2890.98642,1653.87199 2899.40109,1634.88978 2888.53454,1649.1073 C2888.19311,1649.55401 2888.53454,1650.32016 2888.53454,1650.92659" id="Path-293-Copy" stroke="#000000" transform="translate(2971.038855, 1566.664852) scale(-1, -1) rotate(-2.000000) translate(-2971.038855, -1566.664852) "></path>
        <path d="M513.432338,1873.47727 C471.359872,1878.77112 429.20542,1883.44977 387.214942,1889.35883 C385.791049,1889.5592 384.496085,1890.60374 383.621087,1891.74479 C336.426616,1953.28934 281.850437,2008.2592 289.822952,2090.58491 C294.018916,2133.91324 337.004692,2166.62018 364.294794,2195.61198 C432.202602,2267.75422 522.122632,2362.63172 632.193601,2347.4039 C642.159708,2346.02514 662.725702,2330.20344 668.519874,2325.5127 C695.490473,2303.67833 717.383077,2272.92927 736.430321,2244.4049 C754.689204,2217.06115 758.240208,2174.81638 760.498714,2146.31204 C764.460789,2096.30714 764.966738,2037.00321 744.393469,1988.88327 C730.224662,1955.74308 712.925519,1950.84508 686.131257,1929.14475 C660.906777,1908.71576 691.507286,1926.43245 656.053222,1903.09302 C622.534939,1881.02792 645.24825,1897.54861 617.654145,1885.27287 C606.101667,1880.13354 579.619984,1862.29566 563.492805,1862.06939 C534.058895,1861.65641 504.57136,1863.74677 475.182383,1862.06939 C473.504998,1861.97365 475.182383,1858.70916 475.182383,1857.02904" id="Path-294" stroke="#000000"></path>
        <path d="M2915.44085,1844.51474 C2880.41586,1849.80859 2845.32262,1854.48725 2810.36588,1860.3963 C2809.1805,1860.59668 2808.10245,1861.64121 2807.37402,1862.78226 C2768.08501,1924.32681 2722.65077,1979.29667 2729.28783,2061.62238 C2732.78094,2104.95071 2768.56625,2137.65766 2791.28504,2166.64945 C2847.81775,2238.79169 2922.67545,2333.66919 3014.30865,2318.44138 C3022.60535,2317.06261 3039.72638,2301.24092 3044.54998,2296.55017 C3067.00279,2274.7158 3085.22821,2243.96675 3101.08488,2215.44237 C3116.28526,2188.09862 3119.24144,2145.85385 3121.12163,2117.34951 C3124.42002,2067.34461 3124.84122,2008.04069 3107.71414,1959.92075 C3095.91872,1926.78055 3081.51733,1921.88256 3059.21132,1900.18222 C3038.21214,1879.75323 3063.68682,1897.46992 3034.17159,1874.1305 C3006.26789,1852.06539 3025.17654,1868.58608 3002.20467,1856.31034 C2992.58732,1851.17101 2970.54154,1833.33313 2957.11579,1833.10686 C2932.61229,1832.69388 2908.06416,1834.78424 2883.59807,1833.10686 C2882.20166,1833.01112 2883.59807,1829.74663 2883.59807,1828.06651" id="Path-294-Copy" stroke="#000000" transform="translate(2925.780546, 2074.067176) scale(-1, -1) rotate(-2.000000) translate(-2925.780546, -2074.067176) "></path>
        <path d="M327.058873,1923.31405 C414.235963,2007.62302 498.656109,2094.87931 588.590144,2176.24095 C653.515385,2234.9776 661.307918,2228.61425 715.553152,2263.70137 C717.49805,2264.95938 721.962121,2266.85984 720.459287,2268.62242 C718.935204,2270.40992 716.383268,2266.28616 714.345259,2265.11804" id="Path-295" stroke="#000000"></path>
        <path d="M2760.52613,1894.29928 C2833.10036,1978.60825 2903.37946,2065.86454 2978.24882,2147.22618 C3032.29856,2205.96283 3038.78578,2199.59948 3083.94451,2234.6866 C3085.56362,2235.94461 3089.27992,2237.84506 3088.02882,2239.60765 C3086.76004,2241.39515 3084.63557,2237.27139 3082.93895,2236.10326" id="Path-295-Copy" stroke="#000000" transform="translate(2924.403860, 2067.174903) scale(-1, -1) rotate(-2.000000) translate(-2924.403860, -2067.174903) "></path>
        <path d="M703.906675,1919.57107 C632.800033,2007.37945 549.504753,2086.58493 490.58675,2182.9962 L488.394648,2184.0848 C482.189258,2194.23907 475.752974,2204.33979 470.902563,2215.20669 C457.222129,2245.85646 504.054816,2183.06459 461.090294,2239.21543 C457.005607,2244.55376 452.396031,2249.52719 447.385924,2254.0084 C446.878884,2254.46191 445.898086,2253.69915 445.551716,2253.11366 C444.07883,2250.62399 443.27511,2247.79496 442.136807,2245.1356" id="Path-296" stroke="#000000"></path>
        <path d="M3074.54965,1891.98883 C3015.35394,1979.79721 2946.01129,2059.00268 2896.96252,2155.41396 L2895.13762,2156.50255 C2889.97168,2166.65683 2884.61352,2176.75754 2880.5756,2187.62445 C2869.18674,2218.27422 2908.17458,2155.48235 2872.40696,2211.63319 C2869.00649,2216.97152 2865.16906,2221.94495 2860.99818,2226.42616 C2860.57608,2226.87967 2859.75957,2226.1169 2859.47122,2225.53142 C2858.24505,2223.04174 2857.57596,2220.21271 2856.62834,2217.55336" id="Path-296-Copy" stroke="#000000" transform="translate(2965.588994, 2059.276354) scale(-1, -1) rotate(-2.000000) translate(-2965.588994, -2059.276354) "></path>
        <path d="M1147.02457,879.336333 C1116.74771,898.09596 1078.48112,907.832209 1056.19398,935.615215 C1008.81263,994.680491 1116.76635,1027.41825 1137.79388,1037.19755 C1152.03133,1043.81898 1180.06722,1054.93135 1199.36662,1057.71683 C1202.62843,1058.1876 1206.43978,1059.43273 1209.25345,1057.71683 C1212.45518,1055.76425 1213.5933,1051.54133 1215.11397,1048.11333 C1219.4166,1038.41399 1223.32811,1028.52335 1226.67097,1018.45284 C1227.13028,1017.06915 1243.02325,965.02643 1244.19288,953.748527 C1245.16714,944.354478 1249.89894,932.94106 1244.19288,925.415227 C1213.0963,884.401363 1197.18588,885.85115 1157.5079,876.786336 L1147.02457,879.336333 Z" id="Path-297" stroke="#000000"></path>
        <path d="M3482.20976,869.072018 C3457.00451,887.831645 3425.14789,897.567894 3406.59402,925.350899 C3367.14942,984.416176 3457.02003,1017.15393 3474.52528,1026.93324 C3486.37785,1033.55467 3509.7175,1044.66703 3525.78409,1047.45251 C3528.49952,1047.92329 3531.67245,1049.16842 3534.0148,1047.45251 C3536.68022,1045.49994 3537.62769,1041.27702 3538.89363,1037.84901 C3542.47554,1028.14967 3545.73184,1018.25903 3548.51475,1008.18852 C3548.89712,1006.80484 3562.12789,954.762115 3563.1016,943.484211 C3563.91266,934.090163 3567.85185,922.676745 3563.1016,915.150911 C3537.21395,874.137047 3523.96865,875.586835 3490.93704,866.522021 L3482.20976,869.072018 Z" id="Path-297-Copy" stroke="#000000" transform="translate(3481.044701, 957.426462) scale(-1, -1) rotate(-2.000000) translate(-3481.044701, -957.426462) "></path>
        <path d="M1082.82728,902.107359 C1119.48162,924.639789 1156.46365,946.64765 1192.79031,969.704648 C1210.40286,980.883562 1226.75491,994.006606 1244.61042,1004.7932 C1249.21408,1007.57429 1236.70693,997.496136 1232.75518,993.847602" id="Path-298" stroke="#000000"></path>
        <path d="M3429.24522,892.391837 C3459.75967,914.924267 3490.54691,936.932128 3520.78856,959.989126 C3535.45087,971.16804 3549.06382,984.291084 3563.92839,995.077681 C3567.7609,997.858771 3557.34879,987.780614 3554.05899,984.13208" id="Path-298-Copy" stroke="#000000" transform="translate(3497.004479, 943.974288) scale(-1, -1) rotate(-2.000000) translate(-3497.004479, -943.974288) "></path>
        <path d="M1227.37185,914.409976 C1165.19493,914.409976 1217.52245,911.649115 1099.21586,1005.44934" id="Path-299" stroke="#000000"></path>
        <path d="M3549.36027,904.663732 C3497.59848,904.663732 3541.16073,901.902871 3442.67144,995.703098" id="Path-299-Copy" stroke="#000000" transform="translate(3496.015852, 950.179148) scale(-1, -1) rotate(-2.000000) translate(-3496.015852, -950.179148) "></path>
        <path d="M1038.29926,1313.86477 C1011.35778,1311.72237 982.751024,1297.86961 957.474798,1307.43758 C897.916453,1329.98258 874.694878,1398.135 896.707325,1453.32425 C905.513408,1475.40272 924.581335,1497.62928 939.252012,1513.16717 C982.855334,1559.34797 1074.17558,1570.28246 1134.70705,1566.32938 C1145.65879,1565.61417 1160.46,1549.209 1166.05262,1542.48468 C1190.35695,1513.26226 1194.06059,1459.1317 1184.64821,1425.18481 C1180.55507,1410.4224 1176.49493,1395.59696 1170.95876,1381.31294 C1167.80626,1373.17909 1163.24288,1365.63749 1158.68596,1358.19893 C1120.39396,1295.6923 1094.87607,1303.17419 1018.22736,1307.55688 C1004.81539,1308.32376 991.827205,1313.50048 979.306351,1317.96564" id="Path-300" stroke="#000000"></path>
        <path d="M3375.42148,1300.2169 C3352.9929,1298.07451 3329.17801,1284.22175 3308.13576,1293.78972 C3258.55391,1316.33472 3239.22214,1384.48713 3257.54732,1439.67639 C3264.87832,1461.75486 3280.75221,1483.98141 3292.96543,1499.5193 C3329.26485,1545.7001 3405.28822,1556.63459 3455.68018,1552.68152 C3464.79742,1551.9663 3477.11931,1535.56113 3481.77512,1528.83681 C3502.00828,1499.61439 3505.09153,1445.48383 3497.2558,1411.53695 C3493.8483,1396.77454 3490.46826,1381.94909 3485.85944,1367.66507 C3483.23501,1359.53123 3479.43603,1351.98962 3475.64244,1344.55106 C3443.76465,1282.04444 3422.52121,1289.52632 3358.71177,1293.90901 C3347.54642,1294.6759 3336.73386,1299.85262 3326.31035,1304.31777" id="Path-300-Copy" stroke="#000000" transform="translate(3375.985255, 1421.941342) scale(-1, -1) rotate(-2.000000) translate(-3375.985255, -1421.941342) "></path>
        <path d="M909.994152,1347.81999 C1103.08506,1464.69644 1032.39789,1409.98762 1134.24476,1494.85491" id="Path-301" stroke="#000000"></path>
        <path d="M3269.11443,1333.69105 C3429.86106,1450.5675 3371.01455,1395.85867 3455.80126,1480.72597" id="Path-301-Copy" stroke="#000000" transform="translate(3362.457845, 1407.208508) scale(-1, -1) rotate(-2.000000) translate(-3362.457845, -1407.208508) "></path>
        <path d="M1155.43509,1320.57529 C1051.75809,1396.93436 1132.51469,1331.33856 979.410737,1555.38378 C970.518126,1568.39682 971.9257,1569.06456 967.525663,1559.26097" id="Path-302" stroke="#000000"></path>
        <path d="M3472.65666,1307.57656 C3386.34639,1383.93563 3453.57561,1318.33983 3326.1178,1542.38506 C3318.71477,1555.39809 3319.88656,1556.06584 3316.22357,1546.26224" id="Path-302-Copy" stroke="#000000" transform="translate(3394.440116, 1430.270776) scale(-1, -1) rotate(-2.000000) translate(-3394.440116, -1430.270776) "></path>
        <path d="M1203.54205,390.154453 C1170.75496,404.17198 1136.9935,416.100063 1105.18076,432.207035 C1103.04646,433.287644 1105.61488,437.057784 1106.58252,439.245623 C1111.6224,450.640881 1115.7885,462.693752 1123.12022,472.768391 C1150.2638,510.066874 1189.60962,565.900175 1241.64288,576.035813 C1265.23172,580.630719 1289.30138,582.379676 1313.23666,584.535803 C1315.62025,584.750521 1318.08121,584.075076 1320.27525,583.119138 C1333.27681,577.454389 1336.03789,573.602512 1344.47785,561.019164 C1363.64898,532.436452 1408.71486,457.931634 1382.51903,421.321083 C1342.2309,365.015505 1285.03367,361.88905 1222.37624,384.428144 L1203.54205,390.154453 Z" id="Path-303" stroke="#000000"></path>
        <path d="M3546.29986,383.146181 C3519.00486,397.163708 3490.89872,409.091792 3464.41487,425.198763 C3462.63808,426.279372 3464.77627,430.049512 3465.58182,432.237351 C3469.77749,443.63261 3473.24573,455.68548 3479.34932,465.760119 C3501.94614,503.058602 3534.70122,558.891903 3578.01849,569.027541 C3597.65601,573.622447 3617.69381,575.371404 3637.61974,577.527531 C3639.60406,577.742249 3641.65278,577.066804 3643.47931,576.110866 C3654.303,570.446117 3656.60158,566.59424 3663.62778,554.010892 C3679.58759,525.42818 3717.10457,450.923362 3695.29676,414.312811 C3661.75721,358.007233 3614.14097,354.880778 3561.97917,377.419872 L3546.29986,383.146181 Z" id="Path-303-Copy" stroke="#000000" transform="translate(3582.833881, 470.951234) scale(-1, -1) rotate(-2.000000) translate(-3582.833881, -470.951234) "></path>
        <path d="M1135.72108,394.136027 C1277.37462,483.211409 1246.7267,459.983954 1319.87262,515.402551 C1325.85315,519.933669 1332.02677,524.409916 1338.88575,527.45166 C1341.37131,528.553926 1344.37334,526.934797 1347.04276,527.45166 C1362.84191,530.510741 1380.03931,536.482502 1393.1813,545.793743 C1393.53124,546.041679 1394.37682,546.412592 1394.07604,546.718304 C1393.65421,547.147045 1392.78579,547.030429 1392.27165,546.718304" id="Path-304" stroke="#000000"></path>
        <path d="M3490.08856,387.640787 C3608.014,476.716169 3582.49985,453.488714 3643.39324,508.907311 C3648.37199,513.438429 3653.51148,517.914676 3659.22152,520.95642 C3661.29073,522.058686 3663.78989,520.439557 3666.01217,520.95642 C3679.16483,524.015501 3693.48153,529.987261 3704.42213,539.298503 C3704.71345,539.546439 3705.41739,539.917351 3705.16699,540.223064 C3704.81583,540.651804 3704.09287,540.535189 3703.66486,540.223064" id="Path-304-Copy" stroke="#000000" transform="translate(3597.654227, 464.071688) scale(-1, -1) rotate(-2.000000) translate(-3597.654227, -464.071688) "></path>
        <path d="M1362.56643,387.887789 C1283.11735,428.020059 1353.11812,389.931351 1204.51135,538.3227 C1189.12894,553.682805 1172.87747,568.147226 1157.06053,583.059489" id="Path-305" stroke="#000000"></path>
        <path d="M3678.41785,381.234805 C3612.27713,421.367075 3670.55221,383.278367 3546.83827,531.669716 C3534.03254,547.029821 3520.50331,561.494242 3507.33584,576.406505" id="Path-305-Copy" stroke="#000000" transform="translate(3592.876845, 478.820655) scale(-1, -1) rotate(-2.000000) translate(-3592.876845, -478.820655) "></path>
        <path d="M1839.37113,224.538858 C1816.72934,226.830376 1788.43318,216.269786 1771.44577,231.413412 C1751.60069,249.104539 1751.99432,281.173125 1746.63176,307.212445 C1743.62685,321.803593 1736.65434,340.841858 1746.63176,351.904498 L1747.72036,356.258879 C1779.12033,391.07412 1810.09488,420.690869 1855.68514,434.861418 C1878.07276,441.820025 1917.84863,454.688991 1938.13505,435.129839 C1947.27727,426.315361 1956.67336,417.612538 1964.41045,407.542152 C1967.74961,403.195997 1972.67716,387.012366 1973.07448,380.893937 C1974.13911,364.499404 1976.49143,347.915583 1974.37185,331.62382 C1971.14254,306.802351 1929.65709,261.870969 1910.89034,250.993213 C1894.39825,241.433914 1875.70731,236.298192 1857.9369,229.400256 C1852.02209,227.10431 1788.86329,236.694662 1788.86329,217.858164" id="Path-306" stroke="#000000"></path>
        <path d="M4080.41791,235.368877 C4061.5688,237.660395 4038.01248,227.099805 4023.87059,242.243431 C4007.34972,259.934558 4007.67742,292.003144 4003.21313,318.042464 C4000.71157,332.633612 3994.907,351.671877 4003.21313,362.734517 L4004.11938,367.088898 C4030.2596,401.904139 4056.04566,431.520888 4093.9992,445.691437 C4112.63671,452.650044 4145.7498,465.51901 4162.63808,445.959857 C4170.24891,437.14538 4178.07108,428.442557 4184.51215,418.372171 C4187.29197,414.026016 4191.39411,397.842385 4191.72488,391.723956 C4192.61118,375.329422 4194.56946,358.745602 4192.80493,342.453839 C4190.11655,317.63237 4155.58025,272.700988 4139.95708,261.823232 C4126.22755,252.263933 4110.66749,247.128211 4095.87376,240.230275 C4090.94974,237.934329 4038.37054,247.524681 4038.37054,228.688183" id="Path-306-Copy" stroke="#000000" transform="translate(4096.209103, 342.504950) scale(-1, -1) rotate(-2.000000) translate(-4096.209103, -342.504950) "></path>
        <path d="M1743.14229,275.971254 C1844.20744,342.138017 1883.67023,359.107795 1956.08941,423.170203 C1960.94515,427.465614 1974.35325,433.411476 1969.28676,437.456152 C1964.14372,441.561947 1959.30549,428.87663 1954.31485,424.586868" id="Path-307" stroke="#000000"></path>
        <path d="M3999.42105,286.740373 C4083.55698,352.907136 4116.40943,369.876914 4176.69782,433.939322 C4180.74018,438.234733 4191.90232,444.180595 4187.68451,448.225271 C4183.40296,452.331066 4179.37518,439.645749 4175.22051,435.355987" id="Path-307-Copy" stroke="#000000" transform="translate(4094.021062, 367.886230) scale(-1, -1) rotate(-2.000000) translate(-4094.021062, -367.886230) "></path>
        <path d="M1774.75629,420.650031 C1826.62611,364.008285 1878.15041,307.048177 1930.36576,250.724792 C1932.86619,248.027639 1940.76671,252.20066 1926.1605,247.41427" id="Path-308" stroke="#000000"></path>
        <path d="M4026.54613,431.374398 C4069.72734,374.732652 4112.62091,317.772543 4156.08976,261.449159 C4158.17135,258.752005 4164.74847,262.925027 4152.58892,258.138637" id="Path-308-Copy" stroke="#000000" transform="translate(4093.142476, 344.756517) scale(-1, -1) rotate(-2.000000) translate(-4093.142476, -344.756517) "></path>
        <path d="M1609.20035,1076.71505 C1566.53636,1042.19813 1523.11663,1008.59497 1481.20839,973.164293 C1479.27347,971.528439 1478.22423,968.640063 1478.37506,966.110793 C1479.78607,942.450322 1476.85524,917.327941 1485.84611,895.396841 C1489.75512,885.86172 1503.90539,885.43254 1513.23993,881.066156 C1530.13547,873.162992 1547.62724,866.573984 1564.49338,858.608288 C1594.59232,844.392887 1649.70731,811.158092 1682.67307,835.539016 C1716.77255,860.758429 1726.64673,914.569412 1730.1388,953.181861 C1731.89387,972.588016 1734.30502,992.60318 1730.1388,1011.63793 C1726.96783,1026.12556 1716.44811,1037.97222 1708.79935,1050.67824 C1695.84578,1072.19652 1676.97857,1066.71935 1654.71257,1070.37734 C1652.19677,1070.79065 1625.19243,1080.71782 1617.0442,1077.01329 C1615.05976,1076.11109 1616.87224,1072.50413 1615.8363,1070.58611 C1614.28048,1067.70553 1611.6211,1065.57559 1609.5135,1063.07033" id="Path-309" stroke="#000000"></path>
        <path d="M3867.26967,1079.81825 C3831.75225,1045.30134 3795.60567,1011.69818 3760.7174,976.267499 C3759.10659,974.631645 3758.23311,971.743269 3758.35867,969.213999 C3759.53333,945.553528 3757.09343,920.431147 3764.57826,898.500047 C3767.83248,888.964926 3779.61247,888.535746 3787.3834,884.169362 C3801.4488,876.266199 3816.01056,869.67719 3830.05148,861.711494 C3855.10861,847.496093 3900.9914,814.261299 3928.43513,838.642223 C3956.82268,863.861635 3965.04285,917.672618 3967.94997,956.285067 C3969.41105,975.691222 3971.41831,995.706387 3967.94997,1014.74114 C3965.31016,1029.22877 3956.55258,1041.07543 3950.18505,1053.78144 C3939.40131,1075.29973 3923.6945,1069.82256 3905.15824,1073.48054 C3903.06385,1073.89385 3880.58296,1083.82103 3873.79962,1080.1165 C3872.14759,1079.21429 3873.65646,1075.60734 3872.79406,1073.68931 C3871.49885,1070.80874 3869.28494,1068.67879 3867.53038,1066.17353" id="Path-309-Copy" stroke="#000000" transform="translate(3864.108252, 955.451180) scale(-1, -1) rotate(-2.000000) translate(-3864.108252, -955.451180) "></path>
        <path d="M1520.44256,861.217934 C1558.44397,896.743915 1597.09408,931.588468 1634.44681,967.795878 C1657.90224,990.532114 1680.47304,1014.17577 1702.81953,1038.00281 C1704.61037,1039.9123 1704.65045,1043.19985 1706.69672,1044.83263 C1707.93627,1045.8217 1709.86806,1044.8724 1711.45373,1044.89228" id="Path-310" stroke="#000000"></path>
        <path d="M3793.34267,864.62697 C3824.97855,900.152951 3857.15445,934.997504 3888.2503,971.204914 C3907.77676,993.94115 3926.56676,1017.58481 3945.17004,1041.41185 C3946.6609,1043.32133 3946.69426,1046.60889 3948.39777,1048.24167 C3949.42969,1049.23074 3951.03789,1048.28143 3952.35795,1048.30131" id="Path-310-Copy" stroke="#000000" transform="translate(3872.850309, 956.659789) scale(-1, -1) rotate(-2.000000) translate(-3872.850309, -956.659789) "></path>
        <path d="M1703.34146,873.833708 C1658.20701,926.106161 1612.36817,977.778599 1567.93811,1030.65107 C1561.95095,1037.77589 1558.58946,1046.94777 1552.19076,1053.70543 C1550.93927,1055.02713 1551.52468,1050.12648 1551.19164,1048.33701" id="Path-311" stroke="#000000"></path>
        <path d="M3945.22781,877.565108 C3907.65374,929.837561 3869.49327,981.509999 3832.5056,1034.38247 C3827.52134,1041.50729 3824.72292,1050.67917 3819.39606,1057.43683 C3818.3542,1058.75853 3818.84155,1053.85788 3818.5643,1052.06841" id="Path-311-Copy" stroke="#000000" transform="translate(3881.896054, 967.612637) scale(-1, -1) rotate(-2.000000) translate(-3881.896054, -967.612637) "></path>
        <path d="M1607.41087,1575.84341 C1559.67362,1552.55429 1527.95473,1549.88216 1502.39872,1506.85928 C1492.05194,1489.44075 1485.30375,1470.10593 1477.62945,1451.35584 C1464.6154,1419.55951 1465.62037,1409.80142 1462.79175,1370.48663 C1462.49024,1366.29606 1459.9713,1345.48327 1466.47508,1338.75334 C1515.89411,1287.61583 1594.64015,1271.43208 1661.438,1262.20869 C1693.87067,1257.73042 1770.92263,1244.87669 1798.22819,1265.44465 C1858.31179,1310.70272 1880.33139,1381.87761 1876.01056,1455.11373 C1875.19794,1468.88723 1854.4568,1497.40953 1852.41936,1500.37244 C1806.90174,1566.56557 1772.25091,1591.13123 1691.45639,1599.03198 C1659.51306,1602.15566 1644.86411,1602.87203 1620.42928,1590.59164 L1607.41087,1575.84341 Z" id="Path-312" stroke="#000000"></path>
        <path d="M3849.16335,1580.51354 C3809.42246,1557.22443 3783.01674,1554.5523 3761.74157,1511.52941 C3753.12796,1494.11088 3747.51014,1474.77606 3741.12135,1456.02597 C3730.28726,1424.22965 3731.12389,1414.47155 3728.76908,1375.15677 C3728.51808,1370.96619 3726.42108,1350.15341 3731.83542,1343.42347 C3772.97637,1292.28596 3838.53182,1276.10221 3894.1405,1266.87882 C3921.14043,1262.40055 3985.28557,1249.54682 4008.01724,1270.11478 C4058.03635,1315.37286 4076.36749,1386.54774 4072.77043,1459.78386 C4072.09393,1473.55737 4054.8271,1502.07966 4053.13095,1505.04258 C4015.23789,1571.23571 3986.39136,1595.80137 3919.13056,1603.70211 C3892.538,1606.82579 3880.34287,1607.54216 3860.00106,1595.26177 L3849.16335,1580.51354 Z" id="Path-312-Copy" stroke="#000000" transform="translate(3900.684552, 1432.217055) scale(-1, -1) rotate(-2.000000) translate(-3900.684552, -1432.217055) "></path>
        <path d="M1476.24261,1351.44367 C1497.0651,1359.99834 1518.19366,1367.84296 1538.71008,1377.10768 C1543.9669,1379.48153 1548.70442,1382.90629 1553.38375,1386.27872 C1590.29125,1412.87824 1624.69182,1443.15414 1663.43625,1466.9988 C1859.86341,1587.88685 1723.84282,1476.26404 1827.26237,1565.85219" id="Path-313" stroke="#000000"></path>
        <path d="M3738.8903,1355.58508 C3756.22486,1364.13975 3773.81422,1371.98437 3790.89397,1381.24908 C3795.27024,1383.62294 3799.21418,1387.0477 3803.10968,1390.42012 C3833.83488,1417.01965 3862.47308,1447.29555 3894.72751,1471.1402 C4058.25155,1592.02826 3945.0155,1480.40545 4031.11144,1569.9936" id="Path-313-Copy" stroke="#000000" transform="translate(3885.000874, 1462.789337) scale(-1, -1) rotate(-2.000000) translate(-3885.000874, -1462.789337) "></path>
        <path d="M1821.47641,1283.36919 C1811.27922,1293.69104 1659.77662,1442.43362 1616.14946,1496.07771 C1600.49635,1515.32482 1587.25613,1536.41955 1572.36706,1556.26361 C1565.74664,1565.08725 1576.62511,1541.66003 1568.17671,1562.2136" id="Path-314" stroke="#000000"></path>
        <path d="M4027.52421,1288.78389 C4019.03513,1299.10575 3892.91043,1447.84832 3856.59117,1501.49242 C3843.56008,1520.73953 3832.53771,1541.83425 3820.14267,1561.67831 C3814.63123,1570.50195 3823.68746,1547.07473 3816.65424,1567.6283" id="Path-314-Copy" stroke="#000000" transform="translate(3922.089224, 1428.206098) scale(-1, -1) rotate(-2.000000) translate(-3922.089224, -1428.206098) "></path>
        <path d="M1262.66918,2147.98221 C1248.1383,2035.28442 1238.80714,2084.03678 1304.82614,1966.9026 C1306.41484,1964.08385 1309.35369,1961.91942 1312.40157,1960.83331 C1344.52089,1949.38755 1376.97545,1938.8089 1409.77865,1929.50264 C1440.49093,1920.78958 1479.67866,1922.98939 1508.91538,1934.6772 C1541.38356,1947.65683 1564.02198,2024.28418 1567.4311,2052.48408 C1574.87947,2114.09642 1542.6811,2125.12848 1491.98996,2155.43834 C1438.27594,2187.55568 1401.80555,2194.19837 1338.87084,2191.95847 C1299.82906,2190.56894 1298.17514,2163.02433 1277.80512,2136.30591 C1272.54694,2129.40899 1264.44373,2136.79267 1264.44373,2126.3296" id="Path-315" stroke="#000000"></path>
        <path d="M3540.28797,2144.74474 C3528.19114,2032.04695 3520.42302,2080.79931 3575.38331,1963.66513 C3576.70589,1960.84638 3579.15245,1958.68195 3581.68979,1957.59584 C3608.42887,1946.15008 3635.44703,1935.57142 3662.75543,1926.26517 C3688.32315,1917.55211 3720.94663,1919.75192 3745.28596,1931.43973 C3772.31547,1944.41936 3791.16177,2021.04671 3793.99983,2049.2466 C3800.20054,2110.85895 3773.39565,2121.89101 3731.19569,2152.20087 C3686.47919,2184.31821 3656.11789,2190.9609 3603.72525,2188.721 C3571.22328,2187.33147 3569.8464,2159.78686 3552.88853,2133.06844 C3548.51113,2126.17152 3541.76528,2133.5552 3541.76528,2123.09213" id="Path-315-Copy" stroke="#000000" transform="translate(3663.231021, 2055.034706) scale(-1, -1) rotate(-2.000000) translate(-3663.231021, -2055.034706) "></path>
        <path d="M1283.69547,1993.08853 C1331.72787,2031.39316 1379.36966,2070.1928 1427.79267,2108.00243 C1444.91046,2121.36834 1471.48291,2133.56975 1487.36716,2149.41379" id="Path-316" stroke="#000000"></path>
        <path d="M3557.35182,1989.12208 C3597.3384,2027.42672 3636.99981,2066.22635 3677.31158,2104.03598 C3691.56201,2117.40189 3713.68336,2129.6033 3726.90687,2145.44734" id="Path-316-Copy" stroke="#000000" transform="translate(3642.129341, 2067.284712) scale(-1, -1) rotate(-2.000000) translate(-3642.129341, -2067.284712) "></path>
        <path d="M1495.10662,1964.33769 C1436.36722,2038.8493 1377.62781,2113.3609 1318.88841,2187.87251" id="Path-317" stroke="#000000"></path>
        <path d="M3733.16962,1960.99195 C3684.26954,2035.50356 3635.36946,2110.01517 3586.46937,2184.52678" id="Path-317-Copy" stroke="#000000" transform="translate(3659.819497, 2072.759366) scale(-1, -1) rotate(-2.000000) translate(-3659.819497, -2072.759366) "></path>
        <path d="M986.180904,1994.96748 C971.571857,1963.36839 949.894345,1934.15648 942.353763,1900.17022 C939.883656,1889.03717 963.963286,1849.47642 971.760746,1838.85099 C1006.77228,1791.14156 1031.16927,1791.41838 1090.25359,1781.49843 C1093.36074,1780.97676 1102.97814,1781.31943 1106.37375,1782.90018 C1123.82742,1791.02538 1137.61732,1806.25348 1150.36492,1819.79312 C1191.84832,1863.854 1231.87594,1967.66122 1167.18595,2011.4157 C1150.83053,2022.47805 1101.10155,2031.87714 1090.10447,2033.26217 C1076.84287,2034.9324 1063.22071,2035.26587 1050.00539,2033.26217 C1034.92553,2030.97577 1006.02878,2012.37417 994.949315,2005.98764 L986.180904,1994.96748 Z" id="Path-318" stroke="#000000"></path>
        <path d="M3315.53136,1981.98276 C3303.36944,1950.38368 3285.32309,1921.17177 3279.04561,1887.18551 C3276.98927,1876.05245 3297.03537,1836.4917 3303.52669,1825.86628 C3332.67351,1778.15685 3352.98381,1778.43367 3402.17103,1768.51372 C3404.75771,1767.99204 3412.76412,1768.33471 3415.59093,1769.91547 C3430.12097,1778.04067 3441.60096,1793.26877 3452.21323,1806.80841 C3486.74783,1850.86929 3520.0705,1954.67651 3466.21661,1998.43099 C3452.60085,2009.49333 3411.20187,2018.89243 3402.04689,2020.27745 C3391.00672,2021.94769 3379.66638,2022.28116 3368.66473,2020.27745 C3356.11087,2017.99105 3332.05455,1999.38946 3322.83099,1993.00293 L3315.53136,1981.98276 Z" id="Path-318-Copy" stroke="#000000" transform="translate(3386.730265, 1894.972479) scale(-1, -1) rotate(-2.000000) translate(-3386.730265, -1894.972479) "></path>
        <path d="M958.354621,1868.77991 C989.874175,1887.61409 1023.62218,1903.1411 1052.91328,1925.28247 C1079.51852,1945.39358 1100.58027,1971.95005 1124.95443,1994.71397 C1130.24272,1999.65291 1135.71567,2004.50594 1141.85002,2008.34378 C1145.68239,2010.74142 1150.05317,2012.45173 1154.51053,2013.20517 C1155.74923,2013.41456 1153.06901,2011.14728 1152.34825,2010.11834" id="Path-319" stroke="#000000"></path>
        <path d="M3291.22071,1855.336 C3317.46048,1874.17019 3345.55543,1889.6972 3369.94004,1911.83857 C3392.08869,1931.94967 3409.62242,1958.50614 3429.91371,1981.27006 C3434.31618,1986.209 3438.87236,1991.06204 3443.97916,1994.89987 C3447.16957,1997.29752 3450.80821,1999.00782 3454.51893,1999.76127 C3455.55014,1999.97065 3453.31888,1997.70338 3452.71885,1996.67443" id="Path-319-Copy" stroke="#000000" transform="translate(3373.003997, 1927.555420) scale(-1, -1) rotate(-2.000000) translate(-3373.003997, -1927.555420) "></path>
        <path d="M1139.61318,1792.11596 C1139.61318,1799.13467 1142.23117,1806.65991 1139.61318,1813.17208 C1086.66253,1944.88541 1096.17984,1910.69964 1020.50893,2013.27974 C1019.79189,2014.25177 1020.71959,2018.0928 1020.50893,2016.90342 C1019.50054,2011.21007 1018.90835,2005.4508 1018.10806,1999.72449" id="Path-320" stroke="#000000"></path>
        <path d="M3443.37494,1779.35805 C3443.37494,1786.37675 3445.55439,1793.90199 3443.37494,1800.41417 C3399.29395,1932.1275 3407.21704,1897.94173 3344.22161,2000.52182 C3343.62468,2001.49386 3344.39698,2005.33489 3344.22161,2004.1455 C3343.38213,1998.45216 3342.88914,1992.69289 3342.2229,1986.96658" id="Path-320-Copy" stroke="#000000" transform="translate(3393.283244, 1891.864884) scale(-1, -1) rotate(-2.000000) translate(-3393.283244, -1891.864884) "></path>
        <path d="M477.523608,2982.42772 C466.985609,2932.92895 454.410236,2883.82045 445.90961,2833.9314 C443.835628,2821.75948 440.919374,2808.18335 445.90961,2796.88934 C447.549531,2793.17783 473.803995,2752.31166 492.570081,2743.83151 C522.390127,2730.35621 551.389001,2714.32397 582.804186,2705.16401 C613.894809,2696.09868 630.706131,2704.19178 652.489191,2721.71662 C709.91807,2767.91913 740.55175,2802.80662 753.62416,2877.54977 C762.614852,2928.95518 752.332874,2999.00721 702.549659,3028.20837 C673.379697,3045.31848 631.826326,3052.21927 599.162938,3054.37939 C576.644902,3055.86857 554.024835,3054.78544 531.461264,3054.37939 C529.667642,3054.34711 527.885262,3053.78664 526.241972,3053.06711 C500.765055,3041.91186 518.210553,3048.89255 493.211309,3027.86538 C456.933078,2997.35132 452.741447,3003.32225 446.491188,2954.16898" id="Path-321" stroke="#000000"></path>
        <path d="M2858.45382,2955.14292 C2849.68102,2905.64415 2839.21212,2856.53565 2832.13542,2806.64661 C2830.40884,2794.47468 2827.98108,2780.89855 2832.13542,2769.60454 C2833.50064,2765.89304 2855.35727,2725.02687 2870.97989,2716.54671 C2895.80483,2703.07141 2919.94616,2687.03918 2946.09905,2677.87921 C2971.98175,2668.81388 2985.97704,2676.90698 3004.11126,2694.43182 C3051.92034,2740.63433 3077.42264,2775.52183 3088.30531,2850.26497 C3095.78999,2901.67039 3087.23033,2971.72241 3045.7862,3000.92357 C3021.50244,3018.03369 2986.90959,3024.93447 2959.71758,3027.09459 C2940.9715,3028.58377 2922.14048,3027.50064 2903.35648,3027.09459 C2901.86331,3027.06231 2900.37949,3026.50184 2899.01146,3025.78231 C2877.80213,3014.62706 2892.32537,3021.60776 2871.5137,3000.58059 C2841.31237,2970.06652 2837.82287,2976.03745 2832.61958,2926.88418" id="Path-321-Copy" stroke="#000000" transform="translate(2960.292466, 2850.993213) scale(-1, -1) rotate(-2.000000) translate(-2960.292466, -2850.993213) "></path>
        <path d="M462.700818,2797.50074 C531.918573,2849.38548 601.340859,2900.99847 670.354083,2953.15495 C673.800834,2955.75982 676.527107,2959.25424 680.047054,2961.75932 C711.704373,2984.28922 699.884599,2970.61286 730.480328,2998.92068 C733.573885,3001.78291 741.823578,3006.32149 738.39874,3008.77769 C734.784026,3011.37006 731.15138,3003.61804 727.5277,3001.03822" id="Path-322" stroke="#000000"></path>
        <path d="M2845.23663,2770.23275 C2902.85986,2822.11748 2960.65335,2873.73047 3018.10631,2925.88695 C3020.9757,2928.49182 3023.2453,2931.98625 3026.17563,2934.49133 C3052.53009,2957.02122 3042.69023,2943.34487 3068.16093,2971.65269 C3070.73629,2974.51491 3077.60409,2979.05349 3074.75294,2981.50969 C3071.74372,2984.10206 3068.71957,2976.35005 3065.70289,2973.77023" id="Path-322-Copy" stroke="#000000" transform="translate(2960.335051, 2876.132781) scale(-1, -1) rotate(-2.000000) translate(-2960.335051, -2876.132781) "></path>
        <path d="M717.432098,2775.13235 C645.513397,2861.93906 582.284784,2943.54956 510.524446,3024.67416 C509.549401,3025.77644 508.861454,3027.17805 508.526203,3028.611 C506.494157,3037.29649 506.229915,3046.40863 503.456034,3054.8864 C503.093724,3055.99373 501.266522,3053.84293 500.577967,3052.90307 C499.831072,3051.88359 499.772705,3050.50717 499.370073,3049.30922" id="Path-323" stroke="#000000"></path>
        <path d="M3056.88407,2748.07342 C2997.01233,2834.88013 2944.37502,2916.49063 2884.63511,2997.61523 C2883.82339,2998.71751 2883.25068,3000.11912 2882.97159,3001.55207 C2881.27993,3010.23757 2881.05995,3019.3497 2878.75072,3027.82748 C2878.4491,3028.9348 2876.92796,3026.784 2876.35475,3025.84415 C2875.73296,3024.82466 2875.68437,3023.44824 2875.34919,3022.25029" id="Path-323-Copy" stroke="#000000" transform="translate(2966.116630, 2888.105080) scale(-1, -1) rotate(-2.000000) translate(-2966.116630, -2888.105080) "></path>
        <path d="M1109.77374,2863.33838 C1076.49173,2801.71982 1039.58632,2761.91087 1084.42289,2698.37893 C1095.27331,2683.00425 1145.59967,2661.068 1150.51404,2658.87634 C1170.00445,2650.18423 1191.5864,2645.46218 1212.86222,2644.53075 C1259.42,2642.49249 1282.74774,2632.23529 1308.39017,2668.24125 C1341.11463,2714.19147 1364.0607,2816.93259 1328.10419,2863.01031 C1317.05088,2877.17495 1292.15903,2883.71935 1276.5674,2885.30415 C1209.2947,2892.14203 1218.3978,2887.77104 1164.53157,2873.71732 C1157.63052,2871.91683 1132.69528,2868.93502 1124.55179,2862.84628 C1105.96368,2848.94828 1103.13649,2841.67812 1092.22201,2824.28317" id="Path-324" stroke="#000000"></path>
        <path d="M3388.44164,2853.70421 C3360.73463,2792.08565 3330.01117,2752.2767 3367.33726,2688.74476 C3376.37014,2673.37008 3418.26644,2651.43383 3422.35761,2649.24217 C3438.58322,2640.55006 3456.55002,2635.82801 3474.26197,2634.89657 C3513.02095,2632.85831 3532.44111,2622.60112 3553.78823,2658.60707 C3581.03108,2704.55729 3600.13349,2807.29841 3570.19998,2853.37614 C3560.9982,2867.54078 3540.27593,2874.08517 3527.29603,2875.66997 C3471.29204,2882.50786 3478.8703,2878.13686 3434.02709,2864.08315 C3428.28202,2862.28266 3407.52364,2859.30085 3400.74425,2853.21211 C3385.26979,2839.3141 3382.91618,2832.04395 3373.82996,2814.64899" id="Path-324-Copy" stroke="#000000" transform="translate(3467.716534, 2755.417532) scale(-1, -1) rotate(-2.000000) translate(-3467.716534, -2755.417532) "></path>
        <path d="M1076.60887,2689.65526 C1171.9225,2689.65526 1087.58932,2684.79053 1264.7718,2828.41386 C1312.32667,2866.96163 1293.89399,2839.47255 1308.94193,2864.18838" id="Path-325" stroke="#000000"></path>
        <path d="M3360.42443,2679.6587 C3439.77226,2679.6587 3369.56557,2674.79397 3517.06856,2818.4173 C3556.65761,2856.96507 3541.31255,2829.47599 3553.83984,2854.19182" id="Path-325-Copy" stroke="#000000" transform="translate(3457.132132, 2766.915469) scale(-1, -1) rotate(-2.000000) translate(-3457.132132, -2766.915469) "></path>
        <path d="M1288.27353,2641.93601 C1251.76081,2697.78669 1154.7865,2828.17819 1125.90881,2909.62605" id="Path-326" stroke="#000000"></path>
        <path d="M3536.66577,2632.35607 C3506.26922,2688.20674 3425.53889,2818.59825 3401.49844,2900.0461" id="Path-326-Copy" stroke="#000000" transform="translate(3469.082109, 2766.201084) scale(-1, -1) rotate(-2.000000) translate(-3469.082109, -2766.201084) "></path>
        <path d="M959.473041,2526.05282 C960.91456,2478.23416 961.98988,2430.40306 963.797597,2382.59685 C963.865337,2380.80542 963.62761,2378.40744 965.094964,2377.37755 C1005.4345,2349.06453 1046.19235,2334.42427 1095.68165,2333.04339 C1110.27453,2332.63622 1129.55702,2356.79756 1136.00441,2362.43547 C1155.12668,2379.15689 1147.71562,2364.35188 1172.15174,2395.76437 C1193.73489,2423.50939 1200.48287,2471.9227 1195.5789,2504.92214 C1189.314,2547.07951 1128.13249,2567.56699 1093.37025,2570.61066 C1076.54839,2572.08353 1059.22267,2575.52425 1042.72821,2571.90803 C1028.92111,2568.88098 1018.19587,2557.83989 1005.6265,2551.37384 C982.445169,2539.44869 941.415337,2542.64113 938.521311,2508.56073" id="Path-327" stroke="#000000"></path>
        <path d="M3274.26801,2512.62272 C3275.46806,2464.80406 3276.36325,2416.97296 3277.86816,2369.16674 C3277.92456,2367.37532 3277.72665,2364.97734 3278.94821,2363.94745 C3312.53055,2335.63443 3346.46113,2320.99417 3387.66058,2319.61329 C3399.80903,2319.20612 3415.86156,2343.36746 3421.22896,2349.00536 C3437.14809,2365.72678 3430.97845,2350.92178 3451.32132,2382.33427 C3469.28912,2410.07929 3474.90676,2458.4926 3470.82424,2491.49204 C3465.60876,2533.64941 3414.67565,2554.13689 3385.73636,2557.18056 C3371.73229,2558.65343 3357.30877,2562.09415 3343.57726,2558.47793 C3332.08297,2555.45088 3323.15429,2544.40979 3312.69039,2537.94374 C3293.39212,2526.01859 3259.23511,2529.21102 3256.82586,2495.13063" id="Path-327-Copy" stroke="#000000" transform="translate(3364.457537, 2439.842821) scale(-1, -1) rotate(-2.000000) translate(-3364.457537, -2439.842821) "></path>
        <path d="M976.592319,2391.69333 C1026.04496,2391.69333 975.415647,2388.99035 1072.53782,2455.24939 C1175.5244,2525.50927 1127.28976,2477.90244 1189.65873,2533.10632 C1190.11657,2533.51156 1190.27755,2535.03614 1189.67365,2534.94053 C1188.25069,2534.71522 1187.27774,2533.33994 1186.07979,2532.53965" id="Path-328" stroke="#000000"></path>
        <path d="M3288.16146,2378.70802 C3329.33039,2378.70802 3287.18189,2376.00504 3368.03532,2442.26408 C3453.77082,2512.52396 3413.61587,2464.91713 3465.53754,2520.12101 C3465.91869,2520.52625 3466.0527,2522.05083 3465.54996,2521.95522 C3464.36536,2521.72991 3463.55539,2520.35463 3462.5581,2519.55434" id="Path-328-Copy" stroke="#000000" transform="translate(3377.019457, 2450.326078) scale(-1, -1) rotate(-2.000000) translate(-3377.019457, -2450.326078) "></path>
        <path d="M1169.51227,2365.85037 C991.730716,2603.49079 1116.97995,2450.60862 1025.38524,2547.36244 C1024.97517,2547.79561 1025.38524,2548.55542 1025.38524,2549.15191" id="Path-329" stroke="#000000"></path>
        <path d="M3448.96143,2353.27616 C3300.95971,2590.91658 3405.2287,2438.03441 3328.97684,2534.78823 C3328.63545,2535.22141 3328.97684,2535.98121 3328.97684,2536.5777" id="Path-329-Copy" stroke="#000000" transform="translate(3388.893271, 2444.926934) scale(-1, -1) rotate(-2.000000) translate(-3388.893271, -2444.926934) "></path>
        <path d="M2128.90763,956.641506 C2112.41964,938.080709 2084.17826,925.330012 2079.44365,900.959115 C2055.83887,779.45584 2092.56623,765.270099 2184.97774,741.099654 C2196.0336,738.207969 2208.28066,737.933379 2219.26103,741.099654 C2269.84403,755.685653 2284.33266,787.463576 2314.01355,832.00481 C2320.47034,841.694327 2325.06071,852.593961 2329.06003,863.529334 C2331.52507,870.269528 2332.78834,877.484152 2333.26528,884.645099 C2334.19618,898.621719 2335.15719,912.788622 2333.26528,926.667857 C2331.78937,937.495327 2305.36877,952.055383 2302.57585,953.405544 C2262.15743,972.944679 2244.8794,961.743275 2205.63122,953.957298 C2192.46011,951.344439 2178.809,951.701631 2165.65145,949.021339 C2154.32082,946.713205 2143.61831,941.95423 2132.42692,939.045035 C2121.14502,936.112311 2094.70149,936.58655 2087.69013,922.984528" id="Path-330" stroke="#000000"></path>
        <path d="M4303.13605,977.180559 C4289.40993,958.619762 4265.8992,945.869065 4261.95768,921.498169 C4242.30689,799.994894 4272.88212,785.809153 4349.81396,761.638708 C4359.01788,758.747023 4369.21346,758.472433 4378.35453,761.638708 C4420.46447,776.224707 4432.52614,808.00263 4457.23524,852.543864 C4462.61047,862.233381 4466.43192,873.133014 4469.76131,884.068388 C4471.81344,890.808582 4472.8651,898.023206 4473.26216,905.184153 C4474.03712,919.160772 4474.83716,933.327676 4473.26216,947.20691 C4472.03347,958.034381 4450.03854,972.594437 4447.71345,973.944598 C4414.06544,993.483733 4399.68162,982.282329 4367.00782,974.496352 C4356.04298,971.883493 4344.67854,972.240685 4333.72498,969.560393 C4324.29232,967.252259 4315.38257,962.493284 4306.06583,959.584089 C4296.67374,956.651364 4274.65971,957.125604 4268.82281,943.523581" id="Path-330-Copy" stroke="#000000" transform="translate(4365.164878, 872.097697) scale(-1, -1) rotate(-2.000000) translate(-4365.164878, -872.097697) "></path>
        <path d="M2095.87697,777.023296 C2139.05294,823.524703 2181.00384,871.194389 2225.40488,916.527518 C2235.78561,927.126159 2248.75939,934.847683 2259.97151,944.562572 C2265.08243,948.990999 2269.3926,954.273336 2274.31711,958.90817 C2274.82542,959.386577 2275.68314,960.306192 2276.19605,959.83273 C2276.69426,959.372848 2275.58962,958.619866 2275.2864,958.013434" id="Path-331" stroke="#000000"></path>
        <path d="M4275.05604,797.048904 C4310.99969,843.550311 4345.92348,891.219996 4382.88699,936.553125 C4391.52886,947.151767 4402.32943,954.873291 4411.66343,964.58818 C4415.91823,969.016607 4419.50641,974.298944 4423.60602,978.933777 C4424.02919,979.412184 4424.74323,980.331799 4425.17023,979.858338 C4425.58498,979.398456 4424.66538,978.645474 4424.41296,978.039042" id="Path-331-Copy" stroke="#000000" transform="translate(4350.166105, 888.519451) scale(-1, -1) rotate(-2.000000) translate(-4350.166105, -888.519451) "></path>
        <path d="M2268.51624,777.918032 C2207.03574,869.578864 2197.60662,875.966125 2164.87601,947.694148 C2164.50251,948.512664 2165.52526,949.770412 2164.87601,950.393267 C2164.3803,950.868825 2163.27207,950.100985 2163.0418,949.453795 C2161.7828,945.915342 2161.43128,942.116961 2160.62601,938.448545" id="Path-332" stroke="#000000"></path>
        <path d="M4418.91123,798.77342 C4367.72921,890.434253 4359.87954,896.821514 4332.63157,968.549536 C4332.32063,969.368052 4333.17206,970.6258 4332.63157,971.248656 C4332.2189,971.724213 4331.29631,970.956374 4331.1046,970.309183 C4330.0565,966.770731 4329.76386,962.97235 4329.09348,959.303933" id="Path-332-Copy" stroke="#000000" transform="translate(4374.002355, 885.084976) scale(-1, -1) rotate(-2.000000) translate(-4374.002355, -885.084976) "></path>
        <path d="M2257.80923,496.255205 C2245.88936,485.299663 2226.88827,478.838326 2222.04963,463.388577 C2208.70929,420.792994 2188.47654,371.561795 2205.88473,330.460663 C2220.17532,296.720266 2267.54301,290.063296 2301.39778,276.045815 C2334.16914,262.476918 2393.48845,306.196435 2411.04765,324.122952 C2432.61107,346.137452 2439.41303,405.512584 2433.65464,434.697383 C2428.67717,459.924302 2402.66171,484.856983 2386.36785,501.101691 C2365.47333,521.93318 2327.46229,544.790936 2295.32849,532.92446 C2282.72262,528.269324 2273.83494,516.789392 2263.08817,508.721857 L2257.80923,496.255205 Z" id="Path-333" stroke="#000000"></path>
        <path d="M4425.97849,520.377199 C4416.05529,509.421656 4400.23703,502.96032 4396.2089,487.510571 C4385.10318,444.914987 4368.25958,395.683789 4382.75176,354.582657 C4394.64856,320.84226 4434.08178,314.18529 4462.2656,300.167809 C4489.5475,286.598911 4538.93035,330.318429 4553.54824,348.244945 C4571.49962,370.259445 4577.1622,429.634578 4572.36838,458.819377 C4568.22467,484.046295 4546.56702,508.978976 4533.00251,525.223684 C4515.60799,546.055174 4483.9641,568.91293 4457.21297,557.046454 C4446.71868,552.391318 4439.31977,540.911385 4430.37317,532.843851 L4425.97849,520.377199 Z" id="Path-333-Copy" stroke="#000000" transform="translate(4475.564570, 428.949808) scale(-1, -1) rotate(-2.000000) translate(-4475.564570, -428.949808) "></path>
        <path d="M2196.93737,317.084363 C2219.96191,326.722656 2245.25036,332.142013 2266.01098,345.999242 C2373.6058,417.816297 2331.54819,397.501632 2383.84768,462.464017 C2399.67959,482.129189 2388.38422,459.480651 2394.28626,472.276286" id="Path-334" stroke="#000000"></path>
        <path d="M4375.66833,340.580309 C4394.83607,350.218602 4415.88851,355.637958 4433.17155,369.495187 C4522.74338,441.312243 4487.73076,420.997577 4531.26967,485.959962 C4544.4496,505.625135 4535.0463,482.976596 4539.9597,495.772231" id="Path-334-Copy" stroke="#000000" transform="translate(4457.814018, 418.176270) scale(-1, -1) rotate(-2.000000) translate(-4457.814018, -418.176270) "></path>
        <path d="M2395.35995,304.513326 C2377.04272,337.543988 2359.31023,370.905756 2340.40826,403.605314 C2322.67463,434.283691 2284.54353,479.425752 2277.58289,515.163955" id="Path-335" stroke="#000000"></path>
        <path d="M4540.3038,329.187153 C4525.05485,362.217816 4510.2927,395.579584 4494.55696,428.279142 C4479.79385,458.957519 4448.05002,504.09958 4442.25534,539.837783" id="Path-335-Copy" stroke="#000000" transform="translate(4491.279570, 434.512468) scale(-1, -1) rotate(-2.000000) translate(-4491.279570, -434.512468) "></path>
        <path d="M2362.67072,1466.49387 C2343.66436,1425.08748 2323.31535,1384.53026 2305.65165,1342.27471 C2304.13455,1338.64545 2304.61441,1333.95665 2305.65165,1330.0914 C2310.34032,1312.61916 2315.01848,1294.84933 2322.64689,1278.94233 C2324.99962,1274.03633 2330.03711,1271.37534 2334.56465,1269.80112 C2350.64461,1264.21011 2367.07523,1259.28514 2383.76268,1257.69236 C2414.58405,1254.75051 2469.31476,1245.29301 2497.5401,1277.65988 C2508.39634,1290.10906 2518.92278,1303.12642 2528.04213,1317.4458 C2533.49463,1326.00741 2540.28943,1347.48634 2542.76554,1358.87206 C2544.9912,1369.10614 2550.70671,1393.77916 2545.17392,1404.36938 C2517.00371,1458.28948 2467.67062,1484.54514 2415.4689,1460.70791 C2400.69504,1453.96162 2361.74598,1453.25196 2357.79188,1430.21233" id="Path-336" stroke="#000000"></path>
        <path d="M4586.61144,1621.31431 C4563.78077,1579.90792 4539.33727,1539.3507 4518.11942,1497.09515 C4516.29705,1493.46589 4516.87347,1488.77709 4518.11942,1484.91184 C4523.75151,1467.4396 4529.37097,1449.66977 4538.53431,1433.76277 C4541.36045,1428.85677 4547.41154,1426.19578 4552.85008,1424.62156 C4572.16553,1419.03055 4591.90221,1414.10558 4611.94738,1412.5128 C4648.97041,1409.57096 4714.71363,1400.11345 4748.61827,1432.48032 C4761.65892,1444.9295 4774.30342,1457.94686 4785.2577,1472.26624 C4791.80731,1480.82785 4799.96931,1502.30679 4802.94365,1513.6925 C4805.61713,1523.92658 4812.48268,1548.5996 4805.83662,1559.18982 C4771.9982,1613.10992 4712.73866,1639.36558 4650.0333,1615.52835 C4632.28675,1608.78206 4585.50063,1608.0724 4580.75092,1585.03277" id="Path-336-Copy" stroke="#000000" transform="translate(4662.804188, 1516.651821) scale(-1, -1) rotate(-2.000000) translate(-4662.804188, -1516.651821) "></path>
        <path d="M2321.18199,1297.64231 C2354.19586,1309.14464 2389.73383,1313.08133 2420.22359,1332.14929 C2445.60153,1348.02036 2464.43693,1375.92156 2484.85265,1400.00009 C2519.0626,1440.34768 2492.61165,1422.50737 2512.92147,1439.47285 C2513.90605,1440.2953 2514.92666,1441.36823 2516.12437,1441.44184 C2516.68808,1441.47564 2515.85445,1439.96401 2515.36709,1439.62197 C2513.54583,1438.34375 2511.45244,1437.73308 2509.49511,1436.78864" id="Path-337" stroke="#000000"></path>
        <path d="M4536.51094,1452.1498 C4576.16762,1463.65212 4618.85628,1467.58882 4655.48098,1486.65678 C4685.96528,1502.52785 4708.59059,1530.42905 4733.11422,1554.50757 C4774.20766,1594.85517 4742.43443,1577.01485 4766.83085,1593.98033 C4768.01354,1594.80279 4769.2395,1595.87572 4770.67821,1595.94933 C4771.35535,1595.98313 4770.35398,1594.4715 4769.76856,1594.12946 C4767.58084,1592.85124 4765.06623,1592.24057 4762.71506,1591.29613" id="Path-337-Copy" stroke="#000000" transform="translate(4653.707819, 1524.049564) scale(-1, -1) rotate(-2.000000) translate(-4653.707819, -1524.049564) "></path>
        <path d="M2503.88383,1265.20814 C2471.62529,1318.24284 2450.75466,1350.39654 2422.09816,1405.63692 C2421.39346,1406.99535 2422.40399,1408.88082 2422.09816,1410.43867 C2418.2352,1430.11588 2414.57149,1458.65189 2400.27375,1473.15965 C2399.84821,1473.59144 2399.7689,1471.96667 2399.51648,1471.37018" id="Path-338" stroke="#000000"></path>
        <path d="M4729.77466,1388.70942 C4691.02528,1441.74412 4665.95522,1473.89782 4631.53267,1529.1382 C4630.68618,1530.49663 4631.90004,1532.3821 4631.53267,1533.93995 C4626.89244,1553.61716 4622.49154,1582.15317 4605.31691,1596.66093 C4604.80574,1597.09272 4604.71048,1595.46795 4604.40726,1594.87146" id="Path-338-Copy" stroke="#000000" transform="translate(4667.090959, 1492.721206) scale(-1, -1) translate(-4667.090959, -1492.721206) "></path>
        <path d="M2071.51033,2088.06474 C2052.20889,2073.60481 2021.10115,2067.60783 2013.60601,2044.68496 C2002.28395,2010.05797 2016.91177,1971.80772 2021.68846,1935.69123 C2022.54685,1929.2009 2026.85989,1923.60236 2030.35248,1918.06494 C2067.29365,1859.49565 2069.31175,1848.79077 2139.97253,1843.87643 C2210.66055,1838.96019 2270.1943,1848.62779 2312.4925,1910.77284 C2333.94158,1942.2861 2348.40497,1977.95141 2349.96702,2016.35166 C2350.72949,2035.09579 2353.61866,2054.22975 2349.96702,2072.63054 C2347.58475,2084.63493 2339.03199,2094.58483 2332.40037,2104.87086 C2300.12642,2154.92965 2232.25352,2168.5551 2177.0295,2165.10149 C2152.60807,2163.57421 2136.05968,2132.40509 2119.46817,2120.7375 C2104.96883,2110.54119 2049.49983,2083.56658 2049.49983,2056.37618" id="Path-339" stroke="#000000"></path>
        <path d="M4215.13858,2107.2384 C4199.07029,2092.77847 4173.17334,2086.78149 4166.9337,2063.85862 C4157.50818,2029.23163 4169.68572,1990.98138 4173.66228,1954.86489 C4174.37688,1948.37456 4177.96745,1942.77602 4180.87501,1937.2386 C4211.62824,1878.66931 4213.30828,1867.96443 4272.13282,1863.05009 C4330.98002,1858.13385 4380.5414,1867.80145 4415.75431,1929.9465 C4433.6105,1961.45976 4445.65116,1997.12507 4446.95155,2035.52532 C4447.5863,2054.26945 4449.99151,2073.40341 4446.95155,2091.8042 C4444.96832,2103.80859 4437.84822,2113.7585 4432.32745,2124.04452 C4405.45965,2174.10331 4348.956,2187.72877 4302.98245,2184.27515 C4282.6518,2182.74787 4268.87541,2151.57875 4255.0631,2139.91117 C4242.99252,2129.71486 4196.81502,2102.74024 4196.81502,2075.54984" id="Path-339-Copy" stroke="#000000" transform="translate(4305.945901, 2023.363469) scale(-1, -1) rotate(-2.000000) translate(-4305.945901, -2023.363469) "></path>
        <path d="M2025.84898,1920.01844 C2095.86703,1970.41692 2166.46413,2020.02051 2235.90312,2071.21388 C2262.01957,2090.46803 2255.86889,2093.35575 2285.87411,2113.66909 C2286.7332,2114.25069 2289.10525,2115.65267 2288.82674,2114.6533 C2288.35683,2112.96716 2286.3513,2112.17787 2285.11359,2110.94015" id="Path-340" stroke="#000000"></path>
        <path d="M4176.67277,1938.50878 C4234.96223,1988.90726 4293.73376,2038.51085 4351.54116,2089.70422 C4373.28289,2108.95837 4368.1625,2111.84609 4393.14161,2132.15943 C4393.8568,2132.74103 4395.83151,2134.143 4395.59965,2133.14364 C4395.20845,2131.4575 4393.53887,2130.6682 4392.50848,2129.43049" id="Path-340-Copy" stroke="#000000" transform="translate(4286.145614, 2036.001017) scale(-1, -1) rotate(-2.000000) translate(-4286.145614, -2036.001017) "></path>
        <path d="M2272.49781,1867.66149 C2211.41408,1984.68575 2266.48925,1885.29737 2127.71465,2082.50246 C2126.55097,2084.1561 2127.46851,2086.63609 2126.61114,2088.46737 C2109.95806,2124.03705 2112.24426,2134.38002 2099.06819,2107.76384" id="Path-341" stroke="#000000"></path>
        <path d="M4382.77012,1886.99152 C4331.91841,2004.01579 4377.76804,1904.6274 4262.2393,2101.8325 C4261.27055,2103.48613 4262.03439,2105.96613 4261.32064,2107.7974 C4247.45709,2143.36708 4249.36032,2153.71005 4238.39135,2127.09387" id="Path-341-Copy" stroke="#000000" transform="translate(4310.580739, 2014.531023) scale(-1, -1) rotate(-2.000000) translate(-4310.580739, -2014.531023) "></path>
        <path d="M1954.86661,2559.45629 C1929.41873,2490.23944 1916.47699,2451.09125 1841.83165,2420.48891 C1812.17192,2408.32931 1779.72044,2419.84135 1750.52386,2425.66346 C1723.09952,2431.13217 1741.92181,2417.28689 1693.97656,2439.50204 C1634.1284,2467.23234 1611.00114,2534.31067 1615.43367,2595.73782 C1616.10875,2605.09321 1632.53698,2625.83738 1634.55119,2628.21673 C1678.75876,2680.43823 1713.76186,2682.00263 1783.16681,2697.78244 C1786.20203,2698.47252 1858.70268,2715.67086 1872.90881,2707.75874 C1883.62253,2701.79173 1889.80284,2689.95437 1897.64825,2680.52895 C1930.9479,2640.52303 1930.47561,2599.73671 1933.39295,2550.31507" id="Path-342" stroke="#000000"></path>
        <path d="M4098.75023,2566.79324 C4077.56508,2497.5764 4066.79118,2458.4282 4004.64954,2427.82586 C3979.95805,2415.66626 3952.94246,2427.17831 3928.63654,2433.00042 C3905.80599,2438.46912 3921.4754,2424.62384 3881.56136,2446.839 C3831.73825,2474.5693 3812.48498,2541.64762 3816.17504,2603.07478 C3816.73703,2612.43017 3830.4134,2633.17434 3832.09022,2635.55369 C3868.89267,2687.77519 3898.03247,2689.33958 3955.81153,2705.1194 C3958.33833,2705.80948 4018.69453,2723.00782 4030.52102,2715.0957 C4039.44011,2709.12868 4044.58517,2697.29133 4051.11641,2687.86591 C4078.8381,2647.85998 4078.44492,2607.07367 4080.87358,2557.65203" id="Path-342-Copy" stroke="#000000" transform="translate(3957.242022, 2569.817378) scale(-1, -1) rotate(-2.000000) translate(-3957.242022, -2569.817378) "></path>
        <path d="M1665.97133,2469.63973 C1728.68237,2521.69844 1792.08582,2572.93416 1854.10444,2625.81586 C1859.06554,2630.04606 1862.18689,2636.07336 1866.69039,2640.78777 C1873.02871,2647.42293 1879.69854,2653.7496 1886.58335,2659.81582 C1887.68418,2660.78576 1889.32715,2662.6382 1890.52019,2661.78424 C1891.64398,2660.97984 1889.78452,2659.11991 1889.41668,2657.78775" id="Path-343" stroke="#000000"></path>
        <path d="M3858.13391,2476.78693 C3910.34034,2528.84564 3963.12321,2580.08136 4014.75322,2632.96306 C4018.88329,2637.19326 4021.48179,2643.22056 4025.23092,2647.93497 C4030.50752,2654.57013 4036.0601,2660.8968 4041.79165,2666.96302 C4042.70807,2667.93296 4044.07584,2669.7854 4045.06903,2668.93144 C4046.00458,2668.12704 4044.45659,2666.26711 4044.15037,2664.93495" id="Path-343-Copy" stroke="#000000" transform="translate(3951.749850, 2572.968690) scale(-1, -1) rotate(-2.000000) translate(-3951.749850, -2572.968690) "></path>
        <path d="M1880.12634,2455.51781 C1789.02736,2534.80035 1686.44893,2600.9073 1644.27399,2717.5561" id="Path-344" stroke="#000000"></path>
        <path d="M4035.70151,2462.18103 C3959.86234,2541.46358 3874.46661,2607.57052 3839.35631,2724.21932" id="Path-344-Copy" stroke="#000000" transform="translate(3937.528909, 2593.200179) scale(-1, -1) rotate(-2.000000) translate(-3937.528909, -2593.200179) "></path>
        <path d="M1358.07783,3344.76589 C1463.28137,3336.43283 1516.1884,3372.63062 1543.15393,3263.73265 C1553.31119,3222.71344 1549.71344,3179.46552 1552.13112,3137.27666 C1554.4977,3095.97936 1550.65224,3098.36177 1532.46184,3049.78641 C1522.93035,3024.33366 1503.23798,3016.96665 1477.98734,3009.70225 C1463.91835,3005.65471 1436.60864,3001.81814 1423.76635,3005.45225 C1409.52091,3009.48343 1397.06639,3018.34493 1384.36815,3025.95661 C1312.99086,3068.7422 1284.41618,3107.82402 1245.95253,3178.94152 C1231.84224,3205.0308 1230.55794,3232.79483 1252.43936,3255.2774 C1272.15284,3275.53245 1295.50789,3293.25264 1320.36472,3306.66506 C1333.93462,3313.98719 1349.2786,3317.66464 1362.80502,3325.06679 C1388.13789,3338.92984 1392.43534,3360.12404 1403.50059,3334.78958" id="Path-345" stroke="#000000"></path>
        <path d="M3580.73924,3340.37856 C3668.32035,3332.0455 3712.36503,3368.24329 3734.81361,3259.34532 C3743.26945,3218.32611 3740.27435,3175.07819 3742.28704,3132.88933 C3744.25721,3091.59203 3741.05589,3093.97444 3725.91253,3045.39908 C3717.97764,3019.94633 3701.5839,3012.57932 3680.56295,3005.31492 C3668.85063,3001.26738 3646.11551,2997.43081 3635.42441,3001.06492 C3623.56519,3005.0961 3613.19691,3013.9576 3602.62572,3021.56928 C3543.2047,3064.35487 3519.4165,3103.43669 3487.39583,3174.55419 C3475.64912,3200.64347 3474.57995,3228.4075 3492.79606,3250.89007 C3509.20737,3271.14512 3528.65027,3288.86531 3549.34338,3302.27773 C3560.64021,3309.59986 3573.41395,3313.27731 3584.67459,3320.67946 C3605.764,3334.54251 3609.34159,3355.73671 3618.55332,3330.40225" id="Path-345-Copy" stroke="#000000" transform="translate(3610.805505, 3170.917145) scale(-1, -1) rotate(-2.000000) translate(-3610.805505, -3170.917145) "></path>
        <path d="M1295.6551,3089.6618 C1391.998,3156.08472 1323.58155,3103.39324 1449.86281,3236.89058 C1467.81541,3255.86904 1495.09044,3269.04945 1513.28467,3289.96332" id="Path-346" stroke="#000000"></path>
        <path d="M3528.26128,3085.56419 C3608.46597,3151.98711 3551.50983,3099.29563 3656.63797,3232.79297 C3671.58336,3251.77142 3694.2896,3264.95183 3709.43615,3285.86571" id="Path-346-Copy" stroke="#000000" transform="translate(3618.848718, 3185.714950) scale(-1, -1) rotate(-2.000000) translate(-3618.848718, -3185.714950) "></path>
        <path d="M1526.49693,3057.95833 C1181.73995,3463.78655 1401.96,3180.69524 1333.234,3294.91419 C1332.42331,3296.26153 1332.60769,3297.99606 1332.29453,3299.53699" id="Path-347" stroke="#000000"></path>
        <path d="M3720.81034,3054.50192 C3433.80292,3460.33014 3617.13434,3177.23883 3559.9205,3291.45778 C3559.2456,3292.80512 3559.3991,3294.53965 3559.1384,3296.08059" id="Path-347-Copy" stroke="#000000" transform="translate(3637.403515, 3175.291254) scale(-1, -1) rotate(-2.000000) translate(-3637.403515, -3175.291254) "></path>
        <circle id="Oval" stroke="#000000" cx="611.144458" cy="3451.05589" r="151.518897"></circle>
        <ellipse id="Oval-Copy-2" stroke="#000000" transform="translate(2949.696717, 3423.750217) scale(-1, -1) rotate(-2.000000) translate(-2949.696717, -3423.750217) " cx="2949.69672" cy="3423.75022" rx="126.138268" ry="151.518897"></ellipse>
        <circle id="Oval" stroke="#000000" cx="1133.64827" cy="3989.29365" r="175.293653"></circle>
        <ellipse id="Oval-Copy-3" stroke="#000000" transform="translate(3365.627752, 3976.840690) scale(-1, -1) rotate(-2.000000) translate(-3365.627752, -3976.840690) " cx="3365.62775" cy="3976.84069" rx="145.930562" ry="175.293653"></ellipse>
        <circle id="Oval-Copy" stroke="#000000" cx="537.07452" cy="4226.33882" r="175.293653"></circle>
        <ellipse id="Oval-Copy-4" stroke="#000000" transform="translate(2861.014667, 4196.408869) scale(-1, -1) rotate(-2.000000) translate(-2861.014667, -4196.408869) " cx="2861.01467" cy="4196.40887" rx="145.930562" ry="175.293653"></ellipse>
        <ellipse id="Oval" stroke="#000000" cx="1713.28467" cy="3871.64683" rx="200" ry="117.646827"></ellipse>
        <ellipse id="Oval-Copy-5" stroke="#000000" transform="translate(3851.982269, 3876.106026) scale(-1, -1) rotate(-2.000000) translate(-3851.982269, -3876.106026) " cx="3851.98227" cy="3876.10603" rx="166.498397" ry="117.646827"></ellipse>
        <ellipse id="Oval" stroke="#000000" cx="2009.37666" cy="3353.5" rx="118.5" ry="204.5"></ellipse>
        <ellipse id="Oval-Copy-6" stroke="#000000" transform="translate(4116.409386, 3366.877365) scale(-1, -1) rotate(-2.000000) translate(-4116.409386, -3366.877365) " cx="4116.40939" cy="3366.87736" rx="98.6503003" ry="204.5"></ellipse>
        <path d="M489.647278,3347.24132 C563.845729,3415.05236 638.478944,3482.39071 712.24263,3550.67442 C719.122247,3557.04294 738.614954,3577.28151 731.524186,3571.14896" id="Path-348" stroke="#000000"></path>
        <path d="M2848.24718,3319.93632 C2910.0168,3387.74735 2972.14835,3455.0857 3033.55603,3523.36941 C3039.28325,3529.73794 3055.51078,3549.9765 3049.60777,3543.84395" id="Path-348-Copy" stroke="#000000" transform="translate(2949.563811, 3432.461713) scale(-1, -1) rotate(-2.000000) translate(-2949.563811, -3432.461713) "></path>
        <path d="M717.894378,3317.55101 C685.489857,3414.70355 708.240575,3354.8084 566.803327,3532.48146 C522.319906,3588.3614 532.788701,3596.93219 514.177951,3572.67001" id="Path-349" stroke="#000000"></path>
        <path d="M3038.54694,3290.38718 C3011.57044,3387.53972 3030.51023,3327.64458 2912.76485,3505.31763 C2875.73276,3561.19757 2884.44795,3569.76836 2868.95465,3545.50618" id="Path-349-Copy" stroke="#000000" transform="translate(2953.750793, 3424.343352) scale(-1, -1) rotate(-2.000000) translate(-2953.750793, -3424.343352) "></path>
        <path d="M415.652628,4117.11673 C512.378538,4186.9608 609.571456,4256.16264 705.830357,4326.64894 C707.02932,4327.52689 705.647606,4329.60157 689.262832,4329.60157" id="Path-350" stroke="#000000"></path>
        <path d="M2760.02382,4087.88096 C2840.54736,4157.72503 2921.45969,4226.92686 3001.59445,4297.41317 C3002.59258,4298.29112 3001.44231,4300.36579 2987.80212,4300.36579" id="Path-350-Copy" stroke="#000000" transform="translate(2880.945215, 4194.123376) scale(-1, -1) rotate(-2.000000) translate(-2880.945215, -4194.123376) "></path>
        <path d="M626.750625,4047.7598 C614.297422,4166.60201 626.359297,4072.55808 472.647298,4335.14893 C457.580052,4360.88877 441.414854,4386.13659 422.9149,4409.5313 C421.365704,4411.49039 418.23245,4407.79154 415.891224,4406.92166" id="Path-351" stroke="#000000"></path>
        <path d="M2935.58694,4017.37057 C2925.21975,4136.21278 2935.26116,4042.16885 2807.29715,4304.75971 C2794.75379,4330.49954 2781.29639,4355.74736 2765.89533,4379.14208 C2764.60564,4381.10116 2761.99723,4377.40231 2760.04818,4376.53243" id="Path-351-Copy" stroke="#000000" transform="translate(2847.817558, 4198.538640) scale(-1, -1) rotate(-2.000000) translate(-2847.817558, -4198.538640) "></path>
        <path d="M1016.58701,3855.19774 C1083.70711,3920.29971 1153.89068,3982.38521 1217.9473,4050.50365 C1226.521,4059.62101 1226.91898,4073.93079 1232.71044,4085.02554 C1241.93641,4102.69983 1244.27484,4104.16452 1254.85515,4114.87989" id="Path-352" stroke="#000000"></path>
        <path d="M3268.32263,3842.80759 C3324.19957,3907.90957 3382.62683,3969.99506 3435.95345,4038.11351 C3443.09099,4047.23086 3443.42231,4061.54064 3448.24365,4072.63539 C3455.92419,4090.30968 3457.87093,4091.77437 3466.67894,4102.48975" id="Path-352-Copy" stroke="#000000" transform="translate(3367.500786, 3972.648670) scale(-1, -1) rotate(-2.000000) translate(-3367.500786, -3972.648670) "></path>
        <path d="M1219.61747,3856.70388 C721.755668,4633.17001 1170.30582,3950.85757 1029.18787,4145.65881 C1027.69184,4147.72394 1028.42738,4151.47294 1026.19051,4152.69739 C1024.76475,4153.47784 1023.99343,4150.30149 1022.8949,4149.10354" id="Path-353" stroke="#000000"></path>
        <path d="M3435.18547,3843.1997 C3020.71951,4619.66583 3394.13391,3937.35339 3276.65435,4132.15462 C3275.40893,4134.21976 3276.02125,4137.96876 3274.15907,4139.19321 C3272.97214,4139.97366 3272.33003,4136.79731 3271.4155,4135.59936" id="Path-353-Copy" stroke="#000000" transform="translate(3334.510171, 4033.918662) scale(-1, -1) rotate(-2.000000) translate(-3334.510171, -4033.918662) "></path>
        <path d="M1598.97053,3782.24695 C1652.87157,3807.75116 1739.59892,3845.12743 1783.73347,3883.30736 C2046.51288,4110.63262 1702.45553,3854.91939 1845.93252,3958.15201 C1848.0863,3959.70166 1850.76149,3960.93735 1852.03164,3963.26692 C1852.50127,3964.12825 1850.18252,3963.92305 1849.25796,3964.25112" id="Path-354" stroke="#000000"></path>
        <path d="M3756.45702,3787.54791 C3801.3292,3813.05212 3873.52902,3850.42839 3910.27068,3888.60832 C4129.03243,4115.93358 3842.60745,3860.22035 3962.05089,3963.45297 C3963.84389,3965.00262 3966.07097,3966.23831 3967.12836,3968.56787 C3967.51932,3969.4292 3965.58898,3969.22401 3964.81929,3969.55208" id="Path-354-Copy" stroke="#000000" transform="translate(3875.914586, 3886.829059) scale(-1, -1) rotate(-2.000000) translate(-3875.914586, -3886.829059) "></path>
        <path d="M1798.30276,3773.62766 C1757.93526,3819.83083 1714.93175,3863.85738 1677.20027,3912.23715 C1664.81211,3928.1214 1658.8272,3948.11505 1648.65819,3965.50375 C1643.99684,3973.47453 1637.64991,3980.35722 1632.77663,3988.20022 C1632.27294,3989.01086 1633.09897,3991.96168 1632.77663,3991.06337 C1632.16033,3989.34582 1632.1702,3987.46455 1631.86699,3985.66513" id="Path-355" stroke="#000000"></path>
        <path d="M3922.38191,3778.1326 C3888.7763,3824.33576 3852.97622,3868.36231 3821.56506,3916.74208 C3811.25202,3932.62633 3806.26964,3952.61999 3797.80402,3970.00869 C3793.92348,3977.97946 3788.63971,3984.86215 3784.58275,3992.70515 C3784.16342,3993.51579 3784.85108,3996.46661 3784.58275,3995.56831 C3784.06968,3993.85075 3784.0779,3991.96948 3783.82547,3990.17007" id="Path-355-Copy" stroke="#000000" transform="translate(3853.103692, 3886.934626) scale(-1, -1) rotate(-2.000000) translate(-3853.103692, -3886.934626) "></path>
        <path d="M1913.72367,3230.37392 C1970.8205,3296.38862 2041.84901,3396.18891 2120.63132,3448.64471 C2121.77634,3449.4071 2119.94536,3445.98039 2119.60238,3444.64823" id="Path-356" stroke="#000000"></path>
        <path d="M4037.26135,3243.99182 C4084.794,3310.00652 4143.92467,3409.80681 4209.51031,3462.26262 C4210.46352,3463.025 4208.93925,3459.59829 4208.65372,3458.26613" id="Path-356-Copy" stroke="#000000" transform="translate(4123.540730, 3353.181898) scale(-1, -1) rotate(-2.000000) translate(-4123.540730, -3353.181898) "></path>
        <path d="M2118.76729,3261.04844 C1947.07042,3457.60414 2167.78987,3209.37688 1932.09558,3455.17628 C1927.49824,3459.97073 1935.55765,3465.99812 1930.18681,3461.42452" id="Path-357" stroke="#000000"></path>
        <path d="M4207.17015,3274.85932 C4064.23389,3471.41501 4247.98105,3223.18775 4051.76745,3468.98716 C4047.9402,3473.78161 4054.64959,3479.809 4050.17841,3475.2354" id="Path-357-Copy" stroke="#000000" transform="translate(4128.674282, 3375.861077) scale(-1, -1) rotate(-2.000000) translate(-4128.674282, -3375.861077) "></path>
    </g>
</svg>
