<?xml version="1.0" encoding="UTF-8"?>
<svg width="9162px" height="9162px" viewBox="0 0 9162 9162" version="1.1" xmlns="http://www.w3.org/2000/svg" xmlns:xlink="http://www.w3.org/1999/xlink">
    <g id="text" stroke="none" stroke-width="10" fill="none" fill-rule="evenodd">
        <path d="M538.810577,836.08597 C652.884768,836.08597 767.010549,832.655574 881.033149,836.08597 C890.546961,836.372195 905.771925,847.881089 916.721642,850.352043 C934.751383,854.420701 952.646854,854.089907 970.82549,856.109755 C978.476501,856.959868 992.297515,861.403407 999.14784,861.704294 C1010.9161,862.221191 1023.06588,858.81904 1034.48667,861.704294 L1048.96254,863.405966 C1049.86656,863.63435 1049.41709,865.389112 1048.96254,866.203235 C1048.70875,866.657787 1047.92134,866.203235 1047.40073,866.203235" id="Path-106" stroke="#000000"/>
        <path d="M844.132507,1535.07691 C971.374255,1530.20383 922.920327,1531.56963 1170.64375,1533.60835 C1197.01594,1533.82539 1235.05846,1550.48961 1260.17967,1559.2966 C1262.57353,1560.13584 1264.50081,1562.19312 1266.98636,1562.69995 C1275.50762,1564.43752 1282.46446,1563.29357 1291.36923,1564.23844 C1294.618,1564.58317 1300.46139,1567.31544 1304.12011,1567.31544" id="Path-107" stroke="#000000"/>
        <path d="M958.144536,2405.86681 C1050.62776,2405.86681 1181.20362,2404.51152 1266.70664,2412.60356 C1318.82718,2417.53627 1361.84859,2431.98473 1410.04337,2443.30359 C1417.39429,2445.03 1424.47606,2447.8931 1431.90869,2449.22448 C1445.79654,2451.71215 1462.13816,2450.22802 1475.91906,2451.08932 C1477.18494,2451.16844 1478.06198,2452.64944 1479.3224,2452.791 C1492.50464,2454.27146 1506.65723,2456.03117 1520.06929,2456.03117" id="Path-108" stroke="#000000"/>
        <path d="M915.812529,3191.64303 C1024.4078,3191.64303 1051.20763,3189.69252 1182.92842,3204.62702 C1210.8271,3207.79017 1262.39424,3224.5157 1292.628,3231.80715 C1306.84666,3235.23625 1319.77551,3235.13901 1334.33062,3237.56486 C1344.74534,3239.30065 1354.68448,3244.29637 1364.72761,3246.56274 C1374.39044,3248.74329 1384.31334,3250.00713 1393.81921,3251.83093 C1398.68406,3252.76431 1404.72899,3256.63977 1409.36736,3257.82175 C1410.82057,3258.19207 1412.44733,3257.33651 1413.8663,3257.82175 C1414.35155,3257.98769 1413.8663,3258.84742 1413.8663,3259.36025" id="Path-109" stroke="#000000"/>
        <path d="M1237.63835,4183.81109 C1749.38948,4183.81109 1782.92105,4349.45398 1744.57345,4175.2328" id="Path-110" stroke="#000000"/>
        <path d="M904.367036,4904.80722 C1130.23875,4908.78555 1356.18204,4909.80271 1581.98218,4916.74223 C1663.51466,4919.24797 1624.28119,4929.28095 1677.92851,4935.57718 C1681.60191,4936.0083 1685.75969,4937.3155 1689.02435,4935.57718 C1690.90456,4934.57603 1685.21695,4933.66571 1683.31326,4932.70998" id="Path-111" stroke="#000000"/>
        <path d="M687.065843,5746.10923 C824.661842,5741.2941 963.778145,5751.49114 1101.1083,5740.18834 C1124.53212,5738.26047 1146.37959,5727.48957 1169.24512,5722.05271 C1171.88336,5721.42541 1174.7358,5722.65218 1177.38051,5722.05271 C1225.12608,5711.23038 1221.2393,5708.53258 1268.96776,5708.53258" id="Path-112" stroke="#000000"/>
        <path d="M2020.19771,5749.39602 C2061.27094,5749.90108 2102.35153,5749.98445 2143.41741,5750.91121 C2154.35218,5751.15798 2165.2925,5751.75974 2176.16877,5752.91592 C2191.10159,5754.50331 2206.41144,5761.4612 2221.71764,5758.51046 C2225.16557,5757.84576 2227.47157,5754.37663 2230.71552,5753.03247 C2235.11417,5751.20985 2239.96671,5750.70883 2244.44545,5749.09298 C2249.13953,5747.39945 2253.36158,5744.44067 2258.17538,5743.12547 C2260.78381,5742.41282 2263.60473,5743.46418 2266.28746,5743.12547 C2272.56316,5742.33313 2279.37815,5739.6745 2285.58862,5739.2093 C2318.2643,5736.76168 2291.83091,5742.09218 2321.18387,5737.15797 C2338.06367,5734.32048 2320.52477,5736.40842 2337.45465,5731.02729 C2388.32292,5714.85889 2349.84075,5726.04917 2381.16198,5722.98514 C2383.12082,5722.79351 2384.79119,5721.20304 2386.75652,5721.09698 C2396.5405,5720.569 2406.39596,5720.17988 2416.15116,5721.09698 C2423.12978,5721.75305 2421.80766,5724.64845 2426.03484,5727.57732 C2430.20526,5730.46687 2434.54164,5733.12392 2438.97221,5735.59616 C2443.39347,5738.0632 2448.17518,5739.85224 2452.56228,5742.37954 C2454.8879,5743.71927 2456.64205,5745.95792 2459.04262,5747.1582 C2459.96,5747.6169 2461.20223,5746.69951 2462.11961,5747.1582 C2462.57831,5747.38755 2461.60874,5748.65192 2462.11961,5748.6967 C2465.97805,5749.03489 2495.75678,5745.24753 2495.75678,5755.2936" id="Path-113" stroke="#000000"/>
        <path d="M3204.72465,5664.00938 C3287.45388,5655.94392 3369.95259,5644.99525 3452.91235,5639.813 C3503.58089,5636.64789 3451.66857,5648.82608 3476.52597,5652.21423 C3485.96494,5653.50079 3495.66911,5650.90329 3505.10473,5652.21423 C3514.52831,5653.52349 3523.48069,5657.17141 3532.56459,5659.99996 C3535.64502,5660.95915 3538.34234,5663.36693 3541.56248,5663.56648 C3557.7168,5664.56754 3573.97881,5664.78212 3590.11841,5663.56648 C3592.08472,5663.41837 3586.83938,5661.37528 3585.19987,5660.27969" id="Path-114" stroke="#000000"/>
        <path d="M2526.82977,4965.22823 C2529.46387,4924.65229 2530.97177,4883.98751 2534.73206,4843.5004 C2534.83697,4842.37081 2537.04902,4843.17367 2538.1354,4843.5004 C2541.24458,4844.43549 2544.70821,4845.0713 2547.13329,4847.23009 C2554.15764,4853.48312 2559.94678,4861.01302 2565.94492,4868.25623 C2640.96614,4958.84995 2540.82942,4839.05722 2585.7356,4896.88162 C2588.25637,4900.12754 2592.04996,4902.2663 2594.45376,4905.59978 C2605.31051,4920.65543 2613.84942,4937.86082 2626.92539,4951.31182 C2628.48764,4952.91888 2630.93511,4953.45669 2632.51993,4955.04151 C2634.10474,4956.62632 2634.56067,4959.16271 2636.24962,4960.63605 C2638.6778,4962.75425 2641.44503,4964.77481 2644.5715,4965.55458 C2648.25818,4966.47407 2652.51462,4967.13413 2655.97037,4965.55458 C2660.058,4963.6862 2662.08442,4958.94042 2665.48108,4955.99724 C2671.00401,4951.21167 2676.78504,4946.72034 2682.68429,4942.40718 C2688.12253,4938.43107 2693.6594,4934.56066 2699.4679,4931.14817 C2701.1649,4930.15118 2703.36701,4930.25965 2705.06244,4929.26001 C2706.43973,4928.44795 2707.06519,4926.66873 2708.44247,4925.85667 C2710.13791,4924.85702 2712.27931,4924.85408 2714.03701,4923.96851 C2722.46384,4919.72288 2729.95696,4913.4058 2738.93271,4910.495 C2753.12954,4905.89101 2767.95523,4902.92175 2782.82652,4901.66029 C2802.8406,4899.96259 2823.00627,4901.09861 2843.08436,4901.66029 C2845.0395,4901.71498 2846.94538,4902.55276 2848.65559,4903.50182 C2852.57506,4905.67688 2856.30692,4908.2085 2859.84467,4910.96121 C2864.48233,4914.56975 2868.50156,4918.92836 2873.1317,4922.54656 C2873.53578,4922.86234 2874.58888,4923.05291 2874.6702,4922.54656 C2877.37348,4905.71246 2868.65351,4918.46975 2880.26473,4896.11237 C2882.3098,4892.1746 2884.69778,4887.66392 2888.74978,4885.85572 C2893.16333,4883.88618 2898.89051,4883.76709 2903.24896,4885.85572 C2906.9376,4887.62336 2907.39371,4892.96015 2910.05565,4896.06575 C2914.23204,4900.93821 2918.36041,4906.07334 2923.66903,4909.67913 C2929.46579,4913.61648 2936.29681,4915.79387 2942.83032,4918.32735 C2950.16134,4921.17007 2957.53283,4924.08104 2965.20847,4925.78673 C2968.84935,4926.59582 2972.69067,4925.37486 2976.39755,4925.78673 C2978.35125,4926.00381 2980.02919,4927.54633 2981.99209,4927.65158 C2991.70642,4928.17246 3001.5131,4926.53363 3011.17693,4927.65158 C3018.65347,4928.51649 3025.61455,4931.96489 3032.97232,4933.54916 C3034.79538,4933.9417 3036.77713,4933.02522 3038.56686,4933.54916 C3042.87723,4934.811 3046.70728,4937.39708 3050.96808,4938.81735 C3052.04432,4939.17609 3053.28826,4938.48013 3054.37143,4938.81735 C3055.0639,4939.03293 3055.1858,4940.31538 3055.90993,4940.35585 C3064.56019,4940.83926 3073.25252,4939.84522 3081.90122,4940.35585 C3083.86352,4940.4717 3085.57212,4941.81612 3087.49576,4942.22069 C3091.46506,4943.0555 3095.57075,4943.15453 3099.52402,4944.06223 C3100.7602,4944.34606 3101.66845,4945.60944 3102.92736,4945.7639 C3106.39021,4946.18875 3109.9432,4946.2788 3113.39381,4945.7639 C3113.90871,4945.68706 3113.39381,4944.72269 3113.39381,4944.20209" id="Path-115" stroke="#000000"/>
        <path d="M2652.2873,4202.31969 C2652.85452,4185.70702 2652.45336,4169.03294 2653.98897,4152.48167 C2654.13419,4150.9164 2655.75232,4149.59371 2657.22914,4149.05502 C2659.15627,4148.35207 2662.30831,4147.30782 2663.38313,4149.05502 C2666.3672,4153.90584 2665.80111,4160.19762 2667.43917,4165.65215 C2675.34532,4191.97865 2681.68182,4213.27394 2694.47944,4238.00818 C2701.59667,4251.7638 2708.71781,4257.58484 2724.52677,4256.00394 C2727.30957,4255.72566 2730.31342,4255.47076 2732.66216,4253.95261 C2734.54989,4252.73245 2734.9187,4250.03245 2736.39186,4248.33476 C2739.11779,4245.19335 2742.50618,4242.66628 2745.20325,4239.50006 C2751.76443,4231.79756 2757.87138,4223.71904 2764.13144,4215.76989 C2769.5347,4208.90872 2775.11679,4202.17704 2780.19243,4195.0701 C2789.40859,4182.16558 2798.65973,4170.04825 2808.79451,4157.56338 C2810.61249,4155.32384 2812.56103,4153.11823 2814.90188,4151.4327 C2818.77265,4148.64554 2822.6679,4145.47023 2827.27979,4144.25304 C2832.05802,4142.99195 2837.38992,4142.77425 2842.10532,4144.25304 C2848.27482,4146.18785 2852.42812,4153.01413 2858.79569,4154.13672 C2871.72023,4156.41531 2885.07817,4153.18207 2898.16726,4154.13672 C2902.89468,4154.48152 2907.38673,4156.41205 2911.85056,4158.00628 C2916.54426,4159.6826 2921.12163,4161.7002 2925.58049,4163.92717 C2935.14932,4168.70627 2944.25273,4174.39634 2953.90284,4179.00911 C2958.58553,4181.24744 2963.43744,4183.27598 2968.49527,4184.44047 C2971.41809,4185.11342 2974.50983,4184.13132 2977.49315,4184.44047 C2980.53987,4184.7562 2983.43239,4186.14132 2986.49103,4186.30532 C2995.07254,4186.76545 3003.7247,4187.19333 3012.27253,4186.30532 C3015.4873,4185.97135 3018.07693,4183.19016 3021.27041,4182.69218 C3025.93828,4181.96429 3030.78532,4181.90313 3035.44324,4182.69218 C3036.7867,4182.91976 3036.9729,4185.5137 3038.33375,4185.58269 C3056.353,4186.49618 3074.42464,4185.11292 3092.46091,4185.58269 C3094.18559,4185.62761 3095.69942,4186.84699 3097.40275,4187.12119 C3098.9217,4187.3657 3100.52568,4186.74805 3102.01825,4187.12119 C3102.72185,4187.29709 3102.83608,4188.57824 3103.55674,4188.65969 C3107.55624,4189.11169 3111.63077,4188.21984 3115.63162,4188.65969 C3116.89238,4188.7983 3117.79219,4190.10794 3119.03497,4190.36136 C3120.64903,4190.69049 3122.32953,4190.36136 3123.97681,4190.36136" id="Path-116" stroke="#000000"/>
        <path d="M2603.52157,3254.09206 C2605.23878,3229.74805 2603.28666,3204.86265 2608.67321,3181.06002 C2609.51014,3177.36169 2616.2818,3180.62629 2620.04877,3181.06002 C2621.3088,3181.20511 2622.82456,3181.65947 2623.45211,3182.7617 C2626.90322,3188.82316 2628.82994,3195.6434 2631.91385,3201.89968 C2632.90479,3203.90998 2634.85336,3205.39687 2635.64354,3207.49422 C2637.80273,3213.22524 2638.64362,3219.38735 2640.67863,3225.16363 C2646.71243,3242.29035 2654.37878,3259.00255 2661.26187,3275.81752 C2670.22787,3297.7209 2675.78999,3321.78833 2692.05514,3339.96822 C2695.89446,3344.25951 2700.01752,3348.30058 2704.26988,3352.18296 C2707.08388,3354.75214 2710.05141,3357.17797 2713.22114,3359.29269 C2715.33133,3360.70052 2717.55563,3362.12762 2720.02783,3362.69603 C2740.59298,3367.4244 2732.36078,3341.12232 2740.8908,3324.02379 C2743.63298,3318.52705 2749.98425,3315.6959 2753.85148,3310.92324 C2763.14675,3299.45169 2764.62251,3288.08554 2773.38574,3276.93642 C2775.05289,3274.81538 2777.61974,3273.58186 2779.86608,3272.08782 C2780.92509,3271.38348 2781.99802,3270.39648 2783.26943,3270.36284 C2803.861,3269.81805 2824.47631,3269.74311 2845.06576,3270.36284 C2848.80362,3270.47535 2852.35307,3272.12866 2856.06836,3272.55404 C2872.76674,3274.46591 2887.5389,3275.42402 2905.27698,3274.58206 C2912.28779,3274.24928 2916.33423,3259.84961 2919.35657,3254.79138 C2993.57279,3130.58228 2909.41751,3270.55889 2940.38271,3226.1893 C2946.82169,3216.96298 2951.46288,3207.41881 2959.35752,3199.45207 C2960.25275,3198.54866 2961.49449,3197.84496 2962.76086,3197.72709 C2967.78201,3197.25971 2973.05368,3196.29671 2977.88943,3197.72709 C2981.87099,3198.9048 2995.77136,3225.57366 2995.81526,3225.65316 C3009.87831,3251.12178 3027.1077,3285.99379 3054.79102,3299.05816 C3056.63912,3299.93032 3059.51899,3300.54428 3060.9217,3299.05816 C3064.42321,3295.34845 3064.91211,3289.6049 3067.72839,3285.35154 C3073.79221,3276.19352 3081.88258,3274.80483 3091.31869,3270.96892 C3094.12898,3269.82649 3096.57779,3267.85382 3099.45408,3266.88957 C3104.75736,3265.11168 3110.20891,3263.71413 3115.72487,3262.7869 C3148.26734,3257.31654 3194.82947,3260.08172 3220.50591,3260.5724 C3277.93875,3261.66994 2803.21253,3322.26337 3261.06631,3262.27407 C3274.23963,3260.54807 3282.53812,3251.34822 3294.21395,3246.58605 C3295.94069,3245.88178 3297.9868,3246.98492 3299.80849,3246.58605 C3300.52235,3246.42975 3300.61651,3245.0451 3301.34699,3245.02425 C3319.06358,3244.51849 3336.8183,3245.94039 3354.51841,3245.02425 C3356.30903,3244.93156 3357.73606,3243.31813 3358.99404,3242.04049 C3359.3593,3241.66953 3358.76401,3240.94571 3358.99404,3240.47868 C3359.31693,3239.82312 3360.01971,3239.43748 3360.53254,3238.91687" id="Path-117" stroke="#000000"/>
        <path d="M2438.55262,2440.59956 C2452.83423,2394.973 2465.45459,2348.79283 2481.39746,2303.71986 C2482.01673,2301.96908 2485.1603,2303.29742 2486.96869,2303.71986 C2490.09129,2304.4493 2493.51485,2305.05637 2495.96657,2307.1232 C2500.94762,2311.32228 2504.62124,2316.87362 2508.64752,2321.99535 C2515.4502,2330.64887 2522.57843,2339.11167 2528.4382,2348.42955 C2548.95815,2381.0592 2560.10241,2418.69178 2581.67956,2450.5998 C2586.71821,2458.0509 2602.70576,2483.43212 2617.01839,2477.08062 C2618.05533,2476.62046 2616.69255,2474.76392 2617.01839,2473.67727 C2618.35684,2469.21368 2619.89114,2464.77544 2621.96024,2460.60004 C2622.16374,2460.18937 2627.04823,2457.49511 2628.11423,2457.47642 C2657.29459,2456.96489 2686.48976,2456.89226 2715.66875,2457.47642 C2717.63408,2457.51577 2719.30325,2459.19193 2721.26329,2459.34127 C2727.53896,2459.81941 2733.96296,2460.5231 2740.14486,2459.34127 C2742.79468,2458.83468 2744.31241,2455.88163 2746.6252,2454.49267 C2749.89619,2452.52825 2753.27886,2450.69994 2756.83523,2449.31772 C2760.8484,2447.75796 2764.94684,2446.07541 2769.23646,2445.70458 C2778.99826,2444.8607 2788.84498,2445.21786 2798.6311,2445.70458 C2799.35545,2445.74061 2799.44515,2447.20885 2800.16959,2447.24308 C2810.5002,2447.73114 2820.86645,2446.73255 2831.19597,2447.24308 C2832.46278,2447.30569 2833.34278,2448.77201 2834.59931,2448.94475 C2837.56296,2449.35218 2840.61389,2448.51158 2843.57389,2448.94475 C2844.2915,2449.04977 2844.38735,2450.46533 2845.11238,2450.48325 C2865.33979,2450.98325 2885.57955,2450.48325 2905.81313,2450.48325" id="Path-118" stroke="#000000"/>
        <path d="M2330.60134,1632.21209 C2330.08851,1606.71032 2327.74489,1581.17963 2329.06284,1555.70677 C2329.16454,1553.74121 2332.90499,1554.71467 2334.65738,1553.81862 C2343.7681,1549.16002 2354.5436,1543.39966 2365.24086,1542.55961 C2380.57087,1541.35574 2396.04237,1541.35713 2411.37249,1542.55961 C2413.99497,1542.76531 2433.00628,1549.98923 2436.5246,1551.67404 C2436.53059,1551.67691 2477.98212,1571.00404 2490.069,1579.50687 C2504.17985,1589.43353 2524.35836,1606.53807 2539.02121,1612.16499 C2545.52837,1614.66214 2553.04436,1611.08977 2559.93079,1612.16499 C2594.23282,1617.52075 2625.54428,1641.35652 2661.14532,1636.36137 C2678.2621,1633.95973 2704.22658,1614.07978 2720.65722,1630.51041" id="Path-119" stroke="#000000"/>
        <path d="M2050.12849,880.539239 C2391.90852,910.813327 2321.27017,997.024841 2326.45206,733.053222 C2326.5198,729.602505 2327.04039,725.076963 2330.01858,723.332712 C2333.76661,721.137587 2338.7959,722.451889 2343.04919,723.332712 C2344.62021,723.658058 2345.68797,725.325602 2346.45253,726.736056 C2348.33524,730.209224 2348.79946,734.366864 2350.85823,737.738648 C2358.56836,750.366021 2385.48323,791.635435 2394.19259,803.497784 C2407.47685,821.591252 2425.50122,825.76786 2445.03296,836.995083 C2450.79067,840.304723 2455.29271,845.461645 2460.79091,849.186514 C2476.66436,859.940306 2493.28083,869.820548 2509.06712,880.818966 C2517.05301,886.382798 2524.52627,892.656031 2532.47093,898.278588 C2535.0108,900.07609 2538.04209,901.136111 2540.48977,903.057256 C2543.07362,905.085276 2537.36111,904.572444 2542.02827,904.572444 C2542.49448,904.572444 2541.09585,904.572444 2540.62964,904.572444" id="Path-120" stroke="#000000"/>
        <path d="M3499.60344,962.685711 C3673.87331,962.685711 3848.14407,962.128086 4022.41305,962.685711 C4029.61074,962.708742 4032.05952,963.713678 4036.02642,969.002877 C4036.33412,969.413143 4036.49071,970.759177 4036.02642,970.541375 C4031.15672,968.256923 4026.71773,965.148861 4022.06339,962.452605" id="Path-121" stroke="#000000"/>
        <path d="M3549.79111,1729.37057 C3576.75368,1710.29475 3603.0191,1690.19323 3630.67881,1672.1431 C3632.57891,1670.90314 3636.01671,1670.41378 3637.4855,1672.1431 C3646.1568,1682.35252 3652.75732,1694.20061 3659.32751,1705.87351 C3664.23235,1714.58768 3667.14559,1724.308 3671.82198,1733.14688 C3673.53783,1736.39003 3676.92724,1738.60608 3678.41887,1741.95828 C3724.32925,1845.13453 3618.02147,1625.72747 3688.37249,1766.57425 C3689.94731,1769.72714 3690.77763,1776.48696 3694.99269,1778.60251 C3695.90243,1779.05911 3697.73685,1779.5722 3698.04637,1778.60251 C3703.27391,1762.22552 3702.14183,1747.68388 3710.56415,1732.82053 C3725.35309,1706.72166 3738.67739,1687.05307 3768.72404,1682.00348 C3791.64193,1678.15193 3791.78658,1672.81535 3821.89547,1678.25047 C3830.87056,1679.87062 3838.5611,1699.85563 3849.93809,1695.24388 C3859.60456,1691.32551 3863.81653,1675.40156 3874.06454,1674.52078 C3879.59982,1674.04504 3885.19577,1674.05143 3890.7316,1674.52078 C3896.2986,1674.99278 3901.63364,1683.53422 3903.9487,1687.90105 C3904.74634,1689.40563 3928.13442,1745.97719 3944.25268,1758.06589 C3962.10428,1771.45459 3972.45452,1754.55034 3983.7408,1752.86763 C4013.63291,1748.4109 4018.34485,1746.51867 4035.42035,1759.67432 C4037.1439,1761.00221 4037.92114,1763.77794 4040.03584,1764.28981 C4057.36701,1768.48489 4066.21008,1754.36771 4081.48205,1753.31053 C4088.63681,1752.81525 4096.4752,1756.29261 4102.99771,1753.31053 C4106.33108,1751.78652 4096.64169,1749.65854 4093.46368,1747.83254" id="Path-122" stroke="#000000"/>
        <path d="M4084.44249,3343.18508 C4527.0783,3343.18508 4649.55676,3418.67441 4516.03781,3338.40641" id="Path-123" stroke="#000000"/>
        <path d="M3836.3014,4203.76494 C3836.92302,4159.78565 3836.01176,4115.75796 3838.16625,4071.82708 C3838.30421,4069.01405 3840.55161,4066.15554 3843.10809,4064.97377 C3857.48398,4058.32831 3871.96301,4086.05232 3878.02733,4094.41503 C3893.06994,4115.15878 3910.0747,4134.52386 3923.48296,4156.46778 C3932.37031,4171.01281 3939.48142,4186.70309 3949.52087,4200.47815 C3952.15828,4204.09692 3963.68976,4194.64912 3965.34875,4193.99781 C4022.73854,4171.46677 3985.80299,4187.97147 4006.8882,4176.00205 C4009.69897,4174.40646 4012.66144,4172.60793 4015.88608,4172.38891 C4030.5845,4171.39055 4045.36097,4171.83752 4060.08294,4172.38891 C4062.04728,4172.46248 4063.97953,4173.26328 4065.67747,4174.25375 C4065.68151,4174.25611 4092.39198,4194.2078 4095.74812,4195.32651 C4097.69418,4195.9752 4100.66413,4196.96217 4101.90211,4195.32651 C4104.16353,4192.33866 4102.80075,4187.8178 4104.0933,4184.30061 C4105.92005,4179.32984 4109.25397,4175.01442 4111.17972,4170.08116 C4116.25016,4157.09203 4119.67058,4143.4808 4125.04951,4130.61635 C4126.66628,4126.74963 4138.51701,4105.74873 4143.13852,4100.24267 C4143.95619,4099.2685 4145.27517,4098.632 4146.54186,4098.51769 C4151.75778,4098.04698 4157.2391,4097.00567 4162.25319,4098.51769 C4166.72104,4099.86499 4177.25963,4119.33848 4179.57295,4123.29683 C4183.86051,4130.63332 4190.88695,4137.41872 4195.51739,4144.67263 C4208.09419,4164.37511 4200.919,4160.67619 4219.50397,4177.82027 C4220.25786,4178.51571 4221.62296,4177.4539 4222.58096,4177.82027 C4235.72878,4182.84836 4250.90668,4191.63895 4265.37918,4193.62484 C4268.35063,4194.03258 4271.45045,4192.96858 4274.37707,4193.62484 C4289.1037,4196.9271 4303.69086,4200.90407 4318.0844,4205.4433 C4366.20724,4220.61963 4197.02017,4183.77658 4345.70743,4216.4459 C4349.31228,4217.23795 4353.19092,4215.585 4356.77995,4216.4459 C4365.75628,4218.59903 4375.74356,4227.84477 4384.51954,4227.84477" id="Path-124" stroke="#000000"/>
        <path d="M3692.33528,4898.62991 C3718.62184,4888.9871 3745.31108,4880.37817 3771.19496,4869.70149 C3780.98826,4865.66191 3789.34897,4858.60745 3799.14434,4854.57292 C3805.18768,4852.08379 3812.03293,4852.22093 3818.28233,4850.30709 C3821.17634,4849.42081 3823.44058,4846.88777 3826.39441,4846.22774 C3847.62672,4841.48339 3879.49918,4840.95114 3898.37747,4842.28825 C3900.61313,4842.4466 3901.95951,4845.03148 3903.97201,4846.01794 C3907.5194,4847.75676 3911.68807,4848.23133 3914.9746,4850.42364 C3918.43009,4852.72866 3920.51577,4856.67397 3923.786,4859.23504 C3933.08915,4866.52078 3943.12985,4872.81803 3952.59787,4879.88821 C3956.78953,4883.01831 3956.15592,4885.84223 3962.8079,4886.6949 C4103.59626,4904.74152 3953.53559,4886.18279 3985.9553,4884.96992 C4000.18034,4884.43774 4014.45858,4883.99689 4028.66028,4884.96992 C4122.5638,4891.4037 3956.53954,4885.98306 4062.81027,4896.13568 C4063.78706,4896.229 4108.73744,4891.98818 4126.28497,4897.83735 C4132.40647,4899.87785 4138.10429,4903.10281 4144.28074,4904.97039 C4146.06577,4905.51013 4148.0734,4904.48989 4149.87528,4904.97039 C4157.47267,4906.99636 4164.50297,4911.10491 4172.25343,4912.42977 C4206.16415,4918.22648 4183.35933,4906.33777 4201.20517,4917.04527" id="Path-125" stroke="#000000"/>
        <path d="M4309.55273,5698.97524 C4384.43636,5693.35258 4323.1935,5697.43675 4493.68297,5697.43675" id="Path-126" stroke="#000000"/>
        <path d="M5187.31248,5654.45204 C5295.13167,5654.45204 5402.95502,5655.39997 5510.77004,5654.45204 C5511.71796,5654.44371 5511.49507,5652.21886 5510.77004,5651.60815 C5509.25908,5650.33543 5506.91771,5650.60642 5505.15219,5649.72 C5503.13957,5648.70951 5501.40696,5647.21799 5499.53434,5645.96699" id="Path-127" stroke="#000000"/>
        <path d="M4899.63666,4848.51217 C4951.96113,4804.72714 5000.76867,4756.35806 5056.61008,4717.15708 C5067.0658,4709.8171 5088.33248,4715.11481 5097.75324,4723.75397 C5124.24443,4748.0473 5134.71829,4784.19535 5150.1088,4815.34122 C5156.10658,4827.47898 5163.48833,4838.89018 5169.71299,4850.91316 C5174.23927,4859.65569 5185.81194,4888.853 5198.22183,4889.25906 C5214.41401,4889.78888 5230.6841,4890.65868 5246.82438,4889.25906 C5251.9933,4888.81083 5256.38666,4885.14131 5261.39349,4883.78108 C5264.4988,4882.93744 5283.68835,4880.06659 5286.3125,4880.00476 C5311.15468,4879.41948 5336.42533,4884.5255 5360.85972,4880.00476 L5382.67842,4877.97674 C5397.617,4875.21288 5411.50692,4867.76155 5426.89858,4866.34476 C5441.24387,4865.0243 5455.71046,4866.34476 5470.11639,4866.34476" id="Path-128" stroke="#000000"/>
        <path d="M4917.81891,4180.92364 C4947.50881,4194.11743 4978.56756,4204.58382 5006.88862,4220.505 C5142.70867,4296.85861 4946.97081,4202.57401 5020.66517,4239.87609 C5021.54562,4240.32175 5023.15914,4240.74569 5023.62561,4239.87609 L5028.8938,4227.40493 C5033.39728,4219.00947 5038.59484,4212.7948 5045.84059,4206.63521 C5050.47132,4202.69864 5055.13707,4198.68469 5060.43301,4195.70255 C5064.96258,4193.15195 5069.83652,4190.51389 5075.02543,4190.20125 C5100.55085,4188.66334 5126.1754,4189.62204 5151.74054,4190.20125 C5153.70576,4190.24578 5155.37845,4191.87728 5157.33508,4192.0661 C5179.07554,4194.16409 5205.45307,4195.329 5225.86817,4193.93094 C5228.10851,4193.77752 5229.45614,4191.18607 5231.46271,4190.17794 C5244.36128,4183.6975 5269.20068,4167.22072 5283.84158,4175.3291 C5295.41556,4181.73898 5302.30803,4194.29044 5311.90751,4203.39504 C5313.33671,4204.75056 5314.88028,4206.58231 5316.84935,4206.63521 C5355.39114,4207.67064 5393.96468,4206.08425 5432.51643,4206.63521 C5433.88629,4206.65479 5445.1679,4210.90842 5445.47711,4209.87538 C5447.5408,4202.9808 5447.83148,4163.31085 5447.83148,4159.54784" id="Path-129" stroke="#000000"/>
        <polyline id="Path-130" stroke="#000000" points="5076.10998 3287.26301 5380.00996 3287.26301 5520.22308 3287.26301"/>
        <polyline id="Path-131" stroke="#000000" points="3685.27498 2393.47643 3787.77675 2393.47643 3974.31017 2393.47643"/>
        <path d="M4965.99161,2641.18656 C5078.42422,2641.18656 5190.86595,2642.61876 5303.28944,2641.18656 C5323.73013,2640.92616 5344.00733,2637.44533 5364.40609,2636.11103 C5383.34674,2634.8721 5402.32744,2634.3491 5421.28812,2633.46814" id="Path-132" stroke="#000000"/>
        <path d="M4899.79943,1751.34618 C4998.69728,1751.34618 5097.60113,1752.43622 5196.49298,1751.34618 C5225.68715,1751.02439 5254.97449,1750.45482 5283.97838,1747.11156 C5500.61726,1722.13971 5298.01849,1734.84323 5417.80432,1728.31106" id="Path-133" stroke="#000000"/>
        <path d="M4978.8156,926.04618 C5043.58623,926.04618 5108.37502,927.579941 5173.1275,926.04618 C5553.80793,917.029186 5079.25811,918.748222 5367.49946,918.748222" id="Path-134" stroke="#000000"/>
        <path d="M854.628122,6395.43061 C987.370859,6395.43061 1137.28801,6378.53523 1268.98999,6418.1654 C1270.38959,6418.58655 1274.83072,6418.29374 1273.37477,6418.1654 C1268.62913,6417.74709 1263.8644,6417.58477 1259.10921,6417.29445" id="Path-136" stroke="#000000"/>
        <path d="M2072.60634,6379.39312 C2330.03579,6379.39312 2333.57528,6459.38977 2309.95517,6342.3327" id="Path-138" stroke="#000000"/>
        <path d="M3236.9761,6323.23187 C3523.52653,6323.23187 3668.57932,6396.57818 3556.28431,6303.23006" id="Path-140" stroke="#000000"/>
        <path d="M4406.42139,6190.42705 C4465.25555,6190.42705 4524.09302,6189.8029 4582.92387,6190.42705 C4595.11331,6190.55637 4593.25514,6190.09476 4593.25514,6198.0854" id="Path-142" stroke="#000000"/>
        <polyline id="Path-144" stroke="#000000" points="5592.50483 6176.76215 5913.31468 6176.76215 5915.17671 6176.76215"/>
        <path d="M6096.30423,767.86368 C6238.99984,762.527862 6381.69545,757.192043 6524.39106,751.856224" id="Path-146" stroke="#000000"/>
        <path d="M6117.59745,1801.92133 C6249.38116,1801.92133 6381.18281,1799.74704 6512.94859,1801.92133 C6522.13957,1802.07299 6531.9074,1810.6909 6541.23944,1810.6909" id="Path-148" stroke="#000000"/>
        <path d="M6020.3514,2602.08392 C6486.35359,2602.08392 6333.98815,2640.20729 6491.53523,2600.07172" id="Path-150" stroke="#000000"/>
        <path d="M6318.60665,3280.43367 L6590.13276,3280.43367" id="Path-152" stroke="#000000"/>
        <path d="M6759.03695,4236.91672 C6035.27529,4181.48912 6538.33051,4277.08032 6411.64812,4200.99755 C6409.86234,4199.92505 6407.23103,4200.43145 6405.73166,4198.98536 C6404.84537,4198.13056 6405.73166,4196.52267 6405.73166,4195.29133" id="Path-154" stroke="#000000"/>
        <path d="M6253.25539,4913.37441 C6609.03583,4913.37441 6492.27027,4884.4156 6614.15896,4915.35657" id="Path-157" stroke="#000000"/>
        <path d="M6454.95534,5639.59636 C6765.46767,5637.48599 6649.45811,5633.84808 6803.15506,5639.80659" id="Path-159" stroke="#000000"/>
        <path d="M7403.96024,878.77463 C7447.67792,878.77463 7491.45489,876.498516 7535.11327,878.77463 C7589.10834,881.589644 7642.56201,895.863043 7696.59937,894.031268 C7721.92828,893.172661 7744.31464,876.547903 7769.00833,870.845984 C7806.45311,862.199766 7844.53023,856.39053 7882.5922,851.084434 C7891.8925,849.787908 7901.46876,849.744596 7910.76292,851.084434 C8288.76745,905.577216 7665.90421,822.424784 8079.69714,891.778811 C8099.71999,895.134754 8120.31404,891.063132 8140.60356,891.778811 C8154.68483,892.275505 8168.29108,896.373822 8182.76955,896.373822" id="Path-161" stroke="#000000"/>
        <path d="M7217.66709,2017.16606 C7353.85811,2018.66314 7581.29358,1975.69697 7743.3003,2037.31804" id="Path-163" stroke="#000000"/>
        <path d="M7343.92478,2764.32084 C7516.523,2763.66012 7689.11995,2762.33868 7861.71944,2762.33868 C7864.01088,2762.33868 7895.12617,2770.26732 7880.24964,2770.26732" id="Path-165" stroke="#000000"/>
        <path d="M7355.09566,3445.75614 C7803.02243,3445.75614 7638.54802,3443.15154 7848.57929,3447.01241" id="Path-167" stroke="#000000"/>
        <path d="M7510.14026,4216.47752 C7650.2562,4214.59311 7790.36839,4212.40672 7930.48806,4210.8243 C7957.23094,4210.52229 7983.98051,4210.40518 8010.72181,4210.8243 C8011.31891,4210.83366 8012.57229,4212.04209 8011.97808,4212.10151 C8007.32517,4212.5668 8002.62585,4212.10151 7997.94974,4212.10151" id="Path-169" stroke="#000000"/>
        <path d="M7590.35308,4863.62385 C8016.39825,4863.62385 8022.60959,4722.33075 8014.61625,4868.20923" id="Path-171" stroke="#000000"/>
        <path d="M7715.81253,5673.16396 C7776.44848,5673.16396 7837.2386,5668.84263 7897.72036,5673.16396 C8357.54466,5706.0177 7803.82328,5689.65134 8081.55448,5696.17463" id="Path-174" stroke="#000000"/>
        <polyline id="Path-176" stroke="#000000" points="7524.41986 6337.10243 7858.23162 6337.10243 7945.70986 6337.10243"/>
        <path d="M886.696351,7285.33341 C1019.89126,7285.00863 1153.09844,7286.19534 1286.28109,7284.35908 C1291.20366,7284.29121 1295.4022,7280.34637 1300.27302,7279.63121 C1324.80808,7276.02884 1350.16074,7293.04698 1368.81114,7306.64076" id="Path-197" stroke="#000000"/>
        <polyline id="Path-198" stroke="#000000" points="870.388399 7870.53489 929.774259 7870.53489 965.281189 7870.53489 975.008458 7870.53489 1002.68885 7870.53489 1026.80737 7870.53489 1054.48776 7870.53489 1075.26802 7870.53489 1099.16292 7870.53489 1123.28144 7870.53489 1147.39995 7870.53489 1165.08154 7870.53489 1182.42771 7870.53489 1189.96674 7870.53489 1204.77328 7870.53489 1214.50054 7870.53489 1226.46397 7870.53489 1236.19124 7870.53489 1245.82267 7870.53489 1255.54994 7870.53489 1264.98971 7870.53489 1274.71698 7870.53489 1284.33244 7870.53489 1291.87147 7870.53489 1301.59874 7870.53489 1307.17315 7870.53489 1314.69621 7870.53489 1320.27063 7870.53489 1325.84504 7870.53489 1329.67844 7870.53489 1333.49588 7870.53489 1337.32929 7870.53489 1341.16269 7870.53489 1344.98013 7870.53489 1348.81353 7870.53489 1352.64694 7870.53489 1354.97893 7870.53489 1357.31092 7870.53489 1359.64291 7870.53489 1361.9749 7870.53489 1363.02908 7870.53489 1364.0673 7870.53489 1365.12148 7870.53489 1366.1597 7870.53489 1367.21389 7870.53489 1368.20418 7870.53489 1369.25837 7870.53489 1370.31256 7870.53489 1371.36674 7870.53489 1373.69873 7870.53489 1376.03072 7870.53489 1378.36271 7870.53489 1380.6947 7870.53489 1384.52811 7870.53489 1386.8601 7870.53489 1387.91428 7870.53489 1390.24627 7870.53489 1391.30046 7870.53489 1392.35465 7870.53489 1393.40883 7870.53489 1394.46302 7870.53489 1395.50123 7870.53489 1396.55542 7870.53489 1397.60961 7870.53489 1399.9416 7870.53489 1402.27359 7870.53489 1404.5896 7870.53489 1406.92159 7870.53489 1410.755 7870.53489 1413.08699 7870.53489 1415.403 7870.53489 1417.71902 7870.53489 1420.05101 7870.53489 1422.36703 7870.53489 1424.69901 7870.53489 1425.7532 7870.53489 1426.80739 7870.53489 1427.86158 7870.53489 1428.91576 7870.53489 1429.95398 7870.53489"/>
        <path d="M763.707884,8572.03235 C914.09456,8572.03235 1064.48469,8571.0139 1214.86791,8572.03235 C1223.35367,8572.08982 1231.86169,8573.30848 1240.12048,8575.2588 C1244.77136,8576.35711 1249.04468,8578.76053 1253.21795,8581.08878 C1253.60921,8581.30705 1252.69749,8582.12592 1252.2596,8582.03116 C1248.91254,8581.30679 1245.76411,8579.85889 1242.51636,8578.77276" id="Path-199" stroke="#000000"/>
        <path d="M2017.82287,8365.15617 C2176.02012,8365.15617 2334.22189,8366.35397 2492.4146,8365.15617 C2497.50219,8365.11765 2502.20941,8362.32669 2507.22113,8361.45054 C2515.50883,8360.00169 2523.86156,8358.83839 2532.25009,8358.19215 C2575.77756,8354.83882 2627.84807,8355.82166 2667.186,8356.56295 C2669.46358,8356.60587 2671.50923,8358.00048 2673.67085,8358.71924" id="Path-200" stroke="#000000"/>
        <polyline id="Path-201" stroke="#000000" points="2423.42925 7757.70495 2503.49953 7757.70495 2518.30607 7757.70495 2533.1126 7757.70495 2545.2677 7757.70495 2557.21515 7757.70495 2566.94242 7757.70495 2579.09751 7757.70495 2581.4295 7757.70495 2600.05347 7757.70495 2607.54458 7757.70495 2615.08362 7757.70495 2620.65803 7757.70495 2626.2005 7757.70495 2631.77491 7757.70495 2634.1069 7757.70495 2635.16108 7757.70495 2637.4771 7757.70495 2638.53129 7757.70495 2639.58547 7757.70495 2640.63966 7757.70495 2641.69385 7757.70495 2642.63623 7757.70495 2643.62652 7757.70495 2645.95851 7757.70495 2649.79192 7757.70495 2653.62533 7757.70495 2659.19974 7757.70495 2663.03315 7757.70495 2665.36513 7757.70495 2667.69712 7757.70495 2668.75131 7757.70495"/>
        <path d="M2088.96451,7130.03252 C2361.77259,7131.00805 2270.4535,7108.71894 2370.92755,7134.58469" id="Path-202" stroke="#000000"/>
        <path d="M3132.98347,7069.47089 C3548.64161,7048.86894 3255.75796,7031.20358 3428.75567,7079.9844 C3435.53995,7081.89739 3444.5945,7084.62279 3449.90217,7079.9844 C3474.89045,7058.14707 3489.79775,7026.25739 3514.97444,7004.63756 C3518.72022,7001.42096 3520.60644,7014.14408 3525.44813,7015.11125 C3543.48477,7018.71419 3562.17791,7017.25227 3580.56443,7017.73962 C3595.24102,7018.12864 3609.95115,7016.91414 3624.60967,7017.73962 C3625.84674,7017.80929 3626.15275,7019.77025 3627.23805,7020.368 C3685.35449,7052.37675 3625.42043,7014.52871 3662.1238,7043.62517 C3673.94249,7052.99439 3687.35772,7061.27068 3698.68215,7070.90455 C3703.5867,7075.07692 3706.52404,7081.80416 3712.34175,7084.56415 C3757.28061,7105.88369 3716.86708,7082.8813 3730.10322,7081.89595 C3741.14371,7081.07404 3752.27578,7082.71671 3763.31636,7081.89595 C3764.13712,7081.83493 3764.01261,7079.86574 3763.31636,7079.42687 C3754.73362,7074.01689 3737.33284,7076.59937 3730.62093,7076.59937" id="Path-268" stroke="#000000"/>
        <path d="M3139.07653,7614.62043 C3203.80366,7596.04921 3266.06147,7563.28031 3333.25793,7558.90677 C3377.46118,7556.02977 3417.95198,7585.68994 3461.53075,7593.63323 C3481.9427,7597.3538 3503.07536,7592.22139 3523.77553,7593.63323 C3530.33018,7594.08028 3536.23115,7597.97613 3542.69188,7599.16875 C3564.27115,7603.15217 3579.2571,7603.05141 3601.5118,7611.87258 C3607.55496,7614.26792 3613.36127,7617.28172 3618.95468,7620.59401 C3622.90001,7622.93036 3625.68084,7627.29295 3630.02572,7628.75792 C3647.84011,7634.76441 3645.26739,7617.60098 3656.86704,7611.71328 C3657.9803,7611.14822 3658.24715,7609.06639 3659.49542,7609.04508 C3710.71478,7608.17076 3761.95781,7609.99143 3813.1759,7609.04508 C3821.06155,7608.89938 3826.95651,7603.42991 3835.31799,7603.42991" id="Path-269" stroke="#000000"/>
        <path d="M3075.99545,7863.83847 C3151.24937,7870.2634 3226.28415,7880.2412 3301.75721,7883.11325 C3973.52278,7908.6766 3523.52914,7875.14584 3707.52306,7889.16648" id="Path-270" stroke="#000000"/>
        <path d="M3056.40209,8369.76146 C3084.25228,8396.31074 3121.32033,8483.07431 3139.95266,8449.40929 L3142.54121,8449.40929 C3155.01024,8426.88015 3174.5967,8361.29512 3212.79059,8347.89813 C3218.27715,8345.97365 3224.57397,8346.56541 3230.23347,8347.89813 C3241.26176,8350.49512 3252.40718,8353.78117 3262.17224,8359.52671 C3277.22369,8368.38265 3284.40196,8386.21707 3299.36778,8393.8151 C3311.92936,8400.19252 3298.82899,8389.33613 3304.46524,8388.87694 C3333.51823,8386.50994 3357.61665,8387.62814 3384.15289,8392.02303 C3387.42459,8392.56488 3390.28322,8394.93411 3393.59116,8395.16912 C3405.17726,8395.99223 3416.85216,8396.00877 3428.43708,8395.16912 C3435.05082,8394.68977 3444.50309,8376.86322 3451.41548,8374.89874 C3458.3235,8372.93551 3465.81959,8374.13284 3472.96021,8374.89874 C3477.08705,8375.34139 3492.33991,8416.05036 3503.7441,8426.03265 C3510.40499,8431.86305 3507.17847,8420.71061 3511.0717,8418.42628 C3517.27974,8414.78375 3522.2077,8408.72685 3529.03228,8406.43928 C3585.82389,8387.40299 3618.26976,8388.72809 3681.35875,8392.1425 C3683.83319,8392.27642 3684.26702,8396.60844 3686.6155,8397.39926 C3689.88644,8398.50069 3693.60389,8396.63547 3696.96972,8397.39926 C3698.33354,8397.70874 3701.01343,8404.19692 3702.22648,8405.00562 C3706.30513,8407.72473 3703.93659,8400.54071 3707.48323,8407.634 C3710.91548,8414.49849 3703.17486,8406.90239 3710.11161,8410.26238 C3711.15913,8410.76977 3711.77733,8413.5737 3712.5807,8412.73146 C3713.74431,8411.51155 3712.5807,8409.3597 3712.5807,8407.67382" id="Path-271" stroke="#000000"/>
        <path d="M4056.06194,7099.37865 C4266.79682,7099.37865 4266.01363,7029.39507 4266.01363,7101.72826" id="Path-272" stroke="#000000"/>
        <path d="M4130.45301,7399.88989 C4156.81644,7419.90804 4176.7472,7455.45294 4209.5433,7459.94435 C4235.90174,7463.55413 4258.97998,7437.99494 4278.75726,7420.20009 C4326.6111,7377.14301 4364.13668,7323.64484 4410.57441,7279.06414 C4417.15956,7272.74233 4427.1314,7267.45509 4436.10154,7269.14799 C4445.95232,7271.00708 4454.83393,7279.29802 4459.31888,7288.26346 C4467.32747,7304.27266 4475.62476,7343.99035 4479.27066,7368.19006 C4481.13703,7380.57804 4475.45989,7381.38797 4484.76636,7393.39859 C4487.80686,7397.32255 4493.63996,7391.20473 4497.54984,7385.55328 C4514.93127,7360.42968 4491.37475,7383.36293 4512.88204,7370.65914 C4515.25008,7369.2604 4516.12612,7365.78384 4518.69634,7364.80502 C4521.67366,7363.67117 4525.11169,7365.32985 4528.25408,7364.80502 C4531.55402,7364.25388 4534.42931,7361.76008 4537.77199,7361.61911 C4559.76179,7360.69176 4582.00073,7358.5857 4603.80004,7361.61911 C4620.3562,7363.92293 4634.91281,7374.61332 4651.38961,7377.4292 C4666.14941,7379.95165 4681.59944,7374.63908 4696.31099,7377.4292 C4701.18031,7378.3527 4703.92955,7383.91998 4706.8245,7387.94272 C4708.36683,7390.08589 4708.14978,7393.08958 4709.29358,7395.46944 C4709.6386,7396.18731 4709.74624,7393.73535 4709.29358,7393.08 C4707.86389,7391.01016 4705.73598,7389.5224 4703.95718,7387.7436" id="Path-273" stroke="#000000"/>
        <path d="M3979.8788,7859.49767 C4072.21718,7822.95259 4159.91143,7771.22391 4256.89393,7749.86244 C4294.28252,7741.62718 4324.7936,7819.89822 4341.79852,7834.52807 C4348.96685,7840.69522 4405.01889,7824.69851 4411.49036,7824.29333 C4439.4981,7822.53973 4467.71562,7821.9253 4495.67811,7824.29333 C4602.68084,7833.35496 4460.96667,7832.13768 4545.53765,7842.85127 C4604.81248,7850.3603 4624.88898,7823.11684 4682.73103,7827.00135 C4684.89302,7827.14655 4686.91842,7828.47725 4688.54532,7829.9085 C4695.04317,7835.62489 4700.78454,7842.14772 4706.90415,7848.26732" id="Path-274" stroke="#000000"/>
        <path d="M4133.28051,8131.57464 C4226.52156,8129.1321 4320.77215,8110.34715 4413.00367,8124.24704 C5314.37216,8260.08907 3781.52922,8126.24752 4521.36454,8192.90346 C4544.85841,8195.02016 4568.56244,8191.93624 4592.13163,8192.90346 C4624.88099,8194.24742 4657.58129,8196.80361 4690.21793,8199.83282 C4694.97212,8200.27409 4699.34279,8203.20253 4704.11647,8203.2975 C4850.03306,8206.20049 4816.60101,8194.17149 4887.58524,8209.07197 C4890.15756,8209.61193 4892.97688,8208.24081 4895.47037,8209.07197 C4896.30154,8209.34903 4895.47037,8210.82422 4895.47037,8211.70035" id="Path-275" stroke="#000000"/>
        <path d="M4144.83789,8594.92096 C4159.98375,8624.20251 4158.70542,8673.2715 4190.27547,8682.76559 C4225.67316,8693.41078 4257.02509,8650.38146 4292.27612,8639.26023 C4303.68785,8635.65998 4316.64151,8636.07026 4328.17465,8639.26023 C4353.76649,8646.33872 4375.32006,8668.30663 4401.84292,8669.56551 C4411.68174,8670.0325 4410.69113,8651.95343 4415.59216,8643.40941 C4419.53802,8636.53057 4431.9052,8637.40192 4437.23298,8638.91446 C4447.61481,8641.86185 4443.90477,8646.62038 4449.07035,8652.82642 C4458.23635,8663.83866 4471.75544,8682.55587 4488.87399,8684.63679 C4526.02321,8689.15264 4546.72698,8651.25129 4582.69832,8648.59588 C4593.90857,8647.76834 4605.32955,8646.76732 4616.42057,8648.59588 C4653.58675,8654.72343 4617.35239,8660.48123 4654.57675,8662.46716 C4680.45875,8663.84797 4706.45151,8661.08007 4732.33318,8662.46716 C4749.65234,8663.39535 4772.20651,8676.98303 4787.00472,8680.77236 C4805.46703,8685.49995 4824.33883,8688.85361 4843.30338,8690.73853 C4874.46276,8693.8355 4926.25724,8686.60847 4954.84308,8694.11482" id="Path-276" stroke="#000000"/>
        <path d="M5555.091,8155.9012 C5585.3556,8155.9012 5615.6316,8156.73194 5645.8848,8155.9012 C5658.87663,8155.54445 5671.80579,8153.87159 5684.71217,8152.34185 C5686.37495,8152.14477 5687.79713,8150.74477 5689.47152,8150.73506 C5780.22312,8150.20868 5871.02103,8153.537 5961.73089,8150.73506 C5974.10468,8150.35285 5985.51088,8143.74569 5997.62943,8141.21636 C6018.22594,8136.91754 6024.13397,8137.77905 6043.65684,8137.77905" id="Path-277" stroke="#000000"/>
        <path d="M5020.02994,7793.66159 C5652.58578,7815.67664 5289.26185,7903.08243 5550.96216,7712.40683 C5557.70523,7707.4938 5570.90211,7707.65198 5575.91825,7714.3187 C5596.67662,7741.90769 5609.03094,7798.61405 5620.70498,7833.16014 C5622.44904,7838.32122 5622.29771,7846.06579 5627.35587,7848.08905 L5630.04063,7850.77382 C5631.287,7851.27236 5632.90298,7851.44108 5634.06778,7850.77382 L5665.2273,7827.79062 C5686.74084,7815.46639 5718.23461,7811.69444 5742.73966,7810.80746 C5757.70623,7810.26573 5772.71906,7811.70081 5787.66876,7810.80746 C5788.64651,7810.74903 5786.76028,7809.07185 5786.30604,7808.20405" id="Path-278" stroke="#000000"/>
        <path d="M4921.91406,7432.52029 C4970.92454,7417.26595 5019.38214,7400.10623 5068.94551,7386.75728 C5103.74419,7377.38492 5098.78557,7436.08878 5144.13921,7439.15084 C5148.67906,7439.45735 5152.46309,7435.35577 5156.8715,7434.22877 C5169.70569,7430.94774 5195.66363,7423.43159 5212.31592,7426.03211 C5245.42462,7431.20255 5235.18267,7437.14065 5269.00103,7433.08978 C5277.39895,7432.08385 5278.25001,7423.94223 5287.85539,7428.59484 C5296.00937,7432.54442 5296.22728,7442.66879 5307.56399,7443.7068 C5365.77941,7449.03712 5301.06644,7440.62986 5360.32365,7435.32708 C5382.57386,7433.33597 5405.0019,7435.32708 5427.34103,7435.32708" id="Path-279" stroke="#000000"/>
        <path d="M4882.76126,7042.2127 C4908.54448,7019.6295 4933.71269,6996.32423 4960.11091,6974.46311 C4963.54397,6971.6201 4969.27975,6964.7811 4971.98895,6968.3207 C4976.37749,6974.05435 4971.62267,6982.77077 4971.98895,6989.98185 C4973.72495,7024.15855 4975.40215,7058.35197 4978.29408,7092.45031 C4980.00765,7112.65485 4979.2254,7133.6349 4985.79921,7152.8168 C4989.35933,7163.20498 4986.17062,7130.80115 4987.71109,7119.92845 C4990.73452,7098.58898 4993.97596,7077.18973 4999.4671,7056.34838 C5001.491,7048.66674 5005.80445,7041.70506 5010.08411,7035.01265 C5013.19851,7030.14245 5017.00547,7025.60209 5021.47402,7021.9346 C5026.53944,7017.77723 5032.40375,7014.61189 5038.33514,7011.82606 C5042.09542,7010.05995 5046.1753,7008.73907 5050.31488,7008.38875 C5059.8267,7007.5838 5069.75606,7005.82925 5078.95235,7008.38875 C5083.96797,7009.78469 5087.11953,7015.09374 5089.99649,7019.43289 C5106.54849,7044.39731 5112.61201,7079.26799 5133.35948,7100.78935 C5133.98059,7101.43363 5136.00796,7101.68353 5136.04424,7100.78935 C5136.93843,7078.7531 5134.5979,7056.63311 5136.04424,7034.62621 C5136.3694,7029.67873 5137.44074,7044.57084 5139.44087,7049.10766 C5147.41556,7067.19631 5156.14566,7084.98536 5165.84104,7102.21308 C5169.05137,7107.9175 5173.26354,7113.11613 5178.00383,7117.63013 C5178.97596,7118.55585 5180.85101,7118.27019 5182.03098,7117.63013 C5183.00909,7117.09957 5183.17774,7115.70045 5183.51573,7114.64028 C5188.93786,7097.63306 5193.53432,7080.3613 5199.29889,7063.46707 C5202.63959,7053.67646 5206.02724,7043.81899 5210.81082,7034.64655 C5213.00651,7030.43634 5216.4574,7026.9223 5220.0041,7023.76512 C5221.28681,7022.62329 5223.17058,7022.20827 5224.88549,7022.11765 C5233.63944,7021.65512 5242.43021,7021.65145 5251.18396,7022.11765 C5254.44221,7022.29118 5257.7221,7022.9022 5260.78403,7024.02953 C5265.11451,7025.62392 5269.32656,7027.65939 5273.17055,7030.21262 C5279.50907,7034.42276 5284.85248,7040.01613 5291.191,7044.22627 C5295.03498,7046.7795 5299.78388,7047.78192 5303.57752,7050.40936 C5320.23134,7061.94361 5335.37116,7075.62662 5352.39139,7086.61298 C5353.91524,7087.59661 5356.86593,7086.95262 5357.67956,7085.33162 C5359.06337,7082.57465 5357.34495,7079.14389 5357.67956,7076.07732 C5357.84585,7074.55342 5357.76568,7072.35223 5359.16432,7071.72475 C5361.66334,7070.6036 5364.66276,7071.39075 5367.38132,7071.72475 C5369.07516,7071.93286 5370.92535,7072.24625 5372.24237,7073.33154 C5383.93274,7082.96505 5394.40943,7094.01205 5406.10699,7103.63682 C5409.79405,7106.67053 5413.82882,7109.44922 5418.26978,7111.20297 C5420.43898,7112.0596 5424.04022,7113.18681 5425.26644,7111.20297 C5430.64921,7102.49446 5432.10937,7091.89407 5436.04617,7082.44346 C5436.79671,7080.64173 5438.56728,7079.37908 5439.28009,7077.56208 C5440.80068,7073.68597 5441.04292,7069.37143 5442.67672,7065.54166 C5443.60205,7063.3726 5444.7585,7060.92292 5446.84624,7059.82637 C5448.82695,7058.78603 5451.54836,7058.84336 5453.55814,7059.82637 C5459.29238,7062.63105 5463.6014,7067.83473 5469.25994,7070.78915 C5473.82109,7073.17061 5478.76869,7075.34958 5483.9041,7075.67054 C5505.01559,7076.99001 5526.26919,7077.2591 5547.36214,7075.67054 C5549.07885,7075.54125 5548.44689,7072.40272 5548.98926,7070.76881" id="Path-280" stroke="#000000"/>
        <path d="M5055.50135,6566.74524 C5055.50135,6640.19618 5047.12772,6549.89487 5119.1221,6559.11807 C5154.23854,6563.61685 5184.20182,6590.3307 5209.18369,6615.41674 C5223.42536,6629.71779 5211.83682,6666.48144 5231.31265,6671.77642 C5256.25961,6678.55886 5279.40326,6652.57457 5302.39785,6640.75928 C5345.23298,6618.74934 5320.41597,6610.20645 5383.65261,6603.84378 C5421.83296,6600.0022 5460.44508,6601.96098 5498.77199,6603.84378 C5540.94191,6605.91537 5513.93076,6613.47085 5540.38582,6610.9218 C5544.5094,6610.52447 5543.79357,6606.81648 5546.60959,6604.51498 C5556.56357,6596.3797 5569.82869,6587.11119 5582.99626,6585.33519 C5609.00749,6581.82689 5611.40559,6608.78137 5640.31188,6613.01673 C5654.23786,6615.05716 5668.71541,6610.35386 5682.53588,6613.01673 C5690.68422,6614.58671 5696.49963,6622.17184 5704.1767,6625.32189 C5825.22193,6674.98898 5655.76401,6602.69401 5756.855,6633.72194 C5766.95527,6636.82202 5775.18733,6644.23048 5784.35349,6649.48476" id="Path-281" stroke="#000000"/>
        <path d="M6187.37393,6916.44093 C6279.69888,6924.49729 6372.15646,6931.156 6464.34877,6940.60999 C6468.48284,6941.03393 6485.29115,6959.29999 6493.10608,6957.12121 C6515.84736,6950.78098 6536.13797,6937.09995 6558.95707,6931.04577 C6572.6103,6927.4234 6587.32382,6930.77631 6601.25292,6928.42853 C6624.5727,6924.49793 6646.8305,6914.87972 6670.33508,6912.27274 C6695.69282,6909.46021 6733.53191,6909.38573 6762.39076,6914.85767 C6764.11809,6915.18519 6765.35109,6917.15889 6767.10825,6917.21641 C6789.54201,6917.95079 6812.00916,6916.5682 6834.44558,6917.21641 C6836.42044,6917.27347 6838.31325,6928.2281 6838.80764,6930.20567 C6839.92985,6934.69452 6842.25675,6939.82568 6843.07277,6943.90577 C6843.63041,6946.69398 6843.07277,6955.27945 6843.07277,6952.43603 C6843.07277,6949.52799 6843.86272,6946.5106 6843.07277,6943.7119 C6841.92789,6939.65575 6839.30309,6936.17254 6837.41824,6932.40285" id="Path-282" stroke="#000000"/>
        <path d="M6082.9106,7279.55844 C6110.26893,7255.86347 6160.41587,7190.17336 6211.2845,7219.52353 C6241.67878,7237.06042 6256.05895,7273.87334 6281.98223,7297.52368 C6285.62642,7300.84834 6292.23912,7299.44864 6296.78093,7297.52368 C6300.23023,7296.06176 6300.5522,7290.8726 6303.4048,7288.44412 C6305.24632,7286.8764 6308.21332,7287.34962 6310.25486,7286.05307 C6347.77626,7262.22369 6280.61631,7295.10294 6349.80423,7266.50456 C6359.09476,7262.66438 6374.34543,7253.55778 6385.37928,7257.16652 C6405.21847,7263.65514 6424.75937,7284.31555 6440.01815,7288.6703 C6441.94455,7289.22009 6444.52832,7289.99843 6446.02811,7288.6703 C6448.67496,7286.32641 6448.5592,7281.94908 6450.7456,7279.1707 C6460.71344,7266.50398 6506.15868,7229.05969 6523.28509,7227.50449 C6537.2723,7226.23435 6551.46504,7225.91333 6565.41939,7227.50449 C6591.13875,7230.43717 6588.23681,7246.08876 6608.29685,7248.70088 C6626.21849,7251.03456 6645.01912,7253.22877 6662.51568,7248.70088 C6668.58927,7247.12911 6668.19233,7237.47147 6671.72447,7232.2866 C6673.43537,7229.77516 6676.31642,7228.23611 6678.12217,7225.79197 C6678.55097,7225.21157 6677.40182,7223.66996 6678.12217,7223.6271 C6723.61644,7220.92007 6715.50127,7228.63194 6752.56804,7239.8152 C6776.31717,7246.98045 6800.09782,7254.3734 6824.4613,7259.04059 C6839.47674,7261.91702 6853.74726,7258.75191 6868.30811,7261.39933 C6868.94392,7261.51493 6868.88422,7263.6308 6868.30811,7263.33803 C6866.65148,7262.49613 6865.6801,7260.71002 6864.3661,7259.39602" id="Path-283" stroke="#000000"/>
        <path d="M6134.93224,7718.25272 C6351.24985,7714.25115 6233.14714,7680.36838 6320.94999,7751.27516 C6331.32701,7759.6553 6342.53492,7776.29889 6355.16795,7772.01919 C6370.32819,7766.88334 6370.92207,7744.0651 6380.37098,7731.14504 C6391.66305,7715.70473 6434.06225,7670.67624 6458.59731,7668.62214 C6474.21379,7667.31472 6490.28115,7665.3679 6505.61066,7668.62214 C6516.84943,7671.00797 6525.31425,7680.61565 6535.91892,7685.03642 C6543.0703,7688.01762 6551.07247,7688.36276 6558.4724,7690.65864 C6563.70255,7692.28133 6568.41014,7695.44028 6573.72346,7696.76553 C6596.32365,7702.40247 6619.40974,7705.94428 6642.03014,7711.49961 C6649.9685,7713.44918 6657.29857,7717.55614 6665.29447,7719.25438 C6669.61403,7720.17181 6674.76376,7716.96888 6678.54222,7719.25438 C6680.82773,7720.63684 6676.5684,7725.468 6678.54222,7727.26765 C6685.88916,7733.96634 6701.47875,7719.47716 6707.5257,7717.08951 C6726.38216,7709.644 6788.1407,7689.04458 6812.99069,7688.52607 C6852.20841,7687.70778 6891.4432,7688.52607 6930.66946,7688.52607" id="Path-284" stroke="#000000"/>
    </g>
</svg>
