<?xml version="1.0" encoding="UTF-8"?>
<svg width="6868px" height="7048px" viewBox="0 0 6868 7048" version="1.1" xmlns="http://www.w3.org/2000/svg" xmlns:xlink="http://www.w3.org/1999/xlink">
    <!-- Generator: Sketch 56.3 (81716) - https://sketch.com -->
    <title>text-1</title>
    <desc>Created with Sketch.</desc>
    <g id="text-1" stroke="none" stroke-width="3" fill="none" fill-rule="evenodd">
        <path d="M166,313.695402 C251.784763,313.695402 337.608322,311.115715 423.354288,313.695402 C430.508755,313.910646 441.958058,322.565432 450.192338,324.42361 C463.750857,327.483276 477.208404,327.234516 490.878892,328.753459 C496.632518,329.392751 507.026038,332.73433 512.177541,332.9606 C521.027376,333.349311 530.16411,330.790864 538.752645,332.9606 L549.638621,334.240271 C550.318452,334.412018 549.980447,335.731615 549.638621,336.343842 C549.447767,336.685668 548.855625,336.343842 548.464127,336.343842" id="Path-106" stroke="#000000"></path>
        <path d="M395.604691,839.342543 C491.291568,835.677939 454.853802,836.705034 641.143926,838.238169 C660.976033,838.401384 689.584333,850.933022 708.475703,857.555955 C710.275902,858.187069 711.725232,859.734158 713.59439,860.115299 C720.002451,861.421971 725.234052,860.561706 731.930511,861.272263 C734.373616,861.531499 738.767894,863.58619 741.519285,863.58619" id="Path-107" stroke="#000000"></path>
        <path d="M481.342707,1494.18396 C550.890882,1494.18396 649.085034,1493.16477 713.384033,1499.25005 C752.579124,1502.95949 784.931594,1513.82486 821.174478,1522.33674 C826.702435,1523.63501 832.027983,1525.78809 837.617385,1526.78929 C848.061167,1528.66004 860.350204,1527.54396 870.713557,1528.19167 C871.66551,1528.25117 872.325048,1529.3649 873.272901,1529.47135 C883.186053,1530.58467 893.828926,1531.90798 903.914907,1531.90798" id="Path-108" stroke="#000000"></path>
        <path d="M449.508678,2085.09436 C531.173242,2085.09436 551.326944,2083.62757 650.382105,2094.85843 C671.362148,2097.23715 710.141079,2109.81489 732.877117,2115.29813 C743.569671,2117.87684 753.292276,2117.80371 764.237844,2119.62797 C772.069803,2120.9333 779.544125,2124.69013 787.09664,2126.39446 C794.363169,2128.03425 801.825275,2128.98467 808.973771,2130.35618 C812.63218,2131.05809 817.178022,2133.97247 820.666115,2134.86133 C821.758938,2135.13981 822.982279,2134.49642 824.049357,2134.86133 C824.414265,2134.98612 824.049357,2135.63264 824.049357,2136.01829" id="Path-109" stroke="#000000"></path>
        <path d="M691.524433,2831.21319 C1076.36564,2831.21319 1101.58167,2955.77806 1072.74395,2824.76225" id="Path-110" stroke="#000000"></path>
        <path d="M440.90157,3373.40842 C610.759022,3376.40016 780.670302,3377.16508 950.473928,3382.38365 C1011.78705,3384.26799 982.283143,3391.81288 1022.62639,3396.54769 C1025.38881,3396.8719 1028.5155,3397.85493 1030.97055,3396.54769 C1032.38448,3395.79482 1028.10736,3395.11025 1026.67576,3394.39153" id="Path-111" stroke="#000000"></path>
        <path d="M277.489222,4006.0747 C380.962585,4002.45368 485.579229,4010.12194 588.852676,4001.62214 C606.467585,4000.17237 622.897067,3992.07255 640.092141,3987.98399 C642.076122,3987.51225 644.221181,3988.4348 646.210024,3987.98399 C682.115099,3979.84551 679.192211,3977.81674 715.084419,3977.81674" id="Path-112" stroke="#000000"></path>
        <path d="M1280.01573,4008.54639 C1310.90316,4008.9262 1341.79611,4008.98889 1372.678,4009.68583 C1380.90104,4009.8714 1389.12825,4010.32393 1397.3073,4011.19338 C1408.53691,4012.38712 1420.05005,4017.61951 1431.56044,4015.40052 C1434.15331,4014.90067 1435.88744,4012.29185 1438.32692,4011.28103 C1441.63475,4009.91041 1445.2839,4009.53363 1448.65195,4008.31851 C1452.18194,4007.04495 1455.35695,4004.81992 1458.97697,4003.83089 C1460.93853,4003.29497 1463.05989,4004.0856 1465.07733,4003.83089 C1469.7967,4003.23504 1474.92164,4001.23573 1479.59196,4000.88589 C1504.16435,3999.04526 1484.28621,4003.05384 1506.35989,3999.34327 C1519.05365,3997.20946 1505.86424,3998.77961 1518.59566,3994.73295 C1556.84903,3982.57417 1527.91011,3990.98936 1551.46394,3988.68518 C1552.93701,3988.54108 1554.19314,3987.34503 1555.67108,3987.26527 C1563.02872,3986.86823 1570.44011,3986.5756 1577.7761,3987.26527 C1583.02408,3987.75864 1582.02984,3989.93601 1585.20872,3992.13854 C1588.34491,3994.31151 1591.6059,3996.30963 1594.93773,3998.16878 C1598.26255,4000.02402 1601.85844,4001.36939 1605.15757,4003.26994 C1606.90646,4004.27743 1608.2256,4005.96091 1610.03084,4006.86354 C1610.72072,4007.20848 1611.65489,4006.5186 1612.34477,4006.86354 C1612.68971,4007.03601 1611.96059,4007.98683 1612.34477,4008.0205 C1615.24635,4008.27482 1637.6402,4005.42669 1637.6402,4012.98142" id="Path-113" stroke="#000000"></path>
        <path d="M2170.79008,3944.33491 C2233.00317,3938.26962 2295.0429,3930.03613 2357.42935,3926.13903 C2395.53252,3923.75884 2356.49401,3932.91694 2375.18699,3935.46486 C2382.28518,3936.43236 2389.58279,3934.47902 2396.67846,3935.46486 C2403.76507,3936.44943 2410.49734,3939.1927 2417.32851,3941.31979 C2419.64502,3942.04111 2421.67342,3943.85178 2424.09499,3944.00185 C2436.24318,3944.75465 2448.47235,3944.91602 2460.60947,3944.00185 C2462.08815,3943.89047 2458.14361,3942.35405 2456.91069,3941.53015" id="Path-114" stroke="#000000"></path>
        <path d="M1661.00736,3418.84554 C1662.98822,3388.33208 1664.12218,3357.75182 1666.94995,3327.30517 C1667.02884,3326.45571 1668.69233,3327.05947 1669.50929,3327.30517 C1671.84742,3328.00837 1674.45209,3328.48651 1676.27578,3330.10993 C1681.55815,3334.81226 1685.91163,3340.47482 1690.42229,3345.92177 C1746.83888,3414.04902 1671.53522,3323.96387 1705.30505,3367.4483 C1707.20068,3369.88926 1710.0535,3371.49763 1711.86117,3374.00443 C1720.02555,3385.32641 1726.44688,3398.26501 1736.28012,3408.38028 C1737.45494,3409.5888 1739.29546,3409.99324 1740.48726,3411.18504 C1741.67905,3412.37683 1742.02191,3414.28421 1743.29202,3415.39218 C1745.11803,3416.98508 1747.19901,3418.50456 1749.55014,3419.09095 C1752.32256,3419.78242 1755.52344,3420.27879 1758.12219,3419.09095 C1761.19613,3417.68592 1762.72001,3414.11705 1765.27433,3411.90376 C1769.42762,3408.30496 1773.775,3404.92745 1778.21128,3401.68391 C1782.30089,3398.69384 1786.46466,3395.78327 1790.83271,3393.21704 C1792.10886,3392.4673 1793.76487,3392.54887 1795.03985,3391.79713 C1796.07558,3391.18645 1796.54593,3389.84847 1797.58166,3389.23779 C1798.85664,3388.48605 1800.46699,3388.48384 1801.7888,3387.81788 C1808.12585,3384.62513 1813.76074,3379.87463 1820.51058,3377.68568 C1831.18671,3374.22344 1842.33576,3371.99054 1853.5191,3371.0419 C1868.56985,3369.76522 1883.73461,3370.61952 1898.83351,3371.0419 C1900.30378,3371.08303 1901.73702,3371.71305 1903.02312,3372.42675 C1905.97059,3374.06242 1908.77698,3375.96621 1911.4374,3378.03628 C1914.92496,3380.74993 1917.94746,3384.02764 1921.42936,3386.74856 C1921.73323,3386.98602 1922.52517,3387.12934 1922.58632,3386.74856 C1924.61921,3374.08917 1918.06172,3383.68276 1926.79346,3366.86982 C1928.33137,3363.90859 1930.12715,3360.51651 1933.17429,3359.15673 C1936.49332,3357.67563 1940.8002,3357.58607 1944.0778,3359.15673 C1946.85169,3360.48601 1947.19468,3364.49933 1949.19648,3366.83476 C1952.33717,3370.49889 1955.44173,3374.36056 1959.43386,3377.07214 C1963.79308,3380.03306 1968.93006,3381.67048 1973.84332,3383.57568 C1979.3563,3385.71343 1984.89973,3387.9025 1990.67188,3389.1852 C1993.40985,3389.79364 1996.29855,3388.87546 1999.08616,3389.1852 C2000.55535,3389.34844 2001.81718,3390.50843 2003.2933,3390.58758 C2010.59855,3390.97928 2017.97326,3389.74687 2025.24055,3390.58758 C2030.86297,3391.238 2036.09776,3393.83122 2041.63087,3395.0226 C2043.00183,3395.3178 2044.49211,3394.6286 2045.83801,3395.0226 C2049.07944,3395.97152 2051.95968,3397.91628 2055.16383,3398.98433 C2055.97317,3399.25411 2056.90862,3398.73074 2057.72318,3398.98433 C2058.24392,3399.14645 2058.33559,3400.11086 2058.88014,3400.14129 C2065.38522,3400.50483 2071.92192,3399.7573 2078.42581,3400.14129 C2079.90148,3400.22842 2081.18636,3401.23943 2082.63296,3401.54367 C2085.6179,3402.17146 2088.70542,3402.24593 2091.67831,3402.92852 C2092.60793,3403.14197 2093.29094,3404.09204 2094.23765,3404.20819 C2096.84174,3404.52769 2099.51362,3404.59541 2102.10851,3404.20819 C2102.49572,3404.15041 2102.10851,3403.4252 2102.10851,3403.0337" id="Path-115" stroke="#000000"></path>
        <path d="M1755.35249,2845.13182 C1755.77904,2832.63895 1755.47737,2820.0999 1756.63216,2807.65321 C1756.74137,2806.4761 1757.95821,2805.48143 1759.06879,2805.07633 C1760.51801,2804.54771 1762.88837,2803.76242 1763.69665,2805.07633 C1765.9407,2808.72419 1765.51499,2813.45566 1766.74683,2817.55752 C1772.69231,2837.35527 1777.45742,2853.36951 1787.08134,2871.96987 C1792.43355,2882.31421 1797.78872,2886.69168 1809.67719,2885.50284 C1811.76987,2885.29357 1814.02879,2885.10188 1815.79507,2883.96022 C1817.21466,2883.04264 1817.49201,2881.01222 1818.59983,2879.73555 C1820.64976,2877.37318 1823.19786,2875.4728 1825.22608,2873.09177 C1830.16014,2867.29943 1834.75262,2861.22432 1839.46024,2855.24648 C1843.52353,2850.08683 1847.72131,2845.02454 1851.53824,2839.68006 C1858.46887,2829.97575 1865.4258,2820.86342 1873.04724,2811.47469 C1874.41438,2809.79054 1875.8797,2808.1319 1877.64004,2806.86437 C1880.55089,2804.7684 1883.48015,2802.38054 1886.94833,2801.4652 C1890.5416,2800.51685 1894.55124,2800.35314 1898.09726,2801.4652 C1902.73677,2802.9202 1905.86009,2808.05362 1910.64856,2808.89782 C1920.36792,2810.61134 1930.41321,2808.17991 1940.25631,2808.89782 C1943.81137,2809.15711 1947.18943,2810.60889 1950.54627,2811.80776 C1954.07598,2813.06837 1957.51819,2814.58562 1960.8713,2816.26032 C1968.06714,2819.85425 1974.91298,2824.13323 1982.16995,2827.60206 C1985.69136,2829.28531 1989.34005,2830.81078 1993.14357,2831.6865 C1995.34156,2832.19256 1997.66658,2831.45401 1999.91006,2831.6865 C2002.20121,2831.92392 2004.37642,2832.96555 2006.67654,2833.08888 C2013.12991,2833.4349 2019.63641,2833.75667 2026.06445,2833.08888 C2028.48198,2832.83773 2030.42941,2830.74625 2032.83093,2830.37177 C2036.34121,2829.82439 2039.98623,2829.7784 2043.48902,2830.37177 C2044.49931,2830.54291 2044.63934,2832.49358 2045.66271,2832.54545 C2059.21334,2833.2324 2072.80336,2832.19218 2086.36679,2832.54545 C2087.66376,2832.57924 2088.80218,2833.49622 2090.0831,2833.70242 C2091.22536,2833.88629 2092.43157,2833.42181 2093.55399,2833.70242 C2094.0831,2833.8347 2094.16901,2834.79813 2094.71095,2834.85938 C2097.71861,2835.19929 2100.78269,2834.52861 2103.79137,2834.85938 C2104.73946,2834.96362 2105.41613,2835.94848 2106.35071,2836.13905 C2107.5645,2836.38656 2108.82825,2836.13905 2110.06702,2836.13905" id="Path-116" stroke="#000000"></path>
        <path d="M1718.68025,2132.05657 C1719.9716,2113.74966 1718.50359,2095.03563 1722.55432,2077.13586 C1723.1837,2074.35468 1728.27605,2076.80968 1731.10884,2077.13586 C1732.05639,2077.24496 1733.19626,2077.58665 1733.66818,2078.41553 C1736.26344,2082.9738 1737.71236,2088.10268 1740.03148,2092.80745 C1740.77668,2094.31922 1742.24202,2095.43737 1742.83624,2097.01459 C1744.45997,2101.32437 1745.09233,2105.95833 1746.62267,2110.30215 C1751.16014,2123.18158 1756.9253,2135.7493 1762.10144,2148.3943 C1768.84395,2164.86583 1773.02671,2182.96474 1785.25824,2196.63617 C1788.14545,2199.86326 1791.24602,2202.90217 1794.44383,2205.82176 C1796.55999,2207.7538 1798.79159,2209.57805 1801.17526,2211.16834 C1802.76214,2212.22704 1804.43483,2213.30023 1806.29395,2213.72768 C1821.75911,2217.28345 1815.56843,2197.50407 1821.98307,2184.64582 C1824.04522,2180.51223 1828.82142,2178.38318 1831.72962,2174.7941 C1838.71974,2166.1674 1839.82952,2157.61995 1846.41955,2149.23573 C1847.67326,2147.64068 1849.60355,2146.71306 1851.29282,2145.58954 C1852.0892,2145.05987 1852.89606,2144.31763 1853.85216,2144.29234 C1869.3372,2143.88265 1884.84009,2143.82629 1900.32354,2144.29234 C1903.13444,2144.37694 1905.80366,2145.62024 1908.59758,2145.94013 C1921.1549,2147.37788 1932.2637,2148.09838 1945.60288,2147.46522 C1950.87507,2147.21497 1953.91803,2136.38629 1956.19085,2132.58246 C2012.00209,2039.17616 1948.7166,2144.43977 1972.00269,2111.07346 C1976.84486,2104.13518 1980.33507,2096.95789 1986.27191,2090.96683 C1986.94513,2090.28746 1987.87893,2089.75827 1988.83125,2089.66963 C1992.6072,2089.31816 1996.57154,2088.59397 2000.20806,2089.66963 C2003.20223,2090.55528 2013.65543,2110.61049 2013.68844,2110.67027 C2024.26397,2129.82289 2037.22062,2156.04694 2058.03871,2165.87146 C2059.4285,2166.52733 2061.59419,2166.98903 2062.64904,2165.87146 C2065.2822,2163.08173 2065.64986,2158.76253 2067.76773,2155.56397 C2072.32777,2148.67705 2078.4118,2147.63275 2085.50783,2144.74811 C2087.6212,2143.889 2089.46272,2142.40553 2091.62572,2141.6804 C2095.61382,2140.34342 2099.71344,2139.29245 2103.86148,2138.59517 C2128.33371,2134.4814 2163.34882,2136.56085 2182.65772,2136.92984 C2225.84771,2137.7552 1868.84954,2183.32197 2213.15949,2138.20951 C2223.06594,2136.91154 2229.30648,2129.99318 2238.0868,2126.41199 C2239.38532,2125.88236 2240.92401,2126.71194 2242.29394,2126.41199 C2242.83076,2126.29445 2242.90158,2125.25318 2243.4509,2125.23749 C2256.77393,2124.85716 2270.12563,2125.92644 2283.43626,2125.23749 C2284.78282,2125.1678 2285.85596,2123.95448 2286.80198,2122.99369 C2287.07665,2122.71472 2286.62899,2122.1704 2286.80198,2121.81919 C2287.04479,2121.3262 2287.57329,2121.0362 2287.95894,2120.6447" id="Path-117" stroke="#000000"></path>
        <path d="M1594.62219,1520.30329 C1605.36209,1485.99172 1614.8527,1451.26384 1626.84188,1417.36858 C1627.30757,1416.05198 1629.67156,1417.0509 1631.03149,1417.36858 C1633.37971,1417.91713 1635.95425,1418.37365 1637.79797,1419.92793 C1641.54376,1423.08567 1644.30636,1427.26032 1647.33416,1431.11191 C1652.44983,1437.61942 1657.81032,1443.98352 1662.21692,1450.99065 C1677.64809,1475.52843 1686.02867,1503.82845 1702.25487,1527.82355 C1706.04398,1533.42684 1718.06675,1552.51373 1728.82997,1547.73735 C1729.60975,1547.39131 1728.58494,1545.99517 1728.82997,1545.178 C1729.8365,1541.82134 1730.9903,1538.48375 1732.54628,1535.34381 C1732.69932,1535.03498 1736.37249,1533.00888 1737.17413,1532.99483 C1759.11801,1532.61015 1781.07303,1532.55553 1803.01588,1532.99483 C1804.49382,1533.02441 1805.74906,1534.2849 1807.22302,1534.39721 C1811.94238,1534.75678 1816.77328,1535.28596 1821.42212,1534.39721 C1823.41481,1534.01625 1824.55616,1531.79553 1826.29539,1530.75102 C1828.7552,1529.27376 1831.299,1527.89885 1833.97342,1526.85941 C1836.99136,1525.68646 1840.07342,1524.42117 1843.29925,1524.1423 C1850.64021,1523.5077 1858.04503,1523.77628 1865.40427,1524.1423 C1865.94899,1524.16939 1866.01644,1525.27353 1866.56123,1525.29927 C1874.32993,1525.66629 1882.12545,1524.91534 1889.89333,1525.29927 C1890.84598,1525.34635 1891.50775,1526.44903 1892.45268,1526.57894 C1894.68137,1526.88533 1896.97569,1526.25319 1899.20163,1526.57894 C1899.74128,1526.65791 1899.81336,1527.72242 1900.35859,1527.7359 C1915.56977,1528.11191 1930.79024,1527.7359 1946.00607,1527.7359" id="Path-118" stroke="#000000"></path>
        <path d="M1513.44191,912.389019 C1513.05626,893.211471 1511.29384,874.012177 1512.28495,854.856374 C1512.36142,853.378254 1515.17428,854.110302 1516.49209,853.436464 C1523.34342,849.93316 1531.44669,845.601322 1539.49112,844.969594 C1551.01942,844.064276 1562.65412,844.065319 1574.1825,844.969594 C1576.15463,845.124285 1590.45129,850.556735 1593.0971,851.823727 C1593.10161,851.825883 1624.27351,866.360046 1633.36294,872.75425 C1643.97443,880.219181 1659.14884,893.081942 1670.17542,897.313433 C1675.06887,899.19131 1680.72096,896.504861 1685.89961,897.313433 C1711.69502,901.341014 1735.24151,919.265712 1762.01379,915.509315 C1774.88576,913.70326 1794.41127,898.75337 1806.76725,911.109348" id="Path-119" stroke="#000000"></path>
        <path d="M1302.52394,347.124639 C1559.54543,369.891011 1506.42479,434.722803 1510.32161,236.213899 C1510.37256,233.61893 1510.76404,230.215683 1513.00367,228.903992 C1515.82222,227.253239 1519.60429,228.241606 1522.8028,228.903992 C1523.98422,229.148655 1524.78718,230.402662 1525.36214,231.463336 C1526.77795,234.075188 1527.12705,237.201769 1528.67527,239.737379 C1534.47334,249.23327 1554.71356,280.268221 1561.26307,289.188809 C1571.25295,302.79525 1584.80743,305.936095 1599.49546,314.379063 C1603.82531,316.86794 1607.21088,320.745989 1611.34558,323.547123 C1623.28254,331.634066 1635.77827,339.064092 1647.64969,347.334996 C1653.65515,351.519045 1659.27511,356.23657 1665.24956,360.46478 C1667.15956,361.816517 1669.43912,362.613662 1671.2798,364.058379 C1673.22287,365.583468 1668.92702,365.197813 1672.43676,365.197813 C1672.78736,365.197813 1671.73557,365.197813 1671.38498,365.197813" id="Path-120" stroke="#000000"></path>
        <path d="M2392.54144,408.899485 C2523.59386,408.899485 2654.64696,408.480147 2785.69872,408.899485 C2791.11144,408.916804 2792.95295,409.672525 2795.93609,413.650048 C2796.16748,413.958571 2796.28524,414.970801 2795.93609,414.807011 C2792.27403,413.089084 2788.93588,410.751795 2785.43577,408.724187" id="Path-121" stroke="#000000"></path>
        <path d="M2430.283,985.453025 C2450.55908,971.107845 2470.31089,955.991337 2491.11123,942.417484 C2492.54013,941.485021 2495.12538,941.11702 2496.22992,942.417484 C2502.75082,950.095054 2507.71447,959.004921 2512.6553,967.783035 C2516.34378,974.336168 2518.53457,981.645934 2522.05125,988.292845 C2523.34158,990.731723 2525.89045,992.39821 2527.01217,994.919091 C2561.53716,1072.50851 2481.59281,907.512533 2534.49737,1013.43051 C2535.68165,1015.80151 2536.30606,1020.88495 2539.47582,1022.47586 C2540.15995,1022.81923 2541.53945,1023.20508 2541.77222,1022.47586 C2545.70337,1010.16023 2544.85203,999.224794 2551.18569,988.047429 C2562.3071,968.420855 2572.32709,953.629907 2594.92243,949.832569 C2612.15687,946.936175 2612.26565,942.923016 2634.90779,947.010279 C2641.65713,948.228642 2647.44049,963.25754 2655.99608,959.789469 C2663.26535,956.84282 2666.43279,944.867874 2674.13937,944.205519 C2678.30195,943.84776 2682.51016,943.85256 2686.67315,944.205519 C2690.85958,944.560466 2694.87158,950.983698 2696.61252,954.267597 C2697.21235,955.399055 2714.80038,997.941345 2726.92146,1007.03215 C2740.34601,1017.10057 2748.12948,1004.38843 2756.61686,1003.12302 C2779.09598,999.771515 2782.6394,998.348545 2795.48032,1008.2417 C2796.77645,1009.24029 2797.36094,1011.32766 2798.95121,1011.71259 C2811.9844,1014.86733 2818.63446,1004.25109 2830.11911,1003.45608 C2835.49955,1003.08363 2841.39408,1005.69863 2846.29907,1003.45608 C2848.80579,1002.31001 2841.51929,1000.70975 2839.1294,999.336589" id="Path-122" stroke="#000000"></path>
        <path d="M2832.34539,2199.05528 C3165.21129,2199.05528 3257.31613,2255.82389 3156.90874,2195.46168" id="Path-123" stroke="#000000"></path>
        <path d="M2645.74118,2846.21866 C2646.20864,2813.14586 2645.52336,2780.03666 2647.14356,2747.00027 C2647.2473,2744.88484 2648.93737,2742.73522 2650.85986,2741.84652 C2661.67066,2736.84908 2672.55901,2757.69777 2677.11943,2763.9866 C2688.4316,2779.58608 2701.21933,2794.14878 2711.30245,2810.65079 C2717.98581,2821.58878 2723.33343,2833.388 2730.88318,2843.74697 C2732.86654,2846.46831 2741.53831,2839.36349 2742.78588,2838.8737 C2785.94349,2821.93016 2758.16764,2834.34184 2774.0239,2825.34073 C2776.13762,2824.14083 2778.36543,2822.78833 2780.79038,2822.62362 C2791.84372,2821.87284 2802.95575,2822.20897 2814.02679,2822.62362 C2815.504,2822.67894 2816.95706,2823.28115 2818.23394,2824.026 C2818.23697,2824.02777 2838.32347,2839.03161 2840.84732,2839.87289 C2842.31077,2840.36071 2844.5442,2841.10292 2845.47517,2839.87289 C2847.17578,2837.626 2846.15095,2834.22627 2847.12297,2831.58132 C2848.4967,2827.84326 2851.00383,2824.59802 2852.45201,2820.88817 C2856.26503,2811.12023 2858.83721,2800.88447 2862.88221,2791.2103 C2864.09804,2788.30249 2873.00988,2772.50964 2876.4853,2768.36903 C2877.1002,2767.63645 2878.09208,2767.15779 2879.04464,2767.07183 C2882.96706,2766.71786 2887.08906,2765.93478 2890.8597,2767.07183 C2894.21955,2768.08501 2902.14467,2782.72925 2903.8843,2785.70596 C2907.10858,2791.22306 2912.39253,2796.32574 2915.87465,2801.78074 C2925.33252,2816.59717 2919.93672,2813.81555 2933.91277,2826.70805 C2934.4797,2827.23103 2935.50627,2826.43254 2936.2267,2826.70805 C2946.11397,2830.48921 2957.52787,2837.09981 2968.41132,2838.59322 C2970.64588,2838.89984 2972.97696,2838.09971 2975.1778,2838.59322 C2986.25236,2841.07654 2997.22203,2844.06726 3008.04609,2847.4808 C3044.23488,2858.89353 2917.00476,2831.18724 3028.81884,2855.75485 C3031.52972,2856.35048 3034.44649,2855.10744 3037.14548,2855.75485 C3043.89575,2857.37402 3051.40627,2864.3269 3058.00588,2864.3269" id="Path-124" stroke="#000000"></path>
        <path d="M2537.47743,3368.76304 C2557.24515,3361.51156 2577.31568,3355.03757 2596.78058,3347.00861 C2604.14522,3343.97082 2610.43255,3338.66581 2617.79875,3335.63181 C2622.34339,3333.75995 2627.49108,3333.86309 2632.19068,3332.42386 C2634.367,3331.75737 2636.06972,3329.8525 2638.29103,3329.35615 C2654.25791,3325.78836 2678.22627,3325.38811 2692.42291,3326.39363 C2694.10414,3326.5127 2695.11663,3328.45656 2696.63005,3329.19839 C2699.29771,3330.50599 2702.43259,3330.86288 2704.90409,3332.51151 C2707.50265,3334.2449 2709.07109,3337.21181 2711.53034,3339.13776 C2718.52639,3344.6167 2726.07708,3349.35228 2733.19711,3354.66912 C2736.34927,3357.02297 2735.87279,3359.14659 2740.87514,3359.7878 C2846.74919,3373.35902 2733.90228,3359.40269 2758.28218,3358.4906 C2768.97954,3358.0904 2779.71689,3357.75888 2790.39669,3358.4906 C2861.01294,3363.32886 2736.16128,3359.2525 2816.07778,3366.88735 C2816.81233,3366.95753 2850.61539,3363.76839 2863.81129,3368.16702 C2868.41471,3369.7015 2872.69951,3372.12669 2877.34426,3373.53113 C2878.68662,3373.93702 2880.19637,3373.16979 2881.5514,3373.53113 C2887.2647,3375.05468 2892.55155,3378.14434 2898.37996,3379.14065 C2923.88111,3383.49982 2906.73169,3374.55941 2920.15191,3382.61154" id="Path-125" stroke="#000000"></path>
        <path d="M3001.6302,3970.62954 C3057.94333,3966.40125 3011.88818,3969.47257 3140.09771,3969.47257" id="Path-126" stroke="#000000"></path>
        <path d="M3661.71301,3937.14771 C3742.79395,3937.14771 3823.87803,3937.86056 3904.95585,3937.14771 C3905.66869,3937.14144 3905.50107,3935.46834 3904.95585,3935.00908 C3903.81959,3934.05199 3902.05886,3934.25577 3900.73118,3933.58917 C3899.21767,3932.82928 3897.91473,3931.70765 3896.50651,3930.76688" id="Path-127" stroke="#000000"></path>
        <path d="M3445.37834,3331.07407 C3484.72679,3298.14735 3521.43048,3261.77339 3563.42369,3232.29392 C3571.28648,3226.77419 3587.27921,3230.75811 3594.3637,3237.25484 C3614.2853,3255.52363 3622.16173,3282.70727 3633.73552,3306.12923 C3638.24591,3315.25693 3643.79704,3323.83825 3648.47805,3332.87963 C3651.88184,3339.45409 3660.58459,3361.41071 3669.91693,3361.71608 C3682.09359,3362.11451 3694.32884,3362.7686 3706.46646,3361.71608 C3710.35353,3361.37901 3713.65738,3358.61949 3717.42256,3357.59658 C3719.75778,3356.96216 3734.18848,3354.80326 3736.16186,3354.75676 C3754.8434,3354.31662 3773.84714,3358.1564 3792.22201,3354.75676 L3808.62986,3353.23168 C3819.8638,3351.15323 3830.30913,3345.54976 3841.8838,3344.48433 C3852.67158,3343.49133 3863.55057,3344.48433 3874.38396,3344.48433" id="Path-128" stroke="#000000"></path>
        <path d="M3459.05155,2829.04181 C3481.37861,2838.96365 3504.73505,2846.83447 3526.03273,2858.80733 C3628.17057,2916.22589 3480.97403,2845.32307 3536.39281,2873.37455 C3537.05492,2873.70969 3538.2683,2874.0285 3538.61909,2873.37455 L3542.58081,2863.99614 C3545.96746,2857.68267 3549.87608,2853.00919 3555.32494,2848.37713 C3558.80729,2845.4168 3562.31597,2842.39827 3566.29857,2840.15567 C3569.70484,2838.2376 3573.37009,2836.25375 3577.27219,2836.01865 C3596.46752,2834.86213 3615.7374,2835.58308 3634.96261,2836.01865 C3636.44047,2836.05214 3637.69834,2837.27904 3639.16975,2837.42103 C3655.51876,2838.99874 3675.35489,2839.87476 3690.70722,2838.82341 C3692.39197,2838.70804 3693.4054,2836.75925 3694.91436,2836.00112 C3704.61419,2831.12778 3723.29363,2818.73709 3734.30371,2824.83467 C3743.00745,2829.65495 3748.19064,2839.09376 3755.40953,2845.94049 C3756.4843,2846.95986 3757.64508,2848.33735 3759.12584,2848.37713 C3788.10959,2849.15578 3817.11722,2847.9628 3846.10847,2848.37713 C3847.13861,2848.39185 3855.62248,2851.59062 3855.85501,2850.81376 C3857.40692,2845.62898 3857.62552,2815.79684 3857.62552,2812.96703" id="Path-129" stroke="#000000"></path>
        <polyline id="Path-130" stroke="#000000" points="3578.08778 2157.00141 3806.62316 2157.00141 3912.06462 2157.00141"></polyline>
        <polyline id="Path-131" stroke="#000000" points="2532.16802 1484.86629 2609.25023 1484.86629 2749.52494 1484.86629"></polyline>
        <path d="M3495.27783,1671.14642 C3579.82811,1671.14642 3664.38525,1672.22344 3748.92867,1671.14642 C3764.30024,1670.95059 3779.54887,1668.33298 3794.88891,1667.32957 C3809.13244,1666.39789 3823.40609,1666.00459 3837.66468,1665.3421" id="Path-132" stroke="#000000"></path>
        <path d="M3445.50075,1001.97887 C3519.87277,1001.97887 3594.24931,1002.79859 3668.61682,1001.97887 C3690.57108,1001.73688 3712.59542,1001.30857 3734.40659,998.794404 C3897.32087,980.015362 3744.96487,989.568511 3835.04483,984.656266" id="Path-133" stroke="#000000"></path>
        <path d="M3504.92158,381.346246 C3553.62964,381.346246 3602.35137,382.499647 3651.04578,381.346246 C3937.3207,374.56539 3580.4552,375.858119 3797.21515,375.858119" id="Path-134" stroke="#000000"></path>
        <path d="M403.497482,4494.3699 C503.321151,4494.3699 616.060127,4481.66444 715.101134,4511.46666 C716.153647,4511.78337 719.493413,4511.56317 718.398527,4511.46666 C714.829766,4511.15209 711.246647,4511.03002 707.670707,4510.8117" id="Path-136" stroke="#000000"></path>
        <path d="M1319.42747,4482.30957 C1513.01661,4482.30957 1515.67834,4542.46774 1497.91582,4454.43983" id="Path-138" stroke="#000000"></path>
        <path d="M2195.04345,4440.07584 C2410.53181,4440.07584 2519.61274,4495.23288 2435.16594,4425.03431" id="Path-140" stroke="#000000"></path>
        <path d="M3074.47626,4340.20548 C3118.72005,4340.20548 3162.96633,4339.73611 3207.20763,4340.20548 C3216.37419,4340.30273 3214.97683,4339.9556 3214.97683,4345.96463" id="Path-142" stroke="#000000"></path>
        <polyline id="Path-144" stroke="#000000" points="3966.42111 4329.92936 4207.67284 4329.92936 4209.07311 4329.92936"></polyline>
        <path d="M4345.28254,262.39166 C4452.59086,258.379078 4559.89917,254.366497 4667.20749,250.353916" id="Path-146" stroke="#000000"></path>
        <path d="M4361.29523,1040.01182 C4460.3977,1040.01182 4559.51366,1038.37673 4658.60265,1040.01182 C4665.51435,1040.12587 4672.85984,1046.6066 4679.87761,1046.6066" id="Path-148" stroke="#000000"></path>
        <path d="M4288.16537,1641.7409 C4638.60298,1641.7409 4524.02288,1670.41 4642.49962,1640.22771" id="Path-150" stroke="#000000"></path>
        <path d="M4512.45586,2151.86568 L4716.6458,2151.86568" id="Path-152" stroke="#000000"></path>
        <path d="M4843.66319,2871.14908 C4299.38826,2829.46705 4677.69007,2901.35245 4582.42383,2844.13756 C4581.08091,2843.33103 4579.10214,2843.71184 4577.97461,2842.62437 C4577.30811,2841.98156 4577.97461,2840.77241 4577.97461,2839.84643" id="Path-154" stroke="#000000"></path>
        <path d="M4463.31115,3379.85102 C4730.86107,3379.85102 4643.05238,3358.07375 4734.71371,3381.34162" id="Path-157" stroke="#000000"></path>
        <path d="M4614.99123,3925.97611 C4848.49915,3924.3891 4761.25897,3921.65336 4876.84039,3926.13421" id="Path-159" stroke="#000000"></path>
        <path d="M5328.651,345.797638 C5361.52706,345.797638 5394.44772,344.085981 5427.27919,345.797638 C5467.88394,347.914552 5508.08156,358.64827 5548.71811,357.270759 C5567.76567,356.62508 5584.6004,344.123121 5603.17027,339.835229 C5631.32906,333.333199 5659.96338,328.964604 5688.5863,324.974375 C5695.58021,323.999376 5702.78164,323.966805 5709.77093,324.974375 C5994.03355,365.95341 5525.63509,303.422074 5836.8109,355.576893 C5851.86826,358.10059 5867.35515,355.038696 5882.61305,355.576893 C5893.20228,355.950411 5903.4343,359.03238 5914.32223,359.03238" id="Path-161" stroke="#000000"></path>
        <path d="M5188.55696,1201.87769 C5290.97377,1203.0035 5462.00718,1170.69258 5583.83761,1217.03214" id="Path-163" stroke="#000000"></path>
        <path d="M5283.50382,1763.74444 C5413.29915,1763.24757 5543.09353,1762.25384 5672.88981,1762.25384 C5674.613,1762.25384 5698.01196,1768.21625 5686.82468,1768.21625" id="Path-165" stroke="#000000"></path>
        <path d="M5291.90442,2276.18959 C5628.74916,2276.18959 5505.063,2274.2309 5663.00831,2277.13431" id="Path-167" stroke="#000000"></path>
        <path d="M5408.49928,2855.77863 C5513.86765,2854.36154 5619.23322,2852.71735 5724.6044,2851.52736 C5744.71527,2851.30024 5764.83118,2851.21218 5784.94087,2851.52736 C5785.38988,2851.5344 5786.33244,2852.44315 5785.88559,2852.48783 C5782.38656,2852.83774 5778.85263,2852.48783 5775.33616,2852.48783" id="Path-169" stroke="#000000"></path>
        <path d="M5468.82,3342.43818 C5789.2096,3342.43818 5793.88058,3236.18456 5787.86951,3345.88643" id="Path-171" stroke="#000000"></path>
        <path d="M5563.16657,3951.21923 C5608.76532,3951.21923 5654.48001,3947.96956 5699.96281,3951.21923 C6045.7546,3975.92553 5629.35141,3963.61789 5838.20763,3968.52345" id="Path-174" stroke="#000000"></path>
        <polyline id="Path-176" stroke="#000000" points="5419.23766 4450.50662 5670.26695 4450.50662 5736.05133 4450.50662"></polyline>
        <path d="M427.613063,5163.58438 C527.776771,5163.34015 627.9497,5164.23256 728.104187,5162.85168 C731.806003,5162.80064 734.963343,5159.83409 738.626241,5159.29629 C757.076818,5156.58727 776.142229,5169.38506 790.167489,5179.60769" id="Path-197" stroke="#000000"></path>
        <polyline id="Path-198" stroke="#000000" points="415.349345 5603.66088 460.008017 5603.66088 486.709531 5603.66088 494.02452 5603.66088 514.84041 5603.66088 532.977741 5603.66088 553.793631 5603.66088 569.420562 5603.66088 587.389732 5603.66088 605.527063 5603.66088 623.664393 5603.66088 636.961098 5603.66088 650.005562 5603.66088 655.67498 5603.66088 666.809619 5603.66088 674.124608 5603.66088 683.121205 5603.66088 690.436194 5603.66088 697.679115 5603.66088 704.994105 5603.66088 712.092888 5603.66088 719.407877 5603.66088 726.638786 5603.66088 732.308204 5603.66088 739.623193 5603.66088 743.815199 5603.66088 749.472604 5603.66088 753.66461 5603.66088 757.856615 5603.66088 760.73937 5603.66088 763.610113 5603.66088 766.492867 5603.66088 769.375622 5603.66088 772.246365 5603.66088 775.12912 5603.66088 778.011874 5603.66088 779.76555 5603.66088 781.519225 5603.66088 783.272901 5603.66088 785.026577 5603.66088 785.819334 5603.66088 786.60008 5603.66088 787.392838 5603.66088 788.173584 5603.66088 788.966341 5603.66088 789.711053 5603.66088 790.50381 5603.66088 791.296568 5603.66088 792.089325 5603.66088 793.843001 5603.66088 795.596677 5603.66088 797.350352 5603.66088 799.104028 5603.66088 801.986782 5603.66088 803.740458 5603.66088 804.533215 5603.66088 806.286891 5603.66088 807.079649 5603.66088 807.872406 5603.66088 808.665164 5603.66088 809.457921 5603.66088 810.238667 5603.66088 811.031425 5603.66088 811.824182 5603.66088 813.577858 5603.66088 815.331533 5603.66088 817.073198 5603.66088 818.826873 5603.66088 821.709628 5603.66088 823.463303 5603.66088 825.204968 5603.66088 826.946632 5603.66088 828.700307 5603.66088 830.441972 5603.66088 832.195647 5603.66088 832.988405 5603.66088 833.781162 5603.66088 834.57392 5603.66088 835.366677 5603.66088 836.147423 5603.66088"></polyline>
        <path d="M335.12469,6131.19295 C448.216751,6131.19295 561.311405,6130.42706 674.400872,6131.19295 C680.782233,6131.23616 687.180339,6132.1526 693.391018,6133.61926 C696.888516,6134.4452 700.102093,6136.25259 703.240429,6138.00345 C703.534654,6138.1676 702.849034,6138.7834 702.51974,6138.71213 C700.002719,6138.1674 697.635073,6137.07857 695.192739,6136.26179" id="Path-199" stroke="#000000"></path>
        <path d="M1278.22984,5975.62029 C1397.19551,5975.62029 1516.1646,5976.52105 1635.12686,5975.62029 C1638.95277,5975.59133 1642.49264,5973.4925 1646.2615,5972.83363 C1652.49391,5971.74408 1658.77524,5970.86927 1665.08348,5970.38329 C1697.81651,5967.86156 1736.97398,5968.60066 1766.55644,5969.15812 C1768.2692,5969.1904 1769.80755,5970.23915 1771.4331,5970.77967" id="Path-200" stroke="#000000"></path>
        <polyline id="Path-201" stroke="#000000" points="1583.24929 5518.81181 1643.46282 5518.81181 1654.59746 5518.81181 1665.7321 5518.81181 1674.87284 5518.81181 1683.85742 5518.81181 1691.17241 5518.81181 1700.31314 5518.81181 1702.06682 5518.81181 1716.0722 5518.81181 1721.70559 5518.81181 1727.375 5518.81181 1731.56701 5518.81181 1735.73499 5518.81181 1739.927 5518.81181 1741.68067 5518.81181 1742.47343 5518.81181 1744.21509 5518.81181 1745.00785 5518.81181 1745.80061 5518.81181 1746.59337 5518.81181 1747.38612 5518.81181 1748.0948 5518.81181 1748.83951 5518.81181 1750.59319 5518.81181 1753.47594 5518.81181 1756.3587 5518.81181 1760.5507 5518.81181 1763.43346 5518.81181 1765.18713 5518.81181 1766.94081 5518.81181 1767.73357 5518.81181"></polyline>
        <path d="M1331.72896,5046.79679 C1536.88295,5047.5304 1468.21022,5030.7688 1543.76756,5050.22006" id="Path-202" stroke="#000000"></path>
        <path d="M2116.8401,5001.25393 C2429.41856,4985.76109 2209.16757,4972.47659 2339.26331,5009.16018 C2344.36515,5010.59877 2351.17425,5012.64829 2355.16566,5009.16018 C2373.95706,4992.73832 2385.16748,4968.75702 2404.10056,4952.49872 C2406.91743,4950.07981 2408.33588,4959.6477 2411.97687,4960.37502 C2425.54057,4963.08447 2439.59797,4961.98509 2453.42479,4962.35158 C2464.46172,4962.64413 2475.52386,4961.73081 2486.54719,4962.35158 C2487.47748,4962.40397 2487.7076,4963.87863 2488.52376,4964.32814 C2532.22781,4988.39899 2487.15689,4959.93695 2514.75813,4981.81773 C2523.64589,4988.86346 2533.73426,4995.0873 2542.25033,5002.33206 C2545.93859,5005.46972 2548.1475,5010.52866 2552.52246,5012.60419 C2586.31686,5028.63667 2555.92555,5011.33868 2565.87924,5010.59768 C2574.18178,5009.9796 2582.55319,5011.2149 2590.8558,5010.59768 C2591.47302,5010.5518 2591.37939,5009.07095 2590.8558,5008.74091 C2584.40151,5004.67256 2571.31597,5006.61461 2566.26856,5006.61461" id="Path-268" stroke="#000000"></path>
        <path d="M2121.42213,5411.21103 C2170.09749,5397.24531 2216.91589,5372.60282 2267.4482,5369.31389 C2300.68942,5367.15035 2331.13885,5389.45505 2363.91045,5395.42847 C2379.26041,5398.22637 2395.15235,5394.36676 2410.71906,5395.42847 C2415.64821,5395.76466 2420.08579,5398.69437 2424.94432,5399.59123 C2441.17211,5402.5868 2452.44167,5402.51103 2469.1774,5409.14462 C2473.72191,5410.94594 2478.0883,5413.21234 2482.29459,5415.70322 C2485.26151,5417.46017 2487.35272,5420.74087 2490.62011,5421.84254 C2504.01668,5426.35948 2502.08197,5413.45243 2510.80501,5409.02483 C2511.64219,5408.5999 2511.84286,5407.03434 2512.78157,5407.01832 C2551.29897,5406.36082 2589.83416,5407.72998 2628.3506,5407.01832 C2634.28068,5406.90875 2638.71373,5402.79566 2645.00164,5402.79566" id="Path-269" stroke="#000000"></path>
        <path d="M2073.98463,5598.62512 C2130.57622,5603.45672 2187.00301,5610.96011 2243.75939,5613.11991 C2748.93282,5632.34377 2410.53377,5607.12836 2548.89876,5617.672" id="Path-270" stroke="#000000"></path>
        <path d="M2059.25025,5979.08351 C2080.19383,5999.04879 2108.06932,6064.29574 2122.08099,6038.97936 L2124.0276,6038.97936 C2133.40442,6022.03725 2148.1336,5972.71675 2176.85574,5962.6421 C2180.98168,5961.19488 2185.71694,5961.63989 2189.97293,5962.6421 C2198.2663,5964.59506 2206.64775,5967.0662 2213.99116,5971.3869 C2225.30997,5978.04664 2230.70809,5991.45827 2241.96252,5997.17206 C2251.40893,6001.96793 2241.55734,5993.80383 2245.79585,5993.45852 C2267.64395,5991.67851 2285.76617,5992.51941 2305.72164,5995.8244 C2308.18199,5996.23188 2310.33171,5998.01356 2312.8193,5998.19029 C2321.53215,5998.80928 2330.31177,5998.82171 2339.02373,5998.19029 C2343.99732,5997.82981 2351.10551,5984.4241 2356.30368,5982.94679 C2361.49857,5981.47042 2367.1357,5982.37083 2372.50551,5982.94679 C2375.60892,5983.27967 2387.0792,6013.89316 2395.65525,6021.39993 C2400.6643,6025.78444 2398.23793,6017.39771 2401.16567,6015.67987 C2405.83417,6012.94066 2409.54004,6008.38582 2414.67218,6006.66555 C2457.37995,5992.35009 2481.77952,5993.34658 2529.22298,5995.91424 C2531.08378,5996.01495 2531.41002,5999.27267 2533.17611,5999.86737 C2535.63588,6000.69566 2538.43143,5999.293 2540.96257,5999.86737 C2541.98817,6000.1001 2544.00347,6004.97928 2544.91569,6005.58742 C2547.98288,6007.63221 2546.20171,6002.22977 2548.86882,6007.56399 C2551.4499,6012.72614 2545.62888,6007.01381 2550.84538,6009.54055 C2551.63312,6009.92211 2552.09802,6012.03069 2552.70215,6011.39732 C2553.5772,6010.47993 2552.70215,6008.86173 2552.70215,6007.59393" id="Path-271" stroke="#000000"></path>
        <path d="M2811.00297,5023.74482 C2969.47739,5023.74482 2968.88843,4971.11657 2968.88843,5025.51175" id="Path-272" stroke="#000000"></path>
        <path d="M2866.94569,5249.73184 C2886.77121,5264.78566 2901.75932,5291.51572 2926.42226,5294.8933 C2946.24403,5297.60788 2963.59906,5278.38716 2978.47175,5265.00527 C3014.45824,5232.62599 3042.6778,5192.39491 3077.59937,5158.86984 C3082.55145,5154.11579 3090.05036,5150.13974 3096.79599,5151.41281 C3104.20386,5152.81086 3110.8829,5159.04572 3114.25562,5165.78781 C3120.27815,5177.82686 3126.51778,5207.6949 3129.25953,5225.89329 C3130.66305,5235.20916 3126.3938,5235.81823 3133.39235,5244.85032 C3135.67882,5247.80117 3140.06537,5243.20052 3143.00563,5238.95058 C3156.07661,5220.05742 3138.36191,5237.30342 3154.53558,5227.75006 C3156.31636,5226.6982 3156.97515,5224.08379 3158.90798,5223.34772 C3161.14694,5222.49505 3163.73237,5223.74239 3166.09548,5223.34772 C3168.57707,5222.93325 3170.7393,5221.05789 3173.25303,5220.95188 C3189.78955,5220.25451 3206.51342,5218.67073 3222.90668,5220.95188 C3235.35706,5222.68437 3246.30376,5230.72364 3258.69445,5232.84121 C3269.79395,5234.73811 3281.4125,5230.74301 3292.47571,5232.84121 C3296.13747,5233.53568 3298.20493,5237.72233 3300.38196,5240.74746 C3301.5418,5242.35915 3301.37858,5244.61795 3302.23873,5246.40762 C3302.49819,5246.94746 3302.57913,5245.10356 3302.23873,5244.61074 C3301.16359,5243.0542 3299.56338,5241.93539 3298.22571,5240.59772" id="Path-273" stroke="#000000"></path>
        <path d="M2753.7126,5595.3608 C2823.15185,5567.87859 2889.09867,5528.97818 2962.03034,5512.91417 C2990.14687,5506.72119 3013.09147,5565.58167 3025.87931,5576.58345 C3031.26996,5581.22119 3073.42157,5569.19154 3078.28817,5568.88683 C3099.35023,5567.56811 3120.57004,5567.10605 3141.59808,5568.88683 C3222.06504,5575.70125 3115.49477,5574.78585 3179.09287,5582.84256 C3223.66805,5588.48942 3238.76575,5568.0021 3282.26346,5570.92329 C3283.8893,5571.03248 3285.41242,5572.03318 3286.63586,5573.10949 C3291.5223,5577.40827 3295.83986,5582.31348 3300.44185,5586.91548" id="Path-274" stroke="#000000"></path>
        <path d="M2869.07199,5799.96499 C2939.19006,5798.12819 3010.0673,5784.00175 3079.42619,5794.45458 C3757.26297,5896.60894 2604.55203,5795.95896 3160.91449,5846.08479 C3178.58208,5847.67657 3196.40771,5845.35743 3214.13194,5846.08479 C3238.75974,5847.09546 3263.35064,5849.01773 3287.89367,5851.29573 C3291.46887,5851.62757 3294.75565,5853.82978 3298.3455,5853.9012 C3408.07602,5856.08427 3382.93483,5847.03836 3436.31557,5858.24365 C3438.24998,5858.64971 3440.37013,5857.61861 3442.24526,5858.24365 C3442.8703,5858.452 3442.24526,5859.56136 3442.24526,5860.22021" id="Path-275" stroke="#000000"></path>
        <path d="M2877.76324,6148.40538 C2889.15305,6170.42535 2888.19174,6207.32564 2911.93268,6214.46529 C2938.55205,6222.47056 2962.12897,6190.11214 2988.63804,6181.74888 C2997.21976,6179.04146 3006.96102,6179.34999 3015.63405,6181.74888 C3034.87933,6187.07197 3051.0878,6203.59202 3071.03321,6204.53871 C3078.43209,6204.88989 3077.68714,6191.29427 3081.37276,6184.8691 C3084.34008,6179.69615 3093.64031,6180.35142 3097.64684,6181.48886 C3105.45406,6183.70532 3102.66408,6187.28378 3106.54864,6191.95077 C3113.44155,6200.23207 3123.60802,6214.30757 3136.48132,6215.87244 C3164.41785,6219.2684 3179.98726,6190.76626 3207.03801,6188.76937 C3215.46821,6188.14705 3224.05689,6187.39428 3232.39743,6188.76937 C3260.34672,6193.37734 3233.09817,6197.70726 3261.0912,6199.20069 C3280.55469,6200.23907 3300.10147,6198.15759 3319.5647,6199.20069 C3332.58886,6199.8987 3349.54979,6210.11675 3360.67816,6212.96636 C3374.56198,6216.52155 3388.75373,6219.04353 3403.01524,6220.461 C3426.44736,6222.78995 3465.39725,6217.35516 3486.89404,6223" id="Path-276" stroke="#000000"></path>
        <path d="M3938.28559,5818.25877 C3961.04482,5818.25877 3983.81264,5818.8835 4006.5633,5818.25877 C4016.33326,5817.9905 4026.0561,5816.73249 4035.76181,5815.58212 C4037.01224,5815.43391 4038.08172,5814.3811 4039.34088,5814.3738 C4107.58686,5813.97795 4175.86766,5816.48088 4244.08225,5814.3738 C4253.38744,5814.08637 4261.965,5809.11773 4271.07825,5807.21565 C4286.567,5803.98291 4291.0099,5804.63076 4305.69126,5804.63076" id="Path-277" stroke="#000000"></path>
        <path d="M3535.91511,5545.8515 C4011.60249,5562.40701 3738.3798,5628.13691 3935.18066,5484.74723 C3940.25151,5481.0526 3950.17567,5481.17155 3953.94786,5486.18498 C3969.55833,5506.93213 3978.84888,5549.5758 3987.62786,5575.55475 C3988.93941,5579.43593 3988.82561,5585.25991 3992.62938,5586.78142 L3994.64835,5588.80039 C3995.58563,5589.1753 3996.80086,5589.30217 3997.67679,5588.80039 L4021.10902,5571.51683 C4037.28739,5562.2489 4060.97097,5559.41236 4079.39898,5558.74534 C4090.65396,5558.33796 4101.94374,5559.41715 4113.18604,5558.74534 C4113.92132,5558.70141 4112.50286,5557.44016 4112.16127,5556.78756" id="Path-278" stroke="#000000"></path>
        <path d="M3462.13113,5274.27017 C3498.98744,5262.79878 3535.42796,5249.89453 3572.70004,5239.856 C3598.86894,5232.8079 3595.14002,5276.95371 3629.24634,5279.2564 C3632.66035,5279.4869 3635.50597,5276.40248 3638.82113,5275.55497 C3648.47255,5273.0876 3667.99314,5267.4354 3680.51581,5269.39101 C3705.41383,5273.27922 3697.7118,5277.74473 3723.14349,5274.69844 C3729.4588,5273.94197 3730.0988,5267.8194 3737.32213,5271.3182 C3743.454,5274.28832 3743.61786,5281.90193 3752.14317,5282.68252 C3795.92166,5286.69097 3747.25695,5280.36864 3791.81888,5276.38091 C3808.55123,5274.88357 3825.41731,5276.38091 3842.21652,5276.38091" id="Path-279" stroke="#000000"></path>
        <path d="M3432.6879,4980.75554 C3452.0771,4963.77279 3471.0038,4946.24703 3490.85549,4929.80727 C3493.43718,4927.66931 3497.75054,4922.52632 3499.78788,4925.18813 C3503.0881,4929.49988 3499.51243,4936.0547 3499.78788,4941.4775 C3501.09337,4967.17866 3502.35464,4992.89241 3504.52939,5018.53465 C3505.81801,5033.72864 3505.22975,5049.50582 3510.17331,5063.93077 C3512.85056,5071.74276 3510.45261,5047.37481 3511.61106,5039.19845 C3513.88471,5023.15098 3516.3223,5007.05857 3520.45168,4991.3857 C3521.97367,4985.60904 3525.21743,4980.37379 3528.43577,4975.34105 C3530.77782,4971.67861 3533.64069,4968.26422 3537.00107,4965.50624 C3540.81031,4962.37986 3545.22033,4959.9995 3549.68078,4957.90453 C3552.50854,4956.5764 3555.57665,4955.58309 3558.68965,4955.31965 C3565.84262,4954.71431 3573.30958,4953.39488 3580.22527,4955.31965 C3583.99706,4956.36941 3586.36706,4960.36185 3588.53056,4963.62493 C3600.9778,4982.39839 3605.53762,5008.62144 3621.13989,5024.80568 C3621.60698,5025.29018 3623.13157,5025.47811 3623.15886,5024.80568 C3623.83129,5008.23424 3622.0712,4991.59981 3623.15886,4975.05044 C3623.40338,4971.32989 3624.20904,4982.52888 3625.71315,4985.94061 C3631.71018,4999.54343 3638.27529,5012.92095 3645.56631,5025.87634 C3647.9805,5030.16611 3651.14809,5034.07553 3654.71283,5037.47009 C3655.44388,5038.16624 3656.85393,5037.95142 3657.74127,5037.47009 C3658.47682,5037.07111 3658.60365,5036.01895 3658.85782,5035.2217 C3662.93531,5022.43213 3666.39188,5009.44361 3670.72689,4996.73901 C3673.23913,4989.37639 3675.78667,4981.96349 3679.38396,4975.06573 C3681.03514,4971.89962 3683.63024,4969.25703 3686.29739,4966.88281 C3687.26199,4966.02414 3688.67861,4965.71204 3689.96823,4965.6439 C3696.55127,4965.29606 3703.16201,4965.29331 3709.74491,4965.6439 C3712.19514,4965.77439 3714.66164,4966.23388 3716.96424,4967.08164 C3720.2208,4968.28064 3723.3883,4969.81133 3726.27901,4971.73138 C3731.04563,4974.89744 3735.06392,4979.10371 3739.83054,4982.26976 C3742.72125,4984.18981 3746.29246,4984.94365 3749.14531,4986.9195 C3761.66912,4995.59335 3773.0544,5005.88309 3785.85376,5014.14493 C3786.9997,5014.88463 3789.21865,5014.40034 3789.83051,5013.18134 C3790.87114,5011.10807 3789.57887,5008.52811 3789.83051,5006.22203 C3789.95555,5005.07604 3789.89526,5003.42073 3790.94705,5002.94886 C3792.82634,5002.10574 3795.08193,5002.69768 3797.12631,5002.94886 C3798.40009,5003.10536 3799.79145,5003.34103 3800.78186,5004.15718 C3809.57312,5011.40165 3817.45168,5019.70909 3826.24834,5026.947 C3829.02104,5029.22838 3832.05523,5031.31798 3835.39487,5032.63681 C3837.02612,5033.281 3839.73428,5034.12868 3840.65641,5032.63681 C3844.7043,5026.08794 3845.80235,5018.11636 3848.76286,5011.00942 C3849.32727,5009.6545 3850.65876,5008.70497 3851.19479,5007.33858 C3852.33829,5004.42371 3852.52046,5001.17914 3853.74909,4998.29912 C3854.44495,4996.66797 3855.31461,4994.82579 3856.8846,4994.00117 C3858.37412,4993.21883 3860.42064,4993.26194 3861.93201,4994.00117 C3866.24421,4996.11031 3869.48463,5000.02353 3873.7399,5002.24528 C3877.16993,5004.03616 3880.89056,5005.67476 3884.75243,5005.91612 C3900.62845,5006.90837 3916.61134,5007.11074 3932.47341,5005.91612 C3933.7644,5005.8189 3933.28916,5003.4587 3933.69703,5002.22998" id="Path-280" stroke="#000000"></path>
        <path d="M3562.58992,4623.19997 C3562.58992,4678.43569 3556.29288,4610.52834 3610.43326,4617.46427 C3636.84113,4620.84739 3659.37377,4640.93643 3678.16035,4659.80135 C3688.8702,4670.55586 3680.15552,4698.20244 3694.80151,4702.18431 C3713.56184,4707.28476 3730.96606,4687.74435 3748.25819,4678.85915 C3780.47057,4662.30749 3761.80797,4655.88316 3809.36246,4651.09839 C3838.07441,4648.20948 3867.11105,4649.6825 3895.93321,4651.09839 C3927.64535,4652.65624 3907.33273,4658.33802 3927.22717,4656.42111 C3930.32813,4656.12232 3929.78982,4653.33387 3931.90749,4651.60313 C3939.39297,4645.48533 3949.36845,4638.51533 3959.27058,4637.17977 C3978.83124,4634.5415 3980.63464,4654.81149 4002.37242,4657.99652 C4012.84487,4659.53094 4023.73211,4655.99402 4034.12522,4657.99652 C4040.25284,4659.17715 4044.62608,4664.88124 4050.3993,4667.2501 C4141.42635,4704.60018 4013.99255,4650.23375 4090.01384,4673.56702 C4097.60932,4675.8983 4103.7999,4681.46953 4110.69293,4685.42078" id="Path-281" stroke="#000000"></path>
        <path d="M4413.76773,4886.1741 C4483.19688,4892.23255 4552.72577,4897.23996 4622.05517,4904.34944 C4625.16402,4904.66824 4637.80402,4918.40448 4643.68091,4916.76602 C4660.78255,4911.99811 4676.04126,4901.70986 4693.20142,4897.15706 C4703.46876,4894.43301 4714.53345,4896.95443 4725.00826,4895.18888 C4742.54493,4892.23303 4759.28299,4885.00006 4776.95863,4883.03959 C4796.02787,4880.92454 4824.48319,4880.86853 4846.18529,4884.98347 C4847.48425,4885.22977 4848.41148,4886.71401 4849.73288,4886.75727 C4866.60326,4887.30953 4883.49875,4886.26981 4900.37112,4886.75727 C4901.85624,4886.80018 4903.27964,4895.03816 4903.65143,4896.5253 C4904.49534,4899.90095 4906.24519,4903.75963 4906.85884,4906.8279 C4907.27819,4908.92465 4906.85884,4915.381 4906.85884,4913.24272 C4906.85884,4911.05585 4907.4529,4908.78675 4906.85884,4906.68211 C4905.99788,4903.63184 4904.02401,4901.01244 4902.60659,4898.1776" id="Path-282" stroke="#000000"></path>
        <path d="M4335.21042,5159.24156 C4355.78412,5141.42274 4393.49504,5092.02322 4431.74868,5114.0948 C4454.60544,5127.28268 4465.41945,5154.96632 4484.91398,5172.75157 C4487.65444,5175.25175 4492.62725,5174.19916 4496.04273,5172.75157 C4498.63663,5171.65219 4498.87875,5167.74991 4501.02394,5165.92367 C4502.40878,5164.74473 4504.63998,5165.1006 4506.17524,5164.12557 C4534.39165,5146.20568 4483.8868,5170.93116 4535.9167,5149.42493 C4542.90326,5146.53708 4554.37189,5139.68884 4562.66944,5142.40264 C4577.58869,5147.28215 4592.28361,5162.81895 4603.75834,5166.09376 C4605.20701,5166.5072 4607.15002,5167.09252 4608.27788,5166.09376 C4610.26833,5164.33113 4610.18128,5161.03934 4611.82547,5158.94998 C4619.32137,5149.4245 4653.49658,5121.26607 4666.37578,5120.09654 C4676.89429,5119.14139 4687.56735,5118.89998 4698.06113,5120.09654 C4717.40231,5122.30195 4715.22003,5134.07207 4730.30535,5136.03641 C4743.78258,5137.79136 4757.92081,5139.44143 4771.07837,5136.03641 C4775.64576,5134.85443 4775.34726,5127.5918 4778.00347,5123.69274 C4779.29008,5121.80411 4781.45665,5120.64673 4782.81459,5118.80872 C4783.13705,5118.37225 4782.27288,5117.21295 4782.81459,5117.18072 C4817.02667,5115.14501 4810.92399,5120.9444 4838.79852,5129.3543 C4856.65806,5134.74263 4874.54132,5140.3022 4892.86286,5143.81196 C4904.1546,5145.97506 4914.88615,5143.59487 4925.83604,5145.58576 C4926.31417,5145.67269 4926.26927,5147.26384 4925.83604,5147.04367 C4924.59023,5146.41056 4923.85975,5145.06739 4922.87161,5144.07924" id="Path-283" stroke="#000000"></path>
        <path d="M4374.33114,5489.1434 C4537.00382,5486.13418 4448.18958,5460.65405 4514.21807,5513.97655 C4522.02167,5520.27849 4530.45012,5532.79461 4539.95027,5529.57624 C4551.3509,5525.71403 4551.7975,5508.55453 4558.90316,5498.83853 C4567.39489,5487.22728 4599.27945,5453.36548 4617.73002,5451.82078 C4629.47375,5450.83758 4641.55654,5449.37356 4653.08446,5451.82078 C4661.53611,5453.61494 4667.90173,5460.84 4675.87653,5464.16446 C4681.25443,5466.40634 4687.27214,5466.66589 4692.83694,5468.39241 C4696.77006,5469.61269 4700.31021,5471.98824 4704.30587,5472.98484 C4721.30141,5477.22387 4738.66234,5479.88734 4755.67307,5484.06499 C4761.64279,5485.53109 4767.15507,5488.61956 4773.16805,5489.89665 C4776.4164,5490.58657 4780.28903,5488.17793 4783.13047,5489.89665 C4784.84919,5490.93627 4781.64614,5494.56934 4783.13047,5495.9227 C4788.65543,5500.96017 4800.37894,5490.06418 4804.92629,5488.26865 C4819.10651,5482.66956 4865.54946,5467.17862 4884.23686,5466.7887 C4913.72892,5466.17333 4943.23382,5466.7887 4972.7323,5466.7887" id="Path-284" stroke="#000000"></path>
    </g>
</svg>
