<?xml version="1.0" encoding="UTF-8"?>
<svg width="6868px" height="7317px" viewBox="0 0 6868 7317" version="1.1" xmlns="http://www.w3.org/2000/svg" xmlns:xlink="http://www.w3.org/1999/xlink">
    <g id="input-10" stroke="none" stroke-width="3" fill="none" fill-rule="evenodd">
        <path d="M376.522194,603.300394 C390.252033,868.135501 373.703934,575.470982 391.306968,817.952781 C391.827791,825.12711 390.627126,832.371396 391.306968,839.532406 C391.37151,840.212249 392.698449,839.346891 393.355667,839.532406 C404.538751,842.689095 415.38738,847.101855 426.749453,849.536884 C446.300439,853.726896 466.047494,857.185774 485.922695,859.370637 C512.502245,862.292502 662.659052,870.297809 676.024846,871.133581 C744.279362,875.40158 663.817927,874.337711 786.876508,877.279676 C811.197854,877.861127 835.540333,876.686392 859.861393,877.279676 C874.052735,877.625858 888.16215,879.809793 902.354815,880.096637 C990.825244,881.884684 977.9396,876.07518 1043.91988,884.535483 C1058.86733,886.452116 1073.94158,887.978486 1088.58151,891.552276 C1096.55998,893.49992 1103.24094,899.626403 1111.33914,900.993362 L1112.46592,902.120146 C1114.28964,902.427986 1117.31612,903.832749 1118.01448,902.120146 C1122.36895,891.441638 1115.27725,884.746826 1112.44885,875.52121 C1110.55526,869.344747 1109.95769,862.830338 1108.23194,856.604894 C1104.09864,841.694471 1098.58993,827.169809 1094.88126,812.148136 C1092.48339,802.435747 1092.05954,792.322928 1089.94731,782.544442 C1088.07655,773.883831 1084.8284,765.559998 1082.94759,756.901565 C1077.13939,730.163166 1074.43731,702.529309 1069.69934,675.756031 C1069.61099,675.256762 1069.1308,674.682444 1068.62377,674.680465 C977.138699,674.323345 885.649873,675.337308 794.166461,674.680465 C777.048197,674.557557 759.911541,673.896834 742.863635,672.341534 C734.159687,671.547462 725.738842,668.737586 717.067106,667.6466 C701.111552,665.63924 684.997752,665.06146 669.042198,663.054101 C631.920722,658.383869 595.907806,647.356393 559.368537,639.972097 C542.814161,636.626589 525.980865,634.771971 509.431511,631.401708 C506.589044,630.822842 504.133235,628.996334 501.356224,628.157936 C485.661733,623.419662 466.536526,616.910708 451.16311,615.541367 C433.58544,613.975689 415.868587,615.541367 398.221326,615.541367 L376.522194,603.300394 Z" id="Path-77" stroke="#000000"/>
        <path d="M480.971674,1225.69501 C480.971674,1262.75369 472.335447,1300.83271 480.971674,1336.87105 C497.548404,1406.0445 576.579281,1377.73016 620.146593,1379.36447 C840.379911,1387.6259 902.133219,1393.87805 1122.89721,1418.32388 C1148.29933,1421.13673 1173.44432,1425.95511 1198.80149,1429.14784 C1251.34324,1435.76339 1205.33085,1426.15298 1260.89413,1437.75237 C1266.21612,1438.86339 1271.39003,1440.62564 1276.72033,1441.69612 C1281.00881,1442.55737 1285.4469,1442.57163 1289.71249,1443.53995 C1300.34645,1445.95393 1311.82017,1451.87966 1322.4063,1452.77616 C1326.4664,1453.12 1332.42573,1456.20296 1334.6302,1452.77616 C1338.057,1447.44932 1335.64251,1440.02696 1334.6302,1433.77449 C1333.39375,1426.13757 1329.89036,1419.03644 1327.95486,1411.54611 C1325.07347,1400.39521 1322.44481,1389.17282 1320.18688,1377.87916 C1309.66202,1325.2361 1299.48542,1272.52253 1289.61005,1219.75378 C1210.04414,794.595618 1414.21323,1867.08131 1282.93471,1178.11398 C1279.72334,1161.26026 1276.12441,1143.73867 1271.88881,1127.10139 C1271.79474,1126.73189 1271.04447,1126.86545 1270.74495,1127.10139 L1269.66939,1130.31102 C1267.92858,1131.68231 1265.66704,1132.31197 1263.50622,1132.8036 C1257.2755,1134.22121 1250.94752,1135.22012 1244.60698,1136.01323 C1225.64367,1138.38524 1206.65664,1140.62199 1187.61901,1142.2959 C1117.13968,1148.49292 1046.63724,1154.47257 976.073817,1159.62448 C829.801863,1170.30395 1319.23509,1112.53679 839.152466,1170.72159 C828.92714,1171.96088 819.010335,1175.08112 808.8488,1176.76526 C802.686104,1177.78664 796.408461,1177.96005 790.222716,1178.83103 C757.201158,1183.4806 724.322339,1189.15849 691.236432,1193.32557 C657.880287,1197.52668 553.124788,1195.26433 551.344468,1195.2889 C548.600327,1195.32678 546.010185,1196.75718 543.269181,1196.89372 C525.410684,1197.78333 494.986508,1198.58162 478.88883,1198.12294 C478.530453,1198.11273 478.88883,1197.40589 478.88883,1197.04737" id="Path-78" stroke="#000000"/>
        <path d="M595.135399,1839.21192 C595.135399,1909.20912 587.901462,1979.58113 595.135399,2049.20352 C595.887023,2056.43746 609.70004,2048.6798 616.954038,2049.20352 C662.532761,2052.49423 707.988337,2057.36562 753.568085,2060.64209 C802.51911,2064.1609 851.458244,2068.72887 900.528059,2069.58807 C1724.64893,2084.01831 1089.14764,2079.97203 1308.90196,2065.11508 C1327.14877,2063.88147 1345.4617,2063.89795 1363.72172,2062.87858 C1373.60301,2062.32696 1383.42229,2060.8612 1393.30834,2060.40307 C1401.24423,2060.03532 1409.20726,2060.80402 1417.14154,2060.40307 C1421.51088,2060.18228 1425.76366,2058.74865 1430.1337,2058.54217 C1438.92192,2058.12695 1447.73921,2058.9503 1456.52777,2058.54217 C1464.71503,2058.16197 1472.84843,2055.7261 1480.65119,2054.51307 C1482.50687,2054.22458 1485.21057,2056.05324 1486.28511,2054.51307 C1487.82529,2052.30548 1486.94033,2049.04858 1486.28511,2046.43778 C1475.13489,2002.00812 1479.23406,2027.58796 1463.93723,1987.50355 C1449.8276,1950.53014 1434.90492,1908.09969 1426.58262,1868.33759 C1416.5606,1820.45459 1424.33483,1863.7292 1421.73404,1828.40504 C1421.70604,1828.02478 1420.85979,1828.67465 1420.59018,1828.40504 C1420.32057,1828.13543 1420.96552,1827.32824 1420.59018,1827.26118 C1418.48939,1826.88584 1416.30879,1827.49877 1414.188,1827.26118 C1388.70977,1824.4069 1363.59276,1819.88112 1337.83983,1818.94688 C1325.19175,1818.48805 1312.51918,1819.39229 1299.87062,1818.94688 C1285.6778,1818.44709 1271.55886,1816.3992 1257.36012,1816.11285 C1224.69572,1815.45408 1192.014,1816.62554 1159.34697,1816.11285 C1108.28238,1815.31142 1057.12005,1813.05543 1006.20676,1809.18142 C994.205193,1808.26821 981.314014,1805.58965 969.278967,1805.34011 C943.704186,1804.80983 918.11215,1805.90609 892.538135,1805.34011 C609.534309,1799.07695 2738.39969,1783.80984 703.272536,1803.22312 C694.560034,1803.30623 685.390256,1806.29167 676.707745,1806.55225 C661.582641,1807.0062 646.443915,1806.55225 631.312,1806.55225" id="Path-79" stroke="#000000"/>
        <path d="M581.228743,2323.24142 C581.228743,2326.66265 575.458661,2667.06746 594.576359,2697.52416 C613.751288,2728.07203 664.097343,2717.22708 699.617294,2723.48676 C737.851197,2730.22472 866.308384,2733.52665 893.627075,2733.6978 C1047.98019,2734.66484 1202.34247,2734.67778 1356.6955,2733.6978 C1368.26696,2733.62433 1379.77412,2731.89072 1391.26651,2730.53833 C1421.3152,2727.0023 1452.32435,2724.32529 1481.99825,2718.06071 C1497.73007,2714.73951 1512.98514,2709.43242 1528.63478,2705.74336 C1536.79668,2703.81937 1545.2472,2703.26074 1553.38396,2701.2331 C1557.15173,2700.29419 1560.40726,2697.75859 1564.19027,2696.88311 C1604.19964,2687.62393 1495.74338,2726.5157 1595.94523,2689.48811 C1597.64082,2688.86154 1600.02958,2688.20527 1600.43259,2686.44312 C1604.89343,2666.93833 1590.76282,2653.37159 1582.82656,2637.31107 C1564.19062,2599.59772 1562.12439,2587.77927 1543.17292,2545.29722 C1492.91706,2432.64256 1561.76708,2598.15282 1514.89795,2479.36046 C1510.21799,2467.49884 1504.74373,2455.96356 1499.94771,2444.14839 C1484.09596,2405.09704 1500.93664,2438.69206 1473.5959,2386.17898 C1471.77487,2382.68136 1468.14225,2383.82795 1465.3538,2382.95083 C1415.95594,2367.41254 1778.15872,2455.26047 1449.41908,2376.01373 C1446.82241,2375.38777 1444.04506,2376.42546 1441.40593,2376.01373 C1435.04865,2375.02193 1428.94593,2372.63905 1422.56358,2371.824 C1417.94583,2371.23429 1413.23088,2372.27802 1408.59781,2371.824 C1395.6788,2370.55798 1382.94158,2367.64741 1369.99733,2366.67269 C1360.08907,2365.92658 1350.10956,2367.22137 1340.18841,2366.67269 C1306.20847,2364.79345 1272.38075,2359.90428 1238.35274,2359.39217 C1111.0573,2357.47641 983.731365,2358.74188 856.42317,2359.39217 C853.670874,2359.40623 851.162255,2361.36082 848.410021,2361.38401 C617.898438,2363.32596 619.989489,2437.47083 619.989489,2355.11086" id="Path-80" stroke="#000000"/>
        <path d="M626.743428,3076.61478 C626.743428,3174.96283 585.637733,3282.31319 626.743428,3371.65892 C656.184234,3435.65031 743.901577,3453.0611 810.496379,3476.01302 C848.007552,3488.94125 889.85898,3476.88268 929.525982,3476.01302 C1003.66959,3474.38748 1030.89356,3469.27616 1108.58552,3457.14778 C1118.59084,3455.58586 1128.36546,3452.7293 1138.37154,3451.17226 C1187.27738,3443.562 1236.34581,3437.03142 1285.2869,3429.65123 C1383.89677,3414.7811 1246.72476,3431.8379 1404.56834,3416.41808 C1439.86569,3412.96987 1475.02087,3408.12147 1510.34191,3404.92494 C1517.38758,3404.28731 1524.50464,3405.36671 1531.5653,3404.92494 C1676.45881,3395.85933 1254.74248,3413.27801 1612.70416,3402.26915 C1616.37676,3402.1562 1619.86048,3400.5165 1623.51046,3400.09416 C1633.29054,3398.96248 1642.20898,3399.13892 1650.48043,3392.5389 C1662.45878,3382.98105 1667.33308,3365.19111 1670.74225,3351.12237 C1672.50042,3343.86688 1674.43403,3336.58375 1675.04646,3329.14345 C1676.71278,3308.89943 1675.46112,3286.60148 1667.72015,3267.4193 C1664.75701,3260.07663 1660.07392,3253.51012 1657.097,3246.17301 C1647.10371,3221.5429 1638.96783,3196.18207 1628.84493,3171.60494 C1624.88055,3161.97993 1619.32647,3153.08501 1614.87916,3143.67339 C1613.21718,3140.15622 1612.25311,3136.33141 1610.52916,3132.84419 C1584.95694,3081.11636 1545.712,3116.19099 1474.80932,3112.71974 C1428.54754,3110.45486 1382.47636,3105.11702 1336.43368,3100.08186 C1001.66764,3063.47237 2270.01287,3178.84913 1173.28597,3081.51425 C1083.74516,3073.56747 1173.60033,3082.1731 1089.81185,3078.51504 C855.923738,3068.3039 1747.98309,3091.56766 992.326174,3075.85926 C795.371438,3071.76501 1606.4603,3063.17628 812.213483,3073.68426 C808.53348,3073.73295 805.046573,3075.47246 801.384284,3075.83636 C791.450623,3076.82343 781.638982,3076.78589 771.712739,3077.8282 C769.00675,3078.11235 766.50846,3079.65772 763.791169,3079.79715 C753.654516,3080.31729 743.478817,3079.2961 733.341203,3079.79715 C732.090176,3079.85898 731.227489,3081.42523 729.975681,3081.46846 C686.657315,3082.96432 698.101382,3088.09302 681.576261,3079.77425 L626.743428,3076.61478 Z" id="Path-81" stroke="#000000"/>
        <path d="M586.334263,3663.58938 C586.334263,3738.6993 583.657284,3813.85694 586.334263,3888.91913 C586.429734,3891.59611 591.82746,3888.07696 594.370307,3888.91913 C603.880056,3892.0687 612.689589,3897.04597 622.004223,3900.7328 C644.715281,3909.72207 650.307222,3906.61577 682.469155,3910.80647 C699.011547,3912.96195 715.404845,3916.31387 732.01331,3917.88094 C765.984557,3921.08626 800.004907,3924.64006 834.123721,3925.11567 C973.073486,3927.05259 1112.07233,3927.59276 1251.01351,3925.11567 C1313.53897,3924.00094 1372.61942,3908.89821 1434.23989,3902.54148 C1524.50668,3893.22963 1419.26202,3904.71686 1480.23536,3900.52675 C1746.57226,3882.22398 1187.51574,3916.72311 1529.27583,3897.87096 C1535.13382,3897.54782 1540.83248,3895.46403 1546.69871,3895.37544 C1595.97014,3894.63138 1645.25504,3895.84415 1694.52986,3895.37544 C1694.89652,3895.37195 1695.47054,3891.70754 1695.92643,3888.43834 C1698.04092,3873.2754 1701.40204,3858.28455 1703.02379,3843.06102 C1703.774,3836.01877 1702.58582,3828.88327 1703.02379,3821.81473 C1722.47264,3507.92728 1682.47794,4229.38269 1705.65669,3768.56163 C1705.89373,3763.84895 1707.78361,3759.31085 1707.96905,3754.59586 C1708.54801,3739.66479 1708.49403,3724.70141 1707.96905,3709.76802 C1707.92493,3708.51283 1707.10236,3707.34731 1706.27484,3706.40249 C1695.78774,3694.42887 1695.20452,3696.22472 1681.84619,3685.6141 C1680.60388,3684.62732 1679.93389,3682.88511 1678.48066,3682.24857 C1649.77093,3669.67324 1616.09484,3670.66344 1585.77998,3665.76438 C1561.69161,3661.87156 1537.82674,3656.08253 1513.79901,3651.79861 C1434.38979,3637.64068 1587.17491,3669.82763 1450.74697,3641.24415 C1443.60205,3639.74719 1436.73052,3636.9427 1429.50068,3635.93257 C1245.37478,3610.20727 1375.80063,3628.84086 1268.77981,3619.49417 C1012.23318,3597.08862 1333.44018,3621.71065 1192.76937,3613.83918 C1184.27409,3613.36381 1175.91029,3611.07209 1167.40203,3611.00023 C1063.81479,3610.12537 960.216523,3610.13242 856.629222,3611.00023 C848.121798,3611.07151 839.768893,3613.70623 831.261882,3613.81628 C767.162055,3614.64551 703.048332,3613.17893 638.946309,3613.81628 C267.53451,3617.50918 1547.19279,3615.80812 609.778448,3615.80812 L586.334263,3663.58938 Z" id="Path-82" stroke="#000000"/>
        <path d="M1531.67978,656.025668 C1531.67978,723.954276 1524.9289,792.219174 1531.67978,859.811491 C1532.35403,866.56237 1545.37864,858.490071 1552.03318,859.811491 C1560.59318,861.511289 1568.30964,866.154888 1576.64499,868.740428 C1583.60848,870.900433 1590.91497,871.836874 1597.86839,874.029107 C1624.45688,882.411774 1650.28134,893.276946 1677.22146,900.449603 C1880.70708,954.626524 1713.81212,908.970898 1813.19314,925.290365 C1830.31339,928.1017 1846.98788,933.257488 1864.08809,936.188247 C1975.99858,955.368282 1960.57897,950.263168 2068.74391,963.020848 C2077.59085,964.064314 2105.74041,973.002635 2108.42044,965.172951 C2117.52525,938.573343 2109.92938,908.903019 2108.42044,880.828836 C2107.60319,865.623553 2103.5563,850.762771 2101.46045,835.680466 C2100.28934,827.252878 2099.74039,818.747805 2098.62151,810.313126 C2082.78996,690.967624 2098.30575,823.576713 2087.86099,714.246918 C2083.57977,669.433488 2086.25143,733.961213 2082.29758,663.145923 C2081.90278,656.074839 2082.73935,648.967937 2082.29758,641.899631 C2081.84097,634.593888 2078.94539,609.973468 2075.93285,601.261519 C2075.76575,600.77828 2076.44165,599.778227 2075.93285,599.727574 C2056.39548,597.782545 2065.03646,600.931226 2046.32999,601.398887 C1641.14204,611.528586 2301.33565,591.348232 1948.52378,604.855989 C1933.48534,605.431751 1918.4134,604.268683 1903.37541,604.855989 C1895.12765,605.178104 1886.98587,606.856916 1878.7636,607.580459 C1827.40379,612.100017 1775.96969,615.773299 1724.6364,620.584655 C1686.16937,624.190086 1650.11398,636.090276 1611.39916,638.419635 C1587.89827,639.833617 1564.31237,638.419635 1540.76898,638.419635" id="Path-83" stroke="#000000"/>
        <path d="M1684.60241,1162.77326 C1684.60241,1261.37335 1634.0303,1373.93052 1684.60241,1458.57353 C1714.81801,1509.14564 1802.43091,1457.71607 1861.3358,1458.57353 C1924.76323,1459.49681 1988.87875,1463.99907 2051.69346,1473.21375 C2085.93017,1478.23615 2120.02036,1484.22762 2154.26186,1489.21727 C2193.6087,1494.95086 2233.38048,1498.79395 2272.773,1503.59699 C2276.50375,1504.05187 2283.84619,1508.0457 2284.0267,1504.29166 C2287.78472,1426.13578 2283.66161,1347.79845 2284.0267,1269.55312 C2284.39003,1191.68558 2294.44446,1452.80233 2285.18159,1205.68666 C2284.97253,1200.10935 2283.97309,1194.55724 2282.64604,1189.13608 C2281.64842,1185.06071 2281.48233,1180.01125 2278.24355,1177.34402 C2274.09466,1173.92729 2268.54417,1178.14255 2264.21985,1178.16026 C2199.14983,1178.42673 2134.07444,1178.90718 2069.00817,1178.16026 C2044.28343,1177.87643 2017.99797,1175.20037 1993.33228,1172.75918 C1955.70491,1169.03515 1917.61538,1166.86666 1880.26563,1160.55031 C1851.22605,1155.63931 1821.57268,1151.59899 1792.84109,1145.35434 C1781.80657,1142.95606 1766.55071,1136.69929 1754.76435,1139.59724 C1753.32243,1139.95177 1755.60161,1142.82554 1754.76435,1144.05183 C1753.88548,1145.33906 1751.97363,1145.49701 1750.46606,1145.89271 C1734.51758,1150.07882 1717.31441,1144.50426 1700.99669,1147.21259 L1684.60241,1162.77326 Z" id="Path-84" stroke="#000000"/>
        <path d="M1837.51722,1819.28226 C1838.0788,1835.56113 1840.33717,2036.44988 1856.75965,2067.27169 C1864.75096,2082.26984 1889.1842,2078.52756 1906.10745,2080.07971 C1936.08123,2082.82883 1966.30847,2079.74565 1996.4062,2080.07971 C2194.47097,2082.2781 1983.19561,2080.76317 2110.41066,2083.74411 C2167.61881,2085.08463 2224.79117,2086.92466 2281.96873,2088.74575 C2287.68755,2088.9279 2293.36261,2089.97434 2299.08373,2090.05695 C2323.64653,2090.4116 2348.26389,2091.61471 2372.7798,2090.05695 C2380.45051,2089.56955 2387.81123,2086.6332 2395.01801,2083.9612 C2399.66783,2082.23722 2400.42844,2070.75247 2400.51461,2066.40335 C2400.77192,2053.41552 2401.77537,2040.36127 2400.51461,2027.43222 C2396.8601,1989.95557 2384.6877,1957.34957 2374.21257,1921.82462 C2368.27855,1901.70024 2362.72484,1881.46171 2357.45359,1861.15365 C2355.75157,1854.59644 2353.70511,1829.53507 2348.36206,1827.19285 C2310.71254,1810.68845 2264.33448,1801.96216 2225.4137,1794.83847 C2157.60805,1782.42796 2183.00236,1789.05192 2134.62868,1784.9307 C2106.7723,1782.55746 2079.95505,1779.97187 2051.81502,1778.93047 C2016.8502,1777.63649 1961.78631,1776.83052 1931.32406,1777.73216 C1916.94032,1778.1579 1905.55822,1784.30257 1891.60616,1787.65729 C1864.72774,1794.1201 1855.13394,1793.52393 1828.0523,1794.03091 C1827.87866,1794.03416 1828.0523,1794.37825 1828.0523,1794.55192" id="Path-85" stroke="#000000"/>
        <path d="M1964.26549,2331.71055 C1964.26549,2464.73365 1956.35557,2597.99214 1964.26549,2730.77986 C1964.73931,2738.73419 1980.15696,2732.19984 1988.12519,2732.25556 C2050.51249,2732.69184 2112.93587,2734.28532 2175.29166,2732.25556 C2187.64761,2731.85336 2199.48665,2727.14279 2211.65836,2724.9793 C2252.67423,2717.68884 2293.73532,2710.64685 2334.84341,2703.89568 C2406.99125,2692.04685 2479.17221,2680.39204 2551.42175,2669.18002 C2582.74257,2664.31952 2614.04022,2659.14785 2645.54559,2655.67949 C2741.84242,2645.07839 2706.86569,2655.7292 2818.20337,2650.84326 C2819.66793,2650.77899 2818.76834,2647.79809 2818.20337,2646.44536 C2817.31445,2644.31695 2815.17524,2642.92345 2814.05386,2640.90781 C2812.84692,2638.73837 2812.40383,2636.20932 2811.27777,2633.99682 C2809.21178,2629.93749 2806.54354,2626.20254 2804.49829,2622.13272 C2802.68489,2618.52427 2801.63878,2614.55296 2799.7205,2610.99916 C2797.03288,2606.02008 2793.30145,2601.64237 2790.72015,2596.60736 C2780.08639,2575.86545 2770.56009,2554.57151 2760.11017,2533.73637 C2757.18286,2527.89986 2753.92364,2522.23167 2750.59843,2516.61232 C2744.01067,2505.47948 2736.73915,2494.75248 2730.37686,2483.48926 C2728.39062,2479.973 2727.664,2475.82634 2725.59907,2472.35571 C2720.37756,2463.57964 2714.53364,2455.17956 2708.59191,2446.87418 C2707.41369,2445.22727 2706.02403,2443.6347 2704.29628,2442.57856 C2701.20065,2440.68625 2697.79887,2439.28092 2694.34622,2438.16605 C2671.69493,2430.85188 2647.21354,2430.63142 2623.80447,2427.66076 C2519.88779,2414.47352 2732.64885,2436.48697 2522.02449,2418.35358 C2507.03953,2417.06347 2492.20255,2414.31046 2477.21266,2413.07902 C2459.2232,2411.60116 2441.12435,2411.73892 2423.13747,2410.22988 C2382.01539,2406.77988 2340.90318,2403.05992 2299.9232,2398.20506 C2223.63475,2389.16722 2209.49007,2384.28638 2139.43635,2372.6797 C1739.865,2306.47771 2210.63067,2384.1836 2062.58268,2361.89681 C2056.18742,2360.93408 2049.96247,2358.99125 2043.5592,2358.08335 C2003.55192,2352.41078 1907.23995,2356.14259 1900.4594,2356.08164 C1894.69307,2356.02981 1887.56202,2354.78651 1882.07881,2352.63345 C1880.98367,2352.20344 1877.98298,2350.87781 1879.142,2350.67559 C1887.45856,2349.22452 1910.99524,2352.46425 1916.39996,2353.627 C1948.65796,2360.56687 1979.87809,2373.92064 2011.86801,2380.05824 C2012.31446,2380.14389 2013.26563,2380.88507 2012.83234,2381.02256 C2009.89684,2381.95402 2008.91271,2381.06445 2006.69573,2379.95596" id="Path-86" stroke="#000000"/>
        <path d="M1910.62221,3038.64002 C2010.46649,3042.60574 2110.37073,3045.27445 2210.15505,3050.53718 C2219.96259,3051.05445 2229.40909,3054.46014 2239.11427,3055.96507 C2358.4188,3074.46497 2219.64435,3049.55038 2339.2566,3074.1632 C2379.36041,3082.41543 2419.71523,3089.42866 2459.77451,3097.89441 C2467.70581,3099.57053 2475.27258,3102.6964 2483.15859,3104.57407 C2523.19479,3114.10671 2576.35708,3114.42073 2601.70943,3153.45656 C2616.55882,3176.32066 2620.18809,3210.45694 2620.80169,3236.40007 C2621.83233,3279.97574 2621.32877,3323.57898 2620.80169,3367.16365 C2620.78405,3368.62205 2620.48212,3370.58468 2619.17122,3371.22404 C2605.13894,3378.06796 2586.80937,3379.61747 2571.78244,3382.81614 C2531.06198,3391.48403 2599.18381,3382.45506 2528.93794,3392.37805 C2494.28563,3397.27307 2458.97273,3398.6341 2424.16719,3402.06619 C2417.4278,3402.73075 2410.82496,3404.47823 2404.08613,3405.1483 C2325.16068,3412.99626 2246.11999,3419.66128 2167.20535,3427.61721 C2152.98362,3429.051 2138.64259,3432.91316 2124.4976,3435.18048 C2086.94535,3441.19977 2049.57525,3448.76422 2011.73229,3452.5476 C1991.51708,3454.56863 1971.09255,3453.10925 1950.78433,3452.5476 C1947.82922,3452.46587 1944.89695,3451.65557 1942.12707,3450.6226 C1916.40196,3441.02894 1936.14979,3448.23112 1924.47593,3441.01861 C1898.145,3424.75046 1895.02989,3409.2235 1885.33417,3376.33635 C1881.28229,3362.59267 1878.16092,3343.5031 1877.09767,3329.6208 C1837.67235,2814.86422 1880.99977,3380.22464 1873.14247,3242.68001 C1872.45863,3230.70922 1870.84086,3218.80318 1870.18659,3206.83074 C1869.2885,3190.39663 1870.0511,3173.41144 1867.58836,3157.12775 C1865.26573,3141.7705 1859.06424,3127.63097 1854.10281,3113.13666 C1853.95064,3112.69212 1853.63416,3111.76083 1854.10281,3111.72709 C1854.72105,3111.68258 1854.9794,3112.60369 1855.4177,3113.04198" id="Path-87" stroke="#000000"/>
        <path d="M2562.29467,3634.86803 C2564.42858,3719.94016 2568.24124,3857.95598 2563.34651,3911.09827 C2562.68674,3918.26135 2548.94977,3910.72051 2541.76629,3911.09827 C2535.26086,3911.44037 2528.7897,3912.32214 2522.34235,3913.25454 C2512.17658,3914.72467 2502.14443,3917.09508 2491.94422,3918.30336 C2480.46726,3919.66288 2468.85276,3919.60782 2457.37381,3920.95049 C2428.37338,3924.34259 2399.62016,3929.83085 2370.54457,3932.50317 C2334.78928,3935.78942 2298.91166,3938.15986 2263.01164,3938.8142 C2183.4533,3940.26431 2103.82996,3941.29113 2024.29696,3938.8142 C1976.09134,3937.31292 1999.25768,3933.35883 1977.20967,3926.84078 C1966.41117,3923.64842 1955.41471,3921.16085 1944.58516,3918.07546 C1940.97039,3917.0456 1937.38391,3915.88848 1933.89147,3914.49921 C1926.2557,3911.46176 1918.9551,3907.59167 1911.22436,3904.80477 C1909.89952,3904.32717 1908.30773,3905.32607 1906.99947,3904.80477 C1894.65919,3899.88757 1900.43259,3886.45121 1899.79438,3874.10862 C1899.5621,3869.61652 1898.77322,3865.15952 1897.88354,3860.75028 C1896.77796,3855.271 1894.83,3849.97889 1893.81643,3844.48185 C1890.0942,3824.29448 1886.28194,3804.10076 1883.68373,3783.73819 C1879.89172,3754.01968 1877.90085,3724.09757 1874.65545,3694.31442 C1869.9954,3651.54901 1870.71105,3678.87598 1870.71105,3648.41921 C1870.71105,3648.07444 1870.50142,3649.1798 1870.71105,3649.45352 C1871.68084,3650.71977 1872.84071,3651.85104 1874.09447,3652.83693 C1874.834,3653.41846 1875.73404,3653.77954 1876.61888,3654.09914 C1887.69647,3658.10028 1898.54114,3662.91412 1909.96215,3665.79207 C1928.02201,3670.34293 1946.37515,3673.84303 1964.83304,3676.32798 C1990.04711,3679.72251 2015.42073,3682.09707 2040.82835,3683.41036 C2061.14262,3684.46038 2081.51887,3682.84879 2101.8525,3683.41036 C2112.01039,3683.6909 2122.07173,3685.84381 2132.23309,3685.93477 C2216.10798,3686.68556 2300.0229,3688.29802 2383.86785,3685.93477 C2397.2919,3685.5564 2410.09497,3680.11038 2423.31178,3677.73043 C2434.70953,3675.67805 2446.55651,3676.18445 2458.00491,3674.76776 C2460.44355,3674.46598 2463.2518,3672.79633 2465.6658,3672.19075 C2473.91883,3670.1204 2481.09079,3670.77077 2490.3314,3670.77077" id="Path-88" stroke="#000000"/>
        <path d="M2627.57876,672.453404 C2627.57876,770.09905 2626.293,867.753161 2627.57876,965.390341 C2628.25676,1016.87574 2615.17846,1071.6159 2633.46905,1119.7476 C2639.71717,1136.18951 2668.65538,1120.28409 2686.23627,1119.7476 C2733.4033,1118.30825 2708.36872,1116.70373 2755.34204,1111.75363 C2831.67003,1103.71009 2766.14248,1115.1556 2847.07986,1102.813 C2939.96947,1088.64774 2861.70082,1097.17916 2965.69215,1083.05597 C2985.36137,1080.38467 3005.19967,1079.08603 3024.87558,1076.46445 C3033.7659,1075.27993 3042.46334,1072.87821 3051.34684,1071.64353 C3069.21515,1069.16008 3087.21191,1067.68387 3105.09577,1065.31497 C3130.4924,1061.95093 3155.74743,1057.53702 3181.17873,1054.44597 C3185.59318,1053.90942 3190.09569,1054.89845 3194.51955,1054.44597 C3209.09375,1052.95533 3223.49809,1050.00587 3238.08318,1048.6258 C3252.85414,1047.22815 3267.73763,1047.3508 3282.52334,1046.11892 C3294.61219,1045.11174 3306.59213,1043.02654 3318.67151,1041.91157 C3328.69414,1040.98645 3338.78229,1040.90655 3348.80668,1040.00073 C3352.37641,1039.67816 3355.83317,1038.41422 3359.41271,1038.23014 C3515.29613,1030.21373 3341.11836,1042.29488 3389.35504,1036.68744 C3391.72326,1036.41214 3396.13072,1039.04164 3396.50754,1036.68744 C3402.95023,996.436429 3392.57383,971.114324 3383.18426,933.589766 C3365.73018,863.836205 3385.06876,925.636183 3362.67341,846.024237 C3358.07941,829.693289 3352.33013,813.7071 3347.49188,797.446843 C3334.72291,754.533255 3322.88383,711.343996 3309.8536,668.509011 C3307.119,659.519394 3302.94734,651.009538 3300.21175,642.020219 C3286.77358,597.861405 3308.22736,651.027349 3286.25737,595.634146 C3286.25399,595.625649 3281.15692,602.025423 3280.48979,602.488633 C3278.9206,603.578169 3277.21165,604.587862 3275.35331,605.030576 C3266.85219,607.055801 3258.20699,608.436509 3249.58328,609.851501 C3234.09318,612.393137 3218.42863,613.892896 3203.0219,616.898817 C3194.04084,618.651062 3185.40988,621.882893 3176.53311,624.103908 C2949.31261,680.955694 3174.60335,626.050361 3065.9148,648.646799 C3055.68959,650.772628 3045.74188,654.111737 3035.51667,656.237565 C3025.46019,658.328316 3015.19018,659.269888 3005.11855,661.286388 C2959.50249,670.419448 2913.93437,680.571381 2868.01144,688.213446 C2860.46903,689.468583 2852.76081,689.446537 2845.18655,690.492429 C2825.28871,693.240024 2805.56225,697.207922 2785.61745,699.590829 C2144.75916,776.157462 2940.00185,677.482544 2764.84364,700.97575 C2747.46196,703.307079 2691.37275,708.538376 2691.37275,702.465854" id="Path-89" stroke="#000000"/>
        <path d="M2694.16012,1258.94085 C2694.16012,1539.71299 2613.07225,1498.44689 2815.22669,1512.43386 C2878.30679,1516.79834 2941.44932,1520.21671 3004.54004,1524.42481 C3013.38039,1525.01446 3022.1565,1526.52316 3031.0113,1526.82651 C3349.17157,1537.72622 2591.57246,1505.14884 3157.24941,1532.4889 C3182.3297,1533.70107 3207.52999,1532.74018 3232.57856,1534.99578 C3256.46877,1537.14708 3280.71102,1540.13909 3304.45417,1542.58655 C3307.37558,1542.88769 3310.28237,1543.40046 3313.13183,1544.11172 C3314.0573,1544.34272 3314.74173,1545.30119 3315.69131,1545.39145 C3319.30968,1545.73539 3326.0164,1548.97973 3326.59536,1545.39145 C3339.40488,1466.00128 3302.60019,1369.32439 3287.95784,1291.49524 C3241.0742,1042.29251 3440.45269,2052.44388 3273.82815,1217.14781 C3273.75084,1216.76026 3273.31249,1212.40968 3272.65359,1212.23923 C3266.5176,1210.65193 3265.39428,1215.06105 3259.22513,1217.21794 C3254.57686,1218.84308 3249.64587,1219.53078 3244.79741,1220.39098 C3212.58728,1226.1056 3180.5563,1233.15069 3148.06336,1236.9399 C3097.09907,1242.88318 3045.76621,1245.07909 2994.65276,1249.56196 C2953.01791,1253.21352 3052.78604,1251.96824 2944.97093,1254.1024 C2941.47978,1254.1715 2863.70866,1258.8577 2830.67118,1252.19156 C2775.93069,1241.14628 2834.23308,1253.25201 2808.26703,1245.05659 C2773.10168,1233.95767 2786.49989,1240.53616 2767.84138,1232.71502 C2650.88851,1183.69154 2834.06046,1260.80161 2750.67889,1224.10748 C2750.53436,1224.04387 2745.86347,1223.51831 2745.77031,1222.93292 C2745.38366,1220.50336 2745.77031,1218.01266 2745.77031,1215.55253" id="Path-90" stroke="#000000"/>
        <path d="M2680.67906,1808.77174 C2680.67906,1891.58646 2680.29517,1974.40208 2680.67906,2057.21592 C2680.69079,2059.74619 2682.33766,2061.76808 2682.97557,2061.82648 C2695.12027,2062.93823 2707.3937,2061.01288 2719.56201,2061.82648 C2755.23609,2064.21172 2790.73661,2068.78873 2826.39371,2071.41573 C2875.13698,2075.00685 2923.97359,2077.20915 2972.73946,2080.47907 C2980.36266,2080.99024 2987.92845,2082.1794 2995.54682,2082.75806 C3046.01578,2086.59146 3096.52301,2089.90801 3146.99399,2093.7147 C3765.81187,2140.38804 2885.07244,2073.81261 3241.23869,2102.8131 C3258.80264,2104.24323 3279.54599,2102.92917 3296.07452,2105.74072 C3297.9295,2106.05626 3301.67822,2107.62189 3301.71939,2105.74072 C3303.60056,2019.77353 3303.90417,1933.73742 3301.71939,1847.7774 C3301.66386,1845.59262 3297.31965,1848.13083 3295.16293,1847.7774 C3249.38153,1840.27505 3317.92722,1848.2088 3269.53314,1844.69201 C3010.02863,1825.83386 3360.1383,1848.24762 3181.73971,1839.85356 C2921.33026,1827.60069 3166.38513,1841.06853 3063.14496,1829.07221 C3050.20282,1827.56836 3037.07435,1827.98716 3024.15682,1826.28484 C2972.44942,1819.47064 2919.44547,1811.89555 2868.34452,1799.91877 C2865.44445,1799.23906 2862.88084,1797.52232 2860.05253,1796.58794 C2831.99519,1787.3188 2860.00119,1796.99906 2836.03556,1790.97814 C2803.20618,1782.73037 2856.34442,1792.8026 2806.7068,1782.79133 C2803.43572,1782.1316 2791.80564,1781.65913 2791.61293,1780.38964 C2790.94023,1775.95841 2791.61293,1771.42564 2791.61293,1766.94364" id="Path-91" stroke="#000000"/>
        <path d="M3075.55665,2536.41587 C3074.74568,2517.75166 3076.71251,2499.01645 3075.55665,2480.37042 C3075.28088,2475.92184 3072.92484,2471.84489 3071.2967,2467.69577 C3071.09445,2467.18035 3070.37125,2467.01571 3070.12215,2466.52122 C3069.94863,2466.17678 3070.3969,2465.63485 3070.12215,2465.3642 C3069.84323,2465.08944 3068.99625,2464.97572 3068.9476,2465.3642 C3068.55911,2468.46626 3066.10613,2473.43933 3068.9476,2474.74309 C3073.56082,2476.85979 3108.92701,2473.05199 3112.19568,2472.44658 C3211.30621,2454.08956 3132.47282,2462.197 3261.74954,2442.04845 C3300.04931,2436.07921 3371.5404,2427.29841 3416.54506,2426.60396 C3467.16751,2425.82283 3517.81215,2425.59108 3568.43049,2426.60396 C3574.84803,2426.73238 3581.08357,2428.78054 3587.38111,2430.02244 C3589.44321,2430.42909 3591.56349,2430.72892 3593.4993,2431.5476 C3595.73856,2432.49462 3597.47673,2434.47175 3599.77527,2435.2641 C3601.19507,2435.75352 3603.02464,2434.44079 3604.28065,2435.2641 C3627.99581,2450.80929 3635.04782,2489.5579 3642.44484,2513.889 C3648.31113,2533.18502 3654.88114,2551.70024 3657.32835,2572.00306 C3661.62475,2607.64724 3665.01316,2643.39648 3668.46031,2679.13278 C3670.72401,2702.60039 3673.73553,2731.18989 3670.47633,2753.33997 C3670.1216,2755.75077 3665.55886,2753.80069 3663.16605,2753.33997 C3660.76857,2752.87834 3658.72792,2751.23403 3656.36417,2750.62272 C3650.90538,2749.21096 3645.377,2747.97531 3639.78018,2747.2919 C3636.2419,2746.85984 3632.64096,2747.55998 3629.0865,2747.2919 C3623.63696,2746.88088 3618.28283,2745.30993 3612.81807,2745.25834 C3546.44419,2744.63172 3480.04297,2743.57205 3413.68756,2745.25834 C3391.88821,2745.81233 3370.34633,2750.17871 3348.61384,2751.97258 C3330.66764,2753.45391 3312.49826,2753.00411 3294.5143,2753.9886 C3284.66774,2754.52763 3274.70921,2756.68383 3264.90505,2757.38954 C3260.10822,2757.73483 3255.2734,2757.03382 3250.47734,2757.38954 C3248.37563,2757.54542 3246.44855,2758.86681 3244.34162,2758.91471 C3212.10852,2759.64747 3102.38618,2714.83281 3084.98813,2697.43477 C3081.8443,2643.7618 3077.89054,2590.13015 3075.55665,2536.41587 Z" id="Path-92" stroke="#000000"/>
        <path d="M2886.26083,3307.09771 C2878.994,3032.68442 2827.79404,3133.68694 2904.87837,3140.17099 C2912.31432,3140.79648 2919.81178,3139.80462 2927.26499,3140.17099 C2936.1143,3140.606 2944.87677,3142.4773 2953.73625,3142.57269 C3019.26197,3143.27821 3084.80863,3141.25065 3150.32481,3142.57269 C3176.36545,3143.09816 3202.2516,3146.83131 3228.26602,3148.11237 C3239.76971,3148.67886 3251.31002,3147.66371 3262.81891,3148.11237 C3271.56645,3148.45338 3280.2361,3149.95539 3288.97462,3150.47901 C3293.41359,3150.74499 3297.87193,3150.30414 3302.31543,3150.47901 C3320.2979,3151.18668 3338.2536,3152.51678 3356.23967,3153.12613 C3460.35728,3156.65356 3330.48503,3150.02895 3393.79029,3155.01944 C3397.338,3155.29912 3400.91423,3154.80443 3404.46645,3155.01944 C3409.99991,3155.35437 3415.48071,3156.35278 3421.01537,3156.66732 C3425.1576,3156.90273 3429.32751,3156.32313 3433.46212,3156.66732 C3453.6718,3158.34969 3448.43043,3162.48781 3454.3937,3181.5433 C3456.40051,3187.956 3459.2683,3194.07828 3461.26571,3200.49391 C3462.88434,3205.69292 3463.60139,3211.14499 3465.22764,3216.34161 C3471.40044,3236.06659 3477.21379,3254.03879 3480.18127,3274.80628 C3482.66912,3292.21718 3484.12063,3309.76199 3486.36958,3327.20535 C3498.76603,3423.35501 3483.88945,3308.00544 3493.04876,3363.49377 C3493.37424,3365.46558 3494.60429,3368.23455 3493.04876,3369.48925 C3491.12025,3371.04479 3488.08146,3369.73248 3485.61577,3369.48925 C3482.01917,3369.13446 3478.4639,3368.42004 3474.92208,3367.70113 C3465.90902,3365.87166 3457.05495,3363.21092 3447.95996,3361.84589 C3426.30827,3358.59629 3404.64954,3354.46765 3382.76352,3353.86945 C3307.24637,3351.8054 3231.66173,3352.57555 3156.12745,3353.86945 C3138.47459,3354.17185 3121.02618,3358.15712 3103.37777,3358.65532 C3064.46357,3359.75382 3025.5078,3359.56216 2986.58867,3358.65532 C2980.86734,3358.52201 2972.69946,3354.76163 2966.84917,3354.39537 C2949.0851,3353.28324 2923.96526,3354.31797 2907.71833,3348.96087 C2907.03018,3348.73397 2905.85451,3349.61582 2905.54453,3348.96087 C2904.88958,3347.57703 2905.54453,3345.89886 2905.54453,3344.36785 L2886.26083,3307.09771 Z" id="Path-93" stroke="#000000"/>
        <path d="M579.123874,4609.9045 C579.123874,4482.90088 579.123874,4355.89727 579.123874,4228.89365 C579.123874,4226.62635 578.797696,4233.45182 579.123874,4235.69553 C579.20234,4236.23529 579.953641,4236.41622 580.280896,4236.85256 L580.280896,4238.00958 C581.262662,4239.3186 582.770196,4240.17162 583.751962,4241.48064 C583.983367,4241.78918 583.520558,4242.32913 583.751962,4242.63767 C584.733728,4243.94669 585.951423,4245.07897 587.223028,4246.10873 C591.038821,4249.19882 598.381346,4246.89431 601.615681,4247.26575 C735.903007,4262.68788 504.376413,4239.91224 634.397971,4250.56151 C656.28163,4252.35387 678.155849,4254.4117 699.927491,4257.25822 C721.660801,4260.09973 743.140782,4264.67868 764.860969,4267.61882 C774.802976,4268.96462 784.900504,4268.8652 794.855888,4270.10817 C805.042549,4271.38003 815.04955,4273.8873 825.236481,4275.157 C835.320222,4276.41383 845.528586,4276.46327 855.617074,4277.68141 C961.784875,4290.5007 767.04061,4275.5211 996.265372,4292.59998 C1003.84681,4293.16485 1011.47999,4292.2159 1019.07273,4292.59998 C1181.96637,4300.84 709.688321,4283.78538 1086.74099,4294.72119 C1089.55212,4294.80272 1092.20559,4296.25142 1095.01545,4296.36907 C1105.36698,4296.80249 1115.74483,4295.95764 1126.09727,4296.36907 C1127.57441,4296.42777 1128.85501,4297.4816 1130.30462,4297.77152 C1169.67411,4305.64542 1131.14312,4295.6313 1140.05165,4300.08556 C1140.39661,4300.25804 1141.02516,4299.74635 1141.20867,4300.08556 C1145.85551,4308.67517 1149.16137,4322.70084 1151.53422,4331.65824 C1152.66637,4335.93205 1155.01988,4350.5597 1155.07541,4353.25598 C1155.61481,4379.44704 1156.551,4405.6908 1155.07541,4431.84583 C1153.69641,4456.28883 1140.20155,4487.81221 1135.65146,4510.15518 C1135.34478,4511.66112 1137.18586,4514.67895 1135.65146,4514.76574 C1108.52233,4516.30014 1081.28172,4513.6059 1054.134,4514.76574 C1030.74477,4515.765 971.864966,4539.7109 955.436519,4545.46188 C926.413582,4555.62173 897.524888,4566.21952 868.151479,4575.31656 C819.432236,4590.40507 758.916079,4604.13779 707.763685,4607.04701 C592.949778,4613.57689 585.859657,4632.22606 569.269722,4607.04701" id="Path-95" stroke="#000000"/>
        <path d="M1460.02083,4278.01449 C1460.02083,4361.02206 1407.9475,4462.3949 1460.02083,4527.03718 C1501.96909,4579.11051 1593.76943,4525.70758 1660.62391,4527.03718 C1686.6647,4527.55508 1712.63571,4530.11573 1738.56512,4532.57686 C1751.62802,4533.81675 1764.4761,4536.86007 1777.53572,4538.13408 C1801.99387,4540.52005 1826.60867,4541.08825 1851.05921,4543.55104 C1861.27328,4544.57986 1871.24052,4547.43359 1881.4398,4548.59987 C1900.33828,4550.76089 1919.40343,4551.27718 1938.29166,4553.52598 C1945.99007,4554.44253 1953.41934,4557.02175 1961.09902,4558.08394 C1975.1143,4560.02243 1989.2784,4560.72424 2003.31279,4562.51919 C2015.00952,4564.01516 2026.62118,4566.11458 2038.26888,4567.95369 C2041.83206,4568.5163 2045.42871,4568.91912 2048.94504,4569.72428 C2054.47344,4570.99017 2059.74149,4573.47278 2065.37124,4574.15953 C2071.96647,4574.96406 2083.94332,4580.66291 2085.30358,4574.15953 C2091.80696,4543.06687 2086.60223,4510.60195 2085.30358,4478.86299 C2079.34827,4333.31538 2080.81692,4437.82837 2073.89113,4361.95118 C2072.83181,4350.34549 2072.59612,4338.99276 2070.68303,4327.60866 C2070.44964,4326.21984 2071.14874,4324.71284 2070.68303,4323.38378 C2069.31928,4319.49185 2065.88972,4322.21931 2063.47793,4319.80753 C2058.19844,4314.52803 2051.00966,4299.13267 2041.79254,4299.05125 C1945.99135,4298.20508 1850.1794,4299.84408 1754.37775,4299.05125 C1742.82049,4298.95561 1731.3022,4297.58972 1719.80734,4296.3866 C1689.08836,4293.17138 1658.57706,4287.78054 1627.75396,4285.79809 C1603.61157,4284.24533 1579.36428,4286.2962 1555.17713,4285.79809 C1544.97465,4285.58798 1534.27013,4282.50159 1524.27061,4280.94211 C1517.26132,4279.84897 1495.9021,4277.90648 1489.63008,4274.35059 C1488.6955,4273.82074 1487.83904,4273.02873 1487.35109,4272.07161 C1487.01934,4271.42085 1487.35109,4270.61072 1487.35109,4269.88028" id="Path-96" stroke="#000000"/>
        <path d="M2405.36041,4266.25143 C2405.36041,4337.48425 2404.3034,4408.72492 2405.36041,4479.94989 C2405.37689,4481.06037 2407.40637,4478.92866 2408.51592,4478.88053 C2415.67338,4478.57 2422.85862,4479.33329 2430.00848,4478.88053 C2560.66804,4470.60649 2429.95571,4478.22794 2521.41322,4468.59004 C2535.90985,4467.06237 2550.5629,4467.3223 2565.04698,4465.67996 C2617.83605,4459.69423 2670.38425,4451.69829 2723.17332,4445.71256 C2737.6574,4444.07022 2752.31045,4444.33015 2766.80707,4442.80247 C2778.39672,4441.58114 2789.79083,4438.87557 2801.35996,4437.47316 C2811.44836,4436.25024 2821.57973,4435.10143 2831.74055,4434.93122 C2872.18974,4434.25364 2912.70548,4437.0437 2953.10515,4434.93122 C2955.21763,4434.82076 2953.94265,4430.52764 2953.10515,4428.58513 C2940.03299,4398.26523 2942.05193,4411.37296 2928.86028,4386.47654 C2925.54233,4380.21462 2923.31762,4373.42526 2920.21768,4367.05259 C2910.6289,4347.34061 2899.88904,4328.18523 2890.80127,4308.23731 C2885.99914,4297.69651 2883.0924,4286.3769 2878.59994,4275.70045 C2877.34955,4272.72885 2874.94171,4270.34958 2873.62124,4267.40846 C2871.25165,4262.13055 2869.78651,4256.48534 2867.57317,4251.14003 C2867.36135,4250.62846 2866.89311,4250.21458 2866.39862,4249.96547 C2866.05418,4249.79196 2865.52058,4250.23177 2865.2416,4249.96547 C2864.9753,4249.71128 2865.57289,4249.02159 2865.2416,4248.86104 C2864.55798,4248.52975 2863.68182,4249.10564 2862.96262,4248.86104 C2862.43841,4248.68276 2862.03568,4248.18172 2861.78806,4247.68649 C2861.61297,4247.33631 2862.06491,4246.78878 2861.78806,4246.51194 C2861.51122,4246.23509 2860.96369,4246.68703 2860.61351,4246.51194 C2860.11828,4246.26432 2859.9926,4245.34471 2859.43896,4245.33738 C2021.2226,4234.25162 2995.33161,4245.33678 2748.97842,4247.61637 C2674.49393,4248.3056 2600.00114,4248.15163 2525.51539,4247.61637 C2522.69627,4247.59611 2520.03181,4246.19731 2517.2234,4245.95096 C2513.67247,4245.63947 2510.07266,4246.34291 2506.52971,4245.95096 C2492.91753,4244.44505 2479.49145,4241.69865 2465.91123,4240.7093 C2456.36191,4240.0136 2447.97957,4240.38472 2438.66862,4239.28931 C2437.7135,4239.17695 2437.03629,4238.17222 2436.09162,4237.99205 C2434.70826,4237.72821 2433.25009,4238.25588 2431.86673,4237.99205 C2430.92206,4237.81188 2430.22234,4236.92952 2429.28973,4236.69478 C2428.45671,4236.48511 2427.55423,4236.86728 2426.71272,4236.69478 C2425.4165,4236.42907 2424.14465,4235.98925 2422.96117,4235.39751 C2422.47333,4235.15359 2422.29272,4234.48294 2421.80415,4234.24049 C2421.45344,4234.06646 2420.23808,4234.24049 2420.62959,4234.24049 C2422.04373,4234.24049 2423.45787,4234.24049 2424.87201,4234.24049 L2405.36041,4266.25143 Z" id="Path-97" stroke="#000000"/>
        <path d="M3282.36557,4262.13173 C3281.67785,4301.95662 3278.40423,4469.19175 3281.20854,4473.6038 C3297.6275,4499.43591 3342.43247,4474.25595 3373.03402,4473.6038 C3386.05445,4473.32633 3398.99636,4471.44381 3412.00462,4470.81643 C3610.45238,4461.24553 3307.97973,4479.46966 3578.05481,4460.64866 C3582.49099,4460.33951 3586.96395,4461.01673 3591.39563,4460.64866 C3604.36305,4459.57168 3617.19129,4456.8871 3630.19093,4456.3186 C3650.24434,4455.44161 3670.33952,4455.94726 3690.40866,4456.3186 C3692.28262,4456.35327 3693.83918,4459.67562 3696.19377,4457.47562 C3700.66452,4453.2984 3682.50966,4429.40434 3682.44975,4429.30388 C3674.42478,4415.8465 3666.93422,4402.07118 3659.62487,4388.21207 C3646.96996,4364.21739 3634.00024,4340.35733 3622.5651,4315.75795 C3574.91686,4213.25666 3621.00843,4288.97469 3601.31797,4269.28423 C3601.04112,4269.00739 3601.70932,4268.12109 3601.31797,4268.10968 C3587.88936,4267.71833 3574.41506,4267.15046 3561.01503,4268.10968 C3555.44101,4268.50869 3550.27052,4271.31349 3544.7466,4272.15926 C3439.72453,4288.23919 3527.98636,4275.15946 3478.79635,4278.20733 C3473.34252,4278.54525 3467.99089,4280.10314 3462.52792,4280.22335 C3437.41844,4280.77589 3412.2923,4280.69878 3387.18124,4280.22335 C3383.60536,4280.15565 3372.43366,4276.24059 3370.49208,4276.20884 C3346.95158,4275.82377 3323.37689,4277.35455 3299.86114,4276.20884 C3213.92015,4272.02168 3312.69969,4272.33456 3288.624,4272.33456 L3282.36557,4262.13173 Z" id="Path-98" stroke="#000000"/>
        <path d="M3667.35588,1019.12174 C3667.35588,928.844807 3651.75803,837.210183 3667.35588,748.290938 C3670.09199,732.69309 3699.04827,749.094095 3714.8639,748.290938 C3753.96528,746.305272 3793.02285,743.392035 3832.02115,739.928824 C3855.87975,737.810081 3879.54392,733.821739 3903.38837,731.54918 C3919.53373,730.010402 3935.80791,730.089602 3951.94823,728.498849 C3965.00164,727.212335 3977.84723,724.203878 3990.9013,722.924107 C4109.20534,711.326034 4023.32584,725.12375 4160.14207,706.795921 C4178.50039,704.33665 4209.23017,685.020505 4226.96886,691.509206 C4229.90499,692.583226 4230.26732,696.829181 4232.12286,699.3454 C4236.01546,704.623968 4240.69948,709.332127 4244.20147,714.877544 C4258.81037,738.010809 4265.7963,762.655376 4273.82825,788.365973 C4275.55297,793.886884 4278.79031,798.942516 4279.91138,804.616873 C4282.23082,816.356805 4282.51376,828.41075 4284.08367,840.274188 C4286.81013,860.877415 4298.51486,922.701401 4289.64088,937.621813 C4283.61295,947.756987 4266.0472,938.085779 4254.26406,937.621813 C4248.80328,937.406792 4243.45326,935.872154 4237.99563,935.588259 C4230.3976,935.193025 4222.74294,936.32852 4215.17074,935.588259 C4206.23868,934.715057 4197.60161,931.759202 4188.68195,930.767334 C4161.15631,927.706476 4133.55302,925.292975 4105.91981,923.439528 C4097.11001,922.848626 4088.22712,924.207862 4079.43102,923.439528 C4057.1397,921.492394 4035.05847,917.569018 4012.79707,915.305312 C4008.36713,914.854843 4003.86811,915.761212 3999.43872,915.305312 C3659.63086,880.330133 4140.57574,926.923631 3967.35766,911.729063 C3964.54925,911.482711 3961.88461,910.101333 3959.06567,910.063652 C3920.30305,909.545508 3881.52328,909.173083 3842.76743,910.063652 C3840.07618,910.125494 3816.67139,915.584229 3814.01718,916.024069 C3786.79908,920.534497 3759.96756,919.344893 3731.62319,919.985992 C3713.01596,920.406855 3796.70664,930.869731 3723.59416,921.143014 C3723.10265,921.077625 3722.63925,920.577451 3722.54232,920.091176 C3722.26701,918.710054 3722.54232,917.274587 3722.54232,915.866293" id="Path-99" stroke="#000000"/>
        <path d="M3652.38471,1480.23008 C3652.74701,1471.25439 3653.40345,1462.28575 3653.47161,1453.30302 C3653.7658,1414.53221 3620.30237,1357.06368 3653.47161,1336.98724 C3708.2721,1303.818 3781.5901,1336.21969 3845.64245,1336.98724 C3858.66449,1337.14329 3871.59932,1339.26682 3884.61305,1339.75709 C3896.12252,1340.19068 3907.65465,1339.37515 3919.16594,1339.75709 C4025.76456,1343.29398 3888.19238,1345.13676 4070.17484,1342.40421 C4083.99232,1342.19674 4097.40863,1338.49589 4110.67061,1335.16406 C4120.9462,1332.58251 4124.31225,1329.0569 4135.73942,1328.3797 C4148.96354,1327.59602 4162.24012,1327.97912 4175.48138,1328.3797 C4176.4348,1328.40855 4177.48246,1328.8861 4178.04085,1329.65944 C4178.90625,1330.85798 4178.78218,1332.54455 4179.4433,1333.86679 C4189.39845,1353.77708 4190.49865,1368.78263 4192.8893,1393.13787 C4194.90072,1413.6297 4196.63216,1434.17564 4197.20184,1454.75806 C4198.07051,1486.14341 4227.62248,1541.17978 4197.20184,1548.95017 C4078.10666,1579.37082 3951.36286,1548.45011 3828.4449,1548.95017 C3822.55598,1548.97413 3815.94862,1551.8553 3810.05526,1552.0005 C3791.46674,1552.4585 3772.86173,1552.44038 3754.27277,1552.0005 C3751.38494,1551.93217 3747.67123,1549.41709 3744.91141,1549.28325 C3736.86262,1548.89295 3728.73894,1550.23143 3720.73666,1549.28325 C3707.68919,1547.73729 3681.58778,1540.43369 3667.12798,1535.66195 C3666.61003,1535.49103 3666.08113,1535.03911 3665.97096,1534.50493 C3665.67114,1533.05126 3665.97096,1531.53641 3665.97096,1530.05215" id="Path-100" stroke="#000000"/>
        <path d="M3684.95663,2220.07553 C3684.95663,2108.50472 3686.84739,1773.8083 3684.95663,1885.36309 L3683.90467,1885.36309 C3683.88331,1886.63069 3686.56747,1890.35151 3699.45447,1890.70993 C4037.69994,1900.11732 3762.62604,1898.36763 3862.80494,1886.13444 C3886.76901,1883.2081 3910.9941,1882.55464 3934.89092,1879.12218 C3960.30941,1875.47116 3985.26009,1869.03128 4010.60574,1864.90483 C4019.35112,1863.48103 4028.31083,1863.77524 4037.077,1862.48561 C4043.6343,1861.52093 4049.93572,1859.18338 4056.48342,1858.15554 C4153.12892,1842.98444 4045.98694,1860.40665 4087.56523,1855.85903 C4171.60425,1846.66726 4068.914,1855.22789 4132.98711,1852.05488 C4152.55118,1851.08603 4177.45619,1845.09362 4195.9221,1852.26525 C4230.60168,1865.73378 4268.14087,1896.97287 4289.65841,1927.22625 C4310.27149,1956.20796 4316.09322,1969.91181 4328.90951,2003.83513 C4339.15629,2030.95724 4333.61234,2020.32136 4337.88519,2046.03137 C4339.56244,2056.12343 4343.55249,2065.89191 4343.96833,2076.11394 C4345.58678,2115.89896 4344.73634,2155.75719 4343.96833,2195.5677 C4343.94712,2196.66664 4342.71809,2197.85723 4341.61922,2197.88175 C4281.63649,2199.21988 4253.04512,2194.96519 4201.37413,2200.65159 C4163.31192,2204.84034 4102.24969,2219.62638 4073.82122,2226.5794 C4062.31931,2229.39253 4051.45199,2234.574 4039.86437,2237.01013 C3990.65177,2247.35634 3933.28579,2256.01327 3882.40419,2261.23747 C3877.9747,2261.69226 3873.48658,2260.91008 3869.04585,2261.23747 C3865.45403,2261.50226 3861.98812,2262.93905 3858.38722,2263.00806 C3795.35134,2264.21615 3784.01407,2267.57706 3737.25052,2252.34943 C3736.87825,2252.22821 3737.25052,2251.5664 3737.25052,2251.17488" id="Path-101" stroke="#000000"/>
        <path d="M3851.26978,2754.14638 C3854.35121,2660.09192 3841.17214,2566.55019 3841.17214,2472.48164 C3841.17214,2471.38889 3840.10634,2475.5187 3841.17214,2475.75987 L3842.25904,2476.84677 C3843.46732,2477.12017 3844.75059,2476.66174 3845.97553,2476.84677 C3852.31099,2477.80371 3858.53493,2479.45716 3864.89109,2480.26524 C3879.09343,2482.07083 3893.34519,2483.50435 3907.61325,2484.68296 C3933.46,2486.81803 3959.40484,2487.73136 3985.22138,2490.20511 C4006.25811,2492.22086 4027.08403,2496.13634 4048.1213,2498.14649 C4074.13039,2500.6317 4100.26059,2501.6407 4126.30794,2503.68617 C4155.40172,2505.97088 4184.36802,2510.33613 4213.54039,2511.13669 C4274.93878,2512.82161 4336.39028,2510.21782 4397.80491,2511.13669 C4401.35233,2511.18977 4404.85482,2512.48992 4408.0428,2514.04678 C4411.47264,2515.72174 4414.42925,2518.25643 4417.3691,2520.69089 C4419.64776,2522.57783 4422.30298,2524.33026 4423.64507,2526.96686 C4426.35689,2532.29437 4428.90752,2538.03775 4429.23734,2544.00663 C4430.78521,2572.01876 4429.82604,2600.12254 4429.23734,2628.17122 C4429.10075,2634.67905 4428.21534,2641.17109 4427.06354,2647.57764 C4425.58124,2655.82252 4423.61116,2663.98468 4421.34856,2672.0504 C4419.32318,2679.27045 4417.06661,2686.45039 4414.21359,2693.38519 C4412.70599,2697.04969 4410.10391,2700.17085 4408.32329,2703.71073 C4402.77029,2714.75016 4400.20869,2716.42506 4383.65769,2716.75353 C4340.20779,2717.61581 4296.7253,2717.91394 4253.28234,2716.75353 C4208.12269,2715.54726 4166.96262,2708.1843 4122.64404,2703.58802 C4101.03433,2701.34688 4079.30507,2700.42195 4057.6755,2698.38142 C3859.42882,2679.6789 4112.18355,2701.0235 4007.88849,2694.29678 C4003.39971,2694.00727 3999.02733,2692.47694 3994.53015,2692.38594 C3967.50928,2691.83921 3940.47361,2692.83577 3913.45095,2692.38594 C3765.85286,2689.92901 4218.05111,2690.96596 3899.4615,2690.96596" id="Path-102" stroke="#000000"/>
        <path d="M3695.79057,3117.10068 C3695.17464,3193.37355 3693.92493,3300.36833 3694.63355,3378.55259 C3694.6407,3379.34178 3694.92858,3376.65528 3695.68538,3376.43138 C3697.641,3375.85283 3699.7777,3376.6658 3701.80358,3376.43138 C3704.59839,3376.10799 3707.26458,3374.77375 3710.07804,3374.76597 C3908.16763,3374.21846 4106.25939,3375.27498 4304.34909,3374.76597 C4306.44664,3374.76058 4308.35582,3373.3467 4310.44975,3373.22328 C4317.12902,3372.82959 4327.91827,3379.38659 4330.52233,3373.22328 C4336.31136,3359.52173 4325.13852,3275.74882 4324.05352,3267.53107 C4322.02528,3252.16919 4318.92334,3236.96433 4316.77831,3221.61833 C4316.49518,3219.59278 4317.14102,3217.49543 4316.77831,3215.48261 C4316.18512,3212.19077 4315.43865,3208.8478 4313.93834,3205.85829 C4309.87235,3197.75635 4304.43526,3190.40475 4300.1768,3182.4023 C4296.92949,3176.3 4294.98145,3169.53225 4291.44654,3163.59192 C4289.9801,3161.12762 4288.18304,3158.03117 4285.36341,3157.50879 C4232.85594,3147.78104 4274.60668,3158.84483 4250.31966,3159.15667 C4210.30636,3159.67043 4170.2452,3160.97352 4130.26987,3159.15667 C4072.45971,3156.52925 4014.92172,3149.56549 3957.17236,3145.83339 C3946.17438,3145.12263 3935.12115,3146.28731 3924.10958,3145.83339 C3918.6492,3145.6083 3913.30469,3143.92669 3907.84115,3143.79983 C3884.07601,3143.24804 3860.29286,3144.29704 3836.52652,3143.79983 C3619.19462,3139.25314 4767.29939,3143.79983 3710.07804,3143.79983" id="Path-103" stroke="#000000"/>
        <path d="M3898.40967,4270.47632 C3898.40967,4330.99207 3893.33418,4391.72105 3898.40967,4452.02359 C3899.39725,4463.75717 3905.58454,4477.5319 3916.25585,4482.50937 C3932.09995,4489.89959 3951.20276,4483.75262 3968.65493,4484.78835 C3977.49936,4485.31324 3986.26653,4487.11265 3995.12619,4487.19005 C4362.0474,4490.39552 4128.70249,4492.60944 4334.41413,4479.93236 C4343.37282,4479.38028 4352.37279,4480.29415 4361.34119,4479.93236 C4366.15522,4479.73817 4370.88239,4478.38969 4375.69878,4478.26695 C4392.69213,4477.83391 4409.89546,4480.86 4426.6954,4478.26695 C4428.75535,4477.949 4425.67944,4465.17405 4425.1527,4464.25997 C4423.25127,4460.96031 4419.9986,4458.58948 4418.01773,4455.33688 C4413.10406,4447.2686 4408.87973,4438.79755 4404.53667,4430.40831 C4398.96197,4419.63998 4393.04878,4409.0151 4388.26824,4397.87145 C4372.59742,4361.34204 4358.46314,4324.17116 4343.21451,4287.4635 C4335.64904,4269.25134 4328.20617,4250.97172 4319.82864,4233.11853 C4316.77726,4226.61581 4312.37658,4220.82874 4308.97717,4214.50099 C4308.27406,4213.19219 4308.42832,4211.47964 4307.55719,4210.27611 C4306.99331,4209.49707 4305.73197,4209.5786 4304.98019,4208.97884 C4303.59773,4207.87594 4302.79681,4206.04485 4301.22863,4205.22729 C4273.59409,4190.82019 4263.61963,4190.85654 4225.53134,4195.91852 C4140.31192,4207.2443 4160.58797,4211.34763 4104.07909,4223.05595 C4098.72845,4224.16457 4093.17538,4224.03354 4087.81066,4225.07197 C4072.08697,4228.11555 4056.59726,4232.30062 4040.86362,4235.29233 C4032.02738,4236.97252 4023.02331,4237.62566 4014.14693,4239.07895 C3994.21751,4242.34189 3974.32852,4245.85123 3954.45511,4249.43955 C3952.38117,4249.81402 3950.29407,4250.22844 3948.31939,4250.96472 C3946.17927,4251.76268 3944.37241,4253.36218 3942.18367,4254.01505 C3934.10547,4256.42466 3925.82174,4258.08216 3917.64077,4260.11571 L3898.40967,4270.47632 Z" id="Path-105" stroke="#000000"/>
        <path d="M663.443413,4908.8144 C663.443413,4952.9249 623.322863,5022.81348 663.443413,5041.14591 C778.24157,5093.60107 914.212748,5070.46662 1039.99761,5080.87473 C1074.40652,5083.72191 1109.47874,5086.29508 1143.57712,5080.87473 C1148.99747,5080.0131 1142.83285,5069.84722 1143.57712,5064.40952 C1146.43268,5043.54653 1153.15935,5023.18622 1154.35065,5002.16244 C1156.76223,4959.60335 1155.40957,4916.89457 1154.35065,4874.28037 C1154.00305,4860.29189 1132.01899,4860.56687 1123.8821,4855.9631 C1122.51989,4855.19238 1121.99811,4853.26514 1120.56196,4852.64296 C1061.81968,4827.19419 995.608225,4847.21339 935.559834,4855.21776 C931.007607,4855.82457 926.343386,4854.6811 921.782359,4855.21776 C884.511997,4859.60311 848.258518,4865.76039 811.156012,4869.67282 C806.588842,4870.15442 801.927894,4869.04486 797.378537,4869.67282 C785.419372,4871.32357 750.068679,4876.51996 735.876793,4879.97204 C726.599608,4882.22866 719.386872,4883.39625 710.196483,4885.07649 C709.707693,4885.16585 710.679823,4886.45191 710.196483,4886.56716 L705.747036,4886.56716 C705.099718,4886.72152 704.98922,4887.94543 704.324117,4887.9675 C690.734805,4888.41829 677.130544,4887.9675 663.533757,4887.9675" id="Path-135" stroke="#000000"/>
        <path d="M1534.5412,4751.59308 C1535.74579,4838.22554 1536.38519,4924.86771 1538.15496,5011.49046 C1538.21477,5014.41777 1540.44218,5018.80293 1543.2594,5020.20867 C1610.77518,5053.89781 1701.47239,5028.8013 1767.13208,5027.97826 C1793.69512,5027.6453 1822.80253,5022.11889 1848.91607,5019.80212 C1854.62298,5019.29581 1860.41421,5020.47371 1866.10403,5019.80212 C1890.25958,5016.95094 1912.78732,5012.13369 1936.48209,5008.78014 C1940.00056,5008.28217 1943.64145,5009.38755 1947.14269,5008.78014 C1955.1289,5007.39467 1962.75771,5004.34378 1970.7225,5002.84002 C1979.30184,5001.22023 1988.7147,5002.12294 1997.32884,5000.85245 C2001.0264,5000.30709 2006.6609,5001.12559 2008.07978,4997.66782 C2020.33802,4967.79481 1972.09297,4909.30685 1966.25047,4898.76362 C1952.93968,4874.74333 1942.43178,4835.45078 1911.75039,4827.57247 C1908.05853,4826.62448 1904.71876,4824.05845 1900.9091,4823.93612 C1866.79167,4822.8406 1832.63059,4824.69709 1798.50406,4823.93612 C1788.70037,4823.71751 1779.03066,4821.39699 1769.23258,4820.99994 C1733.74823,4819.56198 1698.45532,4819.7985 1662.98792,4818.22185 C1657.19839,4817.96449 1651.57192,4815.84967 1645.77737,4815.75998 C1535.71406,4814.05636 1544.64266,4823.93586 1489.73053,4812.25914 C1488.25036,4811.9444 1486.62634,4812.73768 1485.19073,4812.25914 C1484.7122,4812.09963 1485.19073,4811.2503 1485.19073,4810.74588" id="Path-137" stroke="#000000"/>
        <path d="M2428.63155,4778.28976 C2454.51514,4855.15 2475.43248,4933.86552 2506.28231,5008.87049 C2508.46166,5014.16912 2517.74659,5009.12469 2523.47027,5008.87049 C2619.96938,5004.58464 2716.43137,4999.48529 2812.93276,4995.25111 C2909.22815,4991.02597 2624.74172,5020.47129 2955.26988,4984.36465 C2957.48565,4984.1226 2960.3723,4983.39435 2961.23259,4981.33812 C2966.07837,4969.75599 2954.80912,4957.94594 2950.52682,4948.74649 C2689.06367,4387.05781 3000.97949,5045.375 2914.79573,4875.29674 C2912.60687,4870.97716 2912.17537,4865.93524 2910.18818,4861.51926 C2905.45113,4850.99248 2898.63562,4841.59632 2893.11314,4831.66054 C2891.25352,4828.31478 2890.84955,4824.26055 2888.84439,4820.99994 C2884.57035,4814.0499 2877.77798,4807.88535 2873.01158,4801.21458 C2871.29885,4798.81753 2870.91898,4795.59417 2869.05903,4793.30947 C2867.68143,4791.61727 2865.24117,4791.12896 2863.6158,4789.67312 C2853.58753,4780.69083 2845.81627,4774.96115 2835.27034,4767.42589 C2832.99197,4765.79795 2831.75373,4762.8885 2829.33021,4761.48576 C2823.46983,4758.09376 2816.7216,4756.46098 2810.7645,4753.24186 C2789.88123,4741.9569 2791.19518,4739.51636 2761.00749,4729.39102 C2756.59294,4727.91033 2751.72572,4728.29939 2747.23001,4727.08725 C2701.19292,4714.67466 2673.38277,4713.83172 2621.56137,4716.20078 C2616.94253,4716.41194 2612.74978,4719.08031 2608.21303,4719.97265 L2557.91396,4729.63947 C2555.74214,4730.06664 2553.41236,4729.06915 2551.27367,4729.63947 C2542.43241,4731.99713 2550.713,4738.00295 2543.70735,4741.29386 C2542.70565,4741.7644 2541.43774,4740.94573 2540.3872,4741.29386 C2536.23668,4742.66925 2532.50174,4745.17567 2528.30368,4746.3983 C2521.01938,4748.51976 2510.9426,4747.43155 2503.84302,4748.04708 C2491.00951,4749.15972 2479.75868,4753.78026 2467.5021,4759.02388" id="Path-139" stroke="#000000"/>
        <path d="M3332.38873,4718.48197 C3331.29707,4764.80591 3328.351,4811.12326 3329.11376,4857.45378 C3329.20038,4862.71533 3329.70175,4871.44307 3334.91837,4872.13469 C3419.27048,4883.31821 3504.42546,4887.8821 3589.41769,4891.96522 C4232.79632,4922.87387 3679.26935,4914.52862 3753.95687,4888.78059 C3754.8964,4888.4567 3756.6282,4889.72478 3756.93823,4888.78059 C3757.88242,4885.90512 3758.39728,4882.35262 3756.93823,4879.70101 C3746.73363,4861.15572 3733.34519,4844.52278 3722.5623,4826.30765 C3719.42851,4821.01385 3718.25466,4814.73567 3715.2896,4809.34555 C3709.13901,4798.1645 3701.08933,4788.07001 3695.27838,4776.70874 C3693.62442,4773.475 3694.529,4769.37862 3693.13271,4766.02555 C3689.18504,4756.54553 3683.36595,4747.92413 3679.35524,4738.4706 C3676.05336,4730.68786 3674.2803,4722.33031 3671.24685,4714.43907 C3670.00251,4711.20203 3670.01454,4705.28516 3666.54896,4705.15622 C3585.00961,4702.1223 3503.35616,4704.7045 3421.76163,4705.15622 C3421.30992,4705.15872 3422.21284,4706.49003 3421.76163,4706.51138 L3391.76739,4706.51138 C3391.06012,4706.54484 3390.75855,4707.50516 3390.25412,4708.00206" id="Path-141" stroke="#000000"/>
        <path d="M4167.59732,4670.48667 C4167.59732,4755.21438 4133.29913,4847.19451 4167.59732,4924.66979 C4182.06285,4957.34559 4238.39698,4914.89091 4273.86457,4910.53094 C4285.19495,4909.13811 4296.5784,4908.16322 4307.96946,4907.41406 C4363.55041,4903.75866 4419.07789,4898.45739 4474.76725,4897.31811 C4583.64675,4895.09069 4692.61553,4900.40363 4801.47409,4897.31811 C4804.55961,4897.23065 4802.41607,4890.99735 4801.47409,4888.05784 C4800.21481,4884.12815 4796.65664,4881.26605 4795.10484,4877.44241 C4792.86092,4871.9134 4792.21861,4865.84021 4790.18108,4860.23186 C4784.02833,4843.29623 4776.74026,4826.78838 4770.55383,4809.86503 C4765.91833,4797.18435 4761.48709,4784.41284 4757.72497,4771.4462 C4755.3435,4763.23817 4754.6541,4754.59118 4752.14622,4746.42088 C4750.31434,4740.45293 4746.65887,4735.1575 4744.76059,4729.21033 C4741.88613,4720.2049 4740.69697,4710.72158 4737.87185,4701.70056 C4735.85211,4695.25123 4733.3821,4688.90296 4730.26036,4682.90898 C4729.27181,4681.0109 4727.62691,4679.34172 4725.72057,4678.36919 C4721.38542,4676.15761 4703.17362,4672.73768 4697.80424,4671.86442 C4628.16132,4660.53788 4546.3115,4667.96063 4475.26415,4682.09589 C4461.86476,4684.76176 4449.10452,4691.07128 4435.46757,4691.89822 C4340.95855,4697.62924 4338.21624,4700.8145 4277.5235,4680.7859 C4276.56548,4680.46975 4273.48813,4680.7859 4274.49698,4680.7859 C4287.19828,4680.7859 4297.27576,4681.1373 4305.82379,4691.83046 C4306.13405,4692.21859 4306.3189,4693.27908 4305.82379,4693.32114 C4289.31895,4694.7231 4288.06703,4691.24071 4275.28749,4686.95188 C4272.93819,4686.16345 4271.11922,4683.78203 4268.6472,4683.60915 C4261.49769,4683.10914 4254.00728,4687.19971 4247.19047,4684.9869 C4243.14022,4683.67214 4223.34379,4664.3881 4215.70555,4659.73572 C4215.3069,4659.49291 4214.6651,4659.43846 4214.30522,4659.73572 L4214.30522,4670.35115 C4211.00244,4673.07929 4205.73759,4670.35115 4201.45377,4670.35115 L4167.59732,4670.48667 Z" id="Path-143" stroke="#000000"/>
        <path d="M4558.0871,682.54012 C4558.0871,751.013417 4507.69952,841.595323 4558.0871,887.960011 C4567.26867,896.408538 4995.78473,893.939723 5010.05603,894.171167 C5103.67965,895.689502 5197.24078,899.906221 5290.84548,902.324722 C5302.43577,902.624185 5320.46409,912.705424 5325.62796,902.324722 C5339.10125,875.239955 5334.00038,739.592163 5334.88823,715.470543 C5336.74862,664.926488 5345.6638,623.146084 5352.46016,574.511166 C5353.0697,570.149274 5356.81483,561.957458 5352.46016,561.298341 C5323.68952,556.943666 5294.22947,562.705167 5265.16517,561.298341 C5257.97196,560.950162 5251.38472,556.62415 5244.20534,556.058384 C5229.07444,554.866003 5213.83778,556.660358 5198.67192,556.058384 C5190.28467,555.725471 5182.02493,553.767988 5173.6466,553.257717 C5121.68082,550.092806 5068.66937,547.823567 5016.71891,550.953942 C5000.26987,551.94511 4984.535,558.06917 4968.36223,561.230583 C4959.22513,563.016681 4949.87853,563.697945 4940.80728,565.79296 C4924.31237,569.602476 4908.28914,576.756743 4891.90854,581.196629 C4883.94228,583.355846 4875.49142,583.371511 4867.53822,585.578317 C4844.98155,591.8372 4822.92851,602.134806 4800.02859,607.373831 C4774.19369,613.284316 4748.05693,617.817269 4721.9487,622.370951 C4709.76678,624.495667 4696.36615,622.946539 4684.47849,626.120231 C4667.91099,630.543314 4644.28667,636.333971 4629.23307,644.685943 C4618.87156,650.43467 4609.15414,657.282546 4599.32918,663.90665 C4598.15501,664.698289 4597.56334,666.243 4596.30265,666.888005 C4595.47155,667.313217 4594.43554,666.888005 4593.50198,666.888005" id="Path-145" stroke="#000000"/>
        <path d="M4596.03162,1555.08341 C4598.61395,1502.71395 4600.23642,1450.28833 4603.77862,1397.97502 C4603.84373,1397.01356 4605.78105,1398.34797 4606.66963,1397.97502 C4639.93438,1384.01368 4672.5335,1368.46846 4706.02556,1355.06158 C4712.70463,1352.38794 4719.81396,1350.6294 4726.9628,1349.82162 C4820.5403,1339.24789 4834.34778,1344.77423 4946.70223,1356.30381 C4959.55189,1357.62242 4971.99872,1361.9331 4984.87261,1362.98927 C5133.58559,1375.18967 4985.19472,1366.47796 5039.53079,1356.50708 C5047.39493,1355.06398 5056.65734,1352.39974 5063.51715,1356.50708 C5076.27224,1364.14426 5084.32356,1377.78067 5093.96311,1389.09872 C5119.56076,1419.1536 5149.55468,1512.80698 5157.27173,1540.65094 C5166.47742,1573.86604 5172.5267,1607.9058 5178.45743,1641.85892 C5179.60908,1648.45208 5185.12305,1661.33322 5178.45743,1661.93789 C5041.40152,1674.37082 4907.40077,1661.54458 4774.12242,1634.31518 C4770.36246,1633.54701 4767.13449,1631.05941 4763.43923,1630.02384 C4502.05845,1556.77366 5007.86937,1702.77017 4707.29037,1612.6326 C4699.1199,1610.18244 4678.61282,1610.22564 4668.84896,1609.13177 C4655.10385,1607.59186 4641.92512,1602.14809 4628.91687,1597.56772 C4625.13865,1596.23736 4619.58762,1595.89891 4616.02025,1594.22499 C4615.60449,1594.02991 4616.02025,1593.30649 4616.02025,1592.84724" id="Path-147" stroke="#000000"/>
        <path d="M4590.4077,2187.01778 C4590.4077,1916.0966 4523.35875,1984.16273 4807.34646,1982.29806 C4915.04936,1981.59088 5022.7588,1981.65867 5130.46212,1982.29806 C5133.16999,1982.31413 5135.64579,1984.04174 5138.34465,1984.26304 C5157.84306,1985.86188 5175.82412,1984.41449 5194.3354,1993.61366 C5222.4767,2007.59845 5214.60755,2081.69362 5213.82714,2094.50543 C5212.69585,2113.0775 5198.56659,2130.0548 5188.75665,2144.66899 C5184.13962,2151.54713 5180.55211,2159.07923 5175.95038,2165.96761 C5172.01082,2171.86478 5166.98163,2176.99635 5163.16669,2182.97488 C5146.6107,2208.92042 5139.26563,2229.51743 5117.79136,2248.81315 C5087.73376,2275.82143 5040.03353,2271.60723 5003.07695,2272.95761 C4853.64059,2278.41793 4836.43338,2277.8461 4727.82107,2263.2682 C4701.25621,2259.70268 4755.48919,2276.11627 4693.44514,2257.14739 C4691.35844,2256.50942 4690.01276,2254.35825 4688.00191,2253.51104 C4676.85353,2248.81401 4664.9475,2244.40936 4654.10029,2239.23667 C4652.46289,2238.45585 4650.80075,2233.02125 4649.51532,2231.58001 C4647.03284,2228.79662 4643.67307,2226.94235 4640.75195,2224.62351" id="Path-149" stroke="#000000"/>
        <path d="M5251.7039,2758.85075 C5095.60698,2796.30109 5078.37634,2802.23124 4790.58763,2764.0907 C4741.41126,2757.57338 4703.43687,2716.40958 4662.18608,2688.85666 C4659.73904,2687.22219 4665.20227,2683.74878 4666.11605,2680.95155 C4688.72438,2611.74385 4709.91954,2542.07816 4732.72224,2472.93426 C4733.73798,2469.85425 4734.26804,2464.53429 4737.51047,2464.46451 C4963.0372,2459.61099 5013.56768,2452.14357 5158.26552,2468.71068 C5160.87597,2469.00956 5163.57026,2468.20193 5166.14804,2468.71068 C5173.32582,2470.12727 5180.16158,2473.00272 5187.33373,2474.44753 C5192.68033,2475.52459 5198.29677,2474.96299 5203.59567,2476.25441 C5209.16295,2477.61124 5214.65088,2479.57787 5219.67692,2482.33005 C5225.03004,2485.26133 5229.70322,2489.31031 5234.44818,2493.14876 C5236.61695,2494.90319 5238.69972,2496.82887 5240.36572,2499.06629 C5268.26416,2536.53377 5269.40772,2581.72238 5278.64903,2626.02234 C5279.63598,2630.75347 5282.18975,2635.05841 5283.23399,2639.77723 C5287.97113,2661.18388 5291.23948,2682.89794 5295.97251,2704.3055 C5296.64735,2707.35782 5298.73908,2709.97457 5299.42817,2713.0237 C5299.91112,2715.16065 5299.02989,2717.4419 5299.42817,2719.59624 C5299.55592,2720.28724 5300.81776,2720.39151 5300.91885,2721.08691 C5301.33909,2723.97765 5300.42899,2726.97053 5300.91885,2729.85029 C5301.00218,2730.34015 5302.18731,2729.40586 5302.40953,2729.85029 C5302.85396,2730.73916 5301.86223,2732.00215 5302.40953,2732.83165 C5302.99922,2733.7254 5304.79744,2735.1772 5305.30054,2734.23198 C5305.99407,2732.92897 5304.36698,2731.43131 5303.9002,2730.03098" id="Path-151" stroke="#000000"/>
        <path d="M5340.94128,3420.80195 C5245.15396,3420.80195 5149.01634,3428.98633 5053.5793,3420.80195 C4966.55727,3413.33921 4881.84077,3388.83391 4795.75983,3374.04888 C4773.86124,3370.28763 4751.01047,3371.44762 4729.69571,3365.17257 C4695.62565,3355.14236 4662.96403,3340.5805 4630.81409,3325.48892 C4625.51856,3323.00313 4613.43544,3309.74118 4613.12924,3301.79618 C4611.7039,3264.81267 4612.5697,3227.77002 4613.12924,3190.76329 C4613.17288,3187.87684 4614.03068,3185.03464 4614.93612,3182.29353 C4615.1582,3181.6212 4615.73414,3180.92713 4616.4268,3180.78027 C4625.85484,3178.78128 4619.74694,3184.41661 4625.05466,3189.72433 C4627.42775,3192.09743 4651.72976,3195.09862 4654.95855,3195.12239 C4747.51357,3195.8039 4840.08864,3196.79026 4932.63114,3195.12239 C4955.45878,3194.71097 4978.05813,3190.37679 5000.84093,3188.88865 C5024.98417,3187.31165 5049.21296,3187.37151 5073.36465,3185.92988 C5150.62144,3181.31837 5008.1902,3184.506 5132.42711,3180.84802 C5147.58329,3180.40177 5162.76216,3181.38609 5177.91536,3180.84802 C5271.66785,3177.51904 4502.14851,3138.72258 5237.63281,3179.04114 C5243.93541,3179.38664 5250.17261,3184.88338 5255.5887,3185.47816 C5267.58123,3186.79514 5281.1833,3186.10251 5290.07756,3196.68083 C5315.07706,3226.4138 5318.14403,3261.64757 5325.49244,3299.22138 C5329.6947,3320.70828 5330.20712,3339.94046 5331.99722,3361.2426 C5332.89364,3371.91006 5335.29478,3382.98959 5335.29478,3393.54061" id="Path-153" stroke="#000000"/>
        <path d="M5175.97296,3973.50455 C5086.72668,3975.683 4924.3077,3980.11447 4873.18472,3974.90488 C4809.61936,3968.42737 4748.72463,3945.91949 4686.62416,3930.88472 C4679.5255,3929.1661 4687.7203,3924.21996 4687.93415,3922.07617 C4689.31403,3908.24355 4689.4509,3894.3056 4689.58293,3880.40495 C4690.00058,3836.43195 4690.56741,3792.44395 4689.58293,3748.47999 C4689.53084,3746.154 4688.4029,3743.54598 4686.48864,3742.22366 C4683.28073,3740.00772 4680.48378,3743.5371 4674.49547,3737.68387 C4673.70806,3736.91423 4671.8974,3734.93622 4672.9822,3734.74768 C4679.02745,3733.69704 4685.29197,3735.42978 4691.38981,3734.74768 C4705.50268,3733.16904 4729.38357,3724.12341 4740.87579,3721.08314 C4785.15438,3709.36923 4882.4147,3690.60397 4909.02874,3686.39101 C4974.28921,3676.06036 5039.19968,3678.39132 5104.39785,3672.59094 C5119.50621,3671.24683 5153.80612,3666.85056 5171.56869,3662.87895 C5196.65592,3657.2696 5205.73002,3651.09245 5234.10939,3649.53061 C5262.26168,3647.98128 5290.61036,3647.02907 5318.69405,3649.53061 C5354.54787,3652.72428 5342.27251,3654.40576 5344.91642,3673.92352 C5346.3831,3684.75075 5348.59054,3695.48613 5351.24051,3706.08602 C5355.56761,3723.39441 5362.05505,3740.14525 5365.83108,3757.58215 C5370.02702,3776.95809 5371.73519,3796.79339 5375.11394,3816.3284 C5378.44509,3835.58819 5379.36596,3852.9837 5380.98631,3872.18364 C5381.08965,3873.40822 5382.60475,3874.25265 5382.63509,3875.4812 C5383.15737,3896.63033 5395.9752,3922.52843 5382.63509,3938.94793 C5371.79684,3952.28804 5348.23005,3937.94801 5331.07119,3938.94793 C5314.1359,3939.93482 5262.11996,3957.02157 5244.49896,3965.64461 C5239.56019,3968.06145 5235.22946,3971.78681 5230.02132,3973.54972 C5227.21875,3974.49836 5223.32401,3975.55129 5221.14501,3973.54972 C5219.14344,3971.71112 5221.14501,3968.11401 5221.14501,3965.39616" id="Path-155" stroke="#000000"/>
        <path d="M5367.68314,4463.01145 C5343.32035,4463.50081 5318.9623,4464.38933 5294.59476,4464.47954 C5186.76982,4464.87871 5078.93922,4465.42886 4971.11772,4464.47954 C4896.49605,4463.82253 4912.10412,4462.22387 4858.97811,4449.86638 C4749.29601,4424.35354 5057.29083,4504.45154 4834.74331,4446.20745 C4823.1049,4443.1615 4811.48229,4440.03188 4799.98342,4436.49546 C4795.703,4435.17904 4790.61479,4434.82866 4787.44817,4431.66205 C4783.00332,4427.2172 4792.1061,4417.28781 4792.23641,4412.5091 C4792.75563,4393.46863 4793.83116,4374.34713 4792.23641,4355.36646 C4790.73418,4337.48702 4771.06665,4280.43254 4756.25687,4270.30749 C4755.87154,4270.04405 4754.38976,4270.30749 4754.85654,4270.30749 C4870.24101,4270.30749 4985.63318,4268.97431 5101.00995,4270.30749 C5108.2561,4270.39122 5115.12018,4273.83562 5122.33116,4274.55366 C5129.40325,4275.25788 5136.56028,4274.09243 5143.65236,4274.55366 C5160.30599,4275.63674 5181.2867,4278.78272 5196.81986,4281.53275 C5211.15521,4284.07071 5225.14175,4289.00132 5239.66555,4290.0025 C5266.2765,4291.8369 5293.04961,4288.61963 5319.68784,4290.0025 C5321.75061,4290.10959 5323.04374,4292.59136 5324.06952,4294.38419 C5326.46776,4298.57575 5327.52865,4303.42912 5329.80637,4307.68736 C5333.71488,4314.99435 5338.63404,4321.72719 5342.59006,4329.00857 C5368.46265,4376.62913 5386.80368,4430.50943 5384.75817,4484.91989 C5384.7412,4485.3713 5383.65048,4485.2978 5383.40301,4484.91989 L5380.48941,4482.0063 C5379.13184,4479.93318 5378.26093,4477.57944 5377.14668,4475.36601 L5367.68314,4463.01145 Z" id="Path-158" stroke="#000000"/>
        <path d="M5654.09651,883.284704 C5652.34986,803.172075 5651.0271,723.049083 5648.85655,642.946819 C5648.67024,636.071162 5640.16046,622.792047 5647.02709,622.393537 C5765.4872,615.51862 5884.34846,621.62467 6003.00541,622.393537 C6018.76424,622.49565 6035.20821,626.907398 6050.93296,627.09143 C6111.31632,627.798118 6171.74972,624.84586 6232.09546,627.09143 C6243.83155,627.528151 6255.13899,631.787654 6266.40363,635.109469 C6313.61782,649.032395 6349.14525,670.10359 6352.04983,725.385808 C6353.60661,755.015446 6354.64145,784.840224 6352.04983,814.397329 C6349.03786,848.748535 6290.84989,847.702715 6270.98859,851.031861 C6262.56126,852.444447 6254.3696,855.055393 6245.96328,856.588023 C6157.3189,872.749549 6050.29578,895.260618 5956.59113,900.992147 C5930.0194,902.617431 5903.33972,901.669606 5876.72695,900.992147 C5849.47223,900.298345 5823.27816,888.708029 5796.43364,885.091585 C5752.74195,879.205525 5755.77879,895.476878 5755.77879,872.28531" id="Path-160" stroke="#000000"/>
        <path d="M5387.19746,1673.32125 C5387.19746,1624.33969 5381.31044,1575.00307 5387.19746,1526.37657 C5388.11563,1518.79259 5399.15987,1516.16479 5406.48593,1513.99943 C5429.44682,1507.2129 5453.48553,1504.81981 5476.90915,1499.86058 C5531.22095,1488.36173 5585.35272,1476.02033 5639.68663,1464.62638 C5663.2632,1459.68232 5686.87611,1454.85928 5710.62933,1450.84891 C5714.13327,1450.25732 5717.77012,1451.33728 5721.28993,1450.84891 C5732.73558,1449.26084 5743.84823,1445.08567 5755.39483,1444.63775 C5797.36574,1443.00959 5839.41778,1443.40848 5881.40226,1444.63775 C5905.54921,1445.34476 5931.3885,1457.29213 5953.99374,1464.35535 C6004.70855,1480.20168 6034.2048,1496.14879 6058.61221,1545.59728 C6082.1305,1593.24447 6077.30482,1653.43019 6076.43258,1703.90272 C6076.18365,1718.3074 6059.08956,1722.28306 6048.26781,1727.30185 C5923.01322,1785.39093 6181.37796,1671.48582 6000.27251,1749.36839 C5960.89307,1766.30312 5922.12021,1784.6567 5882.4638,1800.93228 C5860.06961,1810.1232 5837.2592,1818.33896 5814.20884,1825.73174 C5736.31311,1850.71469 5693.59411,1860.35243 5615.0001,1866.13814 C5610.35765,1866.47989 5605.87638,1868.31075 5601.22263,1868.41932 C5573.2311,1869.0724 5545.20355,1869.49823 5517.2252,1868.41932 C5507.04667,1868.02682 5480.26254,1848.99818 5473.38573,1843.30367 C5471.7051,1841.91198 5471.41021,1839.27569 5469.74938,1837.86043 C5460.59269,1830.05768 5450.40437,1823.5323 5441.15547,1815.83906 C5433.2023,1809.2236 5426.34179,1801.33291 5418.18549,1794.96957 C5402.02942,1782.36502 5382.58991,1778.31886 5382.58991,1757.56712" id="Path-162" stroke="#000000"/>
        <path d="M5537.66556,2338.47966 C5537.66556,2266.56576 5521.87398,2192.8966 5537.66556,2122.73796 C5541.21998,2106.94639 5570.18753,2124.92679 5586.22551,2122.73796 C5636.3029,2115.9035 5685.40833,2102.98708 5735.42878,2095.74766 C5829.62988,2082.11401 5792.05842,2091.82288 5858.04831,2089.0622 C5967.39629,2084.48763 5803.66312,2075.46892 6043.56991,2085.78722 C6066.90489,2086.79085 6089.77942,2092.7649 6113.02194,2095.07008 C6210.95039,2104.78258 6088.99752,2088.14112 6140.46396,2096.71886 C6142.63242,2097.08027 6145.03476,2095.86154 6147.05908,2096.71886 C6149.97909,2097.95551 6154.03601,2099.52055 6154.48988,2102.65898 C6160.86032,2146.70994 6144.52211,2187.33023 6133.62039,2228.75676 C6121.57955,2274.51195 6120.14576,2319.42298 6062.0227,2319.73326 C5948.0176,2320.34186 5833.9809,2322.27578 5720.00253,2319.73326 C5699.67393,2319.27979 5677.09019,2309.51437 5655.97115,2309.0049 C5629.89188,2308.37577 5603.71211,2306.89667 5577.71058,2309.0049 C5568.83321,2309.72469 5561.03105,2315.43111 5552.34647,2317.4069 C5546.20791,2318.80346 5539.8037,2318.50609 5533.53231,2319.05568" id="Path-164" stroke="#000000"/>
        <path d="M5592.73739,2819.9757 C5593.69791,2713.36331 5504.05289,2554.75338 5595.61895,2500.13852 C5709.38103,2432.28478 5854.32665,2557.20179 5983.40106,2586.96317 C6036.75269,2599.26474 6091.09755,2611.81289 6139.20989,2638.98867 C6149.09222,2644.57061 6158.31199,2680.13434 6158.12401,2682.88913 C6157.28995,2694.88324 6158.46251,2803.01073 6113.05542,2820.22764 C6062.72717,2839.31051 6010.93671,2840.86654 5957.54577,2842.77623 C5941.69422,2843.34321 5925.78127,2841.6348 5909.9607,2842.77623 C5838.55914,2847.92773 5762.25722,2862.23521 5689.07275,2857.54618 C5684.16034,2857.23144 5678.90134,2855.77963 5675.16884,2852.57038 L5671.79915,2852.57038 C5671.06685,2851.94074 5672.48205,2850.35597 5671.79915,2849.67307" id="Path-166" stroke="#000000"/>
        <path d="M5638.33844,3402.99518 C5638.33844,3338.46718 5637.50881,3273.93384 5638.33844,3209.41117 C5638.45937,3200.00535 5640.09037,3190.67795 5641.1885,3181.33567 C5641.49766,3178.70548 5641.6901,3176.01168 5642.55842,3173.5098 C5642.88213,3172.57711 5643.69004,3171.67928 5644.63692,3171.3998 C5653.62769,3168.74614 5646.38092,3172.51238 5652.82496,3174.51755 C5657.78254,3176.06019 5662.99163,3176.89439 5668.17752,3177.14717 C5696.55265,3178.53031 5724.93454,3177.31346 5753.28583,3178.95799 C5764.95843,3179.63506 5776.48426,3182.01526 5788.14796,3182.83156 C5794.9599,3183.3083 5801.82679,3182.28865 5808.63379,3182.83156 C5837.00015,3185.09398 5866.89557,3190.29292 5895.66313,3190.56295 C6278.1631,3194.15327 5966.12496,3179.49498 6145.19345,3200.21538 C6156.35389,3201.50678 6169.62959,3195.0913 6178.87461,3201.47508 C6184.9084,3205.64147 6178.12862,3216.1781 6178.87461,3223.47255 C6179.57999,3230.36985 6182.56888,3236.9126 6183.20482,3243.81666 C6184.51222,3258.01019 6183.16549,3272.3795 6184.68497,3286.5519 C6186.5739,3304.17032 6193.83019,3325.35491 6195.48687,3343.66343 C6196.67085,3356.7479 6195.60972,3369.96271 6196.63635,3383.06047 C6196.74487,3384.44504 6204.87378,3395.83699 6198.9353,3396.39751 C6168.20927,3399.29767 6137.14691,3394.42319 6106.34753,3396.39751 C6089.07111,3397.50498 6072.35134,3403.01235 6055.23531,3405.60905 C6036.73041,3408.41646 6016.00555,3409.96895 5997.36796,3410.04948 C5885.66533,3410.53213 5773.96061,3410.04948 5662.25694,3410.04948 L5638.33844,3402.99518 Z" id="Path-168" stroke="#000000"/>
        <path d="M6182.32304,3711.19591 C6032.15135,3711.53708 5881.96124,3709.84202 5731.80799,3712.21941 C5729.77173,3712.25165 5731.21622,3716.38031 5731.80799,3718.32894 C5732.31129,3719.98629 5734.7243,3720.76561 5734.92574,3722.48595 C5735.79679,3729.92507 5736.72241,3737.68453 5734.92574,3744.9558 C5732.94318,3752.97938 5728.01581,3759.9979 5723.88764,3767.15797 C5722.9144,3768.846 5720.86792,3769.69011 5719.74638,3771.28348 C5717.69777,3774.19394 5715.98522,3777.34427 5714.45565,3780.558 C5711.5646,3786.63231 5708.42861,3792.66107 5706.50381,3799.10704 C5703.80377,3808.14927 5702.8734,3817.63449 5700.64622,3826.80464 C5699.42743,3831.82289 5697.74273,3836.71739 5696.1743,3841.63758 C5694.79252,3845.97222 5693.57154,3850.37608 5691.79685,3854.56522 C5689.63135,3859.67684 5686.09328,3864.19637 5684.38038,3869.47689 C5683.56252,3871.99817 5684.1046,3874.7925 5684.38038,3877.42873 C5684.42594,3877.8643 5684.87149,3878.35271 5685.3094,3878.35776 C5711.87151,3878.66385 5738.49439,3876.61478 5765.00102,3878.35776 C5778.25734,3879.22945 5790.9888,3883.92547 5804.08313,3886.16788 C5833.16967,3891.14898 5862.45062,3894.95503 5891.52188,3900.02456 C5903.27692,3902.07443 5914.76361,3905.51083 5926.52572,3907.51976 C5948.46054,3911.26614 5970.63055,3913.53603 5992.56536,3917.28241 C6004.32747,3919.29134 6015.76792,3923.01333 6027.5692,3924.77761 C6056.91629,3929.16498 6087.08561,3930.33297 6116.55108,3934.13086 C6158.43389,3939.52927 6200.62326,3945.34847 6242.39486,3950.56992 C6251.59108,3951.71944 6260.56746,3956.42101 6269.77753,3955.38826 C6272.39077,3955.09523 6270.32165,3950.07211 6269.77753,3947.4994 C6229.60753,3757.56593 6282.74917,4027.16496 6257.47973,3889.47459 C6252.03421,3859.80252 6248.70108,3829.46415 6244.18993,3799.51644 C6242.01595,3785.08429 6242.40568,3766.0561 6234.82093,3752.89189 C6233.52004,3750.63406 6229.89171,3750.64211 6228.30199,3748.57743 C6177.98149,3683.22268 6237.75673,3758.27092 6213.42182,3719.10051 C6212.88447,3718.23558 6211.38531,3719.10051 6210.36705,3719.10051" id="Path-170" stroke="#000000"/>
        <path d="M6144.46913,4278.21722 C5785.374,4278.21722 6082.75233,4274.92539 5834.91422,4283.80713 C5820.19571,4284.3346 5805.19292,4281.02388 5790.73034,4283.80713 C5787.94709,4284.34275 5790.31399,4289.50652 5790.73034,4292.31009 C5804.97708,4388.24313 5793.50072,4287.22346 5796.76114,4338.96613 C5797.62743,4352.71414 5799.50843,4366.38843 5800.27254,4380.14249 C5800.67986,4387.47417 5799.90585,4394.83763 5800.27254,4402.17145 C5800.47401,4406.20073 5801.7533,4410.126 5801.97314,4414.15433 C5802.3215,4420.53779 5801.51955,4426.95637 5801.97314,4433.33322 C5802.50319,4440.78512 5804.56758,4448.08861 5804.91768,4455.55113 C5805.55105,4469.05179 5803.99497,4482.61367 5804.91768,4496.09764 C5805.03392,4497.79637 5806.27233,4500.09799 5807.97244,4500.19166 C5910.77068,4505.85548 5846.09178,4492.92059 5940.68157,4506.33269 C5953.43601,4508.14117 5965.80673,4512.09485 5978.50399,4514.26878 C5985.26818,4515.42689 5992.21465,4515.22373 5998.98982,4516.31579 C6016.49135,4519.13678 6033.76312,4523.29502 6051.28301,4525.99971 C6121.6665,4536.86542 6190.04391,4543.30735 6261.21159,4542.20257 C6266.3479,4542.12284 6259.93847,4524.55786 6259.9204,4523.66927 C6259.20233,4488.35781 6263.57044,4452.84262 6259.9204,4417.71297 L6258.20406,4379.43391 C6257.21235,4369.88923 6233.4772,4347.56284 6230.82139,4338.84016 C6227.90291,4329.25477 6231.56534,4318.77282 6230.82139,4308.78063 C6230.70898,4307.27084 6228.55499,4306.49422 6228.30199,4305.00154 C6227.68451,4301.35839 6228.93293,4297.55705 6228.30199,4293.9162 C6228.19265,4293.28526 6227.0213,4293.9162 6226.38095,4293.9162" id="Path-172" stroke="#000000"/>
        <path d="M6166.86025,4304.26147 C6189.30376,4304.26147 6185.57387,4307.77204 6203.7064,4327.83356" id="Path-173" stroke="#000000"/>
        <path d="M5656.60405,4758.69733 C5660.65608,4823.1466 5612.02606,4921.2008 5668.76013,4952.04514 C5754.62071,4998.72455 5863.15114,4931.3602 5960.60054,4923.96963 C5986.64348,4921.99453 6012.84886,4923.14986 6038.95372,4923.96963 C6079.39255,4925.23953 6119.75708,4928.27186 6160.16811,4930.23663 C6173.98532,4930.90841 6170.04822,4928.49035 6172.93829,4910.17594 C6173.82818,4904.53668 6174.46471,4898.83148 6174.52866,4893.12279 C6174.99508,4851.4819 6174.87737,4809.83433 6174.52866,4768.19229 C6174.47527,4761.81633 6130.65402,4770.04598 6129.00634,4770.55423 C6062.93051,4790.93604 5985.04855,4827.85699 5915.66083,4829.5868 C5896.32523,4830.06883 5876.78138,4832.33505 5857.63602,4829.5868 C5845.81151,4827.88943 5835.53167,4820.49815 5824.28553,4816.4702 C5821.90159,4815.61636 5819.23883,4815.77812 5816.83757,4814.97431 C5811.76338,4813.27576 5807.01748,4810.68434 5801.94164,4808.99075 C5796.22462,4807.08322 5790.22788,4806.09484 5784.51058,4804.18815 C5779.44559,4802.499 5774.74664,4799.79906 5769.64615,4798.22033 C5766.54512,4797.26049 5763.17521,4797.45928 5760.04096,4796.61422 C5757.45774,4795.91773 5755.16082,4794.3737 5752.593,4793.62244 C5743.98622,4791.10437 5735.51426,4787.38482 5726.5645,4786.82007 C5699.3619,4785.10352 5672.03053,4787.87843 5644.79439,4786.82007 C5643.50109,4786.76982 5643.38772,4784.64709 5642.68439,4783.5606" id="Path-175" stroke="#000000"/>
        <path d="M2522.41289,5355.49841 C2529.49577,5436.73837 2535.14151,5518.11645 2543.66152,5599.21828 C2543.82719,5600.79531 2546.59732,5600.55844 2548.1745,5600.72261 C2655.14737,5611.85738 2762.07228,5623.55056 2869.19801,5633.10326 C2904.86177,5636.2835 2940.68297,5637.40792 2976.45657,5638.91373 C3013.52448,5640.47401 3119.97323,5645.09722 3174.87738,5643.63356 C3177.13259,5643.57344 3179.38426,5642.90805 3181.44001,5641.9788 C3185.31305,5640.22809 3189.03995,5638.10707 3192.51562,5635.66062 C3194.41841,5634.32129 3196.18862,5632.67543 3197.44229,5630.71514 C3201.05361,5625.06835 3205.18839,5619.47532 3206.99477,5613.02049 C3210.38349,5600.91144 3212.09148,5588.30369 3212.82404,5575.75077 C3214.04006,5554.91368 3213.39246,5533.99794 3212.82404,5513.13314 C3212.12471,5487.46284 3198.35369,5468.04064 3186.76157,5446.22817 C3183.17274,5439.47519 3181.07754,5431.97967 3177.32191,5425.31801 C3157.12205,5389.48794 3118.12031,5321.71044 3082.69971,5296.28431 C3037.18389,5263.6115 2888.06576,5279.44398 2878.01713,5279.75551 C2836.88549,5281.0307 2847.82874,5285.11739 2817.52436,5291.30123 C2776.01201,5299.77214 2733.54385,5302.53123 2691.96942,5310.08652 C2668.30139,5314.38769 2612.53002,5328.92061 2584.48521,5326.57771 C2584.06671,5326.54275 2584.48521,5325.73779 2584.48521,5325.31784" id="Path-248" stroke="#000000"/>
        <path d="M2508.81753,6135.90596 C2511.54413,6062.33807 2472.89531,5974.14873 2516.99731,5915.2023 C2666.31916,5715.61972 2899.92219,5779.84393 3090.54101,5817.06372 C3108.21819,5820.51533 3123.01639,5832.78398 3138.37863,5842.186 C3159.05255,5854.83887 3179.61372,5867.90078 3198.47652,5883.12251 C3260.51786,5933.18807 3301.97189,5972.53272 3310.02241,6050.76102 C3311.36504,6063.80755 3311.55751,6084.13203 3305.65986,6097.37637 C3299.15146,6111.99226 3263.01128,6128.98963 3259.89069,6130.5844 C3222.95505,6149.46029 3156.5948,6155.64617 3123.89948,6160.78378 C3115.79734,6162.05691 3107.59019,6162.55222 3099.41655,6163.22831 C2998.46875,6171.57829 2897.67953,6182.31451 2796.53899,6187.86167 C2747.8594,6190.53156 2698.973,6190.2896 2650.28074,6187.86167 C2629.02876,6186.80199 2586.01889,6174.5904 2561.71345,6170.11061 C2548.7478,6167.72088 2535.58678,6166.524 2522.58213,6164.35655 C2521.01018,6164.09456 2519.62956,6163.04733 2518.05034,6162.83342 C2515.8329,6162.53307 2513.3195,6163.87173 2511.33728,6162.83342 C2510.29898,6162.28955 2512.1661,6160.14587 2511.33728,6159.31706 L2508.81753,6135.90596 Z" id="Path-250" stroke="#000000"/>
        <path d="M2505.48921,6528.17818 C2681.60836,6528.99303 2858.41192,6515.08992 3033.84667,6530.62272 C3070.95905,6533.9086 3110.72821,6553.2419 3132.22969,6583.66907 C3145.20728,6602.0339 3124.74829,6628.17063 3117.91978,6649.59623 C3106.7598,6684.61251 3092.18839,6718.45777 3078.41237,6752.52984 C3077.14423,6755.66634 3076.17375,6760.32284 3072.86517,6761.02929 C3057.68449,6764.27067 2988.07951,6766.58082 2971.51109,6764.88413 C2957.35422,6763.4344 2943.80789,6758.32451 2929.84122,6755.59491 C2901.49772,6750.05556 2873.12224,6744.62566 2844.60226,6740.08153 C2835.21031,6738.5851 2825.60543,6738.82217 2816.18927,6737.48657 C2781.10809,6732.5106 2802.50672,6731.89037 2767.22341,6730.11536 C2759.07274,6729.70532 2750.87431,6730.78036 2742.74047,6730.11536 C2702.46756,6726.82278 2659.88121,6719.60978 2619.27279,6718.7953 C2589.61608,6718.20047 2426.78451,6737.26463 2370.40059,6697.86634 C2346.54867,6681.19979 2360.25,6652.11893 2364.026,6629.83312 C2365.44701,6621.44636 2365.11391,6611.49617 2370.36298,6606.7605 C2373.02149,6604.36201 2390.71989,6591.82745 2380.34796,6586.88457" id="Path-252" stroke="#000000"/>
        <path d="M3535.06982,5329.45474 C3535.06982,5392.99377 3496.69029,5469.43371 3535.06982,5520.07185 C3568.72011,5564.47021 3821.19691,5571.25142 3871.36225,5576.16446 C3928.18473,5581.72948 3996.17957,5631.56244 4041.40769,5596.71734 C4081.42811,5565.8844 4043.67958,5495.62556 4041.40769,5445.15633 C4039.81915,5409.86759 4034.33531,5374.85348 4029.84317,5339.81579 C4028.94661,5332.82285 4026.5041,5326.10754 4025.25497,5319.1689 C4020.83614,5294.62341 4021.75954,5278.95882 4010.62538,5257.35984 C4007.91526,5252.10251 4003.72709,5247.7042 3999.66259,5243.4072 C3978.6699,5221.21362 3975.26237,5227.03193 3939.01939,5228.38273 C3911.06817,5229.42449 3903.74551,5233.99316 3872.60332,5240.06007 C3836.13192,5247.16518 3799.71307,5254.65981 3762.99426,5260.34969 C3741.13994,5263.73619 3718.96924,5264.64251 3697.01069,5267.2696 C3664.89727,5271.11159 3632.79213,5275.07524 3600.79013,5279.75551 C3589.77457,5281.36653 3551.52391,5286.30149 3536.91262,5291.20721" id="Path-254" stroke="#000000"/>
        <path d="M3536.85621,5801.8136 C3536.85621,5880.42099 3532.87639,5959.12919 3536.85621,6037.63576 C3537.1676,6043.77824 3543.34945,6050.78187 3549.49256,6051.08069 C3637.31041,6055.35239 3725.34063,6050.17028 3813.2576,6051.08069 C3826.46132,6051.21741 3850.42365,6067.21953 3852.7462,6054.22097 C3865.88797,5980.67088 3853.68105,5904.78525 3852.7462,5830.07616 C3852.71353,5827.46563 3851.21264,5825.02611 3849.85037,5822.79897 C3848.86517,5821.18829 3847.4199,5819.83531 3845.8451,5818.7937 C3839.01312,5814.27487 3832.10002,5809.80431 3824.7469,5806.19496 C3806.52306,5797.2496 3769.07623,5794.22584 3747.31164,5793.87828 C3707.60245,5793.24415 3667.87808,5794.5124 3628.16889,5793.87828 C3586.3638,5793.21068 3544.97326,5785.12748 3503.25329,5782.38897" id="Path-256" stroke="#000000"/>
        <path d="M3394.84768,6403.30019 C3398.11394,6491.12045 3387.86291,6474.53408 3574.55842,6502.58581 C3714.86886,6523.668 3857.88362,6518.5422 3999.60618,6525.33877 C4011.97953,6525.93215 4034.73341,6523.76989 4035.22114,6506.59108 C4037.66256,6420.59882 4041.29409,6411.01566 4029.01579,6349.40765 C4028.89971,6348.8252 4028.34924,6348.17412 4027.75591,6348.14778 C4018.72631,6347.74686 4009.66863,6348.57879 4000.64041,6348.14778 C3992.44756,6347.75665 3984.2664,6346.91779 3976.15748,6345.68444 C3955.56938,6342.55304 3935.19066,6338.12709 3914.59287,6335.06013 C3883.44522,6330.42232 3852.21216,6326.35143 3820.94848,6322.57421 C3716.81034,6309.99243 3611.92674,6301.45274 3506.90129,6305.70694 C3486.59162,6306.52961 3467.12702,6314.69636 3447.48035,6318.49372 C3442.51411,6319.45361 3435.73566,6316.21271 3432.38066,6319.99805 C3428.94656,6323.87263 3433.15384,6330.4109 3432.38066,6335.53023 C3432.11014,6337.32138 3430.05855,6338.37472 3429.3532,6340.04321 C3428.47474,6342.12117 3428.89119,6344.69092 3427.69844,6346.60584 C3406.34981,6380.88024 3396.74564,6383.1207 3363.35082,6418.26825 C3362.47286,6419.1923 3362.41486,6423.11142 3362.09095,6421.87864 C3361.37895,6419.1688 3362.37874,6416.2602 3362.09095,6413.4732 C3361.78034,6410.46521 3360.90002,6407.54365 3360.30456,6404.57887" id="Path-258" stroke="#000000"/>
        <path d="M4261.24636,5258.63852 C4265.31431,5308.38162 4246.58845,5365.80394 4273.45022,5407.86781 C4287.41935,5429.74262 4324.84186,5399.37297 4350.79146,5398.86065 C4691.6746,5392.13066 4618.82593,5385.20533 4812.67645,5408.88323 C4815.75265,5409.25898 4818.88755,5409.35826 4821.89045,5410.1243 C4822.24879,5410.21572 4822.06685,5411.55878 4821.89045,5411.23375 C4799.32731,5369.65855 4786.20022,5332.49907 4769.72789,5285.86685 C4755.61258,5245.90722 4756.54034,5237.87225 4742.14229,5206.94606 C4739.99695,5202.33799 4738.60802,5196.95301 4734.80869,5193.57635 C4732.88779,5191.86915 4729.62811,5193.12028 4727.09901,5193.57635 C4679.43313,5202.17183 4719.2303,5198.63305 4670.5927,5204.05023 C4646.29668,5206.75628 4622.05422,5210.76484 4597.61401,5211.30861 C4513.21705,5213.18637 4428.77459,5210.51654 4344.36046,5211.30861 C4343.46047,5211.31705 4344.00018,5213.66904 4343.10059,5213.69673 C4317.67069,5214.47947 4292.14377,5211.77171 4266.77476,5213.69673 C4264.84974,5213.8428 4266.77476,5221.41894 4266.77476,5219.48839" id="Path-260" stroke="#000000"/>
        <path d="M4260.55061,5601.51238 C4260.55061,5665.44631 4202.98428,5765.49932 4260.55061,5793.31415 C4269.49412,5797.63547 4600.01147,5786.80563 4725.72631,5788.66954 C4739.53331,5788.87425 4753.37097,5791.77903 4767.11412,5790.43713 C4769.05867,5790.24726 4766.36366,5786.57162 4765.59099,5784.77709 C4754.97008,5760.10996 4763.57804,5782.81944 4750.81097,5759.33515 C4744.59869,5747.90801 4739.75176,5735.76292 4733.36077,5724.43475 C4731.36896,5720.90422 4727.73313,5718.48187 4725.76392,5714.93868 C4708.37187,5683.64541 4692.84936,5651.33482 4675.36894,5620.09083 C4673.35326,5616.48806 4670.45084,5613.39042 4667.39601,5610.61357 C4647.82132,5592.8201 4617.84415,5583.28426 4592.78136,5576.74739 C4513.70907,5556.12379 4471.81434,5559.21902 4382.77723,5560.10577 C4379.1724,5560.14167 4376.30653,5564.64212 4371.30673,5565.20168 C4368.62082,5565.50227 4347.18608,5567.57099 4343.08178,5567.57099" id="Path-262" stroke="#000000"/>
        <path d="M4153.55531,5969.54613 C4159.61649,6020.70581 4125.43813,6100.43552 4171.73887,6123.02515 C4266.24662,6169.13447 4395.48567,6117.1997 4502.46529,6109.88109 C4511.12627,6109.28858 4520.77081,6113.81615 4528.50896,6109.88109 C4532.21234,6107.99782 4527.84814,6101.54496 4526.72257,6097.54561 C4523.71064,6086.84361 4519.93274,6076.36643 4516.13587,6065.91712 C4502.47172,6028.31227 4489.61875,5990.48922 4475.31218,5953.13016 C4473.52582,5948.46541 4466.55517,5932.18336 4461.58519,5925.46933 C4460.52512,5924.03726 4459.56801,5921.95115 4457.80556,5921.68971 C4439.32808,5918.94877 4411.59183,5925.79077 4395.71444,5927.65061 C4358.60271,5931.99777 4321.36359,5935.20085 4284.24377,5939.47838 C4269.52165,5941.1749 4254.96589,5944.25843 4240.20458,5945.57091 C4232.07567,5946.29368 4223.84506,5944.78877 4215.72165,5945.57091 C4204.05616,5946.69409 4192.65927,5949.83301 4181.02809,5951.26855 C4177.23338,5951.7369 4173.35598,5950.83105 4169.55759,5951.26855 C4162.70546,5952.05778 4156.06155,5954.3074 4149.19276,5954.93535 C3877.75735,5979.75012 4174.52469,5948.12924 4126.68426,5956.30805 C4124.95431,5956.6038 4122.8786,5955.33332 4121.41911,5956.30805 C4117.35775,5959.02046 4126.04363,5961.02416 4118.65491,5957.30466" id="Path-264" stroke="#000000"/>
        <path d="M4264.23621,6351.87099 C4267.55827,6409.71865 4242.46994,6476.93264 4274.20238,6525.41398 C4292.19167,6552.89831 4339.64312,6519.60363 4372.39737,6517.12138 C4403.57953,6514.75826 4434.78574,6512.70117 4466.00415,6510.87842 C4526.03737,6507.37325 4586.03566,6502.82733 4646.14738,6501.1379 C4701.60383,6499.5793 4757.10532,6501.50943 4812.58242,6501.1379 C4816.08967,6501.11441 4822.48384,6503.41659 4823.0375,6499.95324 C4826.4165,6478.81629 4826.36062,6456.88306 4823.0375,6435.73725 C4821.86906,6428.30215 4815.07863,6422.86602 4810.04387,6417.27163 C4761.79713,6363.66209 4790.48688,6395.70693 4758.53946,6370.12977 C4724.58736,6342.94767 4705.25419,6328.38905 4665.85407,6306.51551 C4656.04405,6301.06934 4646.99103,6295.25219 4635.78632,6292.05516 C4576.14878,6275.03887 4471.41842,6312.95274 4427.6438,6322.29215 C4409.44193,6326.17556 4390.33317,6327.49474 4372.02128,6331.11127 C4345.66266,6336.317 4320.21579,6343.32468 4293.75864,6348.2418 L4264.23621,6351.87099 Z" id="Path-266" stroke="#000000"/>
        <path d="M2757.8237,3614.76182 C2757.8237,3675.26589 2756.70302,3735.78034 2757.8237,3796.27403 C2757.84571,3797.46202 2760.26118,3796.67696 2761.20712,3797.39599 C2765.94938,3801.0007 2769.9032,3805.5824 2774.70571,3809.10646 C2786.78412,3817.96954 2798.82236,3826.99409 2811.783,3834.50835 C2850.00817,3856.67035 2858.29357,3858.16373 2892.96738,3868.97358 C2898.4893,3870.69508 2903.63764,3873.53631 2909.21828,3875.05671 C2916.69843,3877.09461 2924.504,3877.73571 2932.02564,3879.61468 C2978.0684,3891.11652 2931.82654,3885.25725 3004.11162,3895.81298 C3068.28811,3905.18463 3133.65801,3905.45084 3198.31601,3904.403 C3201.92382,3904.34453 3205.38789,3902.78492 3208.99217,3902.61487 C3222.85691,3901.96075 3236.16417,3903.05267 3249.7509,3901.19489 C3252.03991,3900.8819 3259.05791,3895.81035 3260.37446,3894.8488 C3268.74826,3888.733 3276.44216,3881.72115 3284.81217,3875.60016 C3286.6284,3874.27195 3289.14214,3874.04074 3290.84271,3872.56736 C3306.08759,3859.35915 3320.71667,3842.71747 3329.33999,3824.30552 C3336.64932,3808.69911 3338.69898,3770.74875 3338.92925,3764.73642 C3345.23221,3600.16299 3346.7771,3698.93161 3334.91473,3640.14618 C3332.68191,3629.08117 3334.12535,3618.74083 3330.04121,3608.13524 C3325.96594,3597.55269 3312.53743,3603.73056 3302.60577,3604.38368 C3180.79767,3612.39403 3335.15559,3605.74936 3221.96484,3611.53618 C3077.60389,3618.91656 3076.77543,3617.81306 2900.55815,3616.53241 C2886.04482,3616.42694 2872.98689,3613.75893 2859.32609,3610.50187 C2856.25038,3609.76855 2853.04417,3609.7195 2849.9472,3609.08189 C2825.43774,3604.03583 2855.66581,3610.24193 2845.03862,3606.6276 C2844.31942,3606.383 2843.16365,3607.27092 2842.75964,3606.6276 C2842.11632,3605.60325 2842.75964,3604.20838 2842.75964,3602.99876" id="Path-94" stroke="#000000"/>
        <path d="M3553.92497,3620.58199 C3553.92497,3701.87155 3547.43025,3783.42098 3553.92497,3864.45068 C3554.44554,3870.9454 3566.97307,3863.98046 3573.47163,3864.45068 C3586.78452,3865.41395 3600.06744,3866.8772 3613.28371,3868.74568 C3620.96015,3869.83096 3628.45056,3871.98898 3636.09107,3873.30365 C3647.57523,3875.27968 3659.10734,3876.97303 3670.64395,3878.61543 C3698.06143,3882.5187 3725.38013,3887.32484 3752.95029,3889.94022 C3786.96285,3893.16675 3821.16958,3893.85467 3855.25908,3896.12854 C3864.09944,3896.71821 3872.8705,3898.47928 3881.73035,3898.53023 C4012.10353,3899.28004 4142.67999,3905.73016 4272.85638,3898.53023 C4280.05631,3898.13201 4273.59461,3884.07047 4272.85638,3876.89743 C4272.06197,3869.17854 4270.0864,3861.61922 4268.28088,3854.07254 C4248.76207,3772.48797 4271.77435,3872.38795 4254.58946,3808.19486 C4240.95417,3757.26113 4251.46654,3790.80881 4241.54666,3743.22632 C4239.41489,3733.00091 4236.26677,3723.01064 4233.93837,3712.8282 C4233.13274,3709.30509 4233.10768,3705.61943 4232.15024,3702.13451 C4230.34186,3695.5523 4227.24879,3689.35014 4225.66391,3682.71057 C4224.39504,3677.3949 4224.93985,3671.74794 4223.63035,3666.44214 C4221.65244,3658.42806 4219.15398,3650.4966 4215.84675,3642.93355 C4215.28117,3641.64017 4213.66229,3641.03085 4212.32309,3640.58445 C4208.48845,3639.30623 4204.90312,3640.03965 4200.85805,3638.00744 C4184.5188,3629.79872 4165.20372,3622.57554 4147.38961,3618.91658 C4143.02789,3618.0207 4138.4736,3619.2215 4134.03127,3618.91658 C4128.57908,3618.54235 4123.22771,3616.92241 4117.76284,3616.88303 C4029.1244,3616.24427 3940.45452,3614.70226 3851.84061,3616.88303 C3828.0148,3617.46937 3804.46672,3622.16926 3780.824,3625.17502 C3768.15139,3626.78611 3755.59718,3629.28133 3742.90524,3630.73223 C3686.43097,3637.18818 3835.69035,3612.3093 3702.6023,3634.25589 C3688.65003,3636.55666 3674.95378,3640.28219 3660.98457,3642.47776 C3657.46324,3643.03121 3653.84337,3642.18465 3650.29088,3642.47776 C3646.73694,3642.77099 3643.30262,3644.15363 3639.73744,3644.23082 C3616.26942,3644.7389 3592.77849,3644.97841 3569.31687,3644.23082 C3568.56928,3644.207 3569.31687,3642.73487 3569.31687,3641.9869" id="Path-104" stroke="#000000"/>
        <rect id="Rectangle" stroke="#000000" x="572.062977" y="5419.8118" width="638.487449" height="227.118033"/>
        <rect id="Rectangle" stroke="#000000" x="572.062977" y="5911.65019" width="638.487449" height="209.068917"/>
        <rect id="Rectangle" stroke="#000000" x="498" y="6405.74471" width="572.814056" height="246.671241"/>
        <rect id="Rectangle" stroke="#000000" x="1530.01457" y="5321.29371" width="613.016872" height="258.703984"/>
        <rect id="Rectangle" stroke="#000000" x="1604.4236" y="5811.62801" width="542.48166" height="204.556639"/>
        <rect id="Rectangle" stroke="#000000" x="1444.9622" y="6267.36816" width="721.39648" height="196.284127"/>
    </g>
</svg>
