<svg viewBox="0 0 150 19" version="1.1" xmlns="http://www.w3.org/2000/svg" xmlns:xlink="http://www.w3.org/1999/xlink">
    <path d="M6.816.864c3.6 0 6.216 1.968 6.216 5.328v.72H9.96v-.504c0-1.92-1.224-2.76-3.144-2.76-1.68 0-2.712.84-2.712 1.992 0 1.584 1.488 1.872 3.504 2.328l.216.048c3.456.768 5.496 1.992 5.496 5.04 0 3.384-2.64 5.28-6.216 5.28C3 18.336.36 16.128.36 12.192v-.528h3.12v.432c0 2.064 1.176 3.456 3.72 3.456 2.04 0 3-1.08 3-2.328 0-1.464-1.248-1.944-3.456-2.424l-.216-.048C3.048 9.984.984 8.784.984 5.736c0-3 2.568-4.872 5.832-4.872zm21.096 5.232l-5.4 4.488L27.72 18h-3.504l-3.84-5.616-1.824 1.512V18h-3.024V1.2h3.024v8.976h.288l4.848-4.08h4.224zm-.048 5.856c0-3.6 2.472-6.192 5.976-6.192 3.456 0 5.784 2.424 5.784 6v1.128H30.96c.12 1.632 1.248 2.856 2.976 2.856 1.68 0 2.568-.936 2.976-1.776l2.472 1.44c-.816 1.248-2.208 2.928-5.4 2.928-3.552 0-6.12-2.688-6.12-6.384zm3.12-1.08h5.568c-.168-1.56-1.176-2.52-2.736-2.52-1.704 0-2.64 1.008-2.832 2.52zm9.144-4.776h3.024V2.4h3.024v3.696h3.264V8.64h-3.264v6.096c0 .48.24.72.672.72h1.92V18h-3.264c-1.344 0-2.352-.96-2.352-2.304V8.64h-3.024V6.096zm10.488 5.952c0-3.696 2.736-6.288 6.192-6.288 3.312 0 5.376 1.848 6 4.56l-2.976.768c-.216-1.44-1.152-2.64-2.976-2.64s-3.216 1.44-3.216 3.6 1.272 3.6 3.216 3.6c1.824 0 2.664-1.056 2.976-2.616l2.976.744c-.576 2.712-2.664 4.56-6 4.56-3.456 0-6.192-2.592-6.192-6.288zM64.68 1.2h3.024v6.816h.288c.48-1.104 1.584-2.112 3.768-2.112 2.64 0 4.632 1.896 4.632 4.992V18h-3.024v-6.816c0-1.656-.96-2.64-2.688-2.64-1.944 0-2.976 1.2-2.976 3.312V18H64.68V1.2zm13.536 10.752c0-3.6 2.472-6.192 5.976-6.192 3.456 0 5.784 2.424 5.784 6v1.128h-8.664c.12 1.632 1.248 2.856 2.976 2.856 1.68 0 2.568-.936 2.976-1.776l2.472 1.44c-.816 1.248-2.208 2.928-5.4 2.928-3.552 0-6.12-2.688-6.12-6.384zm3.12-1.08h5.568c-.168-1.56-1.176-2.52-2.736-2.52-1.704 0-2.64 1.008-2.832 2.52zm13.488-4.776v1.728h.336c.456-1.32 1.464-1.776 2.976-1.776h1.152v2.64h-1.776c-1.536 0-2.64.816-2.64 2.496V18h-3.024V6.096h2.976zM106.968.864c3.312 0 5.904 1.728 5.904 4.944v1.104h-1.296V5.88c0-2.64-2.208-3.864-4.656-3.864-2.208 0-4.176 1.176-4.176 3.24 0 2.112 1.464 2.808 3.816 3.384l1.68.408c2.712.648 4.584 1.848 4.584 4.536 0 2.904-2.448 4.752-5.76 4.752-4.08 0-6.384-2.232-6.384-6.216v-.648h1.296v.576c0 3.552 1.992 5.136 5.064 5.136 2.832 0 4.488-1.536 4.488-3.6 0-1.992-1.56-2.88-3.864-3.432l-1.68-.408c-2.712-.648-4.536-1.728-4.536-4.488 0-2.592 2.4-4.392 5.52-4.392zm8.592 1.752c0-.696.504-1.224 1.224-1.224s1.224.528 1.224 1.224-.504 1.224-1.224 1.224-1.224-.528-1.224-1.224zm1.824 3.768V18h-1.2V6.384h1.2zm2.304 0h3.984V1.92h1.2v4.464h4.176V7.44h-4.176v8.784c0 .48.24.72.672.72h2.832V18h-3.168c-.96 0-1.536-.576-1.536-1.584V7.44h-3.984V6.384zm11.4 5.712c0-3.432 2.472-6.048 5.808-6.048 3.216 0 5.544 2.088 5.544 5.64v.768h-10.104c.168 2.976 2.016 4.776 4.728 4.776 2.256 0 3.384-1.176 4.056-2.688l1.152.456c-.792 1.632-2.112 3.336-5.208 3.336-3.624 0-5.976-2.712-5.976-6.24zm1.248-.696h8.856c-.096-2.784-1.824-4.248-4.296-4.248-2.448 0-4.272 1.608-4.56 4.248zm12.312 4.656c0-1.344.984-2.28 2.28-2.28 1.296 0 2.28.936 2.28 2.28 0 1.344-.984 2.28-2.28 2.28-1.296 0-2.28-.936-2.28-2.28z" fill="#2D2D2D" fill-rule="nonzero"/>
</svg>
