<svg viewBox="0 0 30 30" version="1.1" xmlns="http://www.w3.org/2000/svg" xmlns:xlink="http://www.w3.org/1999/xlink">
    <g stroke="none" stroke-width="1" fill="none" fill-rule="evenodd">
        <path class="no-stroke" d="M8.988,11.02 C8.988,7.732 11.652,5.764 15.108,5.764 C18.516,5.764 21.012,7.78 21.012,10.66 L21.012,10.78 C21.012,13.54 19.236,14.74 17.46,15.508 L16.932,15.724 C16.332,15.988 16.14,16.324 16.14,17.044 L16.14,17.908 L13.38,17.908 L13.38,16.876 C13.38,15.316 13.86,14.332 15.372,13.684 L15.876,13.468 C17.412,12.796 18.228,12.196 18.228,10.804 C18.228,9.292 16.932,8.356 15.108,8.356 C13.212,8.356 11.748,9.292 11.748,11.14 L11.748,11.812 L8.988,11.812 L8.988,11.02 Z M12.684,22.148 C12.684,20.948 13.572,20.084 14.748,20.084 C15.948,20.084 16.836,20.948 16.836,22.148 C16.836,23.372 15.948,24.236 14.748,24.236 C13.572,24.236 12.684,23.372 12.684,22.148 Z" ></path>
    </g>
</svg>
