<?xml version="1.0" encoding="UTF-8"?>
<svg width="4630px" height="1744px" viewBox="0 0 4630 1744" version="1.1" xmlns="http://www.w3.org/2000/svg" xmlns:xlink="http://www.w3.org/1999/xlink">
    <!-- Generator: Sketch 56.3 (81716) - https://sketch.com -->
    <title>Artboard</title>
    <desc>Created with Sketch.</desc>
    <g id="Artboard" stroke="none" stroke-width="1" fill="none" fill-rule="evenodd">
        <path d="M329.634873,290 C329.634873,296.841383 318.096521,977.544095 356.325914,1038.44793 C394.669749,1099.53409 495.346049,1077.84759 566.374795,1090.36498 C642.830594,1103.83879 899.704627,1110.4416 954.33343,1110.78386 C1262.99118,1112.71763 1571.66727,1112.7435 1880.32486,1110.78386 C1903.46415,1110.63695 1926.47484,1107.17026 1949.45603,1104.46591 C2009.54397,1097.39496 2071.55253,1092.04177 2130.89101,1079.51459 C2162.3497,1072.87323 2192.85506,1062.26071 2224.14942,1054.88375 C2240.47065,1051.03638 2257.36904,1049.9193 2273.64001,1045.86465 C2281.17437,1043.98713 2287.6844,1038.91672 2295.24923,1037.16603 C2375.25541,1018.65059 2158.37696,1096.42191 2358.74918,1022.37837 C2362.13982,1021.12542 2366.9166,1019.81308 2367.7225,1016.28933 C2376.64278,977.285875 2348.386,950.156667 2332.51596,918.040661 C2295.24993,842.625804 2291.11813,818.992617 2253.22114,734.04187 C2152.72521,508.767917 2290.40362,839.736457 2196.68008,602.189041 C2187.32163,578.469536 2176.37481,555.402589 2166.78428,531.775968 C2135.08577,453.685531 2168.76183,520.86502 2114.08894,415.855356 C2110.44746,408.861214 2103.18336,411.154022 2097.60733,409.400061 C1998.82713,378.328356 2723.11894,553.996631 2065.7429,395.528045 C2060.55038,394.276324 2054.99654,396.351377 2049.71912,395.528045 C2037.00656,393.544756 2024.80303,388.779744 2012.04034,387.149897 C2002.80628,385.970669 1993.37785,388.057802 1984.11318,387.149897 C1958.27921,384.618258 1932.80877,378.798024 1906.92433,376.848894 C1887.11094,375.356922 1867.15504,377.946087 1847.31587,376.848894 C1779.36666,373.091008 1711.72184,363.314206 1643.6765,362.290145 C1389.12559,358.459232 1134.51371,360.98976 879.937303,362.290145 C874.433575,362.318258 869.417126,366.226834 863.913522,366.273199 C402.962747,370.156487 407.144192,518.422952 407.144192,353.728867" id="Path-80" stroke="#000000" stroke-width="10"></path>
        <path d="M731.301475,716.457229 C894.6132,716.457229 934.916308,713.523946 1133.00552,735.983291 C1174.96113,740.740217 1252.51073,765.893016 1297.97796,776.858316 C1319.36079,782.015198 1338.80393,781.868957 1360.69273,785.517091 C1376.35498,788.127466 1391.30203,795.640323 1406.40545,799.048617 C1420.93696,802.327852 1435.85958,804.228486 1450.15505,806.971221 C1457.47109,808.37488 1466.5618,814.203027 1473.53725,815.980553 C1475.72266,816.537454 1478.16908,815.250816 1480.30301,815.980553 C1481.03275,816.230101 1480.30301,817.523007 1480.30301,818.294234" id="Path-109" stroke="#000000" stroke-width="10"></path>
        <path d="M2984.70521,1189.77161 C2984.70521,935.804263 2984.70521,681.83691 2984.70521,427.869558 C2984.70521,423.335679 2984.05296,436.984479 2984.70521,441.471196 C2984.86212,442.55053 2986.36448,442.912333 2987.01889,443.784877 L2987.01889,446.098557 C2988.98211,448.716188 2991.99671,450.421969 2993.95993,453.039599 C2994.42267,453.656581 2993.4972,454.736299 2993.95993,455.35328 C2995.92316,457.970911 2998.35816,460.235113 3000.90097,462.294322 C3008.53136,468.473532 3023.21411,463.86523 3029.68176,464.608003 C3298.21424,495.447408 2835.23376,449.903274 3095.23605,471.198487 C3138.99649,474.78264 3182.73806,478.897643 3226.27451,484.58979 C3269.7343,490.271916 3312.68752,499.428378 3356.12107,505.307749 C3376.00196,507.998921 3396.19385,507.800103 3416.10149,510.285668 C3436.47161,512.828976 3456.48247,517.842743 3476.85313,520.381729 C3497.01745,522.894997 3517.43097,522.993863 3537.60478,525.42976 C3749.90704,551.064312 3360.47967,521.10982 3818.8572,555.262218 C3834.0177,556.391783 3849.28165,554.494177 3864.46476,555.262218 C4190.20089,571.739673 3245.7931,537.635786 3999.78002,559.503966 C4005.40141,559.667006 4010.70751,562.563943 4016.32634,562.799208 C4037.02616,563.665927 4057.7786,561.976491 4078.48022,562.799208 C4081.43405,562.916599 4083.99485,565.023919 4086.8936,565.60367 C4165.62022,581.348992 4088.57035,561.323899 4106.38461,570.231031 C4107.07442,570.575934 4108.33133,569.552704 4108.69829,570.231031 C4117.99051,587.407557 4124.60118,615.454493 4129.34614,633.366469 C4131.61008,641.912741 4136.31636,671.163456 4136.4274,676.555175 C4137.50604,728.929071 4139.37812,781.408348 4136.4274,833.710182 C4133.66983,882.588503 4106.68436,945.625378 4097.58561,990.304296 C4096.97235,993.315708 4100.65393,999.350422 4097.58561,999.523963 C4043.33587,1002.59228 3988.86321,997.204654 3934.57629,999.523963 C3887.80517,1001.52217 3770.06406,1049.40645 3737.21232,1060.90661 C3679.17556,1081.22311 3621.40725,1102.41536 3562.66965,1120.60659 C3465.24647,1150.77887 3344.23316,1178.23999 3241.94443,1184.05752 C3012.35267,1197.11524 2998.17466,1234.40772 2965,1184.05752" id="Path-95" stroke="#000000" stroke-width="10"></path>
        <path d="M3046.57864,885.172049 C3253.50331,877.930782 3462.7143,893.265672 3669.23919,876.267884 C3704.46525,873.368644 3737.32071,857.170744 3771.7072,848.994496 C3775.67474,848.051114 3779.9644,849.896009 3783.94166,848.994496 C3855.74416,832.719264 3849.899,828.662151 3921.67577,828.662151" id="Path-112" stroke="#000000" stroke-width="10"></path>
    </g>
</svg>