<?xml version="1.0" encoding="UTF-8"?>
<svg width="4630px" height="1744px" viewBox="0 0 4630 1744" version="1.1" xmlns="http://www.w3.org/2000/svg" xmlns:xlink="http://www.w3.org/1999/xlink">
    <!-- Generator: Sketch 56.3 (81716) - https://sketch.com -->
    <title>Artboard Copy</title>
    <desc>Created with Sketch.</desc>
    <g id="Artboard-Copy" stroke="none" stroke-width="1" fill="none" fill-rule="evenodd">
        <path d="M1747.70521,1243.8122 C1747.70521,989.84485 1747.70521,735.877498 1747.70521,481.910145 C1747.70521,477.376266 1747.05296,491.025067 1747.70521,495.511783 C1747.86212,496.591117 1749.36448,496.95292 1750.01889,497.825464 L1750.01889,500.139145 C1751.98211,502.756776 1754.99671,504.462556 1756.95993,507.080187 C1757.42267,507.697168 1756.4972,508.776886 1756.95993,509.393867 C1758.92316,512.011498 1761.35816,514.2757 1763.90097,516.334909 C1771.53136,522.514119 1786.21411,517.905817 1792.68176,518.64859 C2061.21424,549.487995 1598.23376,503.943862 1858.23605,525.239074 C1901.99649,528.823228 1945.73806,532.93823 1989.27451,538.630378 C2032.7343,544.312504 2075.68752,553.468966 2119.12107,559.348336 C2139.00196,562.039508 2159.19385,561.84069 2179.10149,564.326256 C2199.47161,566.869564 2219.48247,571.88333 2239.85313,574.422317 C2260.01745,576.935584 2280.43097,577.03445 2300.60478,579.470347 C2512.90704,605.104899 2123.47967,575.150407 2581.8572,609.302806 C2597.0177,610.432371 2612.28165,608.534764 2627.46476,609.302806 C2953.20089,625.78026 2008.7931,591.676374 2762.78002,613.544553 C2768.40141,613.707593 2773.70751,616.604531 2779.32634,616.839796 C2800.02616,617.706514 2820.7786,616.017079 2841.48022,616.839796 C2844.43405,616.957186 2846.99485,619.064506 2849.8936,619.644257 C2928.62022,635.38958 2851.57035,615.364486 2869.38461,624.271618 C2870.07442,624.616522 2871.33133,623.593291 2871.69829,624.271618 C2880.99051,641.448145 2887.60118,669.49508 2892.34614,687.407056 C2894.61008,695.953328 2899.31636,725.204043 2899.4274,730.595762 C2900.50604,782.969658 2902.37812,835.448936 2899.4274,887.750769 C2896.66983,936.62909 2869.68436,999.665965 2860.58561,1044.34488 C2859.97235,1047.3563 2863.65393,1053.39101 2860.58561,1053.56455 C2806.33587,1056.63287 2751.86321,1051.24524 2697.57629,1053.56455 C2650.80517,1055.56276 2533.06406,1103.44704 2500.21232,1114.9472 C2442.17556,1135.2637 2384.40725,1156.45595 2325.66965,1174.64717 C2228.24647,1204.81946 2107.23316,1232.28058 2004.94443,1238.09811 C1775.35267,1251.15583 1761.17466,1288.4483 1728,1238.09811" id="Path-95" stroke="#000000" stroke-width="10"></path>
        <path d="M1809.57864,939.212636 C2016.50331,931.97137 2225.7143,947.306259 2432.23919,930.308471 C2467.46525,927.409231 2500.32071,911.211332 2534.7072,903.035084 C2538.67474,902.091702 2542.9644,903.936597 2546.94166,903.035084 C2618.74416,886.759851 2612.899,882.702738 2684.67577,882.702738" id="Path-112" stroke="#000000" stroke-width="10"></path>
    </g>
</svg>