<?xml version="1.0" encoding="UTF-8"?>
<svg width="4630px" height="1744px" viewBox="0 0 4630 1744" version="1.1" xmlns="http://www.w3.org/2000/svg" xmlns:xlink="http://www.w3.org/1999/xlink">
    <!-- Generator: Sketch 56.3 (81716) - https://sketch.com -->
    <title>Artboard</title>
    <desc>Created with Sketch.</desc>
    <g id="Artboard" stroke="none" stroke-width="1" fill="none" fill-rule="evenodd">
        <path d="M1295.63487,290 C1295.63487,296.841383 1284.09652,977.544095 1322.32591,1038.44793 C1360.66975,1099.53409 1461.34605,1077.84759 1532.3748,1090.36498 C1608.83059,1103.83879 1865.70463,1110.4416 1920.33343,1110.78386 C2228.99118,1112.71763 2537.66727,1112.7435 2846.32486,1110.78386 C2869.46415,1110.63695 2892.47484,1107.17026 2915.45603,1104.46591 C2975.54397,1097.39496 3037.55253,1092.04177 3096.89101,1079.51459 C3128.3497,1072.87323 3158.85506,1062.26071 3190.14942,1054.88375 C3206.47065,1051.03638 3223.36904,1049.9193 3239.64001,1045.86465 C3247.17437,1043.98713 3253.6844,1038.91672 3261.24923,1037.16603 C3341.25541,1018.65059 3124.37696,1096.42191 3324.74918,1022.37837 C3328.13982,1021.12542 3332.9166,1019.81308 3333.7225,1016.28933 C3342.64278,977.285875 3314.386,950.156667 3298.51596,918.040661 C3261.24993,842.625804 3257.11813,818.992617 3219.22114,734.04187 C3118.72521,508.767917 3256.40362,839.736457 3162.68008,602.189041 C3153.32163,578.469536 3142.37481,555.402589 3132.78428,531.775968 C3101.08577,453.685531 3134.76183,520.86502 3080.08894,415.855356 C3076.44746,408.861214 3069.18336,411.154022 3063.60733,409.400061 C2964.82713,378.328356 3689.11894,553.996631 3031.7429,395.528045 C3026.55038,394.276324 3020.99654,396.351377 3015.71912,395.528045 C3003.00656,393.544756 2990.80303,388.779744 2978.04034,387.149897 C2968.80628,385.970669 2959.37785,388.057802 2950.11318,387.149897 C2924.27921,384.618258 2898.80877,378.798024 2872.92433,376.848894 C2853.11094,375.356922 2833.15504,377.946087 2813.31587,376.848894 C2745.36666,373.091008 2677.72184,363.314206 2609.6765,362.290145 C2355.12559,358.459232 2100.51371,360.98976 1845.9373,362.290145 C1840.43358,362.318258 1835.41713,366.226834 1829.91352,366.273199 C1368.96275,370.156487 1373.14419,518.422952 1373.14419,353.728867" id="Path-80" stroke="#000000" stroke-width="10"></path>
        <path d="M1697.30148,716.457229 C1860.6132,716.457229 1900.91631,713.523946 2099.00552,735.983291 C2140.96113,740.740217 2218.51073,765.893016 2263.97796,776.858316 C2285.36079,782.015198 2304.80393,781.868957 2326.69273,785.517091 C2342.35498,788.127466 2357.30203,795.640323 2372.40545,799.048617 C2386.93696,802.327852 2401.85958,804.228486 2416.15505,806.971221 C2423.47109,808.37488 2432.5618,814.203027 2439.53725,815.980553 C2441.72266,816.537454 2444.16908,815.250816 2446.30301,815.980553 C2447.03275,816.230101 2446.30301,817.523007 2446.30301,818.294234" id="Path-109" stroke="#000000" stroke-width="10"></path>
    </g>
</svg>