<?xml version="1.0" encoding="UTF-8"?>
<svg width="300px" height="300px" viewBox="0 0 300 300" version="1.1" xmlns="http://www.w3.org/2000/svg" xmlns:xlink="http://www.w3.org/1999/xlink">
    <g id="button" stroke="none" stroke-width="1" fill="none" fill-rule="evenodd">
        <path d="M28.4360539,100.615601 C32.9456872,187.601995 27.5103825,91.4748937 33.2921858,171.119234 C33.4632525,173.475678 33.0688882,175.855099 33.2921858,178.207168 C33.313385,178.430466 33.7492244,178.146235 33.9650909,178.207168 C37.6382299,179.243998 41.2015157,180.693391 44.9334443,181.493188 C51.3550619,182.869418 57.8410792,184.005504 64.369187,184.723133 C73.0993709,185.682834 122.419113,188.312216 126.809174,188.58673 C149.227706,189.988575 122.799751,189.639142 163.218948,190.605445 C171.207414,190.796425 179.202821,190.410578 187.191193,190.605445 C191.852409,190.71915 196.486716,191.436474 201.148366,191.530689 C230.206914,192.117982 225.974561,190.209822 247.64611,192.98865 C252.555672,193.618178 257.506883,194.119522 262.315441,195.29335 C264.936009,195.933064 267.130404,197.945337 269.790295,198.394322 L270.160393,198.764419 C270.759403,198.865531 271.753463,199.326932 271.982845,198.764419 C273.413093,195.257011 271.083787,193.058067 270.154786,190.027868 C269.532828,187.999178 269.336554,185.859489 268.769723,183.814711 C267.412119,178.917309 265.602755,174.146612 264.384624,169.21267 C263.597032,166.022588 263.457815,162.700983 262.764045,159.489191 C262.149585,156.644571 261.082714,153.910567 260.464952,151.066662 C258.557219,142.284303 257.669708,133.207827 256.113499,124.414012 C256.084479,124.250024 255.926758,124.061387 255.760224,124.060737 C225.711501,123.943439 195.661546,124.27648 165.613369,124.060737 C159.990791,124.020367 154.362172,123.803349 148.762703,123.292503 C145.903849,123.031687 143.137981,122.108769 140.289706,121.750429 C135.049026,121.091102 129.756369,120.901327 124.515689,120.242 C112.322957,118.70804 100.494338,115.086011 88.4928353,112.660603 C83.0554689,111.561754 77.52649,110.952596 72.0907732,109.845616 C71.157151,109.655485 70.3505284,109.055559 69.4384055,108.780183 C64.2834726,107.223874 58.0017043,105.085976 52.9522302,104.636209 C47.1787579,104.121954 41.3595705,104.636209 35.5632406,104.636209 L28.4360539,100.615601 Z" id="Path-77" stroke="#000000" stroke-width="5"></path>
        <path d="M68.4360539,153.731614 C96.5818547,153.731614 124.740385,152.88426 152.873456,153.731614 C155.220822,153.802315 158.977314,156.645166 161.678964,157.255524 C166.127486,158.260537 170.542879,158.178827 175.028137,158.677756 C176.91589,158.887745 180.325982,159.985359 182.016179,160.059682 C184.919792,160.187362 187.917535,159.346986 190.735415,160.059682 L194.307081,160.480018" id="Path-106" stroke="#000000" stroke-width="5"></path>
    </g>
</svg>
