<svg width="300" height="300" xmlns="http://www.w3.org/2000/svg"><title>circle-image</title><g fill="none" fill-rule="evenodd" stroke="#000" stroke-width="5"><path d="M94.846 205.318c-9.34-20.204-23.2-38.881-28.022-60.611-1.58-7.119 13.817-32.413 18.802-39.206 22.386-30.505 37.985-30.328 75.762-36.67 1.987-.334 8.136-.115 10.307.896 11.16 5.195 19.976 14.931 28.127 23.588 26.524 28.172 52.116 94.544 10.755 122.52-10.457 7.073-42.253 13.082-49.284 13.968-8.48 1.068-17.19 1.281-25.639 0-9.641-1.462-28.117-13.356-35.201-17.439l-5.607-7.046z"/><path d="M77.055 124.686c20.153 11.996 41.73 21.886 60.458 35.989 17.011 12.81 30.478 29.725 46.062 44.224 3.381 3.146 6.88 6.237 10.803 8.681 2.45 1.528 5.245 2.617 8.095 3.097.792.133-.922-1.31-1.383-1.966"/><path d="M192.948 75.686c0 4.491 1.673 9.307 0 13.475-33.856 84.291-27.77 62.413-76.153 128.06-.459.623.135 3.08 0 2.32-.645-3.644-1.024-7.33-1.535-10.994"/></g></svg>
