<?xml version="1.0" encoding="UTF-8"?>
<svg width="300px" height="300px" viewBox="0 0 300 300" version="1.1" xmlns="http://www.w3.org/2000/svg" xmlns:xlink="http://www.w3.org/1999/xlink">
    <!-- Generator: Sketch 56.3 (81716) - https://sketch.com -->
    <title>circle-image</title>
    <desc>Created with Sketch.</desc>
    <g id="circle-image" stroke="none" stroke-width="1" fill="none" fill-rule="evenodd">
        <path d="M94.8462426,205.318029 C85.5055321,185.114253 71.6453973,166.436788 66.8241111,144.706702 C65.244778,137.588468 80.6407754,112.294176 85.6263034,105.500508 C108.011923,74.9961244 123.610835,75.1731166 161.388078,68.8305123 C163.374724,68.4969648 169.523882,68.7160621 171.69496,69.7267629 C182.854461,74.9218398 191.671432,84.6583585 199.821971,93.3153145 C226.345562,121.486893 251.938361,187.858999 210.576978,215.834671 C200.119674,222.907696 168.324033,228.917274 161.292733,229.802831 C152.813555,230.870741 144.103838,231.083955 135.654246,229.802831 C126.01251,228.340955 107.536544,216.447496 100.452576,212.364084 L94.8462426,205.318029 Z" id="Path-318" stroke="#000000" stroke-width="5"></path>
        <path d="M77.0547157,124.685526 C97.2076403,136.68192 118.785388,146.571814 137.513489,160.67471 C154.524309,173.484434 167.990738,190.399519 183.575047,204.898949 C186.956271,208.044794 190.455557,211.135924 194.377726,213.580425 C196.828059,215.107601 199.622644,216.196976 202.472585,216.676882 C203.264584,216.810248 201.550909,215.366112 201.090071,214.710727" id="Path-319" stroke="#000000" stroke-width="5"></path>
        <path d="M192.947539,75.6855257 C192.947539,80.1772242 194.621423,84.9930848 192.947539,89.1606211 C159.092032,173.452034 165.177198,151.574472 116.794846,217.221743 C116.336382,217.843807 116.929538,220.301915 116.794846,219.540757 C116.150102,215.897235 115.771468,212.211527 115.259779,208.546912" id="Path-320" stroke="#000000" stroke-width="5"></path>
    </g>
</svg>