<?xml version="1.0" encoding="UTF-8"?>
<svg width="300px" height="300px" viewBox="0 0 300 300" version="1.1" xmlns="http://www.w3.org/2000/svg" xmlns:xlink="http://www.w3.org/1999/xlink">
    <!-- Generator: Sketch 56.3 (81716) - https://sketch.com -->
    <title>image</title>
    <desc>Created with Sketch.</desc>
    <g id="image" stroke="none" stroke-width="1" fill="none" fill-rule="evenodd">
        <g id="Group" transform="translate(73.000000, 79.000000)" stroke="#000000" stroke-width="5">
            <path d="M15.9304424,-3.97903932e-13 C15.9304424,45.6717259 -17.5560329,168.072577 15.9304424,137.015173 L15.9304424,136.467076 C18.6389527,133.955039 25.6967212,134.076006 28.7015325,134.056345 C52.7504155,133.898977 76.8091233,133.405995 100.849726,134.056345 C113.567395,134.400383 126.199699,136.290765 138.900089,137.037453 C143.111228,137.285036 148.777617,140.212253 151.555321,137.037453 C154.73012,133.408791 151.941999,127.378992 151.555321,122.573057 C148.208582,80.9771396 147.929456,120.812088 146.970028,71.7694286 C146.615839,53.6645225 155.710578,28.2168513 143.881973,11.1535383 C143.690358,10.8771254 143.264706,10.8251525 142.928374,10.8237893 C116.135744,10.7151639 89.3390112,11.2667781 62.5498236,10.8237893 C58.5903657,10.7583154 54.7104146,9.67237729 50.7679802,9.29981378 C44.6314115,8.71990203 38.4575157,8.58196583 32.3243156,7.96744991 C30.8255882,7.81728435 29.302149,7.58041641 27.9083526,7.00939661 C27.645827,6.90184189 27.9083526,6.44198843 27.9083526,6.15828695" id="Path-30"></path>
            <path d="M1.42108547e-14,0.548096592 C58.3522064,67.2792295 74.6841301,102.64807 130.41128,140.334943 C130.99455,140.729396 131.635902,141.047461 132.300653,141.279631 C132.557272,141.369256 132.844293,141.279631 133.116113,141.279631" id="Path-31"></path>
            <path d="M142.839253,18.0738118 C117.010611,47.7903522 127.772413,37.2353243 76.7735918,75.4991585 C62.1205752,86.4931484 24.2117467,108.142761 7.60205166,127.015757 C7.19360123,127.479864 6.815432,128.011305 6.64845295,128.606572 C6.56775453,128.894259 6.84788748,129.753104 6.91581701,129.462137 C7.0674421,128.812677 6.91581701,128.128287 6.91581701,127.461365" id="Path-32"></path>
        </g>
    </g>
</svg>