<?xml version="1.0" encoding="UTF-8"?>
<svg width="300px" height="300px" viewBox="0 0 300 300" version="1.1" xmlns="http://www.w3.org/2000/svg" xmlns:xlink="http://www.w3.org/1999/xlink">
    <!-- Generator: Sketch 56.3 (81716) - https://sketch.com -->
    <title>input</title>
    <desc>Created with Sketch.</desc>
    <g id="input" stroke="none" stroke-width="1" fill="none" fill-rule="evenodd">
        <path d="M43.9925167,172.940146 C41.3434936,72.9065369 22.6792478,109.725623 50.7792845,112.089295 C53.4899573,112.317307 56.2230564,111.955738 58.9400213,112.089295 C62.1659165,112.24787 65.360154,112.930028 68.5897571,112.964801 C92.4762616,113.221989 116.370397,112.48287 140.253424,112.964801 C149.746183,113.156354 159.182624,114.517224 168.665825,114.984216 C172.859337,115.190722 177.066199,114.820664 181.261606,114.984216 C184.450403,115.108527 187.610806,115.656065 190.796312,115.846941 C192.41448,115.943902 194.039706,115.783195 195.659523,115.846941 C202.214787,116.104915 208.760289,116.589782 215.316866,116.811914 C253.271516,118.097791 205.928363,115.68288 229.005431,117.502094 C230.298701,117.604045 231.602366,117.423716 232.897278,117.502094 C234.914426,117.624188 236.912377,117.988143 238.929961,118.102806 C240.439955,118.188622 241.960036,117.977337 243.467254,118.102806 C250.834416,118.71609 248.923745,120.224587 251.097575,127.171002 C251.829129,129.508665 252.874542,131.740458 253.602672,134.07919 C254.192721,135.974415 254.454109,137.961892 255.046937,139.85625 C257.29715,147.046721 259.416326,153.598241 260.498079,161.168746 C261.404991,167.51565 261.934121,173.911372 262.753944,180.270111 C267.272899,215.320151 261.849847,173.271045 265.188745,193.498556 C265.307395,194.217353 265.755795,195.226741 265.188745,195.684126 C264.485736,196.251176 263.377986,195.772792 262.47915,195.684126 C261.168061,195.554792 259.872037,195.294361 258.580913,195.032289 C255.295326,194.365382 252.067696,193.395446 248.752241,192.897844 C240.859416,191.713245 232.96402,190.208206 224.985773,189.990143 C197.457029,189.23772 169.903683,189.51847 142.368697,189.990143 C135.933589,190.100376 129.573011,191.553155 123.139522,191.734764 C108.953884,192.135206 94.7530927,192.065341 80.5656544,191.734764 C78.4800244,191.686167 75.5025354,190.315375 73.3698911,190.181859 C66.8942447,189.776447 57.7371484,190.153643 51.8145542,188.200788 C51.5636964,188.118072 51.1351231,188.439541 51.0221255,188.200788 C50.7833725,187.696326 51.0221255,187.084571 51.0221255,186.526463 L43.9925167,172.940146 Z" id="Path-93" stroke="#000000" stroke-width="5"></path>
    </g>
</svg>