<?xml version="1.0" encoding="UTF-8"?>
<svg viewBox="0 0 300 300" version="1.1" xmlns="http://www.w3.org/2000/svg" xmlns:xlink="http://www.w3.org/1999/xlink">
    <!-- Generator: Sketch 56.3 (81716) - https://sketch.com -->
    <title>select</title>
    <desc>Created with Sketch.</desc>
    <g id="select" stroke="none" stroke-width="1" fill="none" fill-rule="evenodd">
        <path d="M34.9574371,206.831677 C36.2017648,168.850967 30.8798443,131.077306 30.8798443,93.0909069 C30.8798443,92.6496396 30.4494577,94.317322 30.8798443,94.4147087 L31.3187518,94.8536163 C31.8066768,94.9640227 32.3248831,94.7789016 32.8195325,94.8536163 C35.3778939,95.2400458 37.8912184,95.9077361 40.4579398,96.2340514 C46.1930739,96.9631768 51.9481665,97.5420559 57.7098385,98.0179982 C68.1471724,98.8801731 78.6241207,99.248992 89.049254,100.247932 C97.5442261,101.061923 105.954071,102.643059 114.449259,103.454789 C124.952147,104.458357 135.503943,104.865806 146.022287,105.691801 C157.770824,106.614403 169.467885,108.377163 181.248158,108.700442 C206.04182,109.380839 230.856926,108.329389 255.657147,108.700442 C257.089652,108.721875 258.504016,109.246899 259.791373,109.875581 C261.176399,110.551961 262.370323,111.575506 263.557483,112.558581 C264.477644,113.320557 265.549864,114.028218 266.09182,115.092918 C267.186899,117.244254 268.216882,119.563523 268.35007,121.973856 C268.975126,133.285606 268.587797,144.634363 268.35007,155.960875 C268.294913,158.588841 267.937369,161.210431 267.472255,163.797499 C266.873679,167.126915 266.078126,170.422928 265.164451,173.679998 C264.346574,176.595569 263.435332,179.494944 262.283235,182.295328 C261.674443,183.775111 260.623682,185.035488 259.904639,186.46495 C257.662246,190.922849 256.62783,191.599202 249.94427,191.731841 C232.398501,192.080046 214.839566,192.200434 197.2966,191.731841 C179.060403,191.24473 162.439302,188.271447 144.542743,186.415396 C135.816394,185.510387 127.041769,185.136885 118.307398,184.312887 C38.2521871,176.760509 140.318628,185.379804 98.2026003,182.663444 C96.3899583,182.546534 94.6243213,181.928562 92.8082848,181.891817 C81.8968222,181.671035 70.9793811,182.073462 60.0671969,181.891817 C0.46470452,180.899667 183.069658,181.318405 54.4180318,181.318405" id="Path-102" stroke="#000000" stroke-width="5"></path>
        <path d="M203.688561,141.706874 C204.538283,144.717058 205.055372,147.8401 206.237727,150.737426 C207.458459,153.728794 209.446678,156.35702 210.854289,159.266281 C212.642343,162.961844 213.927782,166.890297 215.816976,170.53589 C216.021517,170.930593 216.721275,171.483547 217.009705,171.14443 C218.514838,169.374795 218.834448,166.764703 220.447571,165.091544 C220.644797,164.886978 242.206152,144.931032 247.688561,142.152827" id="Path-420" stroke="#000000" stroke-width="5"></path>
    </g>
</svg>
