<?xml version="1.0" encoding="UTF-8"?>
<svg width="300px" height="300px" viewBox="0 0 300 300" version="1.1" xmlns="http://www.w3.org/2000/svg" xmlns:xlink="http://www.w3.org/1999/xlink">
    <!-- Generator: Sketch 56.3 (81716) - https://sketch.com -->
    <title>text</title>
    <desc>Created with Sketch.</desc>
    <g id="text" stroke="none" stroke-width="1" fill="none" fill-rule="evenodd">
        <path d="M27.4837926,157.299762 C36.0479339,149.882386 51.7457269,129.319018 67.6694362,138.506678 C77.1839384,143.996353 81.6854497,155.520122 89.800367,162.923527 C90.9411287,163.964267 93.011143,163.526109 94.4328928,162.923527 C95.5126479,162.465894 95.6134343,160.841502 96.5064032,160.081301 C97.0828646,159.590548 98.0116417,159.738683 98.6507165,159.332814 C110.396263,151.873362 89.3727858,162.165751 111.031091,153.21343 C113.939361,152.011315 118.713369,149.16062 122.167359,150.290286 C128.377741,152.321459 134.494745,158.788909 139.271292,160.152104 C139.874324,160.324205 140.683135,160.567855 141.152623,160.152104 C141.981183,159.418379 141.944947,158.048118 142.629367,157.178386 C145.74966,153.213249 159.975654,141.491838 165.336835,141.005005 C169.715336,140.607405 174.158174,140.506914 178.526384,141.005005 C186.577469,141.92304 185.669059,146.822548 191.948571,147.640238 C197.558689,148.370762 203.443962,149.057631 208.921013,147.640238 C210.822265,147.148218 210.698009,144.125029 211.803698,142.501978 C212.339271,141.715806 213.241143,141.234029 213.806406,140.468926 C213.940637,140.287239 213.58091,139.80466 213.806406,139.791243 C228.047747,138.943845 225.507408,141.357938 237.11064,144.8587 C244.54497,147.10168 251.989169,149.415941 259.615814,150.876937 C264.316185,151.777363 268.783371,150.786569 273.341442,151.615309 C273.540472,151.651497 273.521783,152.31384 273.341442,152.22219 C272.822857,151.958647 272.518781,151.399529 272.10745,150.988199" id="Path-283" stroke="#000000" stroke-width="5"></path>
    </g>
</svg>